<svg id="logo" xmlns="http://www.w3.org/2000/svg" viewBox="0 0 689.35 147"><defs><style>.cls-1{fill:#6da2c3;}.cls-2{fill:#70b88e;}.cls-2,.cls-3{opacity:0.95;}.cls-3{fill:#d8e297;}.cls-4{fill:#686868;}</style></defs><title>2Dsemiconductors-col</title><polygon class="cls-1" points="107.71 67.3 107.71 22.43 68.85 0 30 22.43 30 67.3 68.85 89.74 107.71 67.3"/><polygon class="cls-2" points="91.35 97.3 91.35 52.43 52.49 30 13.63 52.43 13.63 97.3 52.49 119.73 91.35 97.3"/><polygon class="cls-3" points="77.71 124.57 77.71 79.7 38.86 57.26 0 79.7 0 124.57 38.86 147 77.71 124.57"/><path class="cls-4" d="M318.93,95.62V61.56h3.56a1.53,1.53,0,0,1,1.61,1.24l.44,3.5a17.49,17.49,0,0,1,4.22-3.8A9.94,9.94,0,0,1,334.2,61a8.07,8.07,0,0,1,5.6,1.92,10.79,10.79,0,0,1,3.08,5.18,10.66,10.66,0,0,1,1.87-3.2,10.88,10.88,0,0,1,2.61-2.22,11,11,0,0,1,3.08-1.28,13.73,13.73,0,0,1,3.31-.4,12.59,12.59,0,0,1,4.79.86,9.49,9.49,0,0,1,3.56,2.5,11.18,11.18,0,0,1,2.24,4.05,18,18,0,0,1,.77,5.5V95.62h-6V73.94q0-4-1.75-6.07a6.28,6.28,0,0,0-5.08-2.07,7.62,7.62,0,0,0-2.81.52,6.77,6.77,0,0,0-2.34,1.53,7.16,7.16,0,0,0-1.6,2.54,9.84,9.84,0,0,0-.59,3.55V95.62h-6V73.94q0-4.1-1.65-6.12a5.85,5.85,0,0,0-4.81-2A7.6,7.6,0,0,0,328.4,67a13.48,13.48,0,0,0-3.48,3.24V95.62Z" transform="translate(-25.44 -8)"/><path class="cls-4" d="M439.14,60.55a17.51,17.51,0,0,1,6.74,1.24A14.23,14.23,0,0,1,451,65.33a15.64,15.64,0,0,1,3.23,5.53,23.92,23.92,0,0,1,0,14.51A15.67,15.67,0,0,1,451,90.88a14.05,14.05,0,0,1-5.11,3.51,19.13,19.13,0,0,1-13.48,0,14.19,14.19,0,0,1-5.13-3.51A15.7,15.7,0,0,1,424,85.37a23.59,23.59,0,0,1,0-14.51,15.67,15.67,0,0,1,3.26-5.53,14.38,14.38,0,0,1,5.13-3.53A17.51,17.51,0,0,1,439.14,60.55Zm0,30.4q5,0,7.53-3.38t2.49-9.43q0-6.08-2.49-9.48t-7.53-3.4a10.46,10.46,0,0,0-4.44.87,8.32,8.32,0,0,0-3.14,2.52,11.24,11.24,0,0,0-1.88,4.05,24,24,0,0,0,0,10.84,11,11,0,0,0,1.88,4,8.38,8.38,0,0,0,3.14,2.51A10.44,10.44,0,0,0,439.14,90.95Z" transform="translate(-25.44 -8)"/><path class="cls-4" d="M462.74,95.62V61.56h3.56a1.53,1.53,0,0,1,1.61,1.24l.47,3.7a19.13,19.13,0,0,1,5-4A12.89,12.89,0,0,1,479.69,61a12.3,12.3,0,0,1,4.93.92,9.53,9.53,0,0,1,3.56,2.62,11.57,11.57,0,0,1,2.17,4.09,17.75,17.75,0,0,1,.74,5.28V95.62h-6V73.94a9.17,9.17,0,0,0-1.77-6,6.6,6.6,0,0,0-5.4-2.13,10.07,10.07,0,0,0-5,1.28,16.35,16.35,0,0,0-4.25,3.46V95.62Z" transform="translate(-25.44 -8)"/><path class="cls-4" d="M524.11,95.15a1.52,1.52,0,0,1-1.61-1.24L522,89.77A17.94,17.94,0,0,1,517,94a12.79,12.79,0,0,1-6.44,1.6,12.31,12.31,0,0,1-5.31-1.13,11,11,0,0,1-4.07-3.31,15.75,15.75,0,0,1-2.59-5.45,28,28,0,0,1-.91-7.5,23.48,23.48,0,0,1,1-7,17.06,17.06,0,0,1,2.91-5.63,13.33,13.33,0,0,1,10.81-5.11,12.32,12.32,0,0,1,5.35,1.06,12.81,12.81,0,0,1,4,3V45.62h6V95.15Zm-11.6-4.37a9.64,9.64,0,0,0,5.13-1.35,14.78,14.78,0,0,0,4.05-3.8V69.16a9.47,9.47,0,0,0-3.61-3.11,10.44,10.44,0,0,0-4.35-.89,8.62,8.62,0,0,0-7.33,3.4q-2.56,3.4-2.55,9.68a24.61,24.61,0,0,0,.57,5.7,11,11,0,0,0,1.68,3.9,6.6,6.6,0,0,0,2.72,2.24A9.14,9.14,0,0,0,512.51,90.78Z" transform="translate(-25.44 -8)"/><path class="cls-4" d="M541.81,61V82.75a9,9,0,0,0,1.78,6A6.64,6.64,0,0,0,549,90.85a10.3,10.3,0,0,0,4.94-1.24,15.37,15.37,0,0,0,4.27-3.46V61h6V95.09h-3.56A1.52,1.52,0,0,1,559,93.84l-.47-3.67a18.7,18.7,0,0,1-5,4,13,13,0,0,1-6.32,1.5,12.3,12.3,0,0,1-4.93-.92,9.76,9.76,0,0,1-3.58-2.61A11,11,0,0,1,536.55,88a18.14,18.14,0,0,1-.72-5.28V61Z" transform="translate(-25.44 -8)"/><path class="cls-4" d="M657.63,70.85a15.86,15.86,0,0,0-3.23-5.53,14.32,14.32,0,0,0-5.11-3.53,19,19,0,0,0-13.49,0,16.73,16.73,0,0,0-2,1,14.1,14.1,0,0,0-3.09,2.51,15.79,15.79,0,0,0-3.27,5.53,23.66,23.66,0,0,0,0,14.51,15.83,15.83,0,0,0,3.27,5.52,14.06,14.06,0,0,0,3.09,2.5,15.35,15.35,0,0,0,2,1,19.11,19.11,0,0,0,13.49,0,14.14,14.14,0,0,0,5.11-3.51,15.91,15.91,0,0,0,3.23-5.52,24.06,24.06,0,0,0,0-14.51Zm-7.55,16.71c-1.66,2.26-4.17,3.38-7.53,3.38a10.47,10.47,0,0,1-4.44-.87A8.31,8.31,0,0,1,635,87.56a9.51,9.51,0,0,1-1.19-2,13.66,13.66,0,0,1-.69-2,21.77,21.77,0,0,1-.62-5.42,22,22,0,0,1,.62-5.43,13.8,13.8,0,0,1,.69-2,10,10,0,0,1,1.19-2,8.24,8.24,0,0,1,3.15-2.52,10.46,10.46,0,0,1,4.44-.88c3.36,0,5.87,1.14,7.53,3.4s2.49,5.43,2.49,9.48S651.74,85.31,650.08,87.56Z" transform="translate(-25.44 -8)"/><path class="cls-4" d="M683.8,61.27A10.18,10.18,0,0,0,675.21,63a15.72,15.72,0,0,0-4.32,5.57l-.4-5.32a2.29,2.29,0,0,0-.5-1.27,1.9,1.9,0,0,0-1.35-.37h-3.43V95.62h6V73.93a13.61,13.61,0,0,1,3.51-5.28,7.71,7.71,0,0,1,5.23-1.81,8.89,8.89,0,0,1,2.72.32,6.7,6.7,0,0,0,1.17.3V61.28Z" transform="translate(-25.44 -8)"/><path class="cls-4" d="M274.07,89.36a12.75,12.75,0,0,1-5.4,4.52,20.56,20.56,0,0,1-9,1.74A24.19,24.19,0,0,1,250.51,94a16.15,16.15,0,0,1-6.44-4.52,11.84,11.84,0,0,1-2.77-6.55h7.18A8.15,8.15,0,0,0,250,86.68a9.64,9.64,0,0,0,3.7,3,12.93,12.93,0,0,0,5.81,1.19q4.44,0,6.81-2.07a6.71,6.71,0,0,0,2.37-5.3A6.27,6.27,0,0,0,267,79a11.76,11.76,0,0,0-4.11-2.74,61.18,61.18,0,0,0-6.66-2.16,73,73,0,0,1-8-2.68,13.28,13.28,0,0,1-5.11-3.78A10,10,0,0,1,241.08,61a10.41,10.41,0,0,1,2-6.26,12.53,12.53,0,0,1,5.62-4.2,22.84,22.84,0,0,1,8.62-1.49q7.69,0,12.21,3.26a12.17,12.17,0,0,1,5.25,8.3h-7.25a8.39,8.39,0,0,0-3.18-4.78,11,11,0,0,0-7-2.07,10.55,10.55,0,0,0-6.51,1.84,6.13,6.13,0,0,0-2.44,5.2,5.92,5.92,0,0,0,1.59,4.29,11.05,11.05,0,0,0,4,2.58q2.37.94,6.51,2.1a72.23,72.23,0,0,1,8.1,2.71,13.38,13.38,0,0,1,5.22,3.91,10.61,10.61,0,0,1,2.15,6.94A10.94,10.94,0,0,1,274.07,89.36Z" transform="translate(-25.44 -8)"/><path class="cls-4" d="M414,64.18a14.72,14.72,0,0,1,5.27,9.3h-6a8.71,8.71,0,0,0-3.38-5.74A11.95,11.95,0,0,0,397.61,67a9.93,9.93,0,0,0-3.94,4.19,14.82,14.82,0,0,0-1.49,7,14.82,14.82,0,0,0,1.49,7,9.92,9.92,0,0,0,3.94,4.19,11.87,11.87,0,0,0,12.28-.74,8.82,8.82,0,0,0,3.38-5.77h6A14.63,14.63,0,0,1,414,92.18a16.67,16.67,0,0,1-10.79,3.44,17.52,17.52,0,0,1-8.68-2.11,14.89,14.89,0,0,1-5.92-6,19.15,19.15,0,0,1-2.14-9.27,19.33,19.33,0,0,1,2.14-9.3,14.85,14.85,0,0,1,5.92-6.08,17.53,17.53,0,0,1,8.68-2.11A16.57,16.57,0,0,1,414,64.18Z" transform="translate(-25.44 -8)"/><path class="cls-4" d="M597.6,64.18a14.72,14.72,0,0,1,5.27,9.3h-6a8.71,8.71,0,0,0-3.38-5.74A11.95,11.95,0,0,0,581.25,67a9.93,9.93,0,0,0-3.94,4.19,14.82,14.82,0,0,0-1.49,7,14.82,14.82,0,0,0,1.49,7,9.92,9.92,0,0,0,3.94,4.19,11.87,11.87,0,0,0,12.28-.74,8.82,8.82,0,0,0,3.38-5.77h6a14.63,14.63,0,0,1-5.27,9.33,16.67,16.67,0,0,1-10.79,3.44,17.52,17.52,0,0,1-8.68-2.11,14.89,14.89,0,0,1-5.92-6,19.15,19.15,0,0,1-2.14-9.27,19.33,19.33,0,0,1,2.14-9.3,14.85,14.85,0,0,1,5.92-6.08,17.53,17.53,0,0,1,8.68-2.11A16.57,16.57,0,0,1,597.6,64.18Z" transform="translate(-25.44 -8)"/><path class="cls-4" d="M713.1,80.48a9.72,9.72,0,0,0-4.09-3,46.51,46.51,0,0,0-6.29-1.82q-3.07-.71-4.83-1.31A7.54,7.54,0,0,1,695,72.59a4.19,4.19,0,0,1-1.19-3.1,5.08,5.08,0,0,1,1.76-4.06,7.29,7.29,0,0,1,4.89-1.5,8.44,8.44,0,0,1,5.91,2,8,8,0,0,1,2.58,5.15h5.56a13.07,13.07,0,0,0-4.37-8.34q-3.62-3.11-9.55-3.1-5.62,0-8.89,2.72a8.57,8.57,0,0,0-2.83,4.19,9.83,9.83,0,0,0-.42,2.93,10.28,10.28,0,0,0,.2,2.13A6.84,6.84,0,0,0,690,74.76a9.4,9.4,0,0,0,4,2.84,46.17,46.17,0,0,0,6.23,1.79,46.65,46.65,0,0,1,4.92,1.34,8,8,0,0,1,3,1.86,4.38,4.38,0,0,1,1.21,3.25,5.18,5.18,0,0,1-1.69,4A6.77,6.77,0,0,1,703,91.4a10,10,0,0,1-6.48-2,7.3,7.3,0,0,1-2.78-5.17h-5.62a12,12,0,0,0,4.66,8.37,16.47,16.47,0,0,0,10.22,3,13,13,0,0,0,8.6-2.69,8.6,8.6,0,0,0,3.22-7A8.32,8.32,0,0,0,713.1,80.48Z" transform="translate(-25.44 -8)"/><path class="cls-4" d="M380.15,61.56V95.62h-6V61.56Z" transform="translate(-25.44 -8)"/><rect class="cls-4" x="348.71" y="40.89" width="6" height="7"/><path class="cls-4" d="M310.1,66.24a16.89,16.89,0,0,0-25.64-.84c-4.6,5.22-4,11.57-3.83,13.66.5,5.47,2.6,9.77,6.26,12.77A17.09,17.09,0,0,0,297,95.61h.85A14.28,14.28,0,0,0,312.23,84.3h-5.51a9,9,0,0,1-2.57,3.83,9.87,9.87,0,0,1-7,2.18,11.66,11.66,0,0,1-6.88-2.58,12.19,12.19,0,0,1-4.13-7.5L313.29,80l.18-2.44A16.88,16.88,0,0,0,310.1,66.24Zm-24.22,8.68a10.65,10.65,0,0,1,2.56-6,11.55,11.55,0,0,1,8.51-3.7H297a11.75,11.75,0,0,1,8.88,4.27,11.06,11.06,0,0,1,2.19,5.29Z" transform="translate(-25.44 -8)"/><path class="cls-4" d="M623.92,66.81V61.19h-7.37V48.89h-5.62V61.19h-6.86v5.62h6.86V90.55a4.76,4.76,0,0,0,1.35,3.71,4.67,4.67,0,0,0,3.34,1.36h7.59V90h-6.67V66.81Z" transform="translate(-25.44 -8)"/><path class="cls-4" d="M175.1,95.62H145.88l.56-3.9a22.6,22.6,0,0,1,4.06-10.35c2.83-3.84,6.24-5.63,9.25-7.22,2.73-1.44,5.08-2.68,7-5.31a14.76,14.76,0,0,0,2.43-6,8.76,8.76,0,0,0-8.37-8.39A8.49,8.49,0,0,0,154.6,57,8.8,8.8,0,0,0,152,63.53l-6.85.2a15.76,15.76,0,0,1,4.6-11.53,15.49,15.49,0,0,1,11.18-4.56A15.67,15.67,0,0,1,176,63v.3l0,.29a21.62,21.62,0,0,1-3.65,9.16c-2.82,4-6.29,5.8-9.35,7.41-2.7,1.42-5,2.65-6.93,5.22a14,14,0,0,0-1.81,3.37H175.1Z" transform="translate(-25.44 -8)"/><path class="cls-4" d="M203.3,95.62H182.67v-48h20.62l.55.19a25.1,25.1,0,0,1,0,47.61Zm-13.77-6.86h12.55a18.23,18.23,0,0,0,0-34.29H189.53Z" transform="translate(-25.44 -8)"/><path class="cls-4" d="M161.81,112.62v1.92h-5.44v14.93h-2.28V114.53h-5.47v-1.92Z" transform="translate(-25.44 -8)"/><path class="cls-4" d="M178.59,129.46H176.3V121.8h-9.08v7.66h-2.29V112.62h2.29v7.51h9.08v-7.51h2.29Z" transform="translate(-25.44 -8)"/><path class="cls-4" d="M194.34,112.62v1.86h-8.09v5.6h6.55v1.79h-6.55v5.75h8.09v1.86H184V112.62Z" transform="translate(-25.44 -8)"/><path class="cls-4" d="M205.4,112.62h1.89a.81.81,0,0,1,.51.15.75.75,0,0,1,.27.39l3.48,11.71q.09.32.17.68t.15.76q.08-.4.16-.77a6.14,6.14,0,0,1,.19-.68l4-11.71a.86.86,0,0,1,.28-.37.76.76,0,0,1,.5-.17h.66a.78.78,0,0,1,.5.15.83.83,0,0,1,.28.39l3.94,11.71a11.49,11.49,0,0,1,.38,1.4l.13-.74a5,5,0,0,1,.15-.66l3.49-11.71a.74.74,0,0,1,.26-.38.77.77,0,0,1,.5-.16H229l-5.25,16.84h-2l-4.27-12.85a7.11,7.11,0,0,1-.23-.85l-.11.45q-.05.22-.11.39l-4.29,12.85h-2Z" transform="translate(-25.44 -8)"/><path class="cls-4" d="M247.17,120.87a9.73,9.73,0,0,1-.6,3.47,8,8,0,0,1-1.69,2.72,7.55,7.55,0,0,1-2.63,1.77,9.44,9.44,0,0,1-6.78,0,7.57,7.57,0,0,1-2.62-1.77,8,8,0,0,1-1.69-2.72,10.37,10.37,0,0,1,0-6.95,8,8,0,0,1,1.69-2.73,7.61,7.61,0,0,1,2.62-1.78,9.36,9.36,0,0,1,6.78,0,7.59,7.59,0,0,1,2.63,1.78,8,8,0,0,1,1.69,2.73A9.72,9.72,0,0,1,247.17,120.87Zm-2.34,0a8.55,8.55,0,0,0-.42-2.79,5.89,5.89,0,0,0-1.2-2.09,5.2,5.2,0,0,0-1.88-1.31,6.84,6.84,0,0,0-4.93,0,5.25,5.25,0,0,0-1.89,1.31,5.84,5.84,0,0,0-1.2,2.09,9.36,9.36,0,0,0,0,5.57,5.84,5.84,0,0,0,1.2,2.08A5.2,5.2,0,0,0,236.4,127a6.93,6.93,0,0,0,4.93,0,5.14,5.14,0,0,0,1.88-1.31,5.89,5.89,0,0,0,1.2-2.08A8.5,8.5,0,0,0,244.83,120.87Z" transform="translate(-25.44 -8)"/><path class="cls-4" d="M269,127.54h7.29v1.92H266.7V112.62H269Z" transform="translate(-25.44 -8)"/><path class="cls-4" d="M293.66,121a9.49,9.49,0,0,1-.6,3.44,7.64,7.64,0,0,1-1.69,2.66,7.55,7.55,0,0,1-2.62,1.71,9.12,9.12,0,0,1-3.39.61h-6.3V112.62h6.3a9.12,9.12,0,0,1,3.39.61,7.51,7.51,0,0,1,2.62,1.72,7.7,7.7,0,0,1,1.69,2.66A9.49,9.49,0,0,1,293.66,121Zm-2.34,0a8.46,8.46,0,0,0-.42-2.77,5.84,5.84,0,0,0-1.2-2.07,5.11,5.11,0,0,0-1.88-1.29,6.5,6.5,0,0,0-2.46-.45h-4v13.15h4a6.49,6.49,0,0,0,2.46-.45,5.15,5.15,0,0,0,1.88-1.29,5.79,5.79,0,0,0,1.2-2.06A8.46,8.46,0,0,0,291.32,121Z" transform="translate(-25.44 -8)"/><path class="cls-4" d="M309.56,127.54h7.29v1.92h-9.57V112.62h2.28Z" transform="translate(-25.44 -8)"/><path class="cls-4" d="M330.84,112.62v1.86h-8.09v5.6h6.55v1.79h-6.55v5.75h8.09v1.86H320.46V112.62Z" transform="translate(-25.44 -8)"/><path class="cls-4" d="M349.26,129.46h-1.76a.76.76,0,0,1-.49-.15.94.94,0,0,1-.28-.39l-1.58-4.07h-7.56L336,128.92a.91.91,0,0,1-.28.38.75.75,0,0,1-.49.16h-1.76l6.74-16.84h2.32Zm-11-6.25h6.29l-2.64-6.85a12.74,12.74,0,0,1-.51-1.59q-.13.48-.25.89t-.24.71Z" transform="translate(-25.44 -8)"/><path class="cls-4" d="M367.17,121a9.49,9.49,0,0,1-.6,3.44,7.64,7.64,0,0,1-1.69,2.66,7.55,7.55,0,0,1-2.62,1.71,9.12,9.12,0,0,1-3.39.61h-6.3V112.62h6.3a9.12,9.12,0,0,1,3.39.61,7.51,7.51,0,0,1,2.62,1.72,7.7,7.7,0,0,1,1.69,2.66A9.49,9.49,0,0,1,367.17,121Zm-2.34,0a8.46,8.46,0,0,0-.42-2.77,5.84,5.84,0,0,0-1.2-2.07,5.11,5.11,0,0,0-1.88-1.29,6.5,6.5,0,0,0-2.46-.45h-4v13.15h4a6.49,6.49,0,0,0,2.46-.45,5.15,5.15,0,0,0,1.88-1.29,5.79,5.79,0,0,0,1.2-2.06A8.46,8.46,0,0,0,364.83,121Z" transform="translate(-25.44 -8)"/><path class="cls-4" d="M380.93,112.62v1.86h-8.09v5.6h6.55v1.79h-6.55v5.75h8.09v1.86H370.55V112.62Z" transform="translate(-25.44 -8)"/><path class="cls-4" d="M412.15,129.46h-2.28V112.62h2.28Z" transform="translate(-25.44 -8)"/><path class="cls-4" d="M418.57,112.69a1.18,1.18,0,0,1,.34.31l9.76,12.69q0-.31,0-.59c0-.19,0-.38,0-.56V112.62h2v16.84h-1.15a1,1,0,0,1-.45-.09,1.13,1.13,0,0,1-.36-.32l-9.75-12.68c0,.2,0,.39,0,.58s0,.36,0,.52v12h-2V112.62h1.18A1,1,0,0,1,418.57,112.69Z" transform="translate(-25.44 -8)"/><path class="cls-4" d="M458.37,117.07a8.13,8.13,0,0,0-1.7-2.72,7.6,7.6,0,0,0-2.63-1.78,9.32,9.32,0,0,0-6.77,0,7.49,7.49,0,0,0-2.62,1.78,8,8,0,0,0-1.7,2.72,10.32,10.32,0,0,0,0,6.95,8,8,0,0,0,1.7,2.72,7.34,7.34,0,0,0,2.62,1.76,8.72,8.72,0,0,0,3.39.64,9.73,9.73,0,0,0,1.51-.12,9.5,9.5,0,0,0,1.39-.33l2,2.14,1.87-.93-2-2.12a7.77,7.77,0,0,0,1.48-1.31A8.07,8.07,0,0,0,458,124.8a9,9,0,0,0,.7-2,10.23,10.23,0,0,0,.24-2.26A9.79,9.79,0,0,0,458.37,117.07Zm-2.16,6.25a6,6,0,0,1-1.2,2.09,5.23,5.23,0,0,1-1.87,1.31,7,7,0,0,1-4.93,0,5.19,5.19,0,0,1-1.88-1.31,5.75,5.75,0,0,1-1.2-2.09,8.28,8.28,0,0,1-.42-2.77,8.42,8.42,0,0,1,.42-2.79,5.75,5.75,0,0,1,1.2-2.09,5.19,5.19,0,0,1,1.88-1.31,6.86,6.86,0,0,1,4.93,0,5.23,5.23,0,0,1,1.87,1.31,6,6,0,0,1,1.2,2.09,8.65,8.65,0,0,1,.42,2.79A8.51,8.51,0,0,1,456.21,123.32Z" transform="translate(-25.44 -8)"/><path class="cls-4" d="M468.92,127.45a4.7,4.7,0,0,0,1.87-.35,3.93,3.93,0,0,0,1.39-1,4.33,4.33,0,0,0,.87-1.52,6,6,0,0,0,.3-1.94V112.42h2.27v10.24a7.69,7.69,0,0,1-.46,2.7,6.28,6.28,0,0,1-1.33,2.16,6.08,6.08,0,0,1-2.11,1.43,7.82,7.82,0,0,1-5.6,0,6.13,6.13,0,0,1-2.12-1.43,6.22,6.22,0,0,1-1.33-2.16,7.67,7.67,0,0,1-.46-2.7V112.42h2.27v10.23a6,6,0,0,0,.3,1.94,4.32,4.32,0,0,0,.87,1.52,4,4,0,0,0,1.4,1A4.67,4.67,0,0,0,468.92,127.45Z" transform="translate(-25.44 -8)"/><path class="cls-4" d="M493.58,129.46h-1.76a.76.76,0,0,1-.49-.15.94.94,0,0,1-.28-.39l-1.58-4.07h-7.56l-1.58,4.07a.92.92,0,0,1-.28.38.75.75,0,0,1-.49.16h-1.76l6.74-16.84h2.32Zm-11-6.25h6.29l-2.65-6.85a12.89,12.89,0,0,1-.51-1.59q-.13.48-.25.89t-.24.71Z" transform="translate(-25.44 -8)"/><path class="cls-4" d="M498.52,112.69a1.18,1.18,0,0,1,.34.31l9.76,12.69q0-.31,0-.59c0-.19,0-.38,0-.56V112.62h2v16.84H509.4a1,1,0,0,1-.45-.09,1.13,1.13,0,0,1-.36-.32l-9.75-12.68c0,.2,0,.39,0,.58s0,.36,0,.52v12h-2V112.62h1.18A1,1,0,0,1,498.52,112.69Z" transform="translate(-25.44 -8)"/><path class="cls-4" d="M527.25,112.62v1.92h-5.44v14.93h-2.28V114.53h-5.47v-1.92Z" transform="translate(-25.44 -8)"/><path class="cls-4" d="M537.62,127.45a4.7,4.7,0,0,0,1.87-.35,3.93,3.93,0,0,0,1.39-1,4.33,4.33,0,0,0,.87-1.52,6,6,0,0,0,.3-1.94V112.42h2.27v10.24a7.69,7.69,0,0,1-.46,2.7,6.28,6.28,0,0,1-1.33,2.16,6.08,6.08,0,0,1-2.11,1.43,7.82,7.82,0,0,1-5.6,0,6.13,6.13,0,0,1-2.12-1.43,6.22,6.22,0,0,1-1.33-2.16,7.67,7.67,0,0,1-.46-2.7V112.42h2.27v10.23a6,6,0,0,0,.3,1.94,4.32,4.32,0,0,0,.87,1.52,4,4,0,0,0,1.4,1A4.67,4.67,0,0,0,537.62,127.45Z" transform="translate(-25.44 -8)"/><path class="cls-4" d="M557.1,124l.24.63c.08-.22.16-.43.25-.63s.18-.4.29-.61l5.7-10.36a.68.68,0,0,1,.32-.33,1.46,1.46,0,0,1,.47-.06H566v16.84h-2V117.08q0-.25,0-.53t0-.58l-5.77,10.53a.91.91,0,0,1-.82.53h-.33a.91.91,0,0,1-.82-.53l-5.9-10.57c0,.2,0,.4.05.6s0,.38,0,.54v12.38h-2V112.62h1.68a1.46,1.46,0,0,1,.47.06.68.68,0,0,1,.32.33l5.82,10.37A4.42,4.42,0,0,1,557.1,124Z" transform="translate(-25.44 -8)"/><path class="cls-4" d="M586.66,124l.24.63c.08-.22.16-.43.25-.63s.18-.4.29-.61l5.7-10.36a.68.68,0,0,1,.32-.33,1.46,1.46,0,0,1,.47-.06h1.68v16.84h-2V117.08q0-.25,0-.53t0-.58l-5.77,10.53a.91.91,0,0,1-.82.53h-.33a.91.91,0,0,1-.82-.53L580,115.94c0,.2,0,.4.05.6s0,.38,0,.54v12.38h-2V112.62h1.68a1.46,1.46,0,0,1,.47.06.68.68,0,0,1,.32.33l5.82,10.37A4.42,4.42,0,0,1,586.66,124Z" transform="translate(-25.44 -8)"/><path class="cls-4" d="M613.89,129.46h-1.76a.76.76,0,0,1-.49-.15.94.94,0,0,1-.28-.39l-1.58-4.07h-7.56l-1.58,4.07a.92.92,0,0,1-.28.38.75.75,0,0,1-.49.16h-1.76l6.74-16.84h2.32Zm-11-6.25h6.29l-2.65-6.85a12.89,12.89,0,0,1-.51-1.59q-.13.48-.25.89t-.24.71Z" transform="translate(-25.44 -8)"/><path class="cls-4" d="M626.73,112.62v1.92h-5.44v14.93H619V114.53h-5.47v-1.92Z" transform="translate(-25.44 -8)"/><path class="cls-4" d="M640.85,112.62v1.86h-8.09v5.6h6.55v1.79h-6.55v5.75h8.09v1.86H630.47V112.62Z" transform="translate(-25.44 -8)"/><path class="cls-4" d="M664.18,129.46H661.9V112.62h2.28Z" transform="translate(-25.44 -8)"/><path class="cls-4" d="M682.84,129.46h-1.76a.76.76,0,0,1-.49-.15.94.94,0,0,1-.28-.39l-1.58-4.07h-7.56l-1.58,4.07a.92.92,0,0,1-.28.38.75.75,0,0,1-.49.16H667l6.74-16.84h2.32Zm-11-6.25h6.29l-2.65-6.85a12.89,12.89,0,0,1-.51-1.59q-.13.48-.25.89t-.24.71Z" transform="translate(-25.44 -8)"/><path class="cls-4" d="M687.85,127.54h7.29v1.92h-9.57V112.62h2.28Z" transform="translate(-25.44 -8)"/><path class="cls-4" d="M708.07,115.06a.91.91,0,0,1-.22.26.5.5,0,0,1-.31.09.81.81,0,0,1-.46-.2,7.59,7.59,0,0,0-.67-.44,5.49,5.49,0,0,0-1-.44,4.21,4.21,0,0,0-1.38-.2,4.08,4.08,0,0,0-1.35.21,2.88,2.88,0,0,0-1,.56,2.29,2.29,0,0,0-.59.83,2.62,2.62,0,0,0-.2,1,1.9,1.9,0,0,0,.35,1.17,3,3,0,0,0,.92.79,7,7,0,0,0,1.29.57l1.48.5q.76.26,1.48.58a5.22,5.22,0,0,1,1.29.82,3.73,3.73,0,0,1,.92,1.21,4,4,0,0,1,.35,1.76,5.68,5.68,0,0,1-.38,2.07,4.77,4.77,0,0,1-1.1,1.69,5.14,5.14,0,0,1-1.77,1.13,6.54,6.54,0,0,1-2.39.41,7.3,7.3,0,0,1-3-.59,7,7,0,0,1-2.3-1.6l.66-1.08A.88.88,0,0,1,699,126a.54.54,0,0,1,.3-.09.94.94,0,0,1,.56.26,9.38,9.38,0,0,0,.79.58,6,6,0,0,0,1.15.58,4.55,4.55,0,0,0,1.65.26,4.34,4.34,0,0,0,1.45-.22,3.07,3.07,0,0,0,1.07-.63,2.73,2.73,0,0,0,.68-1,3.24,3.24,0,0,0,.23-1.26,2.12,2.12,0,0,0-.35-1.25,2.89,2.89,0,0,0-.91-.82,6.43,6.43,0,0,0-1.29-.56l-1.48-.47a15,15,0,0,1-1.48-.56,4.81,4.81,0,0,1-1.29-.82,3.79,3.79,0,0,1-.91-1.26,4.61,4.61,0,0,1,1-5.08,4.88,4.88,0,0,1,1.63-1,6,6,0,0,1,2.23-.39,7.13,7.13,0,0,1,2.57.45,5.93,5.93,0,0,1,2,1.29Z" transform="translate(-25.44 -8)"/><path class="cls-4" d="M260.52,129.46l-5.15-7h-2.77v7H250V112.24h6.5a7.71,7.71,0,0,1,5,1.4,4.61,4.61,0,0,1,1.68,3.72,4.46,4.46,0,0,1-1.34,3.38,6.67,6.67,0,0,1-3.89,1.6l5.38,7.11Zm-7.92-8.65h3.72q4.34,0,4.34-3.32t-4.34-3.32h-3.72Z" transform="translate(-25.44 -8)"/><path class="cls-4" d="M394.52,129.46l-5.15-7h-2.77v7H384V112.24h6.5a7.71,7.71,0,0,1,5,1.4,4.61,4.61,0,0,1,1.68,3.72,4.46,4.46,0,0,1-1.34,3.38,6.67,6.67,0,0,1-3.89,1.6l5.38,7.11Zm-7.92-8.65h3.72q4.34,0,4.34-3.32t-4.34-3.32h-3.72Z" transform="translate(-25.44 -8)"/><path class="cls-4" d="M655.52,129.46l-5.15-7h-2.77v7H645V112.24h6.5a7.71,7.71,0,0,1,5,1.4,4.61,4.61,0,0,1,1.68,3.72,4.46,4.46,0,0,1-1.34,3.38,6.67,6.67,0,0,1-3.89,1.6l5.38,7.11Zm-7.92-8.65h3.72q4.34,0,4.34-3.32t-4.34-3.32h-3.72Z" transform="translate(-25.44 -8)"/></svg>