<svg id="logo" xmlns="http://www.w3.org/2000/svg" xmlns:xlink="http://www.w3.org/1999/xlink" viewBox="0 0 365.82 150"><defs><style>.cls-1{fill:url(#linear-gradient);}.cls-2{fill:url(#linear-gradient-2);}.cls-3{fill:url(#linear-gradient-3);}.cls-4{fill:url(#linear-gradient-4);}.cls-5{fill:#60a4eb;}.cls-6{fill:url(#linear-gradient-5);}.cls-7{fill:#f8f7a3;}.cls-8{fill:url(#radial-gradient);}.cls-9{fill:#8c8c8c;}</style><linearGradient id="linear-gradient" x1="256.11" y1="286.14" x2="335.02" y2="223.28" gradientUnits="userSpaceOnUse"><stop offset="0" stop-color="#3693d6"/><stop offset="1" stop-color="#302ea8"/></linearGradient><linearGradient id="linear-gradient-2" x1="88.83" y1="295.76" x2="160.72" y2="223.87" xlink:href="#linear-gradient"/><linearGradient id="linear-gradient-3" x1="159.31" y1="284.94" x2="238.22" y2="214.5" xlink:href="#linear-gradient"/><linearGradient id="linear-gradient-4" x1="331.36" y1="278.61" x2="381.7" y2="226.41" gradientUnits="userSpaceOnUse"><stop offset="0" stop-color="#3693d6"/><stop offset="0.3" stop-color="#3581ce"/><stop offset="1" stop-color="#302ea8"/></linearGradient><linearGradient id="linear-gradient-5" x1="284.43" y1="268.23" x2="330.12" y2="268.23" gradientUnits="userSpaceOnUse"><stop offset="0" stop-color="#faac4d"/><stop offset="0.52" stop-color="#e6cd10"/><stop offset="0.66" stop-color="#ecc323"/><stop offset="0.95" stop-color="#fca854"/><stop offset="1" stop-color="#ffa45c"/></linearGradient><radialGradient id="radial-gradient" cx="873.29" cy="-686.64" fx="862.3440441094456" r="243.51" gradientTransform="translate(-83.68 401.58) scale(0.47 0.33)" gradientUnits="userSpaceOnUse"><stop offset="0.52" stop-color="#e6cd10"/><stop offset="0.66" stop-color="#e6cd10" stop-opacity="0.99"/><stop offset="0.73" stop-color="#e6cd10" stop-opacity="0.96"/><stop offset="0.78" stop-color="#e6cd10" stop-opacity="0.9"/><stop offset="0.83" stop-color="#e6cd10" stop-opacity="0.82"/><stop offset="0.87" stop-color="#e6cd10" stop-opacity="0.71"/><stop offset="0.91" stop-color="#e6cd10" stop-opacity="0.58"/><stop offset="0.94" stop-color="#e6cd10" stop-opacity="0.43"/><stop offset="0.97" stop-color="#e6cd10" stop-opacity="0.3"/></radialGradient></defs><title>Apex-1-col</title><path class="cls-1" d="M265,247.27l35.88-.19V232.56H260.58a37.47,37.47,0,0,0-22.74,15.16,36.83,36.83,0,0,0-6.25,21.18c0,.19,0,.39,0,.61a36.42,36.42,0,0,0,29,35.95h40.34V290.84L265,290.65c-.87-.08-10.59-1.24-15.6-10.32a19.52,19.52,0,0,1-2-5.2h42.31V261.76H247.7a19.37,19.37,0,0,1,1.74-4.24C254.45,248.51,264.17,247.36,265,247.27Z" transform="translate(-67.09 -175)"/><path class="cls-2" d="M96.08,232.56h0a37.47,37.47,0,0,0-22.7,15.15,36.81,36.81,0,0,0-6.24,21.4c.06,1.05,1.53,21.85,20.06,31.65a38.12,38.12,0,0,0,39.68-2.67v7.58h16.49V232.56Zm31.2,39.68a22.17,22.17,0,0,1-42.8,4c-.38-.77-4.59-9.67.45-18.72s14.74-10.17,15.6-10.25h26.75Z" transform="translate(-67.09 -175)"/><path class="cls-3" d="M220.9,247.72a37.47,37.47,0,0,0-22.74-15.16H150.91v86.71H167.4V298.09a38.11,38.11,0,0,0,39.68,2.67c18.53-9.8,20-30.6,20.06-31.65A36.84,36.84,0,0,0,220.9,247.72Zm-11.15,28.53a22.17,22.17,0,0,1-42.8-4v-25H193.7c.87.08,10.59,1.23,15.6,10.25S210.13,275.48,209.75,276.25Z" transform="translate(-67.09 -175)"/><path class="cls-4" d="M367.35,247.27h6.24V232.56h-10.7a37.59,37.59,0,0,0-22.07,14.22,37.59,37.59,0,0,0-22.07-14.22H308v14.71h6.24c.87.08,10.59,1.23,15.6,10.25s.82,18,.45,18.72A22.37,22.37,0,0,1,308,291V305a37.53,37.53,0,0,0,19.62-4.28,35.76,35.76,0,0,0,13.16-11.93A35.76,35.76,0,0,0,354,300.77,37.53,37.53,0,0,0,373.59,305V291a22.37,22.37,0,0,1-22.29-14.71c-.38-.77-4.59-9.67.45-18.72S366.48,247.36,367.35,247.27Z" transform="translate(-67.09 -175)"/><rect class="cls-5" x="213.55" y="84.09" width="1.34" height="19.17"/><rect class="cls-5" x="216.22" y="84.09" width="1.34" height="19.17"/><path class="cls-6" d="M310.16,249.12a20.67,20.67,0,0,0-2.55.16l-23.18,9.81v19.17l23.18,8.92a20.67,20.67,0,0,0,2.55.16c11,0,20-9,20-19.11S321.15,249.12,310.16,249.12Zm-24.84,10.56,12.42-5.26,10.11-4.28a19.3,19.3,0,0,1,15.8,5.36,17.25,17.25,0,0,1,0,25.43,19.27,19.27,0,0,1-13.48,5.5,20.51,20.51,0,0,1-2.33-.14l-22.51-8.66Z" transform="translate(-67.09 -175)"/><path class="cls-7" d="M329.23,268.23a17.93,17.93,0,0,1-5.59,12.71,19.27,19.27,0,0,1-13.48,5.5,20.51,20.51,0,0,1-2.33-.14l-22.51-8.66v-18l12.42-5.26,10.11-4.28a19.3,19.3,0,0,1,15.8,5.36A17.93,17.93,0,0,1,329.23,268.23Z" transform="translate(-67.09 -175)"/><path class="cls-5" d="M287.32,260.65V275.8l9.14,3.79v-4.46l-5.13-1.56V258.86Z" transform="translate(-67.09 -175)"/><path class="cls-5" d="M298.25,256.41V280a47.77,47.77,0,0,0,9.81,3.57v-6.69l-5.57-.67v-4.9h4.9v-5.8h-4.9v-4.9l5.8-.89v-6.69c-1.85.51-3.79,1.1-5.8,1.78Q300.27,255.61,298.25,256.41Z" transform="translate(-67.09 -175)"/><path class="cls-5" d="M327.45,266.89a16.17,16.17,0,0,0-12-13.82,14.41,14.41,0,0,0-5.57-.22v31.21a13.77,13.77,0,0,0,5.13-.22C321.35,282.3,328.25,275.53,327.45,266.89Zm-9.81,9.36a6.65,6.65,0,0,1-2.67.45V260.2a6.41,6.41,0,0,1,3.57.45c3.75,1.7,4,6.72,4,7.13C322.66,271.15,320.85,275,317.64,276.25Z" transform="translate(-67.09 -175)"/><path class="cls-8" d="M231.38,258.64a31.88,31.88,0,0,1-7.32-8,19.79,19.79,0,0,1-3.13-10.92,19,19,0,0,1,1.2-5.84,25.84,25.84,0,0,1,1.19-2.68l.68-1.29c.23-.43.5-.82.76-1.23l.78-1.22c.26-.41.57-.76.85-1.15l.87-1.13.44-.57.47-.53L230,222c.65-.67,1.32-1.32,2-2a100.1,100.1,0,0,1,17.66-13.24l1.16-.73,1.18-.69,2.37-1.35,2.38-1.35c.79-.45,1.6-.86,2.4-1.29,3.22-1.69,6.46-3.33,9.77-4.84s6.63-3,10-4.34,6.77-2.63,10.19-3.85C296,185.9,302.92,183.81,310,182s14.19-3.28,21.39-4.46a214.34,214.34,0,0,1,21.84-2.33,165.56,165.56,0,0,1,22.17.36c3.71.35,7.43.85,11.13,1.53a91.7,91.7,0,0,1,11.06,2.7,78.23,78.23,0,0,1,10.78,4.26,56.35,56.35,0,0,1,10.07,6.26c.4.29.78.63,1.17.95s.78.63,1.15,1c.74.68,1.5,1.35,2.2,2.08a44.21,44.21,0,0,1,4,4.59,36.11,36.11,0,0,1,3.35,5.33,24.6,24.6,0,0,1,2.26,6.4,19.56,19.56,0,0,1,.37,3.59c0,.6,0,1.19-.06,1.78s-.13,1.17-.22,1.75a23,23,0,0,1-2.15,6.44,33.22,33.22,0,0,1-7.61,9.62c-5.82,5.21-12.32,8.83-18.9,12a157,157,0,0,1-20.25,7.71,178.12,178.12,0,0,1-20.84,5.14c6.61-2.7,13.11-5.55,19.48-8.61,3.18-1.55,6.33-3.11,9.41-4.79s6.13-3.39,9.06-5.23a102,102,0,0,0,8.48-5.83,58.22,58.22,0,0,0,7.38-6.63,25.59,25.59,0,0,0,5-7.44,12.93,12.93,0,0,0,.91-3.73c0-.3,0-.6,0-.9s0-.6,0-.89a9.15,9.15,0,0,0-.31-1.69,19.21,19.21,0,0,0-4.13-7,36.77,36.77,0,0,0-6.79-6.13,49.86,49.86,0,0,0-8.23-4.59A65.83,65.83,0,0,0,394,192a101.78,101.78,0,0,0-19.69-3.23,157.14,157.14,0,0,0-20.41-.17c-6.85.31-13.7,1-20.54,2q-5.13.72-10.24,1.66c-3.4.63-6.79,1.34-10.18,2.07A288.11,288.11,0,0,0,273,206.19c-3.24,1.25-6.47,2.53-9.66,3.9-.79.35-1.6.68-2.38,1l-2.36,1.09-2.36,1.09-1.18.54-1.15.58c-1.53.78-3.1,1.54-4.62,2.35l-4.5,2.52-2.18,1.34-1.09.67c-.37.22-.73.45-1.08.69l-2.1,1.45-1,.73-1,.77c-.66.52-1.34,1-2,1.55l-1.88,1.66-.47.42-.43.44-.87.89c-.28.3-.6.58-.86.9l-.79.93c-.26.32-.55.62-.78.94l-.7,1a21.19,21.19,0,0,0-1.28,2,16.07,16.07,0,0,0-1.61,4.39,15.47,15.47,0,0,0-.07,4.79,19.88,19.88,0,0,0,1.31,4.85A34.79,34.79,0,0,0,231.38,258.64Z" transform="translate(-67.09 -175)"/><path class="cls-9" d="M186.48,312.92v11.95h-1.21v-10l-4.14,10H180l-4.16-10v10h-1.23V312.92h1.44l4.5,10.44,4.47-10.44Z" transform="translate(-67.09 -175)"/><path class="cls-9" d="M195.48,321.88h-5.56l-1.11,3h-1.3l4.5-11.93h1.37l4.5,11.93h-1.32Zm-.36-1-2.41-6.58-2.44,6.58Z" transform="translate(-67.09 -175)"/><path class="cls-9" d="M206.33,324.86,203,319.77h-2v5.09h-1.23V312.66h3.74a4.3,4.3,0,0,1,3.07,1,3.45,3.45,0,0,1,1,2.61,3.37,3.37,0,0,1-.86,2.42,3.86,3.86,0,0,1-2.48,1.07l3.45,5.12Zm-5.32-6h2.42q2.94,0,2.94-2.55t-2.94-2.6H201Z" transform="translate(-67.09 -175)"/><path class="cls-9" d="M210.17,312.66v12.21h-1.23V312.66Z" transform="translate(-67.09 -175)"/><path class="cls-9" d="M222.14,324.86h-1.23l-6.68-10.2v10.2H213V312.67h1.23l6.68,10.21V312.67h1.23Z" transform="translate(-67.09 -175)"/><path class="cls-9" d="M225.31,313.64v4.61h4.76v1h-4.76v4.66h5.28v1h-6.51V312.66h6.51v1Z" transform="translate(-67.09 -175)"/><path class="cls-9" d="M245.75,324.86l-3-3.31a1.32,1.32,0,0,1,0,.24,3.43,3.43,0,0,1-.05.55,2.87,2.87,0,0,1-1,1.9,3.08,3.08,0,0,1-2.09.74,3.83,3.83,0,0,1-1.84-.44,3.21,3.21,0,0,1-1.29-1.26,3.72,3.72,0,0,1-.47-1.89,3.88,3.88,0,0,1,.42-1.85,2.85,2.85,0,0,1,1.13-1.18,3.13,3.13,0,0,1,1.56-.4,2.77,2.77,0,0,1,.68.09l-.35-.4a5.68,5.68,0,0,1-.83-1.17,2.86,2.86,0,0,1-.28-1.31,2.56,2.56,0,0,1,1.37-2.28,3.33,3.33,0,0,1,1.63-.37,2.82,2.82,0,0,1,3.12,2.68,3.07,3.07,0,0,1,.05.87h-1.16a1.65,1.65,0,0,0,0-.26,1.16,1.16,0,0,0,0-.24,2,2,0,0,0-.53-1.49,2,2,0,0,0-1.46-.54,1.8,1.8,0,0,0-1.36.51,1.7,1.7,0,0,0-.49,1.22,2.17,2.17,0,0,0,.23,1,5.31,5.31,0,0,0,.69,1l6.61,7.58Zm-4.41-1.6a2.31,2.31,0,0,0,.67-1.71,2.46,2.46,0,0,0-.38-1.33,2.69,2.69,0,0,0-1-.94,2.61,2.61,0,0,0-1.27-.34,2.21,2.21,0,0,0-1.62.62,2.42,2.42,0,0,0-.63,1.8,2.46,2.46,0,0,0,.73,1.87,2.49,2.49,0,0,0,1.78.69A2.33,2.33,0,0,0,241.34,323.26Z" transform="translate(-67.09 -175)"/><path class="cls-9" d="M260.17,313.31a5.65,5.65,0,0,1,2.12,2.22,7.13,7.13,0,0,1,0,6.45,5.63,5.63,0,0,1-2.12,2.22,6.23,6.23,0,0,1-6.09,0A5.62,5.62,0,0,1,252,322a7.13,7.13,0,0,1,0-6.45,5.64,5.64,0,0,1,2.12-2.22,6.23,6.23,0,0,1,6.09,0Zm-5.45,1A4.4,4.4,0,0,0,253,316a6.24,6.24,0,0,0,0,5.4,4.39,4.39,0,0,0,1.68,1.78,4.92,4.92,0,0,0,4.8,0,4.39,4.39,0,0,0,1.68-1.78,6.24,6.24,0,0,0,0-5.4,4.39,4.39,0,0,0-1.68-1.78,4.92,4.92,0,0,0-4.8,0Z" transform="translate(-67.09 -175)"/><path class="cls-9" d="M266.62,312.66V320a4.1,4.1,0,0,0,.86,2.87,3.05,3.05,0,0,0,2.35.92,3,3,0,0,0,2.33-.92A4.16,4.16,0,0,0,273,320v-7.39h1.21V320a5.13,5.13,0,0,1-1.19,3.71,4.79,4.79,0,0,1-6.41,0,5.13,5.13,0,0,1-1.19-3.71v-7.39Z" transform="translate(-67.09 -175)"/><path class="cls-9" d="M284.11,312.66v1h-3.48v11.22h-1.21V313.64H276v-1Z" transform="translate(-67.09 -175)"/><path class="cls-9" d="M294.41,322a5,5,0,0,1-2.19,2.11,7.61,7.61,0,0,1-3.49.74H285V312.66h3.69a6.55,6.55,0,0,1,4.75,1.62,5.94,5.94,0,0,1,1.67,4.48A6.76,6.76,0,0,1,294.41,322Zm-1.84.43a5.73,5.73,0,0,0,0-7.39,5.39,5.39,0,0,0-3.93-1.32h-2.37v10h2.37A5.39,5.39,0,0,0,292.58,322.45Z" transform="translate(-67.09 -175)"/><path class="cls-9" d="M305.27,313.31a5.64,5.64,0,0,1,2.12,2.22,7.13,7.13,0,0,1,0,6.45,5.62,5.62,0,0,1-2.12,2.22,6.23,6.23,0,0,1-6.09,0,5.62,5.62,0,0,1-2.12-2.22,7.13,7.13,0,0,1,0-6.45,5.64,5.64,0,0,1,2.12-2.22,6.23,6.23,0,0,1,6.09,0Zm-5.45,1a4.4,4.4,0,0,0-1.68,1.78,6.24,6.24,0,0,0,0,5.4,4.4,4.4,0,0,0,1.68,1.78,4.92,4.92,0,0,0,4.8,0,4.4,4.4,0,0,0,1.68-1.78,6.24,6.24,0,0,0,0-5.4,4.4,4.4,0,0,0-1.68-1.78,4.92,4.92,0,0,0-4.8,0Z" transform="translate(-67.09 -175)"/><path class="cls-9" d="M318.27,313.31a5.64,5.64,0,0,1,2.12,2.22,7.13,7.13,0,0,1,0,6.45,5.62,5.62,0,0,1-2.12,2.22,6.23,6.23,0,0,1-6.09,0,5.62,5.62,0,0,1-2.12-2.22,7.13,7.13,0,0,1,0-6.45,5.64,5.64,0,0,1,2.12-2.22,6.23,6.23,0,0,1,6.09,0Zm-5.45,1a4.4,4.4,0,0,0-1.68,1.78,6.24,6.24,0,0,0,0,5.4,4.4,4.4,0,0,0,1.68,1.78,4.92,4.92,0,0,0,4.8,0,4.4,4.4,0,0,0,1.68-1.78,6.24,6.24,0,0,0,0-5.4,4.4,4.4,0,0,0-1.68-1.78,4.92,4.92,0,0,0-4.8,0Z" transform="translate(-67.09 -175)"/><path class="cls-9" d="M330.12,324.86l-3.34-5.09h-2v5.09h-1.23V312.66h3.74a4.3,4.3,0,0,1,3.07,1,3.45,3.45,0,0,1,1,2.61,3.37,3.37,0,0,1-.86,2.42,3.86,3.86,0,0,1-2.48,1.07l3.45,5.12Zm-5.32-6h2.42q2.94,0,2.94-2.55t-2.94-2.6h-2.42Z" transform="translate(-67.09 -175)"/><path class="cls-9" d="M337.77,323.89h4.43v1h-5.66V312.66h1.23Z" transform="translate(-67.09 -175)"/><path class="cls-9" d="M345.3,312.66v12.21h-1.23V312.66Z" transform="translate(-67.09 -175)"/><path class="cls-9" d="M356.25,313.59a5.24,5.24,0,0,1,2,2.82H357a4.15,4.15,0,0,0-1.58-2,4.57,4.57,0,0,0-2.64-.76,4.62,4.62,0,0,0-2.38.62,4.34,4.34,0,0,0-1.67,1.78,6.36,6.36,0,0,0,0,5.44,4.36,4.36,0,0,0,1.7,1.78,4.85,4.85,0,0,0,2.47.62,4.7,4.7,0,0,0,2.25-.55,4.27,4.27,0,0,0,1.65-1.58,5.4,5.4,0,0,0,.74-2.44h-5.07v-.92h6.13v1.07a6.29,6.29,0,0,1-.87,2.8,5.47,5.47,0,0,1-2,2,5.8,5.8,0,0,1-2.9.72,6,6,0,0,1-3.08-.79,5.4,5.4,0,0,1-2.09-2.21,7.33,7.33,0,0,1,0-6.44,5.42,5.42,0,0,1,2.09-2.21,6,6,0,0,1,3.07-.79A5.84,5.84,0,0,1,356.25,313.59Z" transform="translate(-67.09 -175)"/><path class="cls-9" d="M370,312.66v12.21h-1.21v-5.78H362.2v5.78H361V312.66h1.23v5.42h6.61v-5.42Z" transform="translate(-67.09 -175)"/><path class="cls-9" d="M379.13,312.66v1h-3.48v11.22h-1.21V313.64H371v-1Z" transform="translate(-67.09 -175)"/><path class="cls-9" d="M381.3,312.66v12.21h-1.23V312.66Z" transform="translate(-67.09 -175)"/><path class="cls-9" d="M393.27,324.86H392l-6.68-10.2v10.2h-1.23V312.67h1.23L392,322.89V312.67h1.23Z" transform="translate(-67.09 -175)"/><path class="cls-9" d="M404.23,313.59a5.24,5.24,0,0,1,2,2.82h-1.26a4.15,4.15,0,0,0-1.58-2,4.57,4.57,0,0,0-2.64-.76,4.62,4.62,0,0,0-2.38.62,4.34,4.34,0,0,0-1.67,1.78,6.36,6.36,0,0,0,0,5.44,4.36,4.36,0,0,0,1.7,1.78,4.85,4.85,0,0,0,2.47.62,4.7,4.7,0,0,0,2.25-.55,4.27,4.27,0,0,0,1.65-1.58,5.4,5.4,0,0,0,.74-2.44H400.4v-.92h6.13v1.07a6.29,6.29,0,0,1-.87,2.8,5.47,5.47,0,0,1-2,2,5.8,5.8,0,0,1-2.9.72,6,6,0,0,1-3.08-.79,5.4,5.4,0,0,1-2.09-2.21,7.33,7.33,0,0,1,0-6.44,5.42,5.42,0,0,1,2.09-2.21,6,6,0,0,1,3.07-.79A5.84,5.84,0,0,1,404.23,313.59Z" transform="translate(-67.09 -175)"/><path class="cls-9" d="M97,209.36a5,5,0,0,1,1.89,2,6.24,6.24,0,0,1,0,5.7A5,5,0,0,1,97,219a5.23,5.23,0,0,1-2.7.7,5.31,5.31,0,0,1-2.71-.7,5,5,0,0,1-1.9-2,6.24,6.24,0,0,1,0-5.7,5,5,0,0,1,1.9-2,5.31,5.31,0,0,1,2.71-.7A5.23,5.23,0,0,1,97,209.36Zm-4.69,1.11A3.55,3.55,0,0,0,91,211.94a5.27,5.27,0,0,0,0,4.47,3.53,3.53,0,0,0,1.37,1.47,3.88,3.88,0,0,0,2,.51,3.81,3.81,0,0,0,2-.52,3.6,3.6,0,0,0,1.37-1.47,5.26,5.26,0,0,0,0-4.46,3.55,3.55,0,0,0-1.37-1.47,4.11,4.11,0,0,0-4,0Z" transform="translate(-67.09 -175)"/><path class="cls-9" d="M107.94,212a3.76,3.76,0,0,1,.9,2.71v4.87h-1.39v-4.75a2.68,2.68,0,0,0-.64-1.92,2.29,2.29,0,0,0-1.74-.67,2.38,2.38,0,0,0-1.83.74,3.07,3.07,0,0,0-.69,2.16v4.44h-1.39v-8.38h1.39v2a2.85,2.85,0,0,1,1.14-1.57,3.3,3.3,0,0,1,1.89-.55A3.13,3.13,0,0,1,107.94,212Z" transform="translate(-67.09 -175)"/><path class="cls-9" d="M112.07,208.26v11.3h-1.39v-11.3Z" transform="translate(-67.09 -175)"/><path class="cls-9" d="M114,208.1a1.12,1.12,0,0,1,1.37,0,.87.87,0,0,1,0,1.24,1.12,1.12,0,0,1-1.37,0,.87.87,0,0,1,0-1.24Zm1.37,3.08v8.38H114v-8.38Z" transform="translate(-67.09 -175)"/><path class="cls-9" d="M124.08,212a3.76,3.76,0,0,1,.9,2.71v4.87h-1.39v-4.75a2.68,2.68,0,0,0-.64-1.92,2.29,2.29,0,0,0-1.74-.67,2.38,2.38,0,0,0-1.83.74,3.07,3.07,0,0,0-.69,2.16v4.44H117.3v-8.38h1.39v2a2.85,2.85,0,0,1,1.14-1.57,3.3,3.3,0,0,1,1.89-.55A3.13,3.13,0,0,1,124.08,212Z" transform="translate(-67.09 -175)"/><path class="cls-9" d="M134.47,215.67h-6.7a2.94,2.94,0,0,0,.82,2.15,2.66,2.66,0,0,0,1.89.72,2.72,2.72,0,0,0,1.69-.51,2.12,2.12,0,0,0,.83-1.37h1.48a3.5,3.5,0,0,1-2,2.63,4.53,4.53,0,0,1-1.89.38,4.32,4.32,0,0,1-2.14-.52,3.67,3.67,0,0,1-1.46-1.49,5.23,5.23,0,0,1,0-4.57,3.66,3.66,0,0,1,1.46-1.5,4.32,4.32,0,0,1,2.14-.52,4.22,4.22,0,0,1,2.13.52A3.58,3.58,0,0,1,134,213a3.91,3.91,0,0,1,.48,1.92A4.16,4.16,0,0,1,134.47,215.67Zm-1.65-2.23a2.23,2.23,0,0,0-1-.93,2.93,2.93,0,0,0-1.33-.31,2.75,2.75,0,0,0-1.92.71,2.86,2.86,0,0,0-.84,2.08h5.36A2.85,2.85,0,0,0,132.82,213.44Z" transform="translate(-67.09 -175)"/><path class="cls-9" d="M145.95,218.19a2.76,2.76,0,0,1-1.11,1.07,3.78,3.78,0,0,1-1.85.41,4.44,4.44,0,0,1-1.9-.39,3.38,3.38,0,0,1-1.33-1.07,3,3,0,0,1-.57-1.55h1.48a2.1,2.1,0,0,0,1.08,1.61,2.38,2.38,0,0,0,1.2.28,1.9,1.9,0,0,0,1.4-.49,1.7,1.7,0,0,0,.49-1.25,1.61,1.61,0,0,0-.34-1.07,2.44,2.44,0,0,0-.85-.65,11.55,11.55,0,0,0-1.37-.51,13.87,13.87,0,0,1-1.64-.63,2.8,2.8,0,0,1-1.05-.89,2.61,2.61,0,0,1-.44-1.57,2.72,2.72,0,0,1,.4-1.48,2.65,2.65,0,0,1,1.16-1,4.19,4.19,0,0,1,1.78-.35,3.83,3.83,0,0,1,2.52.77,3,3,0,0,1,1.08,2h-1.5a2,2,0,0,0-.66-1.13,2.07,2.07,0,0,0-1.45-.49,2,2,0,0,0-1.34.43,1.54,1.54,0,0,0-.5,1.23,1.52,1.52,0,0,0,.33,1,2.28,2.28,0,0,0,.82.61,13,13,0,0,0,1.34.5,13.72,13.72,0,0,1,1.67.64,2.83,2.83,0,0,1,1.08.92,2.76,2.76,0,0,1,.44,1.64A2.87,2.87,0,0,1,145.95,218.19Z" transform="translate(-67.09 -175)"/><path class="cls-9" d="M147.89,208.1a1.12,1.12,0,0,1,1.37,0,.87.87,0,0,1,0,1.24,1.12,1.12,0,0,1-1.37,0,.87.87,0,0,1,0-1.24Zm1.37,3.08v8.38h-1.39v-8.38Z" transform="translate(-67.09 -175)"/><path class="cls-9" d="M158,212a3.76,3.76,0,0,1,.9,2.71v4.87h-1.39v-4.75a2.68,2.68,0,0,0-.64-1.92,2.29,2.29,0,0,0-1.74-.67,2.38,2.38,0,0,0-1.83.74,3.07,3.07,0,0,0-.69,2.16v4.44h-1.39v-8.38h1.39v2a2.85,2.85,0,0,1,1.14-1.57,3.3,3.3,0,0,1,1.89-.55A3.13,3.13,0,0,1,158,212Z" transform="translate(-67.09 -175)"/><path class="cls-9" d="M167.07,211.93a3.62,3.62,0,0,1,1.3,2.29H166.9a2.14,2.14,0,0,0-.83-1.41,2.94,2.94,0,0,0-3-.18,2.44,2.44,0,0,0-1,1,4.21,4.21,0,0,0,0,3.44,2.44,2.44,0,0,0,1,1,2.92,2.92,0,0,0,3-.18,2.17,2.17,0,0,0,.83-1.42h1.47a3.6,3.6,0,0,1-1.3,2.3,4.1,4.1,0,0,1-2.66.85,4.32,4.32,0,0,1-2.14-.52,3.67,3.67,0,0,1-1.46-1.49,5.23,5.23,0,0,1,0-4.57,3.66,3.66,0,0,1,1.46-1.5,4.32,4.32,0,0,1,2.14-.52A4.08,4.08,0,0,1,167.07,211.93Z" transform="translate(-67.09 -175)"/><path class="cls-9" d="M177.53,215.67h-6.7a2.94,2.94,0,0,0,.82,2.15,2.66,2.66,0,0,0,1.89.72,2.72,2.72,0,0,0,1.69-.51,2.12,2.12,0,0,0,.83-1.37h1.48a3.5,3.5,0,0,1-2,2.63,4.53,4.53,0,0,1-1.89.38,4.32,4.32,0,0,1-2.14-.52,3.67,3.67,0,0,1-1.46-1.49,5.23,5.23,0,0,1,0-4.57,3.66,3.66,0,0,1,1.46-1.5,4.32,4.32,0,0,1,2.14-.52,4.22,4.22,0,0,1,2.13.52,3.58,3.58,0,0,1,1.39,1.39,3.91,3.91,0,0,1,.48,1.92A4.16,4.16,0,0,1,177.53,215.67Zm-1.65-2.23a2.23,2.23,0,0,0-1-.93,2.93,2.93,0,0,0-1.33-.31,2.75,2.75,0,0,0-1.92.71,2.86,2.86,0,0,0-.84,2.08h5.36A2.85,2.85,0,0,0,175.88,213.44Z" transform="translate(-67.09 -175)"/><path class="cls-9" d="M186.25,215a5,5,0,0,0,1.56-3.2,2.22,2.22,0,0,0-.47-1.47,1.86,1.86,0,0,0-1.5-.56,2,2,0,0,0-1.62.68,3.16,3.16,0,0,0-.61,1.87h-1.37a4,4,0,0,1,1.11-2.77,3.59,3.59,0,0,1,2.6-1,3.42,3.42,0,0,1,2.4.81,3,3,0,0,1,.89,2.29,4.67,4.67,0,0,1-.79,2.48,11.13,11.13,0,0,1-2,2.34,15.25,15.25,0,0,1-2.44,1.82h5.47v1.15h-7.41v-1A22.54,22.54,0,0,0,186.25,215Z" transform="translate(-67.09 -175)"/><path class="cls-9" d="M190.68,214.11a7.92,7.92,0,0,1,.86-4,3.76,3.76,0,0,1,5.93,0,9.85,9.85,0,0,1,0,8.06,3.76,3.76,0,0,1-5.93,0A8,8,0,0,1,190.68,214.11Zm6.28,0a10.67,10.67,0,0,0-.19-2.2,2.74,2.74,0,0,0-.73-1.41,2.11,2.11,0,0,0-1.54-.53,2.08,2.08,0,0,0-1.53.53,2.73,2.73,0,0,0-.73,1.41,10.66,10.66,0,0,0-.19,2.2,10.86,10.86,0,0,0,.19,2.22,2.79,2.79,0,0,0,.73,1.43,2.07,2.07,0,0,0,1.53.53,2.09,2.09,0,0,0,1.54-.53,2.79,2.79,0,0,0,.73-1.43A10.88,10.88,0,0,0,197,214.11Z" transform="translate(-67.09 -175)"/><path class="cls-9" d="M199.75,214.11a7.92,7.92,0,0,1,.86-4,3.76,3.76,0,0,1,5.93,0,9.85,9.85,0,0,1,0,8.06,3.76,3.76,0,0,1-5.93,0A8,8,0,0,1,199.75,214.11Zm6.28,0a10.67,10.67,0,0,0-.19-2.2,2.74,2.74,0,0,0-.73-1.41,2.11,2.11,0,0,0-1.54-.53,2.08,2.08,0,0,0-1.53.53,2.73,2.73,0,0,0-.73,1.41,10.66,10.66,0,0,0-.19,2.2,10.86,10.86,0,0,0,.19,2.22,2.79,2.79,0,0,0,.73,1.43,2.07,2.07,0,0,0,1.53.53,2.09,2.09,0,0,0,1.54-.53,2.79,2.79,0,0,0,.73-1.43A10.88,10.88,0,0,0,206,214.11Z" transform="translate(-67.09 -175)"/><path class="cls-9" d="M209,210.1v-1.3h3.08v10.77h-1.47V210.1Z" transform="translate(-67.09 -175)"/></svg>