<svg id="logo" xmlns="http://www.w3.org/2000/svg" xmlns:xlink="http://www.w3.org/1999/xlink" viewBox="0 0 348.61 156.55"><defs><style>.cls-1{fill:url(#linear-gradient);}.cls-2{fill:url(#linear-gradient-2);}.cls-3{fill:url(#linear-gradient-3);}.cls-4{fill:url(#linear-gradient-4);}.cls-5{fill:url(#linear-gradient-5);}.cls-6{fill:url(#linear-gradient-6);}.cls-7{fill:url(#linear-gradient-7);}.cls-8{fill:url(#linear-gradient-8);}.cls-9{fill:url(#linear-gradient-9);}.cls-10{fill:url(#linear-gradient-10);}.cls-11{fill:#fff;}.cls-12{fill:#3969ae;}.cls-13{fill:#333;}.cls-14{opacity:0.3;}.cls-15{fill:url(#radial-gradient);}.cls-16{fill:url(#linear-gradient-11);}.cls-17{fill:url(#linear-gradient-12);}.cls-18{fill:url(#linear-gradient-13);}.cls-19{fill:url(#linear-gradient-14);}.cls-20{fill:url(#linear-gradient-15);}.cls-21{fill:url(#linear-gradient-16);}.cls-22{fill:url(#linear-gradient-17);}.cls-23{fill:url(#linear-gradient-18);}.cls-24{fill:url(#linear-gradient-19);}.cls-25{fill:url(#linear-gradient-20);}.cls-26{fill:url(#linear-gradient-21);}.cls-27{fill:url(#linear-gradient-22);}.cls-28{fill:url(#linear-gradient-23);}.cls-29{fill:url(#linear-gradient-24);}.cls-30{fill:url(#linear-gradient-25);}.cls-31{fill:url(#linear-gradient-26);}.cls-32{fill:url(#linear-gradient-27);}.cls-33{fill:url(#linear-gradient-28);}.cls-34{fill:url(#linear-gradient-29);}.cls-35{fill:url(#linear-gradient-30);}.cls-36{fill:url(#linear-gradient-31);}</style><linearGradient id="linear-gradient" x1="71.7" y1="28.51" x2="182.95" y2="28.51" gradientUnits="userSpaceOnUse"><stop offset="0" stop-color="#272324"/><stop offset="0.33" stop-color="#272324" stop-opacity="0.89"/><stop offset="0.69" stop-color="#272324" stop-opacity="0.55"/><stop offset="1" stop-color="#272324" stop-opacity="0.1"/></linearGradient><linearGradient id="linear-gradient-2" x1="81.57" y1="51.63" x2="183.97" y2="51.63" xlink:href="#linear-gradient"/><linearGradient id="linear-gradient-3" x1="92.59" y1="78.18" x2="176.72" y2="78.18" xlink:href="#linear-gradient"/><linearGradient id="linear-gradient-4" x1="93.25" y1="107.38" x2="172.52" y2="107.38" xlink:href="#linear-gradient"/><linearGradient id="linear-gradient-5" x1="81.28" y1="130.94" x2="177.88" y2="130.94" xlink:href="#linear-gradient"/><linearGradient id="linear-gradient-6" x1="69.96" y1="20.93" x2="181.21" y2="20.93" gradientUnits="userSpaceOnUse"><stop offset="0.26" stop-color="#e23e31"/><stop offset="0.33" stop-color="#e44a3e" stop-opacity="0.94"/><stop offset="0.48" stop-color="#e96a61" stop-opacity="0.77"/><stop offset="0.68" stop-color="#f29e99" stop-opacity="0.5"/><stop offset="0.92" stop-color="#fee5e5" stop-opacity="0.13"/><stop offset="0.94" stop-color="#ffebeb" stop-opacity="0.1"/></linearGradient><linearGradient id="linear-gradient-7" x1="79.83" y1="43.58" x2="182.23" y2="43.58" xlink:href="#linear-gradient-6"/><linearGradient id="linear-gradient-8" x1="90.85" y1="70.44" x2="174.98" y2="70.44" xlink:href="#linear-gradient-6"/><linearGradient id="linear-gradient-9" x1="90.85" y1="96.44" x2="170.78" y2="96.44" xlink:href="#linear-gradient-6"/><linearGradient id="linear-gradient-10" x1="79.54" y1="122.57" x2="176.14" y2="122.57" xlink:href="#linear-gradient-6"/><radialGradient id="radial-gradient" cx="96.72" cy="71.43" r="92.93" gradientUnits="userSpaceOnUse"><stop offset="0" stop-color="#fff"/><stop offset="0.09" stop-color="#fff" stop-opacity="0.97"/><stop offset="0.22" stop-color="#fff" stop-opacity="0.87"/><stop offset="0.39" stop-color="#fff" stop-opacity="0.72"/><stop offset="0.59" stop-color="#fff" stop-opacity="0.52"/><stop offset="0.81" stop-color="#fff" stop-opacity="0.25"/><stop offset="1" stop-color="#fff" stop-opacity="0"/></radialGradient><linearGradient id="linear-gradient-11" x1="181.35" y1="94.41" x2="181.35" y2="122.32" gradientUnits="userSpaceOnUse"><stop offset="0" stop-color="#a4302e"/><stop offset="0.29" stop-color="#ad3533"/><stop offset="0.76" stop-color="#c44341"/><stop offset="1" stop-color="#d24b49"/></linearGradient><linearGradient id="linear-gradient-12" x1="206.47" y1="94.41" x2="206.47" y2="122.32" xlink:href="#linear-gradient-11"/><linearGradient id="linear-gradient-13" x1="232.69" y1="94.41" x2="232.69" y2="122.32" xlink:href="#linear-gradient-11"/><linearGradient id="linear-gradient-14" x1="181.94" y1="45.23" x2="181.94" y2="8.26" gradientUnits="userSpaceOnUse"><stop offset="0" stop-color="#5a85ab"/><stop offset="0.24" stop-color="#4c79a6"/><stop offset="0.7" stop-color="#37679e"/><stop offset="1" stop-color="#30609b"/></linearGradient><linearGradient id="linear-gradient-15" x1="205.97" y1="44.7" x2="205.97" y2="8.74" xlink:href="#linear-gradient-14"/><linearGradient id="linear-gradient-16" x1="230.52" y1="44.7" x2="230.52" y2="8.74" xlink:href="#linear-gradient-14"/><linearGradient id="linear-gradient-17" x1="251.34" y1="44.7" x2="251.34" y2="8.74" xlink:href="#linear-gradient-14"/><linearGradient id="linear-gradient-18" x1="271.66" y1="44.7" x2="271.66" y2="8.74" xlink:href="#linear-gradient-14"/><linearGradient id="linear-gradient-19" x1="294.01" y1="44.7" x2="294.01" y2="8.74" xlink:href="#linear-gradient-14"/><linearGradient id="linear-gradient-20" x1="182.16" y1="87.06" x2="182.16" y2="49.16" xlink:href="#linear-gradient-14"/><linearGradient id="linear-gradient-21" x1="206.77" y1="86.51" x2="206.77" y2="49.66" xlink:href="#linear-gradient-14"/><linearGradient id="linear-gradient-22" x1="227.48" y1="86.51" x2="227.48" y2="49.66" xlink:href="#linear-gradient-14"/><linearGradient id="linear-gradient-23" x1="252.55" y1="87.06" x2="252.55" y2="49.16" xlink:href="#linear-gradient-14"/><linearGradient id="linear-gradient-24" x1="277.78" y1="87.06" x2="277.78" y2="49.16" xlink:href="#linear-gradient-14"/><linearGradient id="linear-gradient-25" x1="303.26" y1="86.51" x2="303.26" y2="49.66" xlink:href="#linear-gradient-14"/><linearGradient id="linear-gradient-26" x1="325.89" y1="87.06" x2="325.89" y2="49.16" xlink:href="#linear-gradient-14"/><linearGradient id="linear-gradient-27" x1="251.46" y1="127.36" x2="251.46" y2="120.69" xlink:href="#linear-gradient-14"/><linearGradient id="linear-gradient-28" x1="268.68" y1="128.35" x2="268.68" y2="97.1" xlink:href="#linear-gradient-14"/><linearGradient id="linear-gradient-29" x1="292.61" y1="128.35" x2="292.61" y2="97.1" xlink:href="#linear-gradient-14"/><linearGradient id="linear-gradient-30" x1="323.05" y1="127.83" x2="323.05" y2="97.05" xlink:href="#linear-gradient-14"/><linearGradient id="linear-gradient-31" x1="347.32" y1="98.99" x2="347.32" y2="88.9" xlink:href="#linear-gradient-14"/></defs><title>SG-USA-col</title><path class="cls-1" d="M183,29.43a34.93,34.93,0,0,1-10.88,7.11,36.78,36.78,0,0,1-17.7,2.32c-22.33-2-31.72-17-49-17.41-6.59-.14-16.27,1.81-28.28,12.33L71.7,30.45c.43-.48.9-1,1.4-1.53l2.22,1.38C87.34,19.79,97,17.84,103.61,18c17.3.36,26.69,15.39,49,17.41a36.78,36.78,0,0,0,17.7-2.32,34.82,34.82,0,0,0,10.37-6.63Z" transform="translate(-3.75 -1.74)"/><path class="cls-2" d="M184,56.27c-13.4,7.71-23.16,7.9-29.59,6.67-14.17-2.72-24.1-14.65-40.32-16.83a40,40,0,0,0-12.47.29A37.5,37.5,0,0,0,90,50.75L81.57,40.31l.62-.55,6.05,7.52a37.5,37.5,0,0,1,11.6-4.35,40,40,0,0,1,12.47-.29c16.22,2.17,26.15,14.11,40.32,16.83,6.38,1.22,16.07,1,29.34-6.53Z" transform="translate(-3.75 -1.74)"/><path class="cls-3" d="M176.72,80.34a30.88,30.88,0,0,1-8.7,5.22,33.35,33.35,0,0,1-13.92,2c-18.77-1.1-28.74-16.37-45.83-15.37-3.51.2-9,1.19-15.66,5.51l1-5.11a30.36,30.36,0,0,1,12.93-3.88c17.09-1,27.07,14.27,45.83,15.37a33.35,33.35,0,0,0,13.92-2,30.74,30.74,0,0,0,8.17-4.78Z" transform="translate(-3.75 -1.74)"/><path class="cls-4" d="M172.52,106.79a50.58,50.58,0,0,1-5.66,3.15,56.92,56.92,0,0,1-5.8,2.32c-9,3-33.65-3.77-33.65-3.77a97.6,97.6,0,0,0-33.94-2.9q-.1-1.8-.21-3.59a96.9,96.9,0,0,1,32.41,3s24.6,6.74,33.65,3.77a56.92,56.92,0,0,0,5.8-2.32,50.4,50.4,0,0,0,5.21-2.86Z" transform="translate(-3.75 -1.74)"/><path class="cls-5" d="M177.88,132.85a29,29,0,0,1-6.38,4.64c-7.43,4-15.42,4-23.5,2.61-23.32-3.89-27.89-15.66-43.8-15.66-5.46,0-13.34,1.38-22.92,8.12V127.9c8.79-5.73,16.05-6.95,21.18-6.94,15.91,0,20.48,11.77,43.8,15.66,8.08,1.35,16.07,1.36,23.5-2.61a29,29,0,0,0,5.82-4.12Z" transform="translate(-3.75 -1.74)"/><path class="cls-6" d="M70,27A63.45,63.45,0,0,1,85.63,14.2C89,12.28,97.9,7.12,108.26,6.37c22.37-1.62,32,18.7,52.51,15.66a33,33,0,0,0,13.49-5.37l7,9.28a34.94,34.94,0,0,1-10.88,7.11,36.78,36.78,0,0,1-17.7,2.32c-22.34-2-31.72-17-49-17.41C97,17.84,87.34,19.79,75.33,30.3Z" transform="translate(-3.75 -1.74)"/><path class="cls-7" d="M79.83,36.83a36.88,36.88,0,0,1,7.83-5.51,43,43,0,0,1,13.63-4.06c19.46-2.13,44.53,25.62,65.27,18.57A22.78,22.78,0,0,0,175,40.6l7.25,12.18c-13.4,7.71-23.16,7.9-29.59,6.67-14.17-2.71-24.1-14.65-40.32-16.83a40.06,40.06,0,0,0-12.47.29,37.54,37.54,0,0,0-11.6,4.35Z" transform="translate(-3.75 -1.74)"/><path class="cls-8" d="M92.88,63.81a19.12,19.12,0,0,1,4.93-4.35c4.57-2.78,9.93-3.27,16.25-2.32,17.8,2.68,22.07,13.62,35.68,14.21,4.06.18,10-.52,17.41-4.93L175,76.86a31,31,0,0,1-8.7,5.22,33.34,33.34,0,0,1-13.92,2c-18.77-1.1-28.74-16.37-45.83-15.37-3.51.2-9,1.19-15.66,5.51Z" transform="translate(-3.75 -1.74)"/><path class="cls-9" d="M163.37,92.53l7.4,10.78a50.08,50.08,0,0,1-5.66,3.15,57.09,57.09,0,0,1-5.8,2.32c-9,3-33.65-3.77-33.65-3.77a97.64,97.64,0,0,0-33.94-2.9L90.85,87c11.39-4.62,19.65-4.09,25.24-2.61,12,3.17,21.86,13.42,32.2,13.34a27.66,27.66,0,0,0,9.86-2A23.49,23.49,0,0,0,163.37,92.53Z" transform="translate(-3.75 -1.74)"/><path class="cls-10" d="M168,118.93l8.12,10.44a29.07,29.07,0,0,1-6.38,4.64c-7.43,4-15.42,4-23.5,2.61-23.32-3.89-27.89-15.66-43.8-15.66-5.46,0-13.34,1.38-22.92,8.12v-20.6c16.71-2,29.22.3,37.71,2.9,18.38,5.64,32.4,17.05,45.54,11A20.36,20.36,0,0,0,168,118.93Z" transform="translate(-3.75 -1.74)"/><path class="cls-11" d="M59.08,5l2.06,2.52,35.59,43.6,48.83-18,3.2-1.18-1.82,2.89L132.59,57.61,118.65,79.72l15.06,20.83L149.23,122l2,2.8-3.31-1L98.53,108.67l-34,43.75-2,2.58-.07-3.27L61.28,97.48,11.2,83.64l-3.57-1,3.49-1.23,48-16.84V5M57.92,1.74v62L10.74,80.33,7.25,81.56,3.75,82.78l3.57,1,3.57,1L60.14,98.37l1.12,53.39.07,3.27.07,3.27,2-2.58,2-2.58L99,110l48.66,14.91,3.31,1,3.31,1-2-2.8-2-2.8L134.65,99.87,120,79.68l13.52-21.45,14.36-22.77,1.82-2.89,1.82-2.89-3.2,1.18L145.17,32,97.11,49.75,62,6.79,60,4.27,57.92,1.74Z" transform="translate(-3.75 -1.74)"/><polygon class="cls-12" points="58.1 95.29 5.82 80.84 55.91 63.25 55.91 4.88 92.8 50.06 143.62 31.34 114.19 78 146.02 122.02 94.56 106.25 59.28 151.61 58.1 95.29"/><path class="cls-13" d="M60.25,8.26,96.36,52.5,146,34.22,117.25,79.76l31,42.93L98.1,107.32,63.58,151.71,62.42,96.59,11.51,82.52,60.25,65.4V8.26M59.08,5V64.58l-48,16.84L7.63,82.65l3.57,1L61.28,97.48l1.14,54.25.07,3.27,2-2.58,34-43.75,49.42,15.14,3.31,1-2-2.8L134.54,101.7l-15.89-22,28.3-44.88L148.77,32l-3.2,1.18-48.83,18L61.14,7.52,59.08,5Z" transform="translate(-3.75 -1.74)"/><g class="cls-14"><path class="cls-15" d="M117.25,79.76l1.89,2.61A255.39,255.39,0,0,1,70,92.24c-6.55.66-12.9,1-19,1.18L11.51,82.52,60.25,65.4V8.26L96.36,52.5,146,34.22Z" transform="translate(-3.75 -1.74)"/></g><path class="cls-16" d="M181.35,128.35A12.06,12.06,0,0,1,175.1,127a7.25,7.25,0,0,1-3.15-4,19.87,19.87,0,0,1-.9-6.42v-25h7.59V117.8a14.69,14.69,0,0,0,.17,2.24,3.75,3.75,0,0,0,.75,1.83,2.6,2.6,0,0,0,3.58,0,3.74,3.74,0,0,0,.71-1.83,16.85,16.85,0,0,0,.15-2.24V91.59h7.64v25a19.46,19.46,0,0,1-.92,6.42,7.38,7.38,0,0,1-3.15,4A11.94,11.94,0,0,1,181.35,128.35Z" transform="translate(-3.75 -1.74)"/><path class="cls-17" d="M207,128.35a15.64,15.64,0,0,1-6.54-1.21,8.28,8.28,0,0,1-4-3.73,15.23,15.23,0,0,1-1.49-6.55l7.88-1a14.24,14.24,0,0,0,.49,3.76,4,4,0,0,0,1.24,2.06,3,3,0,0,0,1.93.63,1.91,1.91,0,0,0,1.88-.85,3.86,3.86,0,0,0,.44-1.79,5.86,5.86,0,0,0-1.24-3.78,18,18,0,0,0-3.35-3.11l-3.6-2.73a18.48,18.48,0,0,1-4-4,9,9,0,0,1-1.62-5.48,8.38,8.38,0,0,1,3.14-7q3.14-2.44,8.55-2.44a12.46,12.46,0,0,1,5.38,1,7.54,7.54,0,0,1,3.09,2.57A9.81,9.81,0,0,1,216.66,98a18.63,18.63,0,0,1,.44,3.38l-7.93.85a24.12,24.12,0,0,0-.23-2.8,3.55,3.55,0,0,0-.75-1.83,2.21,2.21,0,0,0-1.75-.65,2.06,2.06,0,0,0-1.88.94,3.5,3.5,0,0,0-.59,1.88,4.83,4.83,0,0,0,1.11,3.29,20,20,0,0,0,2.91,2.66l3.45,2.64a21.6,21.6,0,0,1,4.61,4.56,10.34,10.34,0,0,1,1.88,6.31,8.37,8.37,0,0,1-1.34,4.63,9.25,9.25,0,0,1-3.79,3.29A13,13,0,0,1,207,128.35Z" transform="translate(-3.75 -1.74)"/><path class="cls-18" d="M219.2,127.82l8.13-36.23h10.83l8,36.23h-8.76L236,120.17h-6.32l-1.49,7.65Zm11.31-12.43h4.57l-2.28-14.13Z" transform="translate(-3.75 -1.74)"/><path class="cls-19" d="M182.47,45.23A15,15,0,0,1,176.1,44a8.13,8.13,0,0,1-3.87-3.71,15.34,15.34,0,0,1-1.46-6.5l7.68-1a14.38,14.38,0,0,0,.48,3.73,4,4,0,0,0,1.2,2,2.92,2.92,0,0,0,1.88.62,1.85,1.85,0,0,0,1.83-.84,3.88,3.88,0,0,0,.43-1.78,5.88,5.88,0,0,0-1.2-3.75,17.68,17.68,0,0,0-3.26-3.08L176.3,27a18.18,18.18,0,0,1-3.89-3.93,9.06,9.06,0,0,1-1.58-5.44,8.38,8.38,0,0,1,3.06-7q3.06-2.42,8.33-2.42a12,12,0,0,1,5.25,1,7.39,7.39,0,0,1,3,2.55,9.83,9.83,0,0,1,1.41,3.33,18.81,18.81,0,0,1,.43,3.35l-7.73.84a24.36,24.36,0,0,0-.23-2.77,3.56,3.56,0,0,0-.73-1.82,2.13,2.13,0,0,0-1.71-.64,2,2,0,0,0-1.83.93,3.51,3.51,0,0,0-.58,1.86,4.85,4.85,0,0,0,1.08,3.26,19.59,19.59,0,0,0,2.84,2.64l3.36,2.62a21.24,21.24,0,0,1,4.49,4.53,10.39,10.39,0,0,1,1.83,6.26,8.42,8.42,0,0,1-1.31,4.59A9.07,9.07,0,0,1,188.12,44,12.44,12.44,0,0,1,182.47,45.23Z" transform="translate(-3.75 -1.74)"/><path class="cls-20" d="M193.21,44.7l7.69-36h10.25l7.59,36h-8.29l-1.36-7.59h-6L201.7,44.7Zm10.7-12.34h4.32l-2.16-14Z" transform="translate(-3.75 -1.74)"/><path class="cls-21" d="M222.18,44.7v-36h16.68v5.37h-8.15v9.05h7.1v5.55h-7.1v16Z" transform="translate(-3.75 -1.74)"/><path class="cls-22" d="M242.2,44.7v-36h18.18v5.41h-9.24v8.92h7v5.5h-7V39.33h9.34V44.7Z" transform="translate(-3.75 -1.74)"/><path class="cls-23" d="M267.4,44.7v-30h-5.81V8.74h20.15v5.9H276v30Z" transform="translate(-3.75 -1.74)"/><path class="cls-24" d="M290,44.7V30L282.65,8.74h8.05l3.67,11.36,3.29-11.36h7.72L298.18,30V44.7Z" transform="translate(-3.75 -1.74)"/><path class="cls-25" d="M181.31,87.06a10.32,10.32,0,0,1-6.09-1.59A8.58,8.58,0,0,1,172,81a21.48,21.48,0,0,1-.94-6.67V61.94a20.39,20.39,0,0,1,1-6.78,8.42,8.42,0,0,1,3.47-4.44,12.35,12.35,0,0,1,6.69-1.57,13.07,13.07,0,0,1,6.51,1.37,7.73,7.73,0,0,1,3.38,3.78,14.52,14.52,0,0,1,1,5.64v2.37h-8v-3a13.85,13.85,0,0,0-.16-2.18,3,3,0,0,0-.74-1.62,2.45,2.45,0,0,0-1.86-.61,2.4,2.4,0,0,0-1.93.71,3.46,3.46,0,0,0-.76,1.75,14.31,14.31,0,0,0-.16,2.18V76.6a10,10,0,0,0,.25,2.3,3.49,3.49,0,0,0,.92,1.73,2.6,2.6,0,0,0,1.91.66,2.69,2.69,0,0,0,2-.68,3.71,3.71,0,0,0,1-1.77,9.44,9.44,0,0,0,.28-2.32V72.18h-3.36V67.4h10.76V86.51H187.8l-.46-3A6.63,6.63,0,0,1,185.17,86,6.5,6.5,0,0,1,181.31,87.06Z" transform="translate(-3.75 -1.74)"/><path class="cls-26" d="M198.37,86.51V49.66h8.23V81h8.56v5.51Z" transform="translate(-3.75 -1.74)"/><path class="cls-27" d="M214.57,86.51l7.78-36.85h10.37l7.67,36.85H232l-1.37-7.78h-6l-1.42,7.78ZM225.4,73.87h4.37l-2.19-14.38Z" transform="translate(-3.75 -1.74)"/><path class="cls-28" d="M253.06,87.06a13.64,13.64,0,0,1-6.13-1.23,8.06,8.06,0,0,1-3.71-3.8,16.61,16.61,0,0,1-1.4-6.67l7.38-1a15.66,15.66,0,0,0,.46,3.82,4.16,4.16,0,0,0,1.16,2.09,2.69,2.69,0,0,0,1.81.64,1.75,1.75,0,0,0,1.76-.86,4.2,4.2,0,0,0,.41-1.82,6.3,6.3,0,0,0-1.16-3.84,17.52,17.52,0,0,0-3.14-3.16l-3.38-2.78a18.11,18.11,0,0,1-3.74-4,9.74,9.74,0,0,1-1.52-5.57,8.85,8.85,0,0,1,2.94-7.17,12,12,0,0,1,8-2.48,10.87,10.87,0,0,1,5,1,7.24,7.24,0,0,1,2.89,2.62,10.46,10.46,0,0,1,1.35,3.41,20.51,20.51,0,0,1,.41,3.44l-7.43.86a26.53,26.53,0,0,0-.22-2.84,3.78,3.78,0,0,0-.7-1.87,2,2,0,0,0-1.64-.66,1.89,1.89,0,0,0-1.76,1,3.77,3.77,0,0,0-.55,1.91,5.19,5.19,0,0,0,1,3.34A19.39,19.39,0,0,0,254,64l3.23,2.68a21.18,21.18,0,0,1,4.32,4.64,11.16,11.16,0,0,1,1.76,6.42A9.06,9.06,0,0,1,262,82.49a8.93,8.93,0,0,1-3.55,3.34A11.33,11.33,0,0,1,253.06,87.06Z" transform="translate(-3.75 -1.74)"/><path class="cls-29" d="M278.29,87.06a13.64,13.64,0,0,1-6.13-1.23,8.06,8.06,0,0,1-3.71-3.8,16.61,16.61,0,0,1-1.4-6.67l7.38-1a15.66,15.66,0,0,0,.46,3.82A4.16,4.16,0,0,0,276,80.24a2.69,2.69,0,0,0,1.81.64,1.75,1.75,0,0,0,1.76-.86,4.2,4.2,0,0,0,.41-1.82,6.3,6.3,0,0,0-1.16-3.84,17.52,17.52,0,0,0-3.14-3.16l-3.38-2.78a18.11,18.11,0,0,1-3.74-4,9.74,9.74,0,0,1-1.52-5.57A8.85,8.85,0,0,1,270,51.64a12,12,0,0,1,8-2.48,10.87,10.87,0,0,1,5,1A7.24,7.24,0,0,1,286,52.78a10.46,10.46,0,0,1,1.35,3.41,20.51,20.51,0,0,1,.41,3.44l-7.43.86a26.53,26.53,0,0,0-.22-2.84,3.78,3.78,0,0,0-.7-1.87,2,2,0,0,0-1.64-.66,1.89,1.89,0,0,0-1.76,1,3.77,3.77,0,0,0-.55,1.91,5.19,5.19,0,0,0,1,3.34A19.39,19.39,0,0,0,279.2,64l3.23,2.68a21.18,21.18,0,0,1,4.32,4.64,11.16,11.16,0,0,1,1.76,6.42,9.06,9.06,0,0,1-1.25,4.71,8.93,8.93,0,0,1-3.55,3.34A11.33,11.33,0,0,1,278.29,87.06Z" transform="translate(-3.75 -1.74)"/><path class="cls-30" d="M294.18,86.51V49.66h18.05v5.55h-9.18v9.15h7V70h-7V81h9.28v5.51Z" transform="translate(-3.75 -1.74)"/><path class="cls-31" d="M326.4,87.06a14,14,0,0,1-6.21-1.23,8.11,8.11,0,0,1-3.76-3.8A16.42,16.42,0,0,1,315,75.37l7.48-1a15.46,15.46,0,0,0,.46,3.82,4.14,4.14,0,0,0,1.17,2.09,2.75,2.75,0,0,0,1.83.64,1.78,1.78,0,0,0,1.78-.86,4.15,4.15,0,0,0,.42-1.82A6.24,6.24,0,0,0,327,74.34a17.63,17.63,0,0,0-3.18-3.16l-3.42-2.78a18.21,18.21,0,0,1-3.79-4,9.64,9.64,0,0,1-1.54-5.57,8.79,8.79,0,0,1,3-7.17q3-2.48,8.12-2.48a11.14,11.14,0,0,1,5.11,1,7.31,7.31,0,0,1,2.93,2.62,10.38,10.38,0,0,1,1.37,3.41,20.25,20.25,0,0,1,.42,3.44l-7.53.86a26.19,26.19,0,0,0-.22-2.84,3.75,3.75,0,0,0-.71-1.87,2,2,0,0,0-1.66-.66,1.92,1.92,0,0,0-1.78,1,3.74,3.74,0,0,0-.56,1.91,5.14,5.14,0,0,0,1.05,3.34A19.53,19.53,0,0,0,327.33,64l3.28,2.68A21.29,21.29,0,0,1,335,71.36a11.05,11.05,0,0,1,1.78,6.42,8.89,8.89,0,0,1-4.86,8.05A11.61,11.61,0,0,1,326.4,87.06Z" transform="translate(-3.75 -1.74)"/><path class="cls-32" d="M248.13,127.36v-6.67h6.67v6.67Z" transform="translate(-3.75 -1.74)"/><path class="cls-33" d="M268.8,128.35a10.43,10.43,0,0,1-5.18-1.2,8.11,8.11,0,0,1-3.3-3.45,11.76,11.76,0,0,1-1.16-5.44V107.19a11.89,11.89,0,0,1,1.16-5.49,8,8,0,0,1,3.3-3.42,10.62,10.62,0,0,1,5.18-1.18,11.8,11.8,0,0,1,5.08,1,7,7,0,0,1,3.2,3,10.49,10.49,0,0,1,1.11,5.1v3.19h-7.56v-3.45a6.18,6.18,0,0,0-.22-1.86,1.65,1.65,0,0,0-.63-.91,1.8,1.8,0,0,0-1-.26,1.4,1.4,0,0,0-1,.34,2.12,2.12,0,0,0-.58,1.1,9,9,0,0,0-.19,2.12V119a5.74,5.74,0,0,0,.46,2.77,1.47,1.47,0,0,0,1.32.73,1.65,1.65,0,0,0,1-.29,1.74,1.74,0,0,0,.58-.94,6.43,6.43,0,0,0,.19-1.75v-4h7.56v3.66a10.49,10.49,0,0,1-1.13,5.1,7.18,7.18,0,0,1-3.23,3.08A11.41,11.41,0,0,1,268.8,128.35Z" transform="translate(-3.75 -1.74)"/><path class="cls-34" d="M292.59,128.35a11.43,11.43,0,0,1-5.18-1.1A7.62,7.62,0,0,1,284,124a11.49,11.49,0,0,1-1.18-5.49V107a11.49,11.49,0,0,1,1.18-5.49,7.63,7.63,0,0,1,3.37-3.29,12.76,12.76,0,0,1,10.35,0,7.77,7.77,0,0,1,3.39,3.29,11.31,11.31,0,0,1,1.2,5.49v11.5a11.31,11.31,0,0,1-1.2,5.49,7.77,7.77,0,0,1-3.39,3.29A11.43,11.43,0,0,1,292.59,128.35Zm0-5.64a1.6,1.6,0,0,0,1.2-.44,2.48,2.48,0,0,0,.6-1.25,9.81,9.81,0,0,0,.17-2V106.4a9.82,9.82,0,0,0-.17-2,2.48,2.48,0,0,0-.6-1.25,1.85,1.85,0,0,0-2.41,0,2.62,2.62,0,0,0-.63,1.25,8.59,8.59,0,0,0-.19,2v12.65a8.58,8.58,0,0,0,.19,2,2.62,2.62,0,0,0,.63,1.25A1.6,1.6,0,0,0,292.64,122.71Z" transform="translate(-3.75 -1.74)"/><path class="cls-35" d="M307.28,127.83V97.62H315V100a9.39,9.39,0,0,1,3.2-2.3,8.91,8.91,0,0,1,3.39-.68,4.74,4.74,0,0,1,2.91.91,5.53,5.53,0,0,1,1.85,2.69,9.74,9.74,0,0,1,3.44-2.8,8.82,8.82,0,0,1,3.64-.81,4.75,4.75,0,0,1,2.84.86,5.6,5.6,0,0,1,1.88,2.51,10.4,10.4,0,0,1,.67,3.95v23.47h-7.71V105.25a3.07,3.07,0,0,0-.41-1.8,1.43,1.43,0,0,0-1.23-.55,3.41,3.41,0,0,0-1.2.29,5.77,5.77,0,0,0-1.4.81v23.83h-7.61V105.25a2.94,2.94,0,0,0-.43-1.8,1.5,1.5,0,0,0-1.25-.55,3.3,3.3,0,0,0-1.23.29A6,6,0,0,0,315,104v23.83Z" transform="translate(-3.75 -1.74)"/><path class="cls-36" d="M347.32,88.9a5,5,0,1,0,5,5A5.05,5.05,0,0,0,347.32,88.9ZM350.19,97l-1.76-2.61a2,2,0,0,0,.87-.68,1.87,1.87,0,0,0-.31-2.41,3.15,3.15,0,0,0-1.9-.47h-1.84V97.1h1.34V94.68h.71l1.51,2.42H350a4.17,4.17,0,1,1,.15-.13Zm-1.94-4.25a.75.75,0,0,1-.3.66,1.65,1.65,0,0,1-.94.21h-.43v-1.7H347a1.87,1.87,0,0,1,1,.19A.69.69,0,0,1,348.25,92.71Z" transform="translate(-3.75 -1.74)"/></svg>