<svg xmlns="http://www.w3.org/2000/svg" viewBox="0 0 282.69 90"><defs><style>.cls-1{fill:#fff;}</style></defs><title>ALB-wh</title><g id="logo"><path class="cls-1" d="M334,233.8c1.28.52,2.38.95,3.47,1.42,9,3.93,9.85,14.22,7.05,20.41-2.58,5.73-7.1,8.82-13.27,9.67a84.35,84.35,0,0,1-12.1.92c-10.33-.07-20.65,0-31,0-2,0-2,0-2-2q0-28.59,0-57.18c0-1.93,0-2,1.91-2,12.69,0,25.38-.09,38.07,0,5.33.06,10.12,1.74,13.69,6.08,5.19,6.31,4.56,17.86-4.9,22.18Zm-25.13,13.11c0,1.54,0,3.08,0,4.62,0,.71.18,1.25,1,1.24,3,0,6,.24,8.92-.52a5.36,5.36,0,0,0,4.33-5.55,5.06,5.06,0,0,0-4.27-5.1c-3-.72-6-.31-9.07-.35-.77,0-.93.54-.93,1.18Q308.86,244.67,308.85,246.91Zm0-23.39c0,1.4,0,2.8,0,4.19,0,.88.28,1.36,1.24,1.34a40.1,40.1,0,0,0,6.2-.28c3.74-.66,4.52-3,4.52-5.56,0-3.07-1.87-4.88-5-5.08-1.87-.12-3.76,0-5.64-.09-1,0-1.35.47-1.32,1.42C308.87,220.82,308.85,222.17,308.85,223.52Z" transform="translate(-108.65 -205)"/><path class="cls-1" d="M192.6,205c3.52,0,7,0,10.56,0a1.94,1.94,0,0,1,2.13,1.47q9.92,26.79,19.91,53.56c.57,1.54,1.1,3.09,1.7,4.62.39,1,.29,1.55-1,1.54q-10.35,0-20.69,0a1.5,1.5,0,0,1-1.64-1.26c-.71-2.4-1.52-4.78-2.19-7.19a1.69,1.69,0,0,0-2-1.4q-7.31.07-14.61,0a1.7,1.7,0,0,0-1.94,1.46c-.62,2.23-1.41,4.41-2,6.64a2,2,0,0,1-2.3,1.78c-6.41-.07-12.83,0-19.24,0-1.83,0-2-.19-1.3-1.92l11.38-30.34,10-26.68c.84-2.23.84-2.23,3.17-2.23Zm-.24,22.83c-.23.29-.36.38-.39.5-1.39,4.51-2.76,9-4.15,13.53-.31,1,.29,1,1,1,2.17,0,4.33,0,6.5,0,1.31,0,1.42-.47,1.08-1.57-1-3.08-1.84-6.18-2.75-9.27C193.23,230.73,192.82,229.37,192.36,227.86Z" transform="translate(-108.65 -205)"/><path class="cls-1" d="M229.5,235.53q0-14.18,0-28.37c0-2.06.07-2.13,2.1-2.13h18.24c2.06,0,2.06,0,2.06,2.12q0,20.77,0,41.54c0,2.1,0,2.1,2.05,2.1h25.19c2.24,0,2.24,0,2.25,2.26q0,5.57,0,11.15c0,2,0,2-1.9,2H231.42c-1.84,0-1.92-.08-1.92-2Q229.49,249.86,229.5,235.53Z" transform="translate(-108.65 -205)"/><path class="cls-1" d="M391.34,284.47c-.11,1.72.21,3.89-.25,6a5.42,5.42,0,0,1-1.69,3c-2.68,2.45-8.65,1.87-10.54-1-.26-.39-.65-.8-.37-1.31s.75-.35,1.17-.38a4.79,4.79,0,0,1,2.89.65,4.09,4.09,0,0,0,4.72-.49c.37-.4.76-.92.47-1.41-.39-.67-.84,0-1.21.17a6,6,0,0,1-7.27-2.21,7,7,0,0,1,.4-8.34,5.77,5.77,0,0,1,7.34-1.2c.34.17.63.52,1,0,.51-.73,1.3-.47,2-.51,1-.05,1.4.42,1.39,1.39C391.32,280.56,391.34,282.3,391.34,284.47Zm-9.84-.84a3.53,3.53,0,0,0,3.29,3.53,3.47,3.47,0,0,0,3.27-3.52,3.14,3.14,0,0,0-3.2-3.32A3.19,3.19,0,0,0,381.5,283.64Z" transform="translate(-108.65 -205)"/><path class="cls-1" d="M331.26,289.05c-3.65,1.79-6.68,1.19-8.53-1.59a6.85,6.85,0,0,1,1.25-9.13,5.31,5.31,0,0,1,6-.64c.62.27,1,.68,1.82,0a1.77,1.77,0,0,1,2.9,1.55c0,3.13,0,6.27,0,9.4,0,4.22-2.14,6.27-6.37,6.31-2.35,0-4.54-.35-6-2.5-.26-.39-.67-.82-.47-1.3s.84-.35,1.29-.37a5.05,5.05,0,0,1,2.89.64C328.43,292.76,331,291.61,331.26,289.05Zm.14-5.44a3,3,0,0,0-3.18-3.29,3.25,3.25,0,0,0-3.36,3.38,3.46,3.46,0,0,0,3.38,3.45C330.16,287.14,331.41,285.74,331.4,283.61Z" transform="translate(-108.65 -205)"/><path class="cls-1" d="M171,283.07c0,2.16,0,3.94,0,5.71,0,1.24-.65,1.41-1.65,1.41s-1.65-.2-1.64-1.42c0-4.77,0-9.55,0-14.32,0-1,.38-1.41,1.37-1.39a29.8,29.8,0,0,1,4.9.23,4.07,4.07,0,0,1,3.66,3.39c.42,2.08.13,4-1.78,5.25-.89.58-1,1-.48,1.92,1,1.66,1.79,3.42,2.68,5.13.39.75.29,1.13-.66,1.21-2.15.18-2.48,0-3.51-2-.78-1.5-1.58-3-2.37-4.47A7.61,7.61,0,0,0,171,283.07Zm0-5c.11.52-.34,1.51.94,1.54,1.55,0,2.44-.55,2.46-1.62s-.85-1.71-2.22-1.73S171,277.09,171,278.11Z" transform="translate(-108.65 -205)"/><path class="cls-1" d="M337.71,281.39c0-2.22,0-4.44,0-6.65,0-1.14,0-2,1.6-2.05s1.73.92,1.68,2.12c0,.82,0,1.64,0,2.46,0,1,.29,1.07,1.08.61a4.63,4.63,0,0,1,4.81-.2,4.32,4.32,0,0,1,2.14,4c.08,2.36,0,4.72,0,7.08,0,1.33-.81,1.41-1.82,1.42s-1.68-.18-1.65-1.41c0-2,0-4,0-6.07,0-1.11-.2-2.16-1.58-2.37a2.24,2.24,0,0,0-2.69,1.84c-.61,2-.22,4.12-.3,6.18-.06,1.71-.24,1.86-1.95,1.83-1,0-1.35-.46-1.34-1.42C337.73,286.31,337.71,283.85,337.71,281.39Z" transform="translate(-108.65 -205)"/><path class="cls-1" d="M265.73,284.71c-1.21,0-2.41,0-3.62,0-.37,0-.84-.13-1.06.27s.1.83.34,1.18a3.56,3.56,0,0,0,4.68.83,2.29,2.29,0,0,1,2.54-.07c1.36.75,1.41.89.18,2a7.51,7.51,0,0,1-8.79.26,6.9,6.9,0,0,1-2.11-7.95,6.53,6.53,0,0,1,7.24-4,6.6,6.6,0,0,1,5.69,5.89c.16,1.19-.24,1.71-1.48,1.66S266.94,284.71,265.73,284.71ZM264.16,282h0c.72,0,1.44,0,2.16,0,.28,0,.63,0,.72-.31s-.15-.53-.34-.74a3.79,3.79,0,0,0-4.76-.24c-.28.25-.71.5-.61.91.14.57.7.36,1.1.38C263,282.07,263.59,282,264.16,282Z" transform="translate(-108.65 -205)"/><path class="cls-1" d="M188.47,284.71c-1.25,0-2.51,0-3.76,0-.37,0-.84-.1-1,.35s.1.75.32,1.07a3.68,3.68,0,0,0,4.94.8c1.26-.84,2.11-.13,3,.43.71.45.17.94-.21,1.28a6.85,6.85,0,0,1-7.29,1.37,6.07,6.07,0,0,1-4.23-5.53c-.34-3.89,2.18-7,5.78-7.33,4.21-.35,7,2.07,7.44,6.29.09.91-.21,1.26-1.08,1.26h-3.91Zm-1.6-2.67c.72,0,1.44,0,2.15,0,.28,0,.63,0,.72-.32s-.15-.53-.35-.74a3.81,3.81,0,0,0-4.87-.13c-.24.23-.58.48-.49.83s.62.35,1,.36C185.63,282.06,186.25,282,186.87,282Z" transform="translate(-108.65 -205)"/><path class="cls-1" d="M123.16,283.85a6.55,6.55,0,0,1,6.46-6.72,6.72,6.72,0,0,1,6.9,6.52,6.81,6.81,0,0,1-6.79,6.81A6.5,6.5,0,0,1,123.16,283.85Zm9.89-.14a3.15,3.15,0,0,0-3.31-3.38,3.25,3.25,0,0,0-3.25,3.5,3.29,3.29,0,1,0,6.57-.12Z" transform="translate(-108.65 -205)"/><path class="cls-1" d="M218.82,283.87a6.57,6.57,0,1,1-6.57-6.74A6.45,6.45,0,0,1,218.82,283.87Zm-3.28,0a3.3,3.3,0,1,0-6.59-.2,3.39,3.39,0,0,0,3.27,3.64A3.34,3.34,0,0,0,215.53,283.9Z" transform="translate(-108.65 -205)"/><path class="cls-1" d="M285.33,283.74c0-1.5,0-3,0-4.49,0-.59-.26-1.4.5-1.66s1.92-.51,2.59.22.85.31,1.31.06c3.6-2,6.9,0,6.92,4.09,0,2.27,0,4.53,0,6.8,0,1.22-.62,1.44-1.64,1.42s-1.85-.07-1.84-1.41q0-3,0-5.93c0-1.74-.54-2.44-1.74-2.52-1.39-.1-2.33.76-2.57,2.37a30.74,30.74,0,0,0-.27,5.92c.06,1.22-.47,1.6-1.62,1.59s-1.73-.27-1.68-1.54C285.39,287,285.33,285.38,285.33,283.74Z" transform="translate(-108.65 -205)"/><path class="cls-1" d="M364.43,283.65c0-1.4,0-2.8,0-4.2,0-.65-.25-1.49.51-1.82a2.47,2.47,0,0,1,2.61.12c.63.57.93.33,1.44,0,2.57-1.52,7-.5,6.78,4-.13,2.31-.06,4.63,0,6.94,0,1.21-.59,1.45-1.62,1.44s-1.7-.14-1.67-1.39c0-1.93,0-3.86,0-5.79,0-1.25-.14-2.48-1.77-2.68-1.35-.16-2.28.6-2.63,2.3a31.23,31.23,0,0,0-.17,5.63c0,1.79-1,2.43-2.71,1.85-.73-.24-.73-.83-.74-1.4,0-1.69,0-3.38,0-5.06Z" transform="translate(-108.65 -205)"/><path class="cls-1" d="M113.11,285.35a8.35,8.35,0,0,0-1.42-5.57c-1-1.79-1.89-3.69-2.83-5.54-.4-.78-.23-1.12.69-1.2,1.52-.13,2.72.1,3.32,1.78a29.89,29.89,0,0,0,1.6,3.07c.37.75.7.7,1.05,0,.65-1.24,1.27-2.49,1.93-3.73a3.1,3.1,0,0,1,3.52-1c.66.38.21.85,0,1.24-.93,1.85-1.85,3.72-2.88,5.51a8.43,8.43,0,0,0-1.3,5.08c.09,1,0,2,0,3,0,2-1,2.71-2.95,2.1-.65-.21-.75-.69-.76-1.24C113.1,287.86,113.11,286.85,113.11,285.35Z" transform="translate(-108.65 -205)"/><path class="cls-1" d="M138.83,282.17c0-1.27,0-2.29,0-3.3-.07-1.2.57-1.45,1.6-1.46s1.75.23,1.69,1.52c-.07,1.54,0,3.08,0,4.63a7.85,7.85,0,0,0,.28,2.14,2,2,0,0,0,2.14,1.55,1.9,1.9,0,0,0,1.94-1.62,19,19,0,0,0,.19-4.18c0-.67,0-1.35,0-2,0-1.87.38-2.17,2.24-2,.84.07,1.22.46,1.22,1.28a42.53,42.53,0,0,1-.3,7.5,5.13,5.13,0,0,1-5,4.25c-2.85.18-5-1.2-5.7-3.66A18,18,0,0,1,138.83,282.17Z" transform="translate(-108.65 -205)"/><path class="cls-1" d="M232.38,282.07c0,1.11.05,2.22,0,3.32a5.53,5.53,0,0,1-11-.07c-.16-2.07-.22-4.13-.26-6.2,0-1.37.6-1.72,1.85-1.72s1.73.41,1.7,1.68a34.42,34.42,0,0,0,.2,6.2c.21,1.28.81,2,2.19,2a2,2,0,0,0,2.08-2.14c.08-2.07.09-4.14,0-6.21,0-1.32.66-1.49,1.72-1.49s1.65.3,1.59,1.48,0,2.12,0,3.18Z" transform="translate(-108.65 -205)"/><path class="cls-1" d="M249.57,277.13a6.72,6.72,0,0,1,4.45,1.41c.52.41,1.41.73,1,1.66a2.57,2.57,0,0,1-2.77.9,4.75,4.75,0,0,0-2.72-.8,3.34,3.34,0,0,0-3.39,2,3.51,3.51,0,0,0,.54,3.93,3.57,3.57,0,0,0,3.82,1.09,4.92,4.92,0,0,0,1.2-.5,2.41,2.41,0,0,1,3.19.66c.38.52,0,.78-.27,1.09a8,8,0,0,1-8.93,1,6.69,6.69,0,0,1-3-7.52C243.48,279,246.12,277.15,249.57,277.13Z" transform="translate(-108.65 -205)"/><path class="cls-1" d="M199.53,277.14a4.29,4.29,0,0,1,2.73.81c.56.43,1.55.85.9,1.8-.54.78-1.15,1.85-2.42.88a1.47,1.47,0,0,0-.67-.25c-.47-.07-1.05-.24-1.32.27s.32.82.7,1.06c.66.4,1.36.72,2,1.11,1.88,1.09,2.69,2.65,2.32,4.39a4.15,4.15,0,0,1-4,3.23,5.47,5.47,0,0,1-4.16-1.3c-.56-.46-.85-1-.2-1.57s.87-1.72,2.05-.95a4,4,0,0,0,1.67.83,1.21,1.21,0,0,0,1.38-.56c.32-.62-.12-1-.56-1.32-.81-.52-1.7-.92-2.52-1.41a3.81,3.81,0,0,1-2-4.37A4,4,0,0,1,199.53,277.14Z" transform="translate(-108.65 -205)"/><path class="cls-1" d="M306.47,281.52c0-2.31,0-4.62,0-6.93,0-1.23.52-1.57,1.66-1.56s1.87.18,1.85,1.55c0,3.56,0,7.12,0,10.68,0,1.26.42,1.79,1.68,1.65a9.82,9.82,0,0,1,1.15,0c1.69,0,2.37,1,1.79,2.61a.94.94,0,0,1-1,.64h-5.92c-1,0-1.16-.62-1.16-1.44C306.48,286.33,306.47,283.92,306.47,281.52Z" transform="translate(-108.65 -205)"/><path class="cls-1" d="M352.19,285.28c0-1.06,0-2.12,0-3.18a1.82,1.82,0,0,0-.93-1.9,1.54,1.54,0,0,1-.24-2.37c1.56-.81,1.18-2.06,1.15-3.23s.43-1.81,1.76-1.82,1.83.44,1.81,1.77-.52,2.6,1.34,3.18c.75.23.46,2.27-.38,2.52s-1,.91-1,1.66c0,2.22,0,4.44,0,6.65,0,1.44-.74,1.63-1.92,1.64s-1.69-.39-1.62-1.6S352.19,286.38,352.19,285.28Z" transform="translate(-108.65 -205)"/><path class="cls-1" d="M152.14,283.76c0-1.54,0-3.08,0-4.63,0-.55-.2-1.26.47-1.54a2.1,2.1,0,0,1,2.2.11c.48.43.69.46,1.12.06a1.82,1.82,0,0,1,.89-.46c.76-.13,1.7-.6,2.09.51.27.77-.78,2.21-1.58,2.29-1.09.1-1.41.84-1.61,1.74a19.35,19.35,0,0,0-.1,5c0,.53,0,1.06,0,1.59.11,1.35-.55,1.74-1.82,1.74s-1.76-.4-1.69-1.67C152.2,286.95,152.14,285.35,152.14,283.76Z" transform="translate(-108.65 -205)"/><path class="cls-1" d="M234.69,283.72c0-1.54,0-3.08,0-4.62s.73-2.12,2.1-1.55a2.49,2.49,0,0,0,2.36-.16,1.71,1.71,0,0,1,1.92.06c.47.38.23.89.07,1.33-.23.67-.34,1.39-1.38,1.33s-1.35.77-1.54,1.61c-.51,2.19-.21,4.41-.27,6.62,0,1.66-1.1,2.37-2.64,1.76-.65-.26-.61-.8-.61-1.33C234.68,287.09,234.69,285.4,234.69,283.72Z" transform="translate(-108.65 -205)"/><path class="cls-1" d="M279.31,283.79c0-1.63,0-3.27,0-4.9,0-1.29.72-1.47,1.76-1.47s1.73.27,1.71,1.53q-.06,4.9,0,9.8c0,1.18-.56,1.46-1.6,1.45s-1.92-.11-1.88-1.51C279.34,287.05,279.31,285.42,279.31,283.79Z" transform="translate(-108.65 -205)"/><path class="cls-1" d="M319.53,283.82c0,1.63,0,3.27,0,4.9,0,1.17-.52,1.51-1.59,1.46s-1.89,0-1.88-1.34q0-5,0-10.09c0-1.25.79-1.34,1.74-1.34s1.74.12,1.72,1.36c0,1.68,0,3.36,0,5Z" transform="translate(-108.65 -205)"/><path class="cls-1" d="M361.84,283.93c0,1.64,0,3.27,0,4.91,0,1.15-.6,1.36-1.55,1.34s-1.74,0-1.73-1.31q.05-5.05,0-10.11c0-1.29.76-1.34,1.7-1.34s1.61.13,1.58,1.31C361.81,280.47,361.84,282.2,361.84,283.93Z" transform="translate(-108.65 -205)"/><path class="cls-1" d="M319.94,274.45a2.1,2.1,0,1,1-4.2-.11,2,2,0,0,1,2.05-2A2.2,2.2,0,0,1,319.94,274.45Z" transform="translate(-108.65 -205)"/><path class="cls-1" d="M362.3,274.42a2.09,2.09,0,1,1-4.18,0,2.14,2.14,0,0,1,2-2A2.28,2.28,0,0,1,362.3,274.42Z" transform="translate(-108.65 -205)"/><path class="cls-1" d="M283.18,274.43a2.09,2.09,0,0,1-4.19,0,2,2,0,0,1,2-2.05A2.19,2.19,0,0,1,283.18,274.43Z" transform="translate(-108.65 -205)"/></g></svg>