<svg xmlns="http://www.w3.org/2000/svg" viewBox="0 0 482 90"><defs><style>.cls-1{fill:#fff;}.cls-2{fill:#ad2020;}</style></defs><title>BulkBookstore-col</title><g id="logo"><path class="cls-1" d="M39.28,233.24c5.44,1.5,9.62,5.76,9.62,13.8,0,10.89-7.57,16.33-17.74,16.33H9V207.05H27.85c10.17,0,16.64,6.07,16.64,15.15C44.49,228.82,42.13,232,39.28,233.24Zm-14-4.5c3.47,0,5.52-2,5.52-5.52,0-3.31-2.05-5.76-5.52-5.76h-2.6v11.28Zm3.31,24.14c3.79,0,6.62-2.29,6.62-6.78,0-4.34-2.84-6.86-6.62-6.86H22.72v13.65Z" transform="translate(-9 -205)"/><path class="cls-1" d="M64.53,248c0,3.39,2,5,4.89,5s4.81-1.5,4.81-5v-20.9H87.87V248.7c0,9.94-7.26,15.54-18.45,15.54s-18.53-5.6-18.53-15.54V227.09H64.53Z" transform="translate(-9 -205)"/><path class="cls-1" d="M92.13,263.37V205h13.72v58.37Z" transform="translate(-9 -205)"/><path class="cls-1" d="M138.59,227H154.2l-16.4,17L157,263.37H139.77L125,248.46v14.91H111.3V205H125v34.94Z" transform="translate(-9 -205)"/><path class="cls-1" d="M186.52,233.24c5.44,1.5,9.62,5.76,9.62,13.8,0,10.89-7.57,16.33-17.74,16.33H156.23V207.05h18.85c10.17,0,16.64,6.07,16.64,15.15C191.72,228.82,189.36,232,186.52,233.24Zm-14-4.5c3.47,0,5.52-2,5.52-5.52,0-3.31-2.05-5.76-5.52-5.76H170v11.28Zm3.31,24.14c3.79,0,6.62-2.29,6.62-6.78,0-4.34-2.84-6.86-6.62-6.86H170v13.65Z" transform="translate(-9 -205)"/><path class="cls-1" d="M217.51,264.4c-13.33,0-20-9.54-20-19.25,0-9.54,6.7-19.25,20-19.25s19.8,9.7,19.8,19.25C237.31,254.85,230.84,264.4,217.51,264.4Zm-.08-11.67a7.49,7.49,0,0,0,0-15,7.49,7.49,0,0,0,0,15Z" transform="translate(-9 -205)"/><path class="cls-1" d="M260.64,264.4c-13.33,0-20-9.54-20-19.25,0-9.54,6.7-19.25,20-19.25s19.8,9.7,19.8,19.25C280.44,254.85,274,264.4,260.64,264.4Zm-.08-11.67a7.49,7.49,0,0,0,0-15,7.49,7.49,0,0,0,0,15Z" transform="translate(-9 -205)"/><path class="cls-1" d="M310.07,227h15.62l-16.4,17,19.24,19.41H311.25l-14.75-14.91v14.91H282.78V205h13.72v34.94Z" transform="translate(-9 -205)"/><path class="cls-1" d="M346,235.21c-2.52,0-3.55.95-3.55,2.21s1.1,2,4.1,2.45c7.34,1.18,11,6.23,11,11.44,0,7.65-5.44,13-16.33,13a24.52,24.52,0,0,1-15-5l4.5-7.49c2.13,1.5,5.92,3.55,9.54,3.55,2.52,0,4-.71,4-2.29s-1.34-2.76-4.81-3.31c-7.81-1.18-11-4.89-11-10.41,0-8.6,7.89-12.86,15.46-12.86,6.47,0,8.75,1,12.3,2.52l-3.23,8.2A13,13,0,0,0,346,235.21Z" transform="translate(-9 -205)"/><path class="cls-1" d="M358,238.37V227.09h4.42V216.52h13.64v10.57h7.65v11.28h-7.65v25H362.44v-25Z" transform="translate(-9 -205)"/><path class="cls-1" d="M403.53,264.4c-13.33,0-20-9.54-20-19.25,0-9.54,6.7-19.25,20-19.25s19.8,9.7,19.8,19.25C423.33,254.85,416.86,264.4,403.53,264.4Zm-.08-11.67a7.49,7.49,0,0,0,0-15,7.49,7.49,0,0,0,0,15Z" transform="translate(-9 -205)"/><path class="cls-1" d="M424.83,227.09h13.64v2.52a12.15,12.15,0,0,1,8.83-3.47,11,11,0,0,1,5,1V237.5a14,14,0,0,0-4.73-.71c-4.34,0-9.15,2.29-9.15,8.13v18.46H424.83Z" transform="translate(-9 -205)"/><path class="cls-1" d="M471,254.38c4.42,0,6.07-1.18,6.78-2.92h12.07c-1.66,5.28-6.07,12.94-19.4,12.94-12.78,0-19.16-9.62-19.16-19A19.23,19.23,0,0,1,471,226c14.2,0,20,9.54,20,20a16.37,16.37,0,0,1-.08,2h-26.5A6.23,6.23,0,0,0,471,254.38Zm-.16-19.25c-4.18,0-6.15,2.76-6.23,5H477.2C477,237.89,475,235.13,470.81,235.13Z" transform="translate(-9 -205)"/><path class="cls-1" d="M281.67,289.37l1.55-7h.47q-.1,1-.1,1.68a4.14,4.14,0,0,0,1.21,3.09,4.32,4.32,0,0,0,3.16,1.19,3.4,3.4,0,0,0,2.75-1.11,3.86,3.86,0,0,0,.94-2.57,3.49,3.49,0,0,0-.43-1.72,26.09,26.09,0,0,0-3.47-4,12.14,12.14,0,0,1-1.76-2.06,4.7,4.7,0,0,1-.64-2.35,4.48,4.48,0,0,1,1.47-3.36,5.24,5.24,0,0,1,3.76-1.4,6.85,6.85,0,0,1,1.47.15,10,10,0,0,1,1.56.55l.89.35a2.13,2.13,0,0,0,.43,0,1.16,1.16,0,0,0,.69-.21,2.91,2.91,0,0,0,.68-.89h.53L295.4,276h-.47c0-.55.06-1,.06-1.34a3.64,3.64,0,0,0-1.11-2.74,4,4,0,0,0-2.92-1.07,3.28,3.28,0,0,0-2.34.85,2.61,2.61,0,0,0-.9,2,3.33,3.33,0,0,0,.58,1.85,20.67,20.67,0,0,0,2.64,2.86,15.2,15.2,0,0,1,2.68,3.1,4.88,4.88,0,0,1,.61,2.37,5.55,5.55,0,0,1-.75,2.76,5.15,5.15,0,0,1-2.17,2.07,6.6,6.6,0,0,1-3.09.73,7.52,7.52,0,0,1-1.55-.15,17.94,17.94,0,0,1-2.3-.75,2.63,2.63,0,0,0-.9-.21q-.82,0-1.27,1.11Z" transform="translate(-9 -205)"/><path class="cls-1" d="M307.82,276.41l-2.7,9.39-.3,1.26a1.39,1.39,0,0,0,0,.3.59.59,0,0,0,.14.39.36.36,0,0,0,.28.12.87.87,0,0,0,.47-.22A8.07,8.07,0,0,0,307.1,286l.47.33a8.69,8.69,0,0,1-2,2.19,3.21,3.21,0,0,1-1.87.75,1.21,1.21,0,0,1-.89-.3,1.17,1.17,0,0,1-.3-.87,7.09,7.09,0,0,1,.3-1.79l.29-1a13.53,13.53,0,0,1-3.33,3.31,4.06,4.06,0,0,1-2.15.68,2.24,2.24,0,0,1-1.74-.84,3.37,3.37,0,0,1-.73-2.3,9.79,9.79,0,0,1,1.32-4.65,11.43,11.43,0,0,1,3.36-3.91,5.17,5.17,0,0,1,3-1.16,2.2,2.2,0,0,1,1.41.44,2.78,2.78,0,0,1,.85,1.47l.5-1.58Zm-4.93.72A3,3,0,0,0,301,278a10.15,10.15,0,0,0-2.51,3.49,9.89,9.89,0,0,0-1.1,4.18,2.2,2.2,0,0,0,.47,1.49,1.4,1.4,0,0,0,1.08.55q1.51,0,3.28-2.23a9.67,9.67,0,0,0,2.37-6.08,2.56,2.56,0,0,0-.46-1.7A1.56,1.56,0,0,0,302.89,277.13Z" transform="translate(-9 -205)"/><path class="cls-1" d="M308.16,277.27l4-.86a14.27,14.27,0,0,1,.69,2.09,30.18,30.18,0,0,1,.61,3.71q.11,1.08.31,4.57,1.73-1.91,2.06-2.37,1.83-2.48,2.1-2.91a6.09,6.09,0,0,0,.64-1.29,2.3,2.3,0,0,0,.15-.79q0-.36-.64-.83a1.32,1.32,0,0,1-.64-1.05,1.08,1.08,0,0,1,.35-.79,1.16,1.16,0,0,1,.84-.35,1.36,1.36,0,0,1,1,.48,1.68,1.68,0,0,1,.44,1.18,4.18,4.18,0,0,1-.22,1.36,12.34,12.34,0,0,1-1.34,2.57,41.56,41.56,0,0,1-3.17,4.06q-.28.32-3.07,3.21h-.51q-.33-8.76-1.38-10.94a1.19,1.19,0,0,0-1.15-.71,5.53,5.53,0,0,0-1,.13Z" transform="translate(-9 -205)"/><path class="cls-1" d="M322.38,283.72a8.51,8.51,0,0,0-.1,1.15,2.84,2.84,0,0,0,.87,2.1,2.9,2.9,0,0,0,2.12.87,4.68,4.68,0,0,0,1.92-.41,15.55,15.55,0,0,0,2.73-1.81l.29.4q-3.28,3.25-6.26,3.25a3.68,3.68,0,0,1-3-1.27,4.38,4.38,0,0,1-1-2.81,8.29,8.29,0,0,1,1.27-4.22,9.61,9.61,0,0,1,3.2-3.36,7.4,7.4,0,0,1,4-1.2,3.32,3.32,0,0,1,2.17.6,1.8,1.8,0,0,1,.71,1.41,3.32,3.32,0,0,1-.91,2.2,8.38,8.38,0,0,1-3.54,2.21A19.62,19.62,0,0,1,322.38,283.72Zm.1-.68a11.7,11.7,0,0,0,3.34-.8,6.74,6.74,0,0,0,2.55-1.82,3.28,3.28,0,0,0,.85-2,1.26,1.26,0,0,0-.37-.94,1.43,1.43,0,0,0-1-.36,4.53,4.53,0,0,0-3,1.5A9,9,0,0,0,322.48,283Z" transform="translate(-9 -205)"/><path class="cls-1" d="M332.8,286.46a1.36,1.36,0,0,1,1,.41,1.4,1.4,0,0,1,0,2,1.37,1.37,0,0,1-1,.41,1.4,1.4,0,1,1,0-2.8Z" transform="translate(-9 -205)"/><path class="cls-1" d="M342.55,289.37l1.55-7h.47q-.1,1-.1,1.68a4.14,4.14,0,0,0,1.21,3.09,4.32,4.32,0,0,0,3.16,1.19,3.4,3.4,0,0,0,2.75-1.11,3.86,3.86,0,0,0,.94-2.57,3.49,3.49,0,0,0-.43-1.72,26.09,26.09,0,0,0-3.47-4,12.14,12.14,0,0,1-1.76-2.06,4.7,4.7,0,0,1-.64-2.35,4.48,4.48,0,0,1,1.47-3.36,5.24,5.24,0,0,1,3.76-1.4,6.85,6.85,0,0,1,1.47.15,10,10,0,0,1,1.56.55l.89.35a2.13,2.13,0,0,0,.43,0,1.16,1.16,0,0,0,.69-.21,2.91,2.91,0,0,0,.68-.89h.53L356.28,276h-.47c0-.55.06-1,.06-1.34a3.64,3.64,0,0,0-1.11-2.74,4,4,0,0,0-2.92-1.07,3.28,3.28,0,0,0-2.34.85,2.61,2.61,0,0,0-.9,2,3.33,3.33,0,0,0,.58,1.85,20.67,20.67,0,0,0,2.64,2.86,15.2,15.2,0,0,1,2.68,3.1,4.88,4.88,0,0,1,.61,2.37,5.55,5.55,0,0,1-.75,2.76,5.15,5.15,0,0,1-2.17,2.07,6.6,6.6,0,0,1-3.09.73,7.52,7.52,0,0,1-1.55-.15,17.94,17.94,0,0,1-2.3-.75,2.63,2.63,0,0,0-.9-.21q-.82,0-1.27,1.11Z" transform="translate(-9 -205)"/><path class="cls-1" d="M361.54,276.41l-1.8,6.24a27.55,27.55,0,0,1,2-3.31,10.19,10.19,0,0,1,2.56-2.49,2.94,2.94,0,0,1,1.54-.44,1.59,1.59,0,0,1,1.15.44,1.52,1.52,0,0,1,.46,1.14,6.65,6.65,0,0,1-.32,1.77l-1,3.51a20.51,20.51,0,0,1,4.28-5.92,3.47,3.47,0,0,1,2.21-.94,1.37,1.37,0,0,1,1,.44,1.92,1.92,0,0,1,.41,1.35,6.38,6.38,0,0,1-.25,1.7l-1.52,5.39a17.64,17.64,0,0,0-.5,2,.49.49,0,0,0,.12.33.28.28,0,0,0,.22.1,1.09,1.09,0,0,0,.49-.26,7.21,7.21,0,0,0,1.48-1.61l.46.29a12,12,0,0,1-1.23,1.52,6.52,6.52,0,0,1-1.5,1.31,2.4,2.4,0,0,1-1.15.35,1.09,1.09,0,0,1-.81-.33,1.12,1.12,0,0,1-.32-.82,12.59,12.59,0,0,1,.57-2.67l1.26-4.44q.43-1.53.46-1.7a3.45,3.45,0,0,0,0-.51.86.86,0,0,0-.15-.54.49.49,0,0,0-.37-.19,1.89,1.89,0,0,0-1.23.6,18,18,0,0,0-3.57,4.93,29.88,29.88,0,0,0-2,5.36h-2.09l2.37-8.38a8.39,8.39,0,0,0,.39-1.81.85.85,0,0,0-.15-.55.47.47,0,0,0-.37-.18,1.8,1.8,0,0,0-1,.33,9.91,9.91,0,0,0-2.14,2.31,18.31,18.31,0,0,0-2,3.39q-.35.76-1.65,4.89h-2l2.56-9,.33-1.16a1.26,1.26,0,0,0,.1-.39.71.71,0,0,0-.28-.55,1,1,0,0,0-.71-.24,7.7,7.7,0,0,0-1,.17l-.13-.51Z" transform="translate(-9 -205)"/><path class="cls-1" d="M381.25,276.41l-2.74,9.7a7.15,7.15,0,0,0-.28,1.18.5.5,0,0,0,.13.36.42.42,0,0,0,.31.14.9.9,0,0,0,.5-.22,8.38,8.38,0,0,0,1.59-1.77l.48.32a9.77,9.77,0,0,1-2.21,2.42,3,3,0,0,1-1.8.73,1.3,1.3,0,0,1-.93-.34,1.12,1.12,0,0,1-.36-.85,7.09,7.09,0,0,1,.35-1.7l1.8-6.2a9.91,9.91,0,0,0,.44-1.91.64.64,0,0,0-.21-.5.84.84,0,0,0-.59-.2,10.39,10.39,0,0,0-1.26.15v-.54Zm-.18-5.49a1.37,1.37,0,1,1-1,.4A1.34,1.34,0,0,1,381.07,270.91Z" transform="translate(-9 -205)"/><path class="cls-1" d="M389.9,269.25l-4.73,16.47a8.7,8.7,0,0,0-.35,1.51.48.48,0,0,0,.13.35.43.43,0,0,0,.32.14,1,1,0,0,0,.57-.24,7.56,7.56,0,0,0,1.51-1.76l.41.43a10.1,10.1,0,0,1-2.42,2.59,2.89,2.89,0,0,1-1.55.53,1.18,1.18,0,0,1-.88-.36,1.15,1.15,0,0,1-.35-.83,9.75,9.75,0,0,1,.44-2l3.75-13a13.31,13.31,0,0,0,.46-1.83.67.67,0,0,0-.26-.55,1.28,1.28,0,0,0-.82-.21,7.18,7.18,0,0,0-1,.1V270Z" transform="translate(-9 -205)"/><path class="cls-1" d="M391.59,283.72a8.51,8.51,0,0,0-.1,1.15,2.84,2.84,0,0,0,.87,2.1,2.9,2.9,0,0,0,2.12.87,4.68,4.68,0,0,0,1.92-.41,15.55,15.55,0,0,0,2.73-1.81l.29.4q-3.28,3.25-6.26,3.25a3.68,3.68,0,0,1-3-1.27,4.38,4.38,0,0,1-1-2.81,8.29,8.29,0,0,1,1.27-4.22,9.61,9.61,0,0,1,3.2-3.36,7.4,7.4,0,0,1,4-1.2,3.32,3.32,0,0,1,2.17.6,1.8,1.8,0,0,1,.71,1.41,3.32,3.32,0,0,1-.91,2.2,8.38,8.38,0,0,1-3.54,2.21A19.62,19.62,0,0,1,391.59,283.72Zm.1-.68a11.7,11.7,0,0,0,3.34-.8,6.74,6.74,0,0,0,2.55-1.82,3.28,3.28,0,0,0,.85-2,1.26,1.26,0,0,0-.37-.94,1.43,1.43,0,0,0-1-.36,4.53,4.53,0,0,0-3,1.5A9,9,0,0,0,391.69,283Z" transform="translate(-9 -205)"/><path class="cls-1" d="M402,286.46a1.36,1.36,0,0,1,1,.41,1.4,1.4,0,0,1,0,2,1.37,1.37,0,0,1-1,.41,1.4,1.4,0,1,1,0-2.8Z" transform="translate(-9 -205)"/><path class="cls-1" d="M423.34,288.94l-3-9.12a10.32,10.32,0,0,1-2.16-.21l-1.62,5.68a7,7,0,0,0-.32,1.87,1.13,1.13,0,0,0,.4.91,3.74,3.74,0,0,0,1.66.36l-.12.51h-7.27l.15-.51a4.19,4.19,0,0,0,1.38-.21,1.76,1.76,0,0,0,.83-.64,8.9,8.9,0,0,0,.93-2.3l3.28-11.34a6.78,6.78,0,0,0,.33-1.76,1.37,1.37,0,0,0-.52-1.08,2.18,2.18,0,0,0-1.49-.43l.17-.51h6.12a6.77,6.77,0,0,1,4.43,1.16,3.83,3.83,0,0,1,1.36,3.06,4.78,4.78,0,0,1-1.39,3.32,6.45,6.45,0,0,1-3.81,1.9l1.83,5.49a6.6,6.6,0,0,0,1.33,2.63,3.42,3.42,0,0,0,2.15.69l-.15.51Zm-4.93-10.12a11.66,11.66,0,0,0,1.58.12,5.23,5.23,0,0,0,3.76-1.32,4.36,4.36,0,0,0,1.38-3.29,3.08,3.08,0,0,0-.87-2.35,3.66,3.66,0,0,0-2.6-.82,6.05,6.05,0,0,0-1.05.11Z" transform="translate(-9 -205)"/><path class="cls-1" d="M431.12,283.72a8.51,8.51,0,0,0-.1,1.15,2.84,2.84,0,0,0,.87,2.1,2.9,2.9,0,0,0,2.12.87,4.68,4.68,0,0,0,1.92-.41,15.55,15.55,0,0,0,2.73-1.81l.29.4q-3.28,3.25-6.26,3.25a3.68,3.68,0,0,1-3-1.27,4.38,4.38,0,0,1-1-2.81A8.29,8.29,0,0,1,429.9,281a9.61,9.61,0,0,1,3.2-3.36,7.4,7.4,0,0,1,4-1.2,3.32,3.32,0,0,1,2.17.6,1.8,1.8,0,0,1,.71,1.41,3.32,3.32,0,0,1-.91,2.2,8.38,8.38,0,0,1-3.54,2.21A19.62,19.62,0,0,1,431.12,283.72Zm.1-.68a11.7,11.7,0,0,0,3.34-.8,6.74,6.74,0,0,0,2.55-1.82,3.28,3.28,0,0,0,.85-2,1.26,1.26,0,0,0-.37-.94,1.43,1.43,0,0,0-1-.36,4.53,4.53,0,0,0-3,1.5A9,9,0,0,0,431.22,283Z" transform="translate(-9 -205)"/><path class="cls-1" d="M445.46,276.41l-1,3.19a11.72,11.72,0,0,1,2.69-2.48,4.66,4.66,0,0,1,2.42-.71,2.73,2.73,0,0,1,2.1,1,3.68,3.68,0,0,1,.87,2.54,10.07,10.07,0,0,1-2.48,6.19,7.22,7.22,0,0,1-5.77,3.15,4.49,4.49,0,0,1-1.23-.15,5.38,5.38,0,0,1-1.2-.54l-1,3.57a6.58,6.58,0,0,0-.3,1.37.85.85,0,0,0,.16.52,1,1,0,0,0,.52.33,5.53,5.53,0,0,0,1.43.12l-.12.51h-6.52l.14-.51a3,3,0,0,0,1.74-.44,5.08,5.08,0,0,0,.95-2.15l3.5-12.13a7.91,7.91,0,0,0,.32-1.43.77.77,0,0,0-.21-.58.91.91,0,0,0-.66-.21,8.93,8.93,0,0,0-1.12.1v-.54Zm-3.23,11.07a2.86,2.86,0,0,0,2.31,1,3.1,3.1,0,0,0,1.47-.4,5.52,5.52,0,0,0,1.46-1.19,9.59,9.59,0,0,0,1.28-1.82,13.75,13.75,0,0,0,1-2.43,9,9,0,0,0,.45-2.77,2.53,2.53,0,0,0-.51-1.69,1.52,1.52,0,0,0-1.18-.59,4,4,0,0,0-3,1.72,10.86,10.86,0,0,0-2.14,4Z" transform="translate(-9 -205)"/><path class="cls-1" d="M455.61,283.72a8.51,8.51,0,0,0-.1,1.15,2.84,2.84,0,0,0,.87,2.1,2.9,2.9,0,0,0,2.12.87,4.68,4.68,0,0,0,1.92-.41,15.55,15.55,0,0,0,2.73-1.81l.29.4q-3.28,3.25-6.26,3.25a3.68,3.68,0,0,1-3-1.27,4.38,4.38,0,0,1-1-2.81,8.29,8.29,0,0,1,1.27-4.22,9.61,9.61,0,0,1,3.2-3.36,7.4,7.4,0,0,1,4-1.2,3.32,3.32,0,0,1,2.17.6,1.8,1.8,0,0,1,.71,1.41,3.32,3.32,0,0,1-.91,2.2,8.38,8.38,0,0,1-3.54,2.21A19.62,19.62,0,0,1,455.61,283.72Zm.1-.68a11.7,11.7,0,0,0,3.34-.8,6.74,6.74,0,0,0,2.55-1.82,3.28,3.28,0,0,0,.85-2,1.26,1.26,0,0,0-.37-.94,1.43,1.43,0,0,0-1-.36,4.53,4.53,0,0,0-3,1.5A9,9,0,0,0,455.7,283Z" transform="translate(-9 -205)"/><path class="cls-1" d="M477,276.41l-2.7,9.39-.3,1.26a1.39,1.39,0,0,0,0,.3.59.59,0,0,0,.14.39.36.36,0,0,0,.28.12.87.87,0,0,0,.47-.22,8.07,8.07,0,0,0,1.44-1.66l.47.33a8.69,8.69,0,0,1-2,2.19,3.21,3.21,0,0,1-1.87.75,1.21,1.21,0,0,1-.89-.3,1.17,1.17,0,0,1-.3-.87,7.09,7.09,0,0,1,.3-1.79l.29-1a13.53,13.53,0,0,1-3.33,3.31,4.06,4.06,0,0,1-2.15.68,2.24,2.24,0,0,1-1.74-.84,3.37,3.37,0,0,1-.73-2.3,9.79,9.79,0,0,1,1.32-4.65,11.43,11.43,0,0,1,3.36-3.91,5.17,5.17,0,0,1,3-1.16,2.2,2.2,0,0,1,1.41.44,2.78,2.78,0,0,1,.85,1.47l.5-1.58Zm-4.93.72a3,3,0,0,0-1.88.83,10.15,10.15,0,0,0-2.51,3.49,9.89,9.89,0,0,0-1.1,4.18,2.2,2.2,0,0,0,.47,1.49,1.4,1.4,0,0,0,1.08.55q1.51,0,3.28-2.23a9.67,9.67,0,0,0,2.37-6.08,2.56,2.56,0,0,0-.46-1.7A1.56,1.56,0,0,0,472.05,277.13Z" transform="translate(-9 -205)"/><path class="cls-1" d="M484.08,273,483,276.74h2.17l-.23.87h-2.16l-2.38,8.17a8.15,8.15,0,0,0-.39,1.7.53.53,0,0,0,.11.36.34.34,0,0,0,.26.12,1.62,1.62,0,0,0,.91-.49,16.49,16.49,0,0,0,1.48-1.7l.46.35a9.84,9.84,0,0,1-2.41,2.62,2.77,2.77,0,0,1-1.56.53,1.36,1.36,0,0,1-1-.38,1.31,1.31,0,0,1-.39-1,9.23,9.23,0,0,1,.44-2.28l2.31-8h-2.09l.14-.54a6.79,6.79,0,0,0,2.53-1.24,11.52,11.52,0,0,0,2.26-2.86Z" transform="translate(-9 -205)"/><path class="cls-1" d="M485.81,286.46a1.36,1.36,0,0,1,1,.41,1.4,1.4,0,0,1,0,2,1.37,1.37,0,0,1-1,.41,1.4,1.4,0,1,1,0-2.8Z" transform="translate(-9 -205)"/><path class="cls-2" d="M202.6,270.32a101.21,101.21,0,0,0,18.42,7.3,81.28,81.28,0,0,0,9.25,1.92c1.56.15,3.09.42,4.65.46s3.1.15,4.66.17a70.28,70.28,0,0,0,18.55-2.55,101.36,101.36,0,0,0,18.42-7.3,40.79,40.79,0,0,1-16,13.62,47.65,47.65,0,0,1-21,4.85,50.73,50.73,0,0,1-10.82-1.23,49.53,49.53,0,0,1-10.18-3.63A41,41,0,0,1,202.6,270.32Z" transform="translate(-9 -205)"/></g></svg>