<svg xmlns="http://www.w3.org/2000/svg" width="1920" height="1144.695" viewBox="0 0 1920 1144.695"><g transform="translate(0)"><path d="M2749.183,114.345H2493.61V60.09h255.573Zm-253.546-2.038h251.519V62.117H2495.637Z" transform="translate(-1045.4 -25.192)"/><path d="M2693.208,143.161H2466.54V88.9h226.668Zm-224.641-2.033h222.614v-50.2H2468.55Z" transform="translate(-1034.052 -37.27)"/><path d="M1972.5,49.763H1845.74V17.31H1972.5Zm-124.743-2.033h122.716V19.337H1847.755Z" transform="translate(-773.793 -7.257)"/><path d="M1972.5,151.055H1845.74V128.19H1972.5Zm-124.743-2.027h122.716V130.223H1847.755Z" transform="translate(-773.793 -53.741)"/><rect width="8.619" height="37.018" transform="translate(955.788 724.05) rotate(180)"/><rect width="8.619" height="37.018" transform="translate(932.209 724.05) rotate(180)"/><rect width="8.619" height="37.018" transform="translate(909.135 724.05) rotate(180)"/><rect width="8.619" height="37.018" transform="translate(932.209 777.475) rotate(180)"/><rect width="8.619" height="37.018" transform="translate(909.135 777.475) rotate(180)"/><rect width="8.619" height="37.018" transform="translate(955.573 883.842) rotate(180)"/><rect width="8.619" height="37.018" transform="translate(909.425 883.842) rotate(180)"/><rect width="8.619" height="37.018" transform="translate(932.499 936.785) rotate(180)"/><rect width="8.619" height="37.018" transform="translate(909.425 936.785) rotate(180)"/><rect width="8.619" height="37.018" transform="translate(932.499 989.827) rotate(180)"/><rect width="8.619" height="37.018" transform="translate(955.573 989.827) rotate(180)"/><rect width="8.619" height="37.018" transform="translate(909.425 989.827) rotate(180)"/><rect width="8.619" height="37.018" transform="translate(955.573 830.708) rotate(180)"/><rect width="8.619" height="37.018" transform="translate(932.499 830.708) rotate(180)"/><path d="M1040.7,407.24h-23.5V383.73h23.5Zm-20.972-2.538h18.439V386.268h-18.439Z" transform="translate(-426.443 -160.872)"/><path d="M1040.7,465.527h-23.5V442h23.5Zm-20.972-2.538h18.439V444.555h-18.439Z" transform="translate(-426.443 -185.3)"/><path d="M1106.4,407.24h-23.51V383.73h23.51Zm-20.972-2.538h18.433V386.268h-18.433Z" transform="translate(-453.982 -160.872)"/><path d="M1106.4,465.527h-23.51V442h23.51Zm-20.972-2.538h18.433V444.555h-18.433Z" transform="translate(-453.982 -185.3)"/><path d="M1172.521,407.24H1149V383.73h23.51ZM1151.55,404.7h18.434V386.268H1151.55Z" transform="translate(-481.697 -160.872)"/><path d="M1172.521,465.527H1149V442h23.51Zm-20.972-2.538h18.434V444.555H1151.55Z" transform="translate(-481.697 -185.3)"/><path d="M1238.659,407.24H1215.15V383.73h23.509Zm-20.971-2.538h18.434V386.268h-18.434Z" transform="translate(-509.429 -160.872)"/><path d="M1238.659,465.527H1215.15V442h23.509Zm-20.971-2.538h18.434V444.555h-18.434Z" transform="translate(-509.429 -185.3)"/><path d="M1304.354,407.24h-23.5V383.73h23.5Zm-20.972-2.538h18.463V386.268h-18.439Z" transform="translate(-536.973 -160.872)"/><path d="M1304.354,465.527h-23.5V442h23.5Zm-20.972-2.538h18.463V444.555h-18.439Z" transform="translate(-536.973 -185.3)"/><path d="M1370.492,407.24H1347V383.73h23.5Zm-20.972-2.538h18.439V386.268h-18.439Z" transform="translate(-564.705 -160.872)"/><path d="M1370.492,465.527H1347V442h23.5Zm-20.972-2.538h18.439V444.555h-18.439Z" transform="translate(-564.705 -185.3)"/><path d="M1436.179,407.24H1412.67V383.73h23.509Zm-20.995-2.538h18.434V386.268h-18.434Z" transform="translate(-592.236 -160.872)"/><path d="M1436.179,465.527H1412.67V442h23.509Zm-20.995-2.538h18.434V444.555h-18.434Z" transform="translate(-592.236 -185.3)"/><rect width="24.003" height="2.538" transform="translate(590.252 205.522)"/><rect width="24.003" height="2.538" transform="translate(628.659 205.522)"/><path d="M617.506,259.609l-72.166-125H689.673ZM549.731,137.16l67.776,117.379L685.282,137.16Z" transform="translate(-228.624 -56.433)"/><path d="M570.528,16.35,557.1,29.853l-1.3-2.288,10.837-10.9Z" transform="translate(-233.009 -6.854)"/><path d="M599.745,13.09,570.631,42.361l-1.3-2.282L595.854,13.4Z" transform="translate(-238.681 -5.488)"/><path d="M628.973,9.81,584.155,54.872l-1.3-2.3,42.216-42.443Z" transform="translate(-244.353 -4.113)"/><path d="M658.19,6.54l-60.5,60.835-1.3-2.294L654.3,6.854Z" transform="translate(-250.026 -2.742)"/><path d="M687.408,3.27l-76.2,76.615-1.3-2.294,73.607-74Z" transform="translate(-255.694 -1.371)"/><path d="M716.624,0,624.729,92.389,623.44,90.1,712.739.314Z" transform="translate(-261.366)"/><path d="M725.852,25.14l-4.78,8.4L638.261,116.8l-1.3-2.288Z" transform="translate(-267.034 -10.539)"/><path d="M702.544,112.81l-4.791,8.415-45.968,46.218-1.3-2.3Z" transform="translate(-272.706 -47.294)"/><path d="M679.226,200.48l-4.786,8.415-9.13,9.176-1.3-2.294Z" transform="translate(-278.374 -84.048)"/><path d="M780.521,415.275V375.19H740.43Z" transform="translate(-310.412 -157.292)"/><path d="M780.521,484.306v-40.1H740.43Z" transform="translate(-310.412 -186.227)"/><path d="M780.521,553.34V513.25H740.43Z" transform="translate(-310.412 -215.171)"/><rect width="123.245" height="2.538" transform="matrix(0.706, -0.708, 0.708, 0.706, 595.446, 425.624)"/><rect width="123.245" height="2.538" transform="matrix(0.706, -0.708, 0.708, 0.706, 617.415, 425.624)"/><rect width="123.245" height="2.538" transform="matrix(0.706, -0.708, 0.708, 0.706, 639.383, 425.63)"/><rect width="123.245" height="2.538" transform="matrix(0.706, -0.708, 0.708, 0.706, 661.345, 425.631)"/><path d="M1935.712,441.493h-9.7V431.8h-2.9v9.693h-9.7v2.91h9.7V454.1h2.9V444.4h9.7Z" transform="translate(-802.162 -181.024)"/><path d="M1935.712,532.563h-9.7V522.87h-2.9v9.693h-9.7v2.91h9.7v9.693h2.9v-9.693h9.7Z" transform="translate(-802.162 -219.204)"/><path d="M2024.182,441.493h-9.693V431.8h-2.91v9.693h-9.7v2.91h9.7V454.1h2.91V444.4h9.693Z" transform="translate(-839.251 -181.024)"/><path d="M2024.182,532.563h-9.693V522.87h-2.91v9.693h-9.7v2.91h9.7v9.693h2.91v-9.693h9.693Z" transform="translate(-839.251 -219.204)"/><path d="M1935.712,626.859h-9.7v-9.7h-2.9v9.7h-9.7v2.91h9.7v9.693h2.9v-9.693h9.7Z" transform="translate(-802.162 -258.733)"/><path d="M2024.182,626.859h-9.693v-9.7h-2.91v9.7h-9.7v2.91h9.7v9.693h2.91v-9.693h9.693Z" transform="translate(-839.251 -258.733)"/><path d="M2112.466,441.493h-9.693V431.8h-2.91v9.693h-9.693v2.91h9.693V454.1h2.91V444.4h9.693Z" transform="translate(-876.265 -181.024)"/><path d="M2112.466,532.563h-9.693V522.87h-2.91v9.693h-9.693v2.91h9.693v9.693h2.91v-9.693h9.693Z" transform="translate(-876.265 -219.204)"/><path d="M2200.756,441.493h-9.693V431.8h-2.91v9.693h-9.693v2.91h9.693V454.1h2.91V444.4h9.693Z" transform="translate(-913.279 -181.024)"/><path d="M2200.756,532.563h-9.693V522.87h-2.91v9.693h-9.693v2.91h9.693v9.693h2.91v-9.693h9.693Z" transform="translate(-913.279 -219.204)"/><path d="M2289.226,441.493h-9.693V431.8h-2.909v9.693h-9.693v2.91h9.693V454.1h2.909V444.4h9.693Z" transform="translate(-950.369 -181.024)"/><path d="M2289.226,532.563h-9.693V522.87h-2.909v9.693h-9.693v2.91h9.693v9.693h2.909v-9.693h9.693Z" transform="translate(-950.369 -219.204)"/><rect width="2.538" height="271.19" transform="translate(1119.57 634.309)"/><rect width="2.538" height="246.6" transform="translate(1103.837 658.899)"/><rect width="2.538" height="222.353" transform="translate(1088.615 683.146)"/><rect width="2.538" height="199.959" transform="translate(1072.882 705.541)"/><circle cx="9.414" cy="9.414" r="9.414" transform="translate(1644.852 865.583)"/><circle cx="8.619" cy="8.619" r="8.619" transform="translate(1298.453 488.734)"/><circle cx="8.619" cy="8.619" r="8.619" transform="translate(1343.84 488.734)"/><circle cx="8.619" cy="8.619" r="8.619" transform="translate(1298.453 524.242)"/><path d="M2322.15,920.049a9.13,9.13,0,1,1,9.129-9.13A9.13,9.13,0,0,1,2322.15,920.049Zm0-17.243a8.131,8.131,0,1,0,8.131,8.131A8.131,8.131,0,0,0,2322.15,902.806Z" transform="translate(-969.691 -378.059)"/><circle cx="8.619" cy="8.619" r="8.619" transform="translate(1298.453 559.75)"/><path d="M2322.15,981.189a9.13,9.13,0,1,1,9.129-9.13A9.13,9.13,0,0,1,2322.15,981.189Zm0-17.243a8.131,8.131,0,1,0,8.131,8.131,8.131,8.131,0,0,0-8.131-8.131Z" transform="translate(-969.691 -403.691)"/><circle cx="8.619" cy="8.619" r="8.619" transform="translate(1298.453 595.264)"/><path d="M2322.15,1042.329a9.13,9.13,0,1,1,9.129-9.124A9.13,9.13,0,0,1,2322.15,1042.329Zm0-17.237a8.131,8.131,0,1,0,8.131,8.131,8.131,8.131,0,0,0-8.131-8.131Z" transform="translate(-969.691 -429.323)"/><circle cx="8.619" cy="8.619" r="8.619" transform="translate(1298.453 630.772)"/><path d="M2322.15,1103.479a9.13,9.13,0,1,1,9.129-9.13,9.13,9.13,0,0,1-9.129,9.13Zm0-17.243a8.122,8.122,0,1,1,0,.017Z" transform="translate(-969.691 -454.959)"/><circle cx="8.619" cy="8.619" r="8.619" transform="translate(1298.453 666.286)"/><path d="M2322.15,1164.619a9.13,9.13,0,1,1,9.129-9.124,9.13,9.13,0,0,1-9.129,9.124Zm0-17.237a8.131,8.131,0,1,0,8.131,8.131,8.131,8.131,0,0,0-8.131-8.131Z" transform="translate(-969.691 -480.59)"/><circle cx="8.619" cy="8.619" r="8.619" transform="translate(1298.453 701.795)"/><circle cx="8.619" cy="8.619" r="8.619" transform="translate(1343.84 701.795)"/><circle cx="9.414" cy="9.414" r="9.414" transform="translate(1615.756 894.889)"/><circle cx="9.414" cy="9.414" r="9.414" transform="translate(1586.868 923.985)"/><circle cx="9.414" cy="9.414" r="9.414" transform="translate(1557.772 953.296)"/><path d="M2169.754,1779.989a94.085,94.085,0,1,1,94.084-94.084A94.193,94.193,0,0,1,2169.754,1779.989Zm0-185.59a91.529,91.529,0,1,0,91.529,91.529A91.633,91.633,0,0,0,2169.754,1594.4Z" transform="translate(-870.186 -667.341)"/><path d="M2146.633,1788.927a126.108,126.108,0,1,1,89.177-36.937A126.107,126.107,0,0,1,2146.633,1788.927Zm0-249.684a123.573,123.573,0,1,0,123.576,123.576A123.714,123.714,0,0,0,2146.633,1539.243Z" transform="translate(-847.065 -644.232)"/><rect width="16.732" height="16.732" transform="translate(1202.985 691.373) rotate(-45)"/><rect width="16.732" height="16.732" transform="translate(1202.987 734.271) rotate(-45)"/><rect width="16.732" height="16.732" transform="translate(1202.988 777.278) rotate(-45)"/><rect width="16.732" height="16.732" transform="translate(1202.986 819.875) rotate(-45)"/><path d="M1912.5,893.733h-1.266V788.44h1.266a52.647,52.647,0,0,1,0,105.293Zm1.272-102.744V891.184a50.114,50.114,0,0,0,0-100.194Z" transform="translate(-801.248 -330.539)"/><circle cx="6.772" cy="6.772" r="6.772" transform="translate(542.995 808.912)"/><circle cx="6.772" cy="6.772" r="6.772" transform="translate(542.995 837.619)"/><circle cx="6.772" cy="6.772" r="6.772" transform="translate(542.995 866.326)"/><circle cx="6.772" cy="6.772" r="6.772" transform="translate(542.995 895.028)"/><path d="M941.17,1604.26a7.55,7.55,0,1,1,7.55-7.55,7.55,7.55,0,0,1-7.55,7.55Zm0-13.538a6.011,6.011,0,1,0,6.028,6.011A6.011,6.011,0,0,0,941.17,1590.722Z" transform="translate(-391.403 -666.226)"/><circle cx="6.772" cy="6.772" r="6.772" transform="translate(580.112 808.912)"/><path d="M1005.08,1455.99a7.55,7.55,0,1,1,7.55-7.55,7.55,7.55,0,0,1-7.55,7.55Zm0-13.543a6.011,6.011,0,1,0,6.011,6.011A6.011,6.011,0,0,0,1005.08,1442.447Z" transform="translate(-418.196 -604.067)"/><circle cx="6.772" cy="6.772" r="6.772" transform="translate(580.112 866.326)"/><circle cx="6.772" cy="6.772" r="6.772" transform="translate(580.112 895.028)"/><circle cx="6.772" cy="6.772" r="6.772" transform="translate(580.112 923.735)"/><circle cx="6.772" cy="6.772" r="6.772" transform="translate(617.026 808.912)"/><circle cx="6.772" cy="6.772" r="6.772" transform="translate(617.026 837.619)"/><circle cx="6.772" cy="6.772" r="6.772" transform="translate(617.026 866.326)"/><circle cx="6.772" cy="6.772" r="6.772" transform="translate(617.026 895.028)"/><circle cx="6.772" cy="6.772" r="6.772" transform="translate(617.026 923.735)"/><circle cx="6.772" cy="6.772" r="6.772" transform="translate(653.934 808.912)"/><circle cx="6.772" cy="6.772" r="6.772" transform="translate(653.934 837.619)"/><circle cx="6.772" cy="6.772" r="6.772" transform="translate(653.934 866.326)"/><path d="M1132.19,1554.84a7.55,7.55,0,1,1,7.55-7.55A7.55,7.55,0,0,1,1132.19,1554.84Zm0-13.543a6.011,6.011,0,1,0,6.011,6.011A6.011,6.011,0,0,0,1132.19,1541.3Z" transform="translate(-471.485 -645.508)"/><circle cx="6.772" cy="6.772" r="6.772" transform="translate(653.934 923.735)"/><circle cx="6.772" cy="6.772" r="6.772" transform="translate(690.847 808.912)"/><circle cx="6.772" cy="6.772" r="6.772" transform="translate(690.847 837.619)"/><circle cx="6.772" cy="6.772" r="6.772" transform="translate(690.847 866.326)"/><circle cx="6.772" cy="6.772" r="6.772" transform="translate(690.847 895.028)"/><circle cx="6.772" cy="6.772" r="6.772" transform="translate(690.847 923.735)"/><circle cx="6.772" cy="6.772" r="6.772" transform="translate(727.964 808.912)"/><path d="M1259.66,1455.99a7.55,7.55,0,1,1,7.55-7.55,7.55,7.55,0,0,1-7.55,7.55Zm0-13.543a6.011,6.011,0,1,0,6.005,6.011A6.011,6.011,0,0,0,1259.66,1442.447Z" transform="translate(-524.924 -604.067)"/><circle cx="6.772" cy="6.772" r="6.772" transform="translate(727.964 866.326)"/><circle cx="6.772" cy="6.772" r="6.772" transform="translate(727.964 895.028)"/><circle cx="6.772" cy="6.772" r="6.772" transform="translate(727.964 923.735)"/><circle cx="6.772" cy="6.772" r="6.772" transform="translate(764.471 808.912)"/><circle cx="6.772" cy="6.772" r="6.772" transform="translate(764.471 837.619)"/><circle cx="6.772" cy="6.772" r="6.772" transform="translate(764.471 866.326)"/><circle cx="6.772" cy="6.772" r="6.772" transform="translate(764.471 895.028)"/><circle cx="6.772" cy="6.772" r="6.772" transform="translate(764.471 923.735)"/><path d="M1512.854,898.25h-80.727l-40.358-69.907,40.358-69.913h80.727l40.364,69.913Zm-79.263-2.538h77.823l38.911-67.369-38.911-67.369h-77.823l-38.911,67.369Z" transform="translate(-583.474 -317.958)"/><path d="M1649.32,898.25h-80.727l-40.363-69.907,40.363-69.913h80.727l40.363,69.913Zm-79.257-2.538h77.823l38.911-67.369-38.911-67.369h-77.823l-38.911,67.369Z" transform="translate(-640.682 -317.958)"/><path d="M367.164,1112.889H250.9v-64.1H367.164Zm-113.726-2.538H364.626v-59.029H253.438Z" transform="translate(-105.185 -439.686)"/><rect width="2.538" height="97.319" transform="translate(392.477 723.91)"/><rect width="2.538" height="97.319" transform="translate(378.591 723.91)"/><rect width="2.538" height="97.319" transform="translate(364.705 723.91)"/><rect width="2.538" height="97.319" transform="translate(350.819 723.91)"/><rect width="2.538" height="97.319" transform="translate(336.939 723.91)"/><rect width="2.538" height="97.319" transform="translate(323.052 723.91)"/><rect width="2.538" height="97.319" transform="translate(309.166 723.91)"/><path d="M530.981,1427.566H431.49V1328.08h99.491Zm-96.959-2.544h94.421v-94.41H434.022Z" transform="translate(-180.894 -556.773)"/><path d="M447.5,1511.351H348V1411.86h99.486Zm-96.953-2.538h94.445V1414.4H350.544Z" transform="translate(-145.893 -591.896)"/><path d="M2794.108,923.039a160.066,160.066,0,1,1,113.186-46.88A160.064,160.064,0,0,1,2794.108,923.039Zm0-317.6c-86.865,0-157.539,70.674-157.539,157.539s70.674,157.533,157.539,157.533,157.534-70.668,157.534-157.533S2880.974,605.435,2794.108,605.435Z" transform="translate(-1104.27 -252.751)"/><path d="M2781.367,927.977a177.715,177.715,0,1,1,125.678-52.06A177.713,177.713,0,0,1,2781.367,927.977Zm0-354.455c-97.447,0-176.722,79.275-176.722,176.722s79.275,176.716,176.722,176.716,176.751-79.275,176.751-176.716S2878.809,573.523,2781.367,573.523Z" transform="translate(-1091.529 -240.022)"/><path d="M2769.925,933.348a193.832,193.832,0,1,1,75.7-15.28A193.831,193.831,0,0,1,2769.925,933.348Zm0-387.918c-106.675,0-193.459,86.778-193.459,193.454s86.784,193.454,193.459,193.454,193.454-86.784,193.454-193.454S2876.594,545.43,2769.925,545.43Z" transform="translate(-1080.086 -228.662)"/><path d="M2757.9,937.983a210.488,210.488,0,1,1,82.179-16.593,210.488,210.488,0,0,1-82.179,16.593Zm0-421.243c-115.863,0-210.122,94.253-210.122,210.116s94.259,210.116,210.122,210.116,210.116-94.259,210.116-210.116S2873.758,516.74,2757.9,516.74Z" transform="translate(-1068.062 -216.634)"/><path d="M2745.694,942.713a227.429,227.429,0,1,1,88.805-17.928A227.429,227.429,0,0,1,2745.694,942.713Zm0-455.293c-125.249,0-227.145,101.9-227.145,227.144S2620.446,941.7,2745.694,941.7s227.138-101.9,227.138-227.138S2870.937,487.42,2745.694,487.42Z" transform="translate(-1055.856 -204.342)"/><path d="M2954.584,878.53c0,96.326-78.363,174.689-174.689,174.689s-174.7-78.363-174.7-174.689h-5.07a179.757,179.757,0,1,0,359.513,0Z" transform="translate(-1090.057 -368.308)"/><path d="M2959.24,878.53c0,105.549-85.878,191.421-191.427,191.421s-191.427-85.873-191.427-191.421h-5.076c0,108.526,87.974,196.5,196.5,196.5s196.5-87.978,196.5-196.5Z" transform="translate(-1077.975 -368.308)"/><path d="M2963.914,878.53c0,114.737-93.353,208.083-208.089,208.083s-208.09-93.347-208.09-208.083h-5.076c0,117.726,95.436,213.162,213.162,213.162s213.162-95.436,213.162-213.162Z" transform="translate(-1065.964 -368.308)"/><path d="M2968.593,878.53c0,124.122-100.99,225.106-225.112,225.106S2518.34,1002.652,2518.34,878.53h-5.07c0,127.129,103.056,230.188,230.185,230.188s230.188-103.058,230.188-230.187Z" transform="translate(-1053.643 -368.308)"/><path d="M262.632,568.885a2.021,2.021,0,0,1,1.9-2.143h0a2.027,2.027,0,0,1,2.137,1.917h0a2.021,2.021,0,0,1-1.9,2.137h-.116a2.021,2.021,0,0,1-2.021-1.911Zm-7.3,1.69h0a2.033,2.033,0,0,1-1.806-2.236h0a2.027,2.027,0,0,1,2.23-1.8h0a2.021,2.021,0,0,1,1.8,2.23h0a2.021,2.021,0,0,1-2.009,1.812h-.215Zm16.372-2.614a2.027,2.027,0,0,1,1.533-2.422h0a2.033,2.033,0,0,1,2.428,1.539h0a2.033,2.033,0,0,1-1.539,2.422h0a2.317,2.317,0,0,1-.447.047h0a2.021,2.021,0,0,1-1.992-1.586Zm-25.658.865h0a2.033,2.033,0,0,1-1.417-2.491h0a2.039,2.039,0,0,1,2.5-1.423h0a2.033,2.033,0,0,1,1.417,2.5h0a2.033,2.033,0,0,1-1.957,1.487h0a1.917,1.917,0,0,1-.54-.07Zm34.463-3.258a2.021,2.021,0,0,1,1.121-2.637h0a2.027,2.027,0,0,1,2.642,1.121h0a2.027,2.027,0,0,1-1.127,2.637h0a2.07,2.07,0,0,1-.761.151h0a2.033,2.033,0,0,1-1.876-1.272Zm-43.337,0a2.027,2.027,0,0,1-.993-2.689h0a2.027,2.027,0,0,1,2.689-1h0a2.027,2.027,0,0,1,.993,2.695h0a2.015,2.015,0,0,1-1.841,1.162h0a2.014,2.014,0,0,1-.848-.145Zm51.636-3.8a2.021,2.021,0,0,1,.68-2.788h0a2.027,2.027,0,0,1,2.788.674h0a2.033,2.033,0,0,1-.68,2.788h0a2.01,2.01,0,0,1-1.057.3h0a2.039,2.039,0,0,1-1.731-.97Zm-59.86-.819a2.033,2.033,0,0,1-.546-2.817h0a2.027,2.027,0,0,1,2.817-.546h0a2.027,2.027,0,0,1,.546,2.817h0a2.021,2.021,0,0,1-1.684.894h0a2.045,2.045,0,0,1-1.133-.337Zm67.427-4.28a2.027,2.027,0,0,1,.221-2.857h0a2.027,2.027,0,0,1,2.857.215h0a2.033,2.033,0,0,1-.215,2.863h0a2.021,2.021,0,0,1-1.318.488h0a2.015,2.015,0,0,1-1.545-.7Zm-74.791-1.626a2.021,2.021,0,0,1-.081-2.869h0a2.021,2.021,0,0,1,2.863-.081h0a2.021,2.021,0,0,1,.081,2.869h0a2.044,2.044,0,0,1-1.475.633h0a2,2,0,0,1-1.388-.54Zm81.441-4.646a2.033,2.033,0,0,1-.25-2.857h0a2.033,2.033,0,0,1,2.863-.25h0a2.038,2.038,0,0,1,.244,2.863h0a2.027,2.027,0,0,1-1.556.72h0a2.021,2.021,0,0,1-1.278-.436Zm-87.766-2.4a2.027,2.027,0,0,1,.383-2.846h0a2.027,2.027,0,0,1,2.84.378h0a2.033,2.033,0,0,1-.377,2.846h0a2.032,2.032,0,0,1-1.231.418h0a2.027,2.027,0,0,1-1.615-.755Zm93.312-4.815a2.033,2.033,0,0,1-.7-2.782h0a2.027,2.027,0,0,1,2.782-.7h0a2.033,2.033,0,0,1,.709,2.782h0a2.044,2.044,0,0,1-1.742.987h0A2,2,0,0,1,308.57,543.18Zm-98.417-3.113a2.039,2.039,0,0,1,.836-2.747h0a2.033,2.033,0,0,1,2.747.836h0a2.033,2.033,0,0,1-.836,2.747h0a2.084,2.084,0,0,1-.952.238h0a2.044,2.044,0,0,1-1.795-1.057Zm102.726-4.919a2.044,2.044,0,0,1-1.162-2.637h0a2.033,2.033,0,0,1,2.631-1.162h0a2.039,2.039,0,0,1,1.162,2.631h0a2.038,2.038,0,0,1-1.893,1.289h0a2.051,2.051,0,0,1-.738-.1Zm-106.472-3.74a2.033,2.033,0,0,1,1.272-2.573h0a2.033,2.033,0,0,1,2.573,1.272h0a2.033,2.033,0,0,1-1.272,2.573h0a2.142,2.142,0,0,1-.65.1h0a2.027,2.027,0,0,1-1.922-1.376Zm109.417-4.878a2.033,2.033,0,0,1-1.562-2.4h0a2.027,2.027,0,0,1,2.4-1.562h0a2.033,2.033,0,0,1,1.568,2.4h0a2.027,2.027,0,0,1-1.98,1.6h0A2.1,2.1,0,0,1,315.824,526.53Zm-111.688-4.292a2.027,2.027,0,0,1,1.673-2.323h0a2.033,2.033,0,0,1,2.323,1.673h0a2.033,2.033,0,0,1-1.673,2.323h0a2.111,2.111,0,0,1-.331,0h0a2.027,2.027,0,0,1-2-1.673Zm113.18-4.7a2.033,2.033,0,0,1-1.934-2.12h0a2.033,2.033,0,0,1,2.126-1.934h0a2.033,2.033,0,0,1,1.928,2.12h0a2.027,2.027,0,0,1-2.027,1.934h-.093Zm-113.941-4.71A2.027,2.027,0,0,1,205.4,510.8h0a2.033,2.033,0,0,1,2.033,2.027h0a2.033,2.033,0,0,1-2.033,2.033h0a2.033,2.033,0,0,1-2.033-2.033Zm2.1-3.328a2.027,2.027,0,0,1-1.824-2.213h0a2.021,2.021,0,0,1,2.207-1.829h0a2.027,2.027,0,0,1,1.829,2.207h0a2.038,2.038,0,0,1-2.038,1.835Zm109.626-2.9a2.021,2.021,0,0,1,1.789-2.242h0a2.021,2.021,0,0,1,2.242,1.783h0a2.027,2.027,0,0,1-1.783,2.242h-.232a2.027,2.027,0,0,1-2.033-1.748ZM206.75,500.436a2.027,2.027,0,0,1-1.446-2.48h0a2.027,2.027,0,0,1,2.474-1.446h0a2.033,2.033,0,0,1,1.446,2.48h0a2.027,2.027,0,0,1-1.957,1.51h0a2.247,2.247,0,0,1-.534-.029ZM313.4,497.973a2.021,2.021,0,0,1,1.394-2.5h0a2.027,2.027,0,0,1,2.5,1.394h0a2.033,2.033,0,0,1-1.394,2.509h0a2.046,2.046,0,0,1-.581.075h0a2.021,2.021,0,0,1-1.94-1.44Zm-103.958-6.249a2.021,2.021,0,0,1-1.022-2.677h0a2.027,2.027,0,0,1,2.677-1.022h0a2.027,2.027,0,0,1,1.022,2.683h0a2.027,2.027,0,0,1-1.853,1.2h0a1.992,1.992,0,0,1-.813-.145Zm100.833-1.975a2.027,2.027,0,0,1,.97-2.7h0a2.033,2.033,0,0,1,2.7.964h0a2.027,2.027,0,0,1-.97,2.7h0a2.08,2.08,0,0,1-.865.192h0a2.021,2.021,0,0,1-1.824-1.121Zm-96.721-6.127a2.033,2.033,0,0,1-.581-2.817h0a2.021,2.021,0,0,1,2.805-.581h0a2.027,2.027,0,0,1,.581,2.805h0a2.021,2.021,0,0,1-1.7.912h0A2.055,2.055,0,0,1,213.557,483.623Zm92.342-1.452h0a2.015,2.015,0,0,1,.511-2.817h0a2.039,2.039,0,0,1,2.828.511h0a2.033,2.033,0,0,1-.523,2.823h0a2.01,2.01,0,0,1-1.162.36h0a2.033,2.033,0,0,1-1.655-.848Zm-86.964-5.918a2.027,2.027,0,0,1-.11-2.869h0a2.027,2.027,0,0,1,2.869-.1h0a2.027,2.027,0,0,1,.1,2.863h0a2.027,2.027,0,0,1-1.487.65h0A2.021,2.021,0,0,1,218.935,476.253Zm81.4-.883a2.033,2.033,0,0,1,.058-2.869h0a2.021,2.021,0,0,1,2.863.058h0a2.015,2.015,0,0,1-.052,2.863h0A2,2,0,0,1,301.8,476h0A2.033,2.033,0,0,1,300.335,475.37Zm-74.919-5.523a2.039,2.039,0,0,1,.36-2.846h0a2.027,2.027,0,0,1,2.846.348h0a2.039,2.039,0,0,1-.354,2.852h0a2.015,2.015,0,0,1-1.249.424h0a2.032,2.032,0,0,1-1.6-.778Zm68.327-.29a2.033,2.033,0,0,1-.412-2.84h0a2.039,2.039,0,0,1,2.84-.412h0a2.033,2.033,0,0,1,.412,2.84h0a2.021,2.021,0,0,1-1.626.813h0a2.056,2.056,0,0,1-1.2-.4Zm-60.882-4.989a2.027,2.027,0,0,1,.813-2.747h0a2.021,2.021,0,0,1,2.753.807h0a2.033,2.033,0,0,1-.813,2.753h0a2.085,2.085,0,0,1-.964.244h0a2.033,2.033,0,0,1-1.783-1.057Zm53.431.314a2.021,2.021,0,0,1-.865-2.735h0a2.033,2.033,0,0,1,2.735-.865h0a2.033,2.033,0,0,1,.865,2.741h0a2.033,2.033,0,0,1-1.8,1.086h0a2.016,2.016,0,0,1-.912-.227Zm-45.242-4.309a2.021,2.021,0,0,1,1.249-2.584h0a2.033,2.033,0,0,1,2.579,1.243h0a2.027,2.027,0,0,1-1.249,2.59h0a2.037,2.037,0,0,1-.668.11h0a2.021,2.021,0,0,1-1.888-1.359Zm37.169.906h0a2.033,2.033,0,0,1-1.3-2.561h0a2.021,2.021,0,0,1,2.555-1.3h0a2.021,2.021,0,0,1,1.3,2.555h0a2.033,2.033,0,0,1-1.928,1.4h0a1.944,1.944,0,0,1-.627-.1Zm-28.411-3.514a2.038,2.038,0,0,1,1.655-2.323h0a2.021,2.021,0,0,1,2.323,1.649h0a2.027,2.027,0,0,1-1.644,2.352h0a2.434,2.434,0,0,1-.354.029h0a2.044,2.044,0,0,1-1.98-1.707Zm19.862,1.481a2.027,2.027,0,0,1-1.7-2.323h0a2.039,2.039,0,0,1,2.323-1.7h0a2.044,2.044,0,0,1,1.7,2.323h0a2.039,2.039,0,0,1-2,1.742h0a1.9,1.9,0,0,1-.325-.041Zm-10.808-2.625a2.027,2.027,0,0,1,2.009-2.05h0a2.033,2.033,0,0,1,2.05,2.009h0a2.021,2.021,0,0,1-2.009,2.044h0a2.021,2.021,0,0,1-2.05-2Z" transform="translate(-85.259 -190.654)"/><path d="M229.276,581.6h0a2.038,2.038,0,0,1-1.946-2.114h0a2.033,2.033,0,0,1,2.12-1.94h0a2.021,2.021,0,0,1,1.934,2.114h0a2.021,2.021,0,0,1-2.021,1.94h-.087Zm11.232-2.178a2.033,2.033,0,0,1,1.824-2.213h0a2.027,2.027,0,0,1,2.213,1.829h0a2.021,2.021,0,0,1-1.824,2.207h0a1.159,1.159,0,0,1-.2,0h0A2.021,2.021,0,0,1,240.508,579.424Zm-24.6.7a2.038,2.038,0,0,1-1.632-2.364h0a2.033,2.033,0,0,1,2.364-1.632h0a2.027,2.027,0,0,1,1.626,2.358h0a2.021,2.021,0,0,1-1.992,1.667h0a2.6,2.6,0,0,1-.366-.029Zm37.622-2.579a2.027,2.027,0,0,1,1.5-2.445h0a2.038,2.038,0,0,1,2.445,1.5h0a2.027,2.027,0,0,1-1.5,2.445h0a2.267,2.267,0,0,1-.476.058h0A2.027,2.027,0,0,1,253.529,577.542Zm-50.672-.755a2.027,2.027,0,0,1-1.284-2.567h0a2.027,2.027,0,0,1,2.561-1.289h0a2.033,2.033,0,0,1,1.283,2.567h0a2.027,2.027,0,0,1-1.922,1.388h0a2.031,2.031,0,0,1-.621-.1Zm63.3-2.9a2.027,2.027,0,0,1,1.162-2.631h0a2.038,2.038,0,0,1,2.637,1.161h0a2.038,2.038,0,0,1-1.162,2.631h0a1.961,1.961,0,0,1-.738.145h0a2.033,2.033,0,0,1-1.858-1.324Zm-75.767-2.2a2.027,2.027,0,0,1-.918-2.718h0a2.015,2.015,0,0,1,2.718-.912h0a2.033,2.033,0,0,1,.918,2.718h0a2.056,2.056,0,0,1-1.824,1.127h0a1.987,1.987,0,0,1-.854-.232Zm87.783-3.212a2.039,2.039,0,0,1,.772-2.764h0a2.033,2.033,0,0,1,2.765.772h0a2.027,2.027,0,0,1-.772,2.764h0a1.969,1.969,0,0,1-.993.261h0a2.038,2.038,0,0,1-1.731-1.051Zm-99.387-3.577h0a2.033,2.033,0,0,1-.534-2.823h0a2.033,2.033,0,0,1,2.823-.529h0a2.027,2.027,0,0,1,.528,2.817h0a2.027,2.027,0,0,1-1.678.883h0a2,2,0,0,1-1.1-.366Zm110.538-3.444a2.027,2.027,0,0,1,.383-2.846h0a2.033,2.033,0,0,1,2.846.383h0a2.033,2.033,0,0,1-.383,2.846h0a2.027,2.027,0,0,1-1.231.412h0a2.027,2.027,0,0,1-1.574-.813Zm-121.055-4.913a2.033,2.033,0,0,1-.139-2.863h0a2.033,2.033,0,0,1,2.869-.134h0a2.021,2.021,0,0,1,.134,2.863h0a2,2,0,0,1-1.5.662h0A1.993,1.993,0,0,1,168.272,556.536Zm131.167-3.595a2.033,2.033,0,0,1,0-2.9h0a2.021,2.021,0,0,1,2.863,0h0a2.033,2.033,0,0,1,0,2.869h0a2.033,2.033,0,0,1-1.446.581h0a2.044,2.044,0,0,1-1.417-.546Zm-140.47-6.11a2.027,2.027,0,0,1,.256-2.857h0a2.038,2.038,0,0,1,2.857.255h0a2.033,2.033,0,0,1-.261,2.863h0a2.027,2.027,0,0,1-1.3.465h0A2.021,2.021,0,0,1,158.968,546.831Zm149.257-3.688a2.027,2.027,0,0,1-.407-2.84h0a2.015,2.015,0,0,1,2.834-.412h0a2.027,2.027,0,0,1,.412,2.84h0a2.027,2.027,0,0,1-1.626.813h0a2.056,2.056,0,0,1-1.2-.4ZM151.081,535.93a2.033,2.033,0,0,1,.65-2.793h0a2.027,2.027,0,0,1,2.793.65h0a2.033,2.033,0,0,1-.65,2.794h0a1.992,1.992,0,0,1-1.069.3h0A2.027,2.027,0,0,1,151.081,535.93Zm164.526-3.705a2.033,2.033,0,0,1-.8-2.753h0a2.021,2.021,0,0,1,2.753-.8h0a2.027,2.027,0,0,1,.8,2.753h0a2.027,2.027,0,0,1-1.777,1.051h0a2.057,2.057,0,0,1-.982-.25Zm-170.821-8.189a2.009,2.009,0,0,1,1.028-2.671h0a2.021,2.021,0,0,1,2.677,1.028h0a2.039,2.039,0,0,1-1.028,2.677h0a2.1,2.1,0,0,1-.825.174h0a2.015,2.015,0,0,1-1.853-1.208Zm176.6-3.659a2.039,2.039,0,0,1-1.162-2.619h0a2.021,2.021,0,0,1,2.613-1.161h0A2.021,2.021,0,0,1,324,519.21h0a2.027,2.027,0,0,1-1.9,1.307h0A2.1,2.1,0,0,1,321.386,520.377Zm-181.2-9.025h0a2.027,2.027,0,0,1,1.394-2.5h0a2.033,2.033,0,0,1,2.509,1.394h0a2.021,2.021,0,0,1-1.394,2.5h0a1.875,1.875,0,0,1-.581.081h0a2.033,2.033,0,0,1-1.917-1.452Zm185.265-3.485a2.027,2.027,0,0,1-1.527-2.428h0a2.021,2.021,0,0,1,2.428-1.527h0a2.027,2.027,0,0,1,1.527,2.422h0a2.033,2.033,0,0,1-1.98,1.585h0a2,2,0,0,1-.43-.046Zm-188.018-9.652a2.021,2.021,0,0,1,1.742-2.288h0a2.021,2.021,0,0,1,2.288,1.742h0a2.021,2.021,0,0,1-1.742,2.282h0a1.523,1.523,0,0,1-.285,0h0A2.021,2.021,0,0,1,137.433,498.215Zm190.329-3.31a2.039,2.039,0,0,1-1.853-2.2h0a2.021,2.021,0,0,1,2.189-1.847h0a2.021,2.021,0,0,1,1.853,2.19h0a2.021,2.021,0,0,1-2.015,1.853ZM136.51,484.794h0a2.021,2.021,0,0,1,.691-1.521h0a2.044,2.044,0,0,1-.645-1.551h0a2.027,2.027,0,0,1,2.091-1.963h0a2.027,2.027,0,0,1,1.963,2.091h0a2.033,2.033,0,0,1-.691,1.464h0a2.033,2.033,0,0,1,.645,1.481h0a2.033,2.033,0,0,1-2.027,2.033h0a2.033,2.033,0,0,1-2.027-2.033Zm189.615-4.971h0a2.033,2.033,0,0,1,1.917-2.137h0a2.027,2.027,0,0,1,2.149,1.922h0a2.033,2.033,0,0,1-1.917,2.131h-.1a2.027,2.027,0,0,1-2.044-1.917Zm-186.572-9.135a2.044,2.044,0,0,1-1.655-2.323h0a2.027,2.027,0,0,1,2.323-1.655h0a2.027,2.027,0,0,1,1.661,2.323h0a2.033,2.033,0,0,1-2,1.69h0a2.415,2.415,0,0,1-.331-.035Zm184.986-3.659h0a2.039,2.039,0,0,1,1.586-2.4h0a2.038,2.038,0,0,1,2.381,1.609h0a2.038,2.038,0,0,1-1.609,2.381h0a2.185,2.185,0,0,1-.383.035h0a2.044,2.044,0,0,1-1.975-1.62ZM142.4,457.823a2.033,2.033,0,0,1-1.318-2.55h0a2.033,2.033,0,0,1,2.55-1.318h0a2.021,2.021,0,0,1,1.289,2.538h0A2.021,2.021,0,0,1,143,457.91h0A2.066,2.066,0,0,1,142.4,457.823Zm178.813-3.246A2.021,2.021,0,0,1,322.472,452h0a2.027,2.027,0,0,1,2.579,1.254h0a2.027,2.027,0,0,1-1.26,2.579h0a2,2,0,0,1-.656.11h0a2.027,2.027,0,0,1-1.917-1.371Zm-174.2-9.118a2.027,2.027,0,0,1-.947-2.706h0a2.038,2.038,0,0,1,2.712-.947h0a2.033,2.033,0,0,1,.941,2.712h0a2.021,2.021,0,0,1-1.824,1.162h0A1.987,1.987,0,0,1,147.016,445.458Zm169.166-2.776a2.015,2.015,0,0,1,.883-2.718h0a2.009,2.009,0,0,1,2.724.877h0a2.021,2.021,0,0,1-.883,2.73h0a2.022,2.022,0,0,1-.918.227h0a2.015,2.015,0,0,1-1.806-1.092ZM153.3,433.913a2.027,2.027,0,0,1-.581-2.811h0a2.027,2.027,0,0,1,2.811-.581h0a2.021,2.021,0,0,1,.581,2.811h0a2.027,2.027,0,0,1-1.69.906h0A1.987,1.987,0,0,1,153.3,433.913Zm156.227-2.253h0a2.021,2.021,0,0,1,.494-2.823h0a2.027,2.027,0,0,1,2.828.494h0a2.021,2.021,0,0,1-.5,2.822h0a2.015,2.015,0,0,1-1.162.372h0a2.033,2.033,0,0,1-1.649-.865Zm-148.4-8.34a2.038,2.038,0,0,1-.168-2.869h0a2.027,2.027,0,0,1,2.863-.168h0a2.033,2.033,0,0,1,.168,2.869h0a2.038,2.038,0,0,1-1.516.679h0a2.015,2.015,0,0,1-1.347-.511Zm140.314-1.673a2.027,2.027,0,0,1,.11-2.863h0a2.021,2.021,0,0,1,2.863.1h0a2.027,2.027,0,0,1-.1,2.869h0a2.033,2.033,0,0,1-1.382.546h0a2.038,2.038,0,0,1-1.487-.65Zm-131.1-7.747a2.021,2.021,0,0,1,.232-2.857h0a2.021,2.021,0,0,1,2.852.227h0a2.021,2.021,0,0,1-.221,2.857h0a2.044,2.044,0,0,1-1.318.482h0a2.015,2.015,0,0,1-1.545-.709Zm121.706-1.092a2.027,2.027,0,0,1-.3-2.852h0a2.038,2.038,0,0,1,2.857-.29h0a2.027,2.027,0,0,1,.285,2.857h0a2.027,2.027,0,0,1-1.568.743h0A1.963,1.963,0,0,1,292.04,412.807Zm-111.281-6.969a2.027,2.027,0,0,1,.621-2.8h0a2.027,2.027,0,0,1,2.8.616h0a2.027,2.027,0,0,1-.621,2.805h0a2.009,2.009,0,0,1-1.086.314h0A2.021,2.021,0,0,1,180.759,405.838Zm100.752-.465a2.021,2.021,0,0,1-.68-2.782h0a2.027,2.027,0,0,1,2.782-.691h0a2.033,2.033,0,0,1,.685,2.788h0a2.01,2.01,0,0,1-1.742.976h0a1.992,1.992,0,0,1-1.045-.279ZM192.194,399.3a2.038,2.038,0,0,1,1-2.689h0a2.027,2.027,0,0,1,2.689,1h0a2.021,2.021,0,0,1-1,2.683h0a1.969,1.969,0,0,1-.842.186h0a2.039,2.039,0,0,1-1.847-1.185Zm77.869.174a2.027,2.027,0,0,1-1.063-2.66h0a2.027,2.027,0,0,1,2.666-1.063h0a2.027,2.027,0,0,1,1.063,2.666h0a2.033,2.033,0,0,1-1.87,1.225h0a1.963,1.963,0,0,1-.8-.168Zm-65.627-5.064a2.027,2.027,0,0,1,1.365-2.521h0a2.027,2.027,0,0,1,2.521,1.371h0a2.027,2.027,0,0,1-1.365,2.521h0a2.181,2.181,0,0,1-.581.081h0a2.021,2.021,0,0,1-1.934-1.452Zm53.431.813a2.027,2.027,0,0,1-1.429-2.486h0a2.039,2.039,0,0,1,2.492-1.429h0a2.027,2.027,0,0,1,1.423,2.491h0a2.027,2.027,0,0,1-1.957,1.5h0a2.074,2.074,0,0,1-.494-.076Zm-40.654-3.943a2.033,2.033,0,0,1,1.7-2.323h0a2.033,2.033,0,0,1,2.323,1.707h0a2.033,2.033,0,0,1-1.707,2.323h0a1.738,1.738,0,0,1-.3,0h0a2.021,2.021,0,0,1-1.992-1.707Zm28.022,1.429a2.027,2.027,0,0,1-1.742-2.271h0a2.027,2.027,0,0,1,2.265-1.742h0a2.027,2.027,0,0,1,1.742,2.271h0a2.027,2.027,0,0,1-2.009,1.771h0Zm-14.92-2.753a2.021,2.021,0,0,1,2.009-2.044h0a2.027,2.027,0,0,1,2.05,2h0a2.033,2.033,0,0,1-2.009,2.05h0a2.033,2.033,0,0,1-2.027-2.009Z" transform="translate(-57.229 -162.624)"/><path d="M204.37,590.775a2.027,2.027,0,0,1,2-2.05h0a2.033,2.033,0,0,1,2.056,2h0a2.044,2.044,0,0,1-2.009,2.056h0a2.027,2.027,0,0,1-2.05-2.009ZM192.035,592.2A2.039,2.039,0,0,1,190.2,590h0a2.033,2.033,0,0,1,2.207-1.835h0a2.033,2.033,0,0,1,1.835,2.207h0a2.027,2.027,0,0,1-2.015,1.841h-.192Zm26.489-2.12a2.033,2.033,0,0,1,1.777-2.253h0a2.033,2.033,0,0,1,2.253,1.783h0a2.038,2.038,0,0,1-1.783,2.253h-.238A2.027,2.027,0,0,1,218.524,590.084Zm-40.758.035a2.021,2.021,0,0,1-1.586-2.387h0a2.021,2.021,0,0,1,2.387-1.586h0a2.015,2.015,0,0,1,1.626,2.387h0a2.021,2.021,0,0,1-1.986,1.626h0a1.917,1.917,0,0,1-.424-.041Zm54.778-2.213a2.039,2.039,0,0,1,1.527-2.428h0a2.038,2.038,0,0,1,2.433,1.533h0a2.033,2.033,0,0,1-1.533,2.428h0a2.421,2.421,0,0,1-.453.052h0a2.027,2.027,0,0,1-1.957-1.586Zm-68.728-1.365h0a2.039,2.039,0,0,1-1.33-2.55h0a2.033,2.033,0,0,1,2.55-1.324h0a2.027,2.027,0,0,1,1.324,2.544h0a2.038,2.038,0,0,1-1.934,1.417h0a2.019,2.019,0,0,1-.592-.087Zm82.469-2.282a2.033,2.033,0,0,1,1.278-2.579h0a2.033,2.033,0,0,1,2.573,1.272h0a2.021,2.021,0,0,1-1.266,2.567h0a1.965,1.965,0,0,1-.65.11h0a2.027,2.027,0,0,1-1.94-1.371Zm-95.943-2.753a2.033,2.033,0,0,1-1.051-2.672h0a2.027,2.027,0,0,1,2.666-1.051h0a2.027,2.027,0,0,1,1.057,2.666h0a2.038,2.038,0,0,1-1.864,1.225h0a2.073,2.073,0,0,1-.807-.168Zm109.184-2.323a2.033,2.033,0,0,1,.987-2.695h0a2.033,2.033,0,0,1,2.695.987h0a2.033,2.033,0,0,1-.981,2.695h0a1.976,1.976,0,0,1-.86.2h0a2.033,2.033,0,0,1-1.841-1.2ZM137.46,575.077a2.027,2.027,0,0,1-.761-2.765h0a2.027,2.027,0,0,1,2.764-.767h0a2.038,2.038,0,0,1,.767,2.77h0a2.039,2.039,0,0,1-1.771,1.022h0a2.067,2.067,0,0,1-1-.273ZM272.2,572.754a2.033,2.033,0,0,1,.691-2.788h0a2.038,2.038,0,0,1,2.788.7h0a2.027,2.027,0,0,1-.7,2.776h0a2,2,0,0,1-1.04.29h0a2.021,2.021,0,0,1-1.766-1.022Zm-146.841-5.413a2.033,2.033,0,0,1-.465-2.828h0a2.033,2.033,0,0,1,2.828-.465h0a2.033,2.033,0,0,1,.465,2.828h0a2.033,2.033,0,0,1-1.649.848h0a2,2,0,0,1-1.208-.424Zm158.73-2.323a2.021,2.021,0,0,1,.395-2.84h0a2.027,2.027,0,0,1,2.84.395h0a2.027,2.027,0,0,1-.4,2.84h0a1.992,1.992,0,0,1-1.22.412h0a2.027,2.027,0,0,1-1.644-.865Zm-170-6.708a2.027,2.027,0,0,1-.168-2.863h0a2.027,2.027,0,0,1,2.863-.168h0a2.027,2.027,0,0,1,.168,2.863h0a2.015,2.015,0,0,1-1.516.68h0a2.015,2.015,0,0,1-1.347-.511Zm180.973-2.323a2.021,2.021,0,0,1,.1-2.863h0a2.027,2.027,0,0,1,2.869.1h0a2.033,2.033,0,0,1-.1,2.863h0a2.033,2.033,0,0,1-1.388.581h0a2.016,2.016,0,0,1-1.481-.674ZM103.839,548.17h0a2.021,2.021,0,0,1,.134-2.863h0a2.021,2.021,0,0,1,2.863.134h0a2.021,2.021,0,0,1-.134,2.863h0a2.027,2.027,0,0,1-1.365.534h0a2.015,2.015,0,0,1-1.5-.668Zm201.219-2.236a2.027,2.027,0,0,1-.2-2.863h0a2.027,2.027,0,0,1,2.857-.2h0a2.027,2.027,0,0,1,.2,2.863h0a2.027,2.027,0,0,1-1.527.7h0a2.01,2.01,0,0,1-1.33-.494ZM94.7,537.048a2.027,2.027,0,0,1,.436-2.834h0a2.033,2.033,0,0,1,2.834.43h0a2.021,2.021,0,0,1-.436,2.834h0a1.975,1.975,0,0,1-1.2.395h0a2.015,2.015,0,0,1-1.626-.825Zm219.246-2.172a2.021,2.021,0,0,1-.5-2.823h0a2.021,2.021,0,0,1,2.823-.5h0a2.027,2.027,0,0,1,.505,2.823h0a2.039,2.039,0,0,1-1.673.865h0a2.044,2.044,0,0,1-1.15-.366ZM86.794,525a2.021,2.021,0,0,1,.726-2.77h0a2.038,2.038,0,0,1,2.782.72h0a2.039,2.039,0,0,1-.732,2.782h0a2.027,2.027,0,0,1-1.022.273h0a2.033,2.033,0,0,1-1.748-1Zm234.839-2.056a2.033,2.033,0,0,1-.8-2.759h0a2.027,2.027,0,0,1,2.759-.8h0a2.027,2.027,0,0,1,.79,2.759h0a2.033,2.033,0,0,1-1.777,1.045h0a2.056,2.056,0,0,1-.97-.244ZM80.2,512.2h0a2.027,2.027,0,0,1,1.022-2.683h0a2.027,2.027,0,0,1,2.677,1.016h0a2.027,2.027,0,0,1-1.016,2.683h0a2.023,2.023,0,0,1-.83.18h0a2.027,2.027,0,0,1-1.853-1.2Zm247.82-1.922a2.021,2.021,0,0,1-1.08-2.654h0a2.027,2.027,0,0,1,2.654-1.086h0a2.027,2.027,0,0,1,1.08,2.66h0a2.027,2.027,0,0,1-1.87,1.243h0a1.975,1.975,0,0,1-.784-.163ZM75,498.77h0a2.027,2.027,0,0,1,1.3-2.555h0a2.021,2.021,0,0,1,2.555,1.289h0a2.033,2.033,0,0,1-1.3,2.561h0a2.009,2.009,0,0,1-.633.1h0A2.038,2.038,0,0,1,75,498.77Zm258.03-1.742a2.027,2.027,0,0,1-1.359-2.526h0a2.027,2.027,0,0,1,2.526-1.359h0a2.027,2.027,0,0,1,1.359,2.526h0a2.027,2.027,0,0,1-1.94,1.446h0a2.02,2.02,0,0,1-.587-.11ZM71.253,484.866a2.033,2.033,0,0,1,1.556-2.41h0a2.027,2.027,0,0,1,2.41,1.562h0a2.033,2.033,0,0,1-1.562,2.41h0a2.1,2.1,0,0,1-.424.041h0a2.027,2.027,0,0,1-1.98-1.6ZM336.6,483.275a2.027,2.027,0,0,1-1.62-2.364h0a2.027,2.027,0,0,1,2.37-1.62h0a2.027,2.027,0,0,1,1.62,2.369h0a2.038,2.038,0,0,1-1.992,1.655h0a1.633,1.633,0,0,1-.378-.046ZM69,470.637a2.038,2.038,0,0,1,1.806-2.236h0a2.033,2.033,0,0,1,2.23,1.806h0a2.033,2.033,0,0,1-1.806,2.23h-.215A2.027,2.027,0,0,1,69,470.637Zm269.7-1.394a2.033,2.033,0,0,1-1.864-2.19h0a2.027,2.027,0,0,1,2.184-1.858h0a2.033,2.033,0,0,1,1.864,2.184h0a2.033,2.033,0,0,1-2.021,1.864ZM68.25,456.252h0a2.033,2.033,0,0,1,2.033-2.027h0a2.027,2.027,0,0,1,2.027,2.027h0a2.033,2.033,0,0,1-2.027,2.033h0a2.033,2.033,0,0,1-2.033-2.033Zm268.977-3.171h0a2.033,2.033,0,0,1,1.986-2.073h0a2.027,2.027,0,0,1,2.073,1.975h0a2.033,2.033,0,0,1-1.98,2.073h-.052a2.033,2.033,0,0,1-2.027-1.975ZM70.381,450.537a2.021,2.021,0,0,1-1.9-2.143h0a2.015,2.015,0,0,1,2.137-1.9h0a2.015,2.015,0,0,1,1.9,2.137h0a2.021,2.021,0,0,1-2.021,1.911Zm265.794-11.395a2.021,2.021,0,0,1,1.742-2.265h0a2.021,2.021,0,0,1,2.271,1.742h0a2.033,2.033,0,0,1-1.742,2.277h-.267a2.015,2.015,0,0,1-2-1.754Zm-264.459-2.73a2.027,2.027,0,0,1-1.673-2.323h0a2.033,2.033,0,0,1,2.323-1.678h0a2.033,2.033,0,0,1,1.678,2.323h0a2.027,2.027,0,0,1-2,1.7h0a3.157,3.157,0,0,1-.331-.017Zm261.927-11.035h0a2.033,2.033,0,0,1,1.5-2.445h0a2.033,2.033,0,0,1,2.433,1.533h0a2.038,2.038,0,0,1-1.5,2.445h0a1.927,1.927,0,0,1-.476.052h0a2.009,2.009,0,0,1-1.94-1.562Zm-259.127-2.9a2.021,2.021,0,0,1-1.417-2.492h0a2.021,2.021,0,0,1,2.491-1.417h0a2.027,2.027,0,0,1,1.417,2.491h0a2.027,2.027,0,0,1-1.934,1.522h0a1.921,1.921,0,0,1-.54-.076Zm255.161-10.5a2.038,2.038,0,0,1,1.237-2.6h0a2.044,2.044,0,0,1,2.6,1.266h0a2.033,2.033,0,0,1-1.237,2.59h0a1.957,1.957,0,0,1-.674.116h0A2.033,2.033,0,0,1,329.694,412ZM78.785,408.942a2.015,2.015,0,0,1-1.162-2.625h0a2.015,2.015,0,0,1,2.625-1.162h0a2.015,2.015,0,0,1,1.162,2.625h0a2.021,2.021,0,0,1-1.882,1.289h0a1.968,1.968,0,0,1-.72-.1Zm245.526-9.873a2.039,2.039,0,0,1,.952-2.712h0a2.033,2.033,0,0,1,2.706.952h0a2.038,2.038,0,0,1-.952,2.712h0a2.143,2.143,0,0,1-.877.2h0a2.038,2.038,0,0,1-1.806-1.121ZM84.453,395.945a2.027,2.027,0,0,1-.86-2.735h0a2.027,2.027,0,0,1,2.735-.86h0a2.015,2.015,0,0,1,.86,2.73h0a2.021,2.021,0,0,1-1.795,1.092h0a2.021,2.021,0,0,1-.9-.2ZM317.6,386.8a2.033,2.033,0,0,1,.662-2.793h0a2.033,2.033,0,0,1,2.793.662h0a2.033,2.033,0,0,1-.662,2.794h0a2.033,2.033,0,0,1-1.063.3h0a2.021,2.021,0,0,1-1.69-.929ZM91.481,383.621A2.044,2.044,0,0,1,90.9,380.8h0a2.027,2.027,0,0,1,2.811-.581h0a2.027,2.027,0,0,1,.581,2.811h0a2.027,2.027,0,0,1-1.69.906h0a2.055,2.055,0,0,1-1.08-.29ZM309.7,375.327h0a2.033,2.033,0,0,1,.36-2.852h0a2.033,2.033,0,0,1,2.852.366h0a2.038,2.038,0,0,1-.366,2.852h0a2.027,2.027,0,0,1-1.243.418h0a2,2,0,0,1-1.6-.784Zm-209.878-3.2a2.015,2.015,0,0,1-.267-2.852h0a2.021,2.021,0,0,1,2.852-.273h0a2.021,2.021,0,0,1,.267,2.857h0a2,2,0,0,1-1.556.738h0a2.01,2.01,0,0,1-1.313-.47Zm200.76-7.393a2.027,2.027,0,0,1,.07-2.869h0a2.033,2.033,0,0,1,2.869.064h0a2.044,2.044,0,0,1-.064,2.875h0a2.056,2.056,0,0,1-1.405.581h0a2.027,2.027,0,0,1-1.487-.65Zm-191.311-3.188a2.027,2.027,0,0,1,0-2.869h0a2.021,2.021,0,0,1,2.869,0h0a2.027,2.027,0,0,1,0,2.869h0a2.021,2.021,0,0,1-1.423.581h0a2,2,0,0,1-1.464-.581Zm181.142-6.388h0a2.027,2.027,0,0,1-.238-2.857h0a2.027,2.027,0,0,1,2.857-.238h0a2.027,2.027,0,0,1,.238,2.863h0a2.027,2.027,0,0,1-1.551.714h0a2,2,0,0,1-1.324-.488ZM119.793,352a2.027,2.027,0,0,1,.331-2.852h0a2.021,2.021,0,0,1,2.846.337h0a2.015,2.015,0,0,1-.331,2.84h0a1.986,1.986,0,0,1-1.254.436h0a2.021,2.021,0,0,1-1.591-.761Zm159.514-5.314h0a2.033,2.033,0,0,1-.534-2.823h0a2.021,2.021,0,0,1,2.822-.529h0a2.027,2.027,0,0,1,.529,2.817h0a2.027,2.027,0,0,1-1.678.883h0a2,2,0,0,1-1.167-.349ZM131.24,343.617a2.033,2.033,0,0,1,.627-2.8h0a2.033,2.033,0,0,1,2.8.627h0a2.039,2.039,0,0,1-.627,2.805h0a2.027,2.027,0,0,1-1.08.314h0a2.038,2.038,0,0,1-1.748-.947Zm136.068-4.176a2.033,2.033,0,0,1-.825-2.747h0a2.033,2.033,0,0,1,2.747-.831h0a2.033,2.033,0,0,1,.825,2.747h0a2.015,2.015,0,0,1-1.789,1.069h0A2.039,2.039,0,0,1,267.308,339.442ZM143.46,336.48a2.021,2.021,0,0,1,.918-2.712h0a2.027,2.027,0,0,1,2.718.918h0a2.027,2.027,0,0,1-.923,2.718h0a2.038,2.038,0,0,1-.894.209h0a2.021,2.021,0,0,1-1.795-1.132ZM254.671,333.5a2.033,2.033,0,0,1-1.115-2.648h0a2.021,2.021,0,0,1,2.642-1.109h0a2.027,2.027,0,0,1,1.115,2.643h0a2.033,2.033,0,0,1-1.882,1.26h0a2.055,2.055,0,0,1-.738-.145Zm-98.26-2.817a2.038,2.038,0,0,1,1.2-2.608h0a2.033,2.033,0,0,1,2.6,1.208h0a2.027,2.027,0,0,1-1.2,2.6h0a1.97,1.97,0,0,1-.7.128h0a2.033,2.033,0,0,1-1.882-1.33Zm85.054-1.742a2.027,2.027,0,0,1-1.388-2.509h0a2.027,2.027,0,0,1,2.509-1.388h0a2.033,2.033,0,0,1,1.394,2.509h0a2.039,2.039,0,0,1-1.951,1.469h0a1.916,1.916,0,0,1-.54-.1Zm-71.533-2.625a2.027,2.027,0,0,1,1.475-2.462h0a2.033,2.033,0,0,1,2.462,1.475h0a2.027,2.027,0,0,1-1.475,2.457h0a2.1,2.1,0,0,1-.5.064h0a2.033,2.033,0,0,1-1.963-1.533Zm57.943-.511h0a2.033,2.033,0,0,1-1.649-2.323h0a2.033,2.033,0,0,1,2.352-1.649h0a2.021,2.021,0,0,1,1.644,2.323h0a2.021,2.021,0,0,1-1.992,1.678h0a2.421,2.421,0,0,1-.354-.052Zm-44.063-2.428a2.039,2.039,0,0,1,1.742-2.288h0a2.033,2.033,0,0,1,2.323,1.742h0a2.039,2.039,0,0,1-1.742,2.294h0a1.561,1.561,0,0,1-.285,0h0a2.039,2.039,0,0,1-2.039-1.771Zm30.2.738a2.027,2.027,0,0,1-1.887-2.16h0a2.033,2.033,0,0,1,2.166-1.888h0a2.027,2.027,0,0,1,1.882,2.16h0a2.033,2.033,0,0,1-2.021,1.893h-.139Zm-16.076-2.184a2.033,2.033,0,0,1,1.951-2.1h0a2.033,2.033,0,0,1,2.1,1.951h0a2.027,2.027,0,0,1-1.951,2.1h-.1a2.027,2.027,0,0,1-2.009-1.975Z" transform="translate(-28.613 -134.082)"/><path d="M168.661,603.621a2.033,2.033,0,0,1-1.946-2.114h0a2.021,2.021,0,0,1,2.108-1.934h0a2.021,2.021,0,0,1,1.946,2.108h0a2.027,2.027,0,0,1-2.027,1.94Zm15.791-2.05a2.027,2.027,0,0,1,1.911-2.143h0a2.021,2.021,0,0,1,2.137,1.911h0a2.015,2.015,0,0,1-1.9,2.137h-.116a2.033,2.033,0,0,1-2.027-1.9Zm-33.685.395a2.027,2.027,0,0,1-1.742-2.323h0a2.033,2.033,0,0,1,2.323-1.742h0a2.033,2.033,0,0,1,1.742,2.323h0a2.021,2.021,0,0,1-2,1.742h0a1.659,1.659,0,0,1-.29.023Zm51.34-2.12a2.027,2.027,0,0,1,1.678-2.323h0a2.039,2.039,0,0,1,2.323,1.684h0a2.033,2.033,0,0,1-1.678,2.323h0a1.578,1.578,0,0,1-.325,0h0A2.021,2.021,0,0,1,202.107,599.846ZM133.193,598.5a2.033,2.033,0,0,1-1.475-2.462h0a2.033,2.033,0,0,1,2.462-1.475h0a2.033,2.033,0,0,1,1.469,2.468h0a2.021,2.021,0,0,1-1.963,1.533h0a1.832,1.832,0,0,1-.494-.064Zm86.3-2.16a2.033,2.033,0,0,1,1.434-2.486h0a2.033,2.033,0,0,1,2.486,1.435h0a2.027,2.027,0,0,1-1.435,2.486h0a2.1,2.1,0,0,1-.529.07h0a2.027,2.027,0,0,1-1.957-1.51Zm-103.458-3.066a2.033,2.033,0,0,1-1.214-2.6h0a2.039,2.039,0,0,1,2.6-1.214h0a2.033,2.033,0,0,1,1.214,2.6h0a2.027,2.027,0,0,1-1.9,1.336h0a2.072,2.072,0,0,1-.7-.122Zm120.393-2.19a2.033,2.033,0,0,1,1.162-2.619h0a2.021,2.021,0,0,1,2.613,1.162h0a2.027,2.027,0,0,1-1.162,2.619h0a2.138,2.138,0,0,1-.726.134h0a2.027,2.027,0,0,1-1.887-1.324ZM99.5,586.3a2.027,2.027,0,0,1-.941-2.706h0a2.027,2.027,0,0,1,2.706-.947h0a2.027,2.027,0,0,1,.947,2.677h0a2.027,2.027,0,0,1-1.829,1.162h0a2.085,2.085,0,0,1-.883-.215Zm153.23-2.19a2.027,2.027,0,0,1,.9-2.724h0a2.027,2.027,0,0,1,2.724.894h0a2.027,2.027,0,0,1-.9,2.724h0a2.044,2.044,0,0,1-.906.221h0a2.021,2.021,0,0,1-1.818-1.144Zm-168.957-6.47a2.027,2.027,0,0,1-.656-2.793h0a2.021,2.021,0,0,1,2.788-.662h0a2.027,2.027,0,0,1,.656,2.794h0a2.009,2.009,0,0,1-1.742.958h0a2.033,2.033,0,0,1-1.045-.3Zm184.464-2.172a2.027,2.027,0,0,1,.621-2.8h0a2.015,2.015,0,0,1,2.8.616h0a2.021,2.021,0,0,1-.616,2.8h0a2.039,2.039,0,0,1-1.092.319h0A2.044,2.044,0,0,1,268.239,575.465Zm-199.2-8.015h0a2.027,2.027,0,0,1-.372-2.846h0a2.027,2.027,0,0,1,2.84-.378h0a2.015,2.015,0,0,1,.372,2.84h0a2,2,0,0,1-1.6.8h0a2.009,2.009,0,0,1-1.26-.412Zm213.781-2.126a2.039,2.039,0,0,1,.331-2.852h0A2.033,2.033,0,0,1,286,562.8h0a2.038,2.038,0,0,1-.331,2.852h0a2.021,2.021,0,0,1-1.26.441h0a2.044,2.044,0,0,1-1.615-.767ZM55.341,555.818a2.033,2.033,0,0,1-.081-2.869h0a2.038,2.038,0,0,1,2.869-.087h0a2.044,2.044,0,0,1,.087,2.9h0a2.044,2.044,0,0,1-1.475.633h0a2.061,2.061,0,0,1-1.4-.581Zm240.909-2.033a2.027,2.027,0,0,1,.035-2.869h0a2.021,2.021,0,0,1,2.869.041h0a2.027,2.027,0,0,1-.058,2.828h0a2.015,2.015,0,0,1-1.423.581h0A2.021,2.021,0,0,1,296.25,553.785ZM42.93,542.867A2.021,2.021,0,0,1,43.139,540h0a2.027,2.027,0,0,1,2.857.2h0a2.033,2.033,0,0,1-.209,2.863h0a2.015,2.015,0,0,1-1.324.494h0A2.033,2.033,0,0,1,42.93,542.867Zm265.527-1.975a2.039,2.039,0,0,1-.256-2.857h0a2.027,2.027,0,0,1,2.857-.256h0a2.027,2.027,0,0,1,.261,2.857h0a2.05,2.05,0,0,1-1.556.726h0A2.05,2.05,0,0,1,308.458,540.892ZM31.884,528.7h0a2.033,2.033,0,0,1,.5-2.828h0a2.027,2.027,0,0,1,2.823.5h0a2.027,2.027,0,0,1-.488,2.822h0a2.044,2.044,0,0,1-1.162.372h0a2.033,2.033,0,0,1-1.673-.842Zm287.422-1.864a2.027,2.027,0,0,1-.546-2.817h0a2.038,2.038,0,0,1,2.822-.54h0a2.021,2.021,0,0,1,.534,2.817h0a2.01,2.01,0,0,1-1.678.889h0a2,2,0,0,1-1.132-.325Zm-296.97-13.3a2.033,2.033,0,0,1,.778-2.764h0a2.033,2.033,0,0,1,2.764.778h0a2.021,2.021,0,0,1-.784,2.747h0a1.963,1.963,0,0,1-.987.261h0A2.027,2.027,0,0,1,22.336,513.532Zm306.332-1.742a2.033,2.033,0,0,1-.825-2.724h0a2.038,2.038,0,0,1,2.747-.831h0a2.038,2.038,0,0,1,.83,2.753h0a2.039,2.039,0,0,1-1.789,1.069h0a2.068,2.068,0,0,1-.964-.261ZM14.38,497.451a2.027,2.027,0,0,1,1.063-2.666h0a2.033,2.033,0,0,1,2.666,1.057h0a2.038,2.038,0,0,1-1.057,2.671h0a2.11,2.11,0,0,1-.807.163h0a2.039,2.039,0,0,1-1.864-1.225Zm322.071-1.58a2.033,2.033,0,0,1-1.1-2.648h0a2.027,2.027,0,0,1,2.648-1.1h0a2.027,2.027,0,0,1,1.109,2.642h0a2.027,2.027,0,0,1-1.882,1.26h0a2.04,2.04,0,0,1-.772-.168ZM8.131,480.608a2.021,2.021,0,0,1,1.324-2.544h0A2.027,2.027,0,0,1,12,479.383h0a2.027,2.027,0,0,1-1.33,2.55h0a1.982,1.982,0,0,1-.581.093h0a2.021,2.021,0,0,1-1.957-1.417Zm334.441-1.417a2.027,2.027,0,0,1-1.365-2.526h0a2.027,2.027,0,0,1,2.521-1.365h0a2.027,2.027,0,0,1,1.371,2.521h0a2.033,2.033,0,0,1-1.946,1.446h0a2,2,0,0,1-.592-.058ZM3.607,463.255h0a2.027,2.027,0,0,1,1.58-2.393h0a2.027,2.027,0,0,1,2.393,1.585h0a2.027,2.027,0,0,1-1.574,2.393h0a2.6,2.6,0,0,1-.412.041h0a2.033,2.033,0,0,1-1.986-1.626Zm343.333-1.231a2.027,2.027,0,0,1-1.626-2.364h0a2.027,2.027,0,0,1,2.37-1.62h0a2.027,2.027,0,0,1,1.615,2.37h0a2.027,2.027,0,0,1-1.992,1.649h0A1.614,1.614,0,0,1,346.939,462.024ZM.9,445.518A2.021,2.021,0,0,1,2.712,443.3h0a2.033,2.033,0,0,1,2.224,1.812h0a2.033,2.033,0,0,1-1.818,2.224H2.9a2.033,2.033,0,0,1-2-1.818Zm348.629-1.045a2.021,2.021,0,0,1-1.853-2.189h0a2.039,2.039,0,0,1,2.19-1.853h0a2.039,2.039,0,0,1,1.853,2.2h0a2.027,2.027,0,0,1-2.021,1.853h0ZM0,427.6a2.027,2.027,0,0,1,2.027-2.027h0A2.033,2.033,0,0,1,4.065,427.6h0a2.039,2.039,0,0,1-2.033,2.033h0A2.033,2.033,0,0,1,0,427.6Zm348.269-2.84a2.044,2.044,0,0,1,2-2.062h0a2.033,2.033,0,0,1,2.062,2h0a2.027,2.027,0,0,1-1.992,2.062H350.3a2.033,2.033,0,0,1-2.027-2ZM2.323,417.647a2.033,2.033,0,0,1-1.917-2.16h0A2.033,2.033,0,0,1,2.573,413.6h0a2.021,2.021,0,0,1,1.882,2.16h0a2.027,2.027,0,0,1-2.021,1.887Zm344.808-10.372a2.033,2.033,0,0,1,1.777-2.253h0a2.038,2.038,0,0,1,2.253,1.777h0a2.039,2.039,0,0,1-1.777,2.253h-.244a2.021,2.021,0,0,1-2.033-1.777ZM4.187,400.015a2.027,2.027,0,0,1-1.655-2.323h0a2.021,2.021,0,0,1,2.323-1.655h0a2.033,2.033,0,0,1,1.661,2.323h0a2.044,2.044,0,0,1-2,1.69h0a2.331,2.331,0,0,1-.331-.035Zm339.988-10.007h0a2.033,2.033,0,0,1,1.533-2.422h0a2.033,2.033,0,0,1,2.428,1.539h0a2.033,2.033,0,0,1-1.545,2.422h0a1.87,1.87,0,0,1-.441.052h0a2.027,2.027,0,0,1-1.975-1.591ZM7.869,382.662a2.033,2.033,0,0,1-1.411-2.5h0a2.027,2.027,0,0,1,2.5-1.405h0a2.027,2.027,0,0,1,1.405,2.5h0a2.027,2.027,0,0,1-1.951,1.481h0a1.989,1.989,0,0,1-.546-.075ZM339.488,373.1a2.027,2.027,0,0,1,1.284-2.567h0a2.033,2.033,0,0,1,2.567,1.284h0a2.033,2.033,0,0,1-1.266,2.567h0a2.1,2.1,0,0,1-.645.1h0A2.027,2.027,0,0,1,339.488,373.1ZM13.305,365.779a2.027,2.027,0,0,1-1.162-2.625h0a2.027,2.027,0,0,1,2.631-1.162h0a2.015,2.015,0,0,1,1.162,2.625h0a2.027,2.027,0,0,1-1.887,1.289h0a1.992,1.992,0,0,1-.743-.128Zm319.788-9A2.021,2.021,0,0,1,334.1,354.1h0a2.027,2.027,0,0,1,2.683,1h0a2.027,2.027,0,0,1-1.011,2.689h0a2.021,2.021,0,0,1-.831.18h0A2.021,2.021,0,0,1,333.094,356.777ZM20.443,349.541a2.027,2.027,0,0,1-.871-2.73h0a2.033,2.033,0,0,1,2.741-.865h0a2.021,2.021,0,0,1,.865,2.724h0a2.021,2.021,0,0,1-1.8,1.1h0a2.027,2.027,0,0,1-.935-.232Zm304.625-8.317a2.027,2.027,0,0,1,.726-2.77h0a2.033,2.033,0,0,1,2.776.726h0a2.027,2.027,0,0,1-.732,2.776h0a2.039,2.039,0,0,1-1.016.273h0A2.015,2.015,0,0,1,325.068,341.224ZM29.2,334.121a2.027,2.027,0,0,1-.581-2.805h0a2.033,2.033,0,0,1,2.811-.581h0a2.033,2.033,0,0,1,.581,2.811h0a2.021,2.021,0,0,1-1.7.918h0a2.027,2.027,0,0,1-1.115-.343Zm286.319-7.614a2.021,2.021,0,0,1,.447-2.828h0a2.027,2.027,0,0,1,2.834.441h0a2.027,2.027,0,0,1-.453,2.84h0a2.044,2.044,0,0,1-1.191.383h0a2.021,2.021,0,0,1-1.667-.836ZM39.492,319.672a2.033,2.033,0,0,1-.3-2.857h0a2.015,2.015,0,0,1,2.846-.3h0a2.021,2.021,0,0,1,.3,2.852h0a2.033,2.033,0,0,1-1.58.755h0A2.032,2.032,0,0,1,39.492,319.672Zm264.987-6.807a2.021,2.021,0,0,1,.163-2.857h0a2.009,2.009,0,0,1,2.857.157h0a2.021,2.021,0,0,1-.157,2.863h0a2.021,2.021,0,0,1-1.347.517h0a2.015,2.015,0,0,1-1.522-.68Zm-253.3-6.534a2.021,2.021,0,0,1,0-2.869h0a2.015,2.015,0,0,1,2.828.012h0a2.021,2.021,0,0,1,0,2.863h0a2.021,2.021,0,0,1-1.44.581h0A2.009,2.009,0,0,1,51.183,306.331Zm240.943-5.918a2.033,2.033,0,0,1-.134-2.869h0a2.027,2.027,0,0,1,2.863-.128h0a2.021,2.021,0,0,1,.134,2.863h0a2.009,2.009,0,0,1-1.5.662h0A2.021,2.021,0,0,1,292.126,300.413ZM64.163,294.24a2.027,2.027,0,0,1,.279-2.852h0a2.021,2.021,0,0,1,2.852.279h0a2.027,2.027,0,0,1-.279,2.857h0a2.033,2.033,0,0,1-1.284.459h0a2.009,2.009,0,0,1-1.568-.743ZM278.6,289.269a2.033,2.033,0,0,1-.418-2.84h0a2.033,2.033,0,0,1,2.84-.418h0a2.027,2.027,0,0,1,.418,2.834h0a2.027,2.027,0,0,1-1.632.825h0A2.009,2.009,0,0,1,278.6,289.269ZM78.3,283.53a2.038,2.038,0,0,1,.581-2.817h0a2.044,2.044,0,0,1,2.817.581h0a2.038,2.038,0,0,1-.581,2.817h0a2.032,2.032,0,0,1-1.115.337h0A2.027,2.027,0,0,1,78.3,283.53Zm185.712-3.972a2.027,2.027,0,0,1-.7-2.782h0a2.021,2.021,0,0,1,2.776-.7h0a2.033,2.033,0,0,1,.709,2.782h0a2.044,2.044,0,0,1-1.742.987h0a2.021,2.021,0,0,1-1.04-.285ZM93.457,274.331a2.027,2.027,0,0,1,.848-2.741h0a2.027,2.027,0,0,1,2.741.854h0a2.033,2.033,0,0,1-.854,2.741h0a2.032,2.032,0,0,1-.941.232h0a2.015,2.015,0,0,1-1.795-1.109Zm155.065-2.9a2.021,2.021,0,0,1-.987-2.695h0a2.033,2.033,0,0,1,2.695-.987h0a2.033,2.033,0,0,1,.987,2.695h0a2.039,2.039,0,0,1-1.841,1.162h0a2.021,2.021,0,0,1-.865-.221Zm-139.042-4.7a2.033,2.033,0,0,1,1.127-2.643h0a2.027,2.027,0,0,1,2.643,1.057h0a2.021,2.021,0,0,1-1.127,2.637h0a2.015,2.015,0,0,1-.755.151h0a2.033,2.033,0,0,1-1.9-1.249Zm122.786-1.853a2.027,2.027,0,0,1-1.26-2.579h0a2.027,2.027,0,0,1,2.579-1.26h0a2.027,2.027,0,0,1,1.254,2.579h0a2.039,2.039,0,0,1-1.917,1.371h0a2,2,0,0,1-.668-.157ZM126.178,260.73a2.038,2.038,0,0,1,1.394-2.509h0a2.044,2.044,0,0,1,2.515,1.4h0a2.038,2.038,0,0,1-1.4,2.509h0a2.322,2.322,0,0,1-.581.076h0A2.044,2.044,0,0,1,126.178,260.73Zm89.229-.755a2.015,2.015,0,0,1-1.51-2.433h0a2.033,2.033,0,0,1,2.433-1.516h0a2.033,2.033,0,0,1,1.516,2.439h0a2.039,2.039,0,0,1-1.975,1.568h0A2.119,2.119,0,0,1,215.407,259.975Zm-72.015-3.45a2.033,2.033,0,0,1,1.644-2.352h0a2.027,2.027,0,0,1,2.352,1.644h0a2.027,2.027,0,0,1-1.615,2.358h0a2.425,2.425,0,0,1-.354.029h0a2.039,2.039,0,0,1-2.009-1.678Zm54.749.354a2.021,2.021,0,0,1-1.742-2.265h0a2.027,2.027,0,0,1,2.271-1.742h0a2.027,2.027,0,0,1,1.742,2.271h0a2.027,2.027,0,0,1-2.009,1.742h0a1.966,1.966,0,0,1-.244-.006ZM160.972,254.1a2.021,2.021,0,0,1,1.87-2.166h0a2.021,2.021,0,0,1,2.172,1.87h0a2.027,2.027,0,0,1-1.87,2.172h-.151a2.021,2.021,0,0,1-2.009-1.864Zm19.7,1.446a2.033,2.033,0,0,1-1.98-2.079h0a2.027,2.027,0,0,1,2.079-1.975h0a2.033,2.033,0,0,1,1.98,2.079h0a2.027,2.027,0,0,1-2.027,1.975Z" transform="translate(0 -105.432)"/></g></svg>