<svg xmlns="http://www.w3.org/2000/svg" xmlns:xlink="http://www.w3.org/1999/xlink" width="1640" height="660" viewBox="0 0 1640 660"><defs><style>.cls-1{isolation:isolate;}.cls-2{fill:url(#linear-gradient);}.cls-3{opacity:0.3;mix-blend-mode:multiply;}.cls-4{opacity:0.05;}.cls-5{fill:#fff;}</style><linearGradient id="linear-gradient" x1="250.02" y1="-6.15" x2="1545.2" y2="757.7" gradientUnits="userSpaceOnUse"><stop offset="0" stop-color="#4003a6"/><stop offset="1" stop-color="#114cf8"/></linearGradient></defs><g class="cls-1"><g id="Layer_1" data-name="Layer 1"><rect class="cls-2" width="1640" height="660"/><g id="Layer_1-2" data-name="Layer 1" class="cls-3"><g id="elements"><path d="M972.81,54.69H827.19V23.78H972.81ZM828.34,53.53H971.65V24.93H828.34Z"/><path d="M947.38,64.23H818.23V33.31H947.38Zm-128-1.16H946.22V34.47H819.38Z"/><path d="M685,28.11H612.81V9.62H685ZM614,27h69.92V10.78H614Z"/><path d="M685,59.34H612.81v-13H685ZM614,58.19h69.92V47.47H614Z"/><rect x="541.71" y="395.34" width="4.91" height="21.09"/><rect x="528.28" y="395.34" width="4.91" height="21.09"/><rect x="515.13" y="395.34" width="4.91" height="21.09"/><rect x="528.28" y="425.78" width="4.91" height="21.09"/><rect x="515.13" y="425.78" width="4.91" height="21.09"/><rect x="541.59" y="486.39" width="4.91" height="21.09"/><rect x="515.29" y="486.39" width="4.91" height="21.09"/><rect x="528.44" y="516.55" width="4.91" height="21.09"/><rect x="515.29" y="516.55" width="4.91" height="21.09"/><rect x="528.44" y="546.78" width="4.91" height="21.09"/><rect x="541.59" y="546.78" width="4.91" height="21.09"/><rect x="515.29" y="546.78" width="4.91" height="21.09"/><rect x="541.59" y="456.11" width="4.91" height="21.09"/><rect x="528.44" y="456.11" width="4.91" height="21.09"/><path d="M352,144.27H338.64v-13.4H352Zm-11.95-1.45h10.51v-10.5H340.08Z"/><path d="M352,163.56H338.64V150.15H352Zm-11.95-1.45h10.51v-10.5H340.08Z"/><path d="M373.77,144.27h-13.4v-13.4h13.4Zm-11.95-1.45h10.5v-10.5h-10.5Z"/><path d="M373.77,163.56h-13.4V150.15h13.4Zm-11.95-1.45h10.5v-10.5h-10.5Z"/><path d="M395.65,144.27h-13.4v-13.4h13.4Zm-11.95-1.45h10.51v-10.5H383.7Z"/><path d="M395.65,163.56h-13.4V150.15h13.4Zm-11.95-1.45h10.51v-10.5H383.7Z"/><path d="M417.54,144.27h-13.4v-13.4h13.4Zm-12-1.45h10.5v-10.5h-10.5Z"/><path d="M417.54,163.56h-13.4V150.15h13.4Zm-12-1.45h10.5v-10.5h-10.5Z"/><path d="M439.27,144.27H425.88v-13.4h13.39Zm-11.95-1.45h10.52v-10.5h-10.5Z"/><path d="M439.27,163.56H425.88V150.15h13.39Zm-11.95-1.45h10.52v-10.5h-10.5Z"/><path d="M461.16,144.27H447.77v-13.4h13.39Zm-12-1.45h10.5v-10.5h-10.5Z"/><path d="M461.16,163.56H447.77V150.15h13.39Zm-12-1.45h10.5v-10.5h-10.5Z"/><path d="M482.9,144.27H469.5v-13.4h13.4Zm-12-1.45h10.51v-10.5H470.93Z"/><path d="M482.9,163.56H469.5V150.15h13.4Zm-12-1.45h10.51v-10.5H470.93Z"/><rect x="338.35" y="120.99" width="13.68" height="1.45"/><rect x="360.23" y="120.99" width="13.68" height="1.45"/><path d="M223.62,119.66,182.5,48.44h82.23ZM185,49.89l38.62,66.88,38.61-66.88Z"/><polygon points="194.35 9.3 186.7 17 185.96 15.69 192.13 9.48 194.35 9.3"/><polygon points="207.76 8.22 191.18 24.9 190.44 23.6 205.55 8.4 207.76 8.22"/><polygon points="221.19 7.14 195.65 32.81 194.91 31.5 218.97 7.32 221.19 7.14"/><polygon points="234.6 6.06 200.13 40.72 199.39 39.41 232.39 6.24 234.6 6.06"/><polygon points="248.02 4.98 204.6 48.63 203.86 47.32 245.8 5.16 248.02 4.98"/><polygon points="261.44 3.89 209.08 56.53 208.34 55.23 259.22 4.07 261.44 3.89"/><polygon points="263.46 12.21 260.74 17 213.56 64.44 212.81 63.13 263.46 12.21"/><polygon points="246.95 41.22 244.22 46.02 218.03 72.35 217.29 71.04 246.95 41.22"/><polygon points="230.44 70.23 227.71 75.03 222.51 80.26 221.77 78.95 230.44 70.23"/><polygon points="269.9 150.88 269.9 128.05 247.05 128.05 269.9 150.88"/><polygon points="269.9 173.73 269.9 150.88 247.05 150.88 269.9 173.73"/><polygon points="269.9 196.57 269.9 173.73 247.05 173.73 269.9 196.57"/><rect x="331.49" y="221.32" width="70.22" height="1.45" transform="translate(-49.45 324.99) rotate(-45.1)"/><rect x="344.01" y="221.32" width="70.22" height="1.45" transform="translate(-45.77 333.86) rotate(-45.1)"/><rect x="356.53" y="221.32" width="70.22" height="1.45" transform="translate(-42.09 342.72) rotate(-45.1)"/><rect x="369.04" y="221.32" width="70.22" height="1.45" transform="translate(-38.41 351.59) rotate(-45.1)"/><polygon points="647.9 152.3 642.38 152.3 642.38 146.78 640.72 146.78 640.72 152.3 635.2 152.3 635.2 153.96 640.72 153.96 640.72 159.48 642.38 159.48 642.38 153.96 647.9 153.96 647.9 152.3"/><polygon points="647.9 182.44 642.38 182.44 642.38 176.91 640.72 176.91 640.72 182.44 635.2 182.44 635.2 184.09 640.72 184.09 640.72 189.62 642.38 189.62 642.38 184.09 647.9 184.09 647.9 182.44"/><polygon points="677.18 152.3 671.66 152.3 671.66 146.78 670 146.78 670 152.3 664.47 152.3 664.47 153.96 670 153.96 670 159.48 671.66 159.48 671.66 153.96 677.18 153.96 677.18 152.3"/><polygon points="677.18 182.44 671.66 182.44 671.66 176.91 670 176.91 670 182.44 664.47 182.44 664.47 184.09 670 184.09 670 189.62 671.66 189.62 671.66 184.09 677.18 184.09 677.18 182.44"/><polygon points="647.9 213.64 642.38 213.64 642.38 208.12 640.72 208.12 640.72 213.64 635.2 213.64 635.2 215.3 640.72 215.3 640.72 220.82 642.38 220.82 642.38 215.3 647.9 215.3 647.9 213.64"/><polygon points="677.18 213.64 671.66 213.64 671.66 208.12 670 208.12 670 213.64 664.47 213.64 664.47 215.3 670 215.3 670 220.82 671.66 220.82 671.66 215.3 677.18 215.3 677.18 213.64"/><polygon points="706.39 152.3 700.87 152.3 700.87 146.78 699.21 146.78 699.21 152.3 693.69 152.3 693.69 153.96 699.21 153.96 699.21 159.48 700.87 159.48 700.87 153.96 706.39 153.96 706.39 152.3"/><polygon points="706.39 182.44 700.87 182.44 700.87 176.91 699.21 176.91 699.21 182.44 693.69 182.44 693.69 184.09 699.21 184.09 699.21 189.62 700.87 189.62 700.87 184.09 706.39 184.09 706.39 182.44"/><polygon points="735.61 152.3 730.08 152.3 730.08 146.78 728.43 146.78 728.43 152.3 722.9 152.3 722.9 153.96 728.43 153.96 728.43 159.48 730.08 159.48 730.08 153.96 735.61 153.96 735.61 152.3"/><polygon points="735.61 182.44 730.08 182.44 730.08 176.91 728.43 176.91 728.43 182.44 722.9 182.44 722.9 184.09 728.43 184.09 728.43 189.62 730.08 189.62 730.08 184.09 735.61 184.09 735.61 182.44"/><polygon points="764.88 152.3 759.36 152.3 759.36 146.78 757.7 146.78 757.7 152.3 752.18 152.3 752.18 153.96 757.7 153.96 757.7 159.48 759.36 159.48 759.36 153.96 764.88 153.96 764.88 152.3"/><polygon points="764.88 182.44 759.36 182.44 759.36 176.91 757.7 176.91 757.7 182.44 752.18 182.44 752.18 184.09 757.7 184.09 757.7 189.62 759.36 189.62 759.36 184.09 764.88 184.09 764.88 182.44"/><rect x="639.94" y="365.3" width="1.45" height="154.52"/><rect x="630.98" y="379.31" width="1.45" height="140.51"/><rect x="622.3" y="393.13" width="1.45" height="126.69"/><rect x="613.34" y="405.89" width="1.45" height="113.93"/><circle cx="944.59" cy="502.44" r="5.36"/><circle cx="746.77" cy="287.27" r="4.91"/><circle cx="772.63" cy="287.27" r="4.91"/><circle cx="746.77" cy="307.5" r="4.91"/><path d="M772.63,312.7a5.2,5.2,0,1,1,5.2-5.2h0A5.2,5.2,0,0,1,772.63,312.7Zm0-9.82a4.63,4.63,0,1,0,4.63,4.63A4.63,4.63,0,0,0,772.63,302.88Z"/><circle cx="746.77" cy="327.73" r="4.91"/><path d="M772.63,332.93a5.2,5.2,0,1,1,5.2-5.2h0A5.2,5.2,0,0,1,772.63,332.93Zm0-9.82a4.64,4.64,0,1,0,4.63,4.63h0A4.63,4.63,0,0,0,772.63,323.11Z"/><circle cx="746.77" cy="347.97" r="4.91"/><path d="M772.63,353.17a5.21,5.21,0,1,1,5.2-5.21h0A5.21,5.21,0,0,1,772.63,353.17Zm0-9.82a4.63,4.63,0,1,0,4.63,4.63A4.63,4.63,0,0,0,772.63,343.35Z"/><circle cx="746.77" cy="368.2" r="4.91"/><path d="M772.63,373.4a5.2,5.2,0,1,1,5.2-5.2h0A5.2,5.2,0,0,1,772.63,373.4Zm0-9.82a4.63,4.63,0,1,0,4.63,4.63,4.63,4.63,0,0,0-4.63-4.63Z"/><circle cx="746.77" cy="388.43" r="4.91"/><path d="M772.63,393.63a5.2,5.2,0,1,1,5.2-5.2h0A5.2,5.2,0,0,1,772.63,393.63Zm0-9.82a4.64,4.64,0,1,0,4.63,4.63A4.63,4.63,0,0,0,772.63,383.81Z"/><circle cx="746.77" cy="408.67" r="4.91"/><circle cx="772.63" cy="408.67" r="4.91"/><circle cx="928.01" cy="519.14" r="5.36"/><circle cx="911.56" cy="535.72" r="5.36"/><circle cx="894.98" cy="552.42" r="5.36"/><path d="M742.5,637.85a53.61,53.61,0,1,1,53.6-53.61A53.67,53.67,0,0,1,742.5,637.85Zm0-105.75a52.15,52.15,0,1,0,52.15,52.15A52.21,52.21,0,0,0,742.5,532.1Z"/><path d="M742.5,656.11a71.85,71.85,0,1,1,50.81-21.05A71.86,71.86,0,0,1,742.5,656.11Zm0-142.27a70.41,70.41,0,1,0,70.41,70.41A70.49,70.49,0,0,0,742.5,513.84Z"/><rect x="689.44" y="393.05" width="9.53" height="9.53" transform="translate(-77.97 607.39) rotate(-45)"/><rect x="689.44" y="417.49" width="9.53" height="9.53" transform="translate(-95.26 614.55) rotate(-45)"/><rect x="689.44" y="442" width="9.53" height="9.53" transform="translate(-112.58 621.73) rotate(-45)"/><rect x="689.44" y="466.27" width="9.53" height="9.53" transform="translate(-129.74 628.84) rotate(-45)"/><path d="M635.2,324.78h-.72v-60h.72a30,30,0,1,1,0,60Zm.72-58.54v57.09a28.55,28.55,0,0,0,0-57.09Z"/><circle cx="315.28" cy="468.65" r="3.86"/><circle cx="315.28" cy="485" r="3.86"/><circle cx="315.28" cy="501.36" r="3.86"/><circle cx="315.28" cy="517.71" r="3.86"/><path d="M315.28,538.36a4.31,4.31,0,1,1,4.3-4.3h0A4.3,4.3,0,0,1,315.28,538.36Zm0-7.72a3.43,3.43,0,1,0,3.44,3.43,3.43,3.43,0,0,0-3.44-3.43Z"/><circle cx="336.43" cy="468.65" r="3.86"/><path d="M336.43,489.29a4.3,4.3,0,1,1,4.3-4.3h0A4.29,4.29,0,0,1,336.43,489.29Zm0-7.71a3.43,3.43,0,1,0,3.43,3.42h0a3.43,3.43,0,0,0-3.43-3.42Z"/><circle cx="336.43" cy="501.36" r="3.86"/><circle cx="336.43" cy="517.71" r="3.86"/><circle cx="336.43" cy="534.07" r="3.86"/><circle cx="357.46" cy="468.65" r="3.86"/><circle cx="357.46" cy="485" r="3.86"/><circle cx="357.46" cy="501.36" r="3.86"/><circle cx="357.46" cy="517.71" r="3.86"/><circle cx="357.46" cy="534.07" r="3.86"/><circle cx="378.49" cy="468.65" r="3.86"/><circle cx="378.49" cy="485" r="3.86"/><circle cx="378.49" cy="501.36" r="3.86"/><path d="M378.49,522a4.3,4.3,0,1,1,4.3-4.3h0A4.29,4.29,0,0,1,378.49,522Zm0-7.71a3.43,3.43,0,1,0,3.43,3.42h0A3.43,3.43,0,0,0,378.49,514.29Z"/><circle cx="378.49" cy="534.07" r="3.86"/><circle cx="399.52" cy="468.65" r="3.86"/><circle cx="399.52" cy="485" r="3.86"/><circle cx="399.52" cy="501.36" r="3.86"/><circle cx="399.52" cy="517.71" r="3.86"/><circle cx="399.52" cy="534.07" r="3.86"/><circle cx="420.67" cy="468.65" r="3.86"/><path d="M420.67,489.29A4.3,4.3,0,1,1,425,485h0A4.29,4.29,0,0,1,420.67,489.29Zm0-7.71a3.43,3.43,0,1,0,3.42,3.43h0a3.42,3.42,0,0,0-3.42-3.42Z"/><circle cx="420.67" cy="501.36" r="3.86"/><circle cx="420.67" cy="517.71" r="3.86"/><circle cx="420.67" cy="534.07" r="3.86"/><circle cx="441.47" cy="468.65" r="3.86"/><circle cx="441.47" cy="485" r="3.86"/><circle cx="441.47" cy="501.36" r="3.86"/><circle cx="441.47" cy="517.71" r="3.86"/><circle cx="441.47" cy="534.07" r="3.86"/><path d="M531.57,334.53h-46l-23-39.83,23-39.84h46l23,39.84Zm-45.16-1.45h44.34l22.17-38.38-22.17-38.39H486.41L464.24,294.7Z"/><path d="M576.73,334.53h-46l-23-39.83,23-39.84h46l23,39.84Zm-45.16-1.45h44.35l22.17-38.38-22.17-38.39H531.57L509.4,294.7Z"/><path d="M151.31,387.46H85.07V350.94h66.24ZM86.51,386h63.35V352.39H86.51Z"/><rect x="225.66" y="416.36" width="1.45" height="55.45"/><rect x="217.75" y="416.36" width="1.45" height="55.45"/><rect x="209.84" y="416.36" width="1.45" height="55.45"/><rect x="201.93" y="416.36" width="1.45" height="55.45"/><rect x="194.02" y="416.36" width="1.45" height="55.45"/><rect x="186.11" y="416.36" width="1.45" height="55.45"/><rect x="178.2" y="416.36" width="1.45" height="55.45"/><path d="M201.51,500H144.82V443.36h56.69Zm-55.24-1.44h53.79V444.8H146.27Z"/><path d="M173.89,527.77H117.2V471.08h56.68Zm-55.24-1.44h53.81v-53.8H118.65Z"/><path d="M964.86,385.8a91.19,91.19,0,1,1,64.49-26.71A91.2,91.2,0,0,1,964.86,385.8Zm0-181a89.76,89.76,0,1,0,89.76,89.76A89.87,89.87,0,0,0,964.86,204.84Z"/><path d="M964.86,395.87a101.25,101.25,0,1,1,71.61-29.66A101.26,101.26,0,0,1,964.86,395.87Zm0-202A100.69,100.69,0,1,0,1065.57,294.6,100.8,100.8,0,0,0,964.86,193.91Z"/><path d="M964.86,405.4a110.42,110.42,0,1,1,43.13-8.7A110.44,110.44,0,0,1,964.86,405.4Zm0-221A110.23,110.23,0,1,0,1075.09,294.6,110.35,110.35,0,0,0,964.86,184.38Z"/><path d="M964.86,414.9a120,120,0,1,1,46.82-9.46A119.94,119.94,0,0,1,964.86,414.9Zm0-240A119.72,119.72,0,1,0,1084.58,294.6,119.85,119.85,0,0,0,964.86,174.89Z"/><path d="M964.86,424.6a129.59,129.59,0,1,1,50.6-10.22A129.58,129.58,0,0,1,964.86,424.6Zm0-259.42A129.42,129.42,0,1,0,1094.28,294.6,129.57,129.57,0,0,0,964.86,165.18Z"/><path d="M1064.39,294.6a99.54,99.54,0,1,1-199.07,0h-2.88a102.42,102.42,0,1,0,204.83,2.85q0-1.43,0-2.85Z"/><path d="M1073.93,294.6a109.07,109.07,0,0,1-218.14,0H852.9a112,112,0,0,0,223.92,1.22V294.6Z"/><path d="M1083.44,294.6a118.57,118.57,0,0,1-237.13,0h-2.89a121.46,121.46,0,1,0,242.91,0Z"/><path d="M1093.12,294.6A128.41,128.41,0,0,1,964.86,422.86c-70.72,0-128.28-57.54-128.28-128.26h-2.89A131.16,131.16,0,1,0,1096,295.93V294.6Z"/><path d="M103.1,219.4a1.15,1.15,0,0,1,1.08-1.22h0a1.15,1.15,0,0,1,1.22,1.09h0a1.17,1.17,0,0,1-1.09,1.22h-.07A1.16,1.16,0,0,1,103.1,219.4Zm-4.16,1h0a1.17,1.17,0,0,1-1-1.27h0a1.16,1.16,0,0,1,1.28-1h0a1.15,1.15,0,0,1,1,1.27h0a1.14,1.14,0,0,1-1.14,1Zm9.33-1.49a1.15,1.15,0,0,1,.88-1.38h0a1.16,1.16,0,0,1,1.38.88h0a1.16,1.16,0,0,1-.88,1.38h0a1.07,1.07,0,0,1-.25,0h0a1.17,1.17,0,0,1-1.14-.91Zm-14.62.5h0a1.16,1.16,0,0,1-.8-1.42h0a1.15,1.15,0,0,1,1.42-.81h0a1.17,1.17,0,0,1,.81,1.42h0a1.18,1.18,0,0,1-1.12.85h0A1.65,1.65,0,0,1,93.65,219.37Zm19.64-1.86a1.15,1.15,0,0,1,.63-1.5h0a1.15,1.15,0,0,1,1.5.63h0a1.15,1.15,0,0,1-.64,1.5h0a1.26,1.26,0,0,1-.43.08h0A1.14,1.14,0,0,1,113.29,217.51Zm-24.69,0A1.15,1.15,0,0,1,88,216h0a1.15,1.15,0,0,1,1.53-.57h0a1.15,1.15,0,0,1,.57,1.53h0a1.13,1.13,0,0,1-1,.66h0a1.1,1.1,0,0,1-.48-.08ZM118,215.34a1.13,1.13,0,0,1,.38-1.58h0a1.15,1.15,0,0,1,1.59.39h0a1.17,1.17,0,0,1-.38,1.59h0a1.18,1.18,0,0,1-.61.16h0A1.15,1.15,0,0,1,118,215.34Zm-34.11-.47a1.15,1.15,0,0,1-.31-1.6h0a1.15,1.15,0,0,1,1.6-.31h0a1.16,1.16,0,0,1,.32,1.6h0a1.17,1.17,0,0,1-1,.51h0a1.15,1.15,0,0,1-.65-.19Zm38.42-2.43a1.15,1.15,0,0,1,.12-1.63h0a1.15,1.15,0,0,1,1.63.12h0a1.16,1.16,0,0,1-.12,1.63h0a1.16,1.16,0,0,1-.75.28h0a1.14,1.14,0,0,1-.88-.4Zm-42.61-.93a1.15,1.15,0,0,1-.06-1.63h0a1.15,1.15,0,0,1,1.63,0h0a1.15,1.15,0,0,1,0,1.63h0a1.17,1.17,0,0,1-.84.36h0a1.09,1.09,0,0,1-.79-.3Zm46.4-2.65a1.16,1.16,0,0,1-.14-1.63h0a1.16,1.16,0,0,1,1.63-.14h0a1.17,1.17,0,0,1,.14,1.63h0a1.17,1.17,0,0,1-.89.41h0a1.14,1.14,0,0,1-.73-.24Zm-50-1.36a1.15,1.15,0,0,1,.22-1.62h0a1.16,1.16,0,0,1,1.62.22h0a1.15,1.15,0,0,1-.22,1.62h0a1.16,1.16,0,0,1-.7.24h0a1.14,1.14,0,0,1-.92-.43Zm53.17-2.75a1.15,1.15,0,0,1-.4-1.58h0a1.14,1.14,0,0,1,1.58-.4h0a1.16,1.16,0,0,1,.41,1.58h0a1.16,1.16,0,0,1-1,.56h0A1,1,0,0,1,129.28,204.75ZM73.2,203a1.17,1.17,0,0,1,.48-1.57h0a1.16,1.16,0,0,1,1.56.48h0a1.17,1.17,0,0,1-.47,1.57h0a1.3,1.3,0,0,1-.54.13h0a1.18,1.18,0,0,1-1-.6Zm58.53-2.8a1.18,1.18,0,0,1-.66-1.51h0a1.16,1.16,0,0,1,1.5-.66h0a1.16,1.16,0,0,1,.66,1.5h0a1.16,1.16,0,0,1-1.08.74h0a1.52,1.52,0,0,1-.42-.06Zm-60.66-2.13a1.16,1.16,0,0,1,.72-1.47h0a1.17,1.17,0,0,1,1.47.72h0a1.16,1.16,0,0,1-.73,1.47h0a1.15,1.15,0,0,1-.37.06h0A1.16,1.16,0,0,1,71.07,198.05Zm62.34-2.78a1.17,1.17,0,0,1-.89-1.37h0a1.15,1.15,0,0,1,1.37-.89h0a1.15,1.15,0,0,1,.89,1.37h0a1.15,1.15,0,0,1-1.12.91h0Zm-63.64-2.45a1.15,1.15,0,0,1,1-1.32h0a1.15,1.15,0,0,1,1.32.95h0a1.15,1.15,0,0,1-1,1.32h-.19a1.16,1.16,0,0,1-1.14-1Zm64.49-2.68a1.15,1.15,0,0,1-1.1-1.21h0a1.15,1.15,0,0,1,1.21-1.1h0a1.15,1.15,0,0,1,1.1,1.21h0a1.16,1.16,0,0,1-1.16,1.1Zm-64.92-2.68a1.16,1.16,0,0,1,1.16-1.16h0a1.16,1.16,0,0,1,1.15,1.16h0a1.14,1.14,0,0,1-1.15,1.15h0a1.15,1.15,0,0,1-1.16-1.15Zm1.2-1.9a1.15,1.15,0,0,1-1-1.26h0a1.15,1.15,0,0,1,1.25-1h0a1.15,1.15,0,0,1,1,1.25h0a1.16,1.16,0,0,1-1.16,1.05ZM133,183.91a1.15,1.15,0,0,1,1-1.28h0a1.16,1.16,0,0,1,1.28,1h0a1.16,1.16,0,0,1-1,1.28h-.13a1.16,1.16,0,0,1-1.16-1ZM71.26,180.4a1.16,1.16,0,0,1-.82-1.41h0a1.16,1.16,0,0,1,1.41-.83h0a1.15,1.15,0,0,1,.82,1.41h0a1.14,1.14,0,0,1-1.11.86h0a1.08,1.08,0,0,1-.31,0ZM132,179a1.16,1.16,0,0,1,.79-1.43h0a1.14,1.14,0,0,1,1.42.79h0a1.15,1.15,0,0,1-.79,1.43h0a1.26,1.26,0,0,1-.33.05h0A1.17,1.17,0,0,1,132,179ZM72.8,175.43a1.16,1.16,0,0,1-.59-1.52h0a1.15,1.15,0,0,1,1.52-.58h0a1.15,1.15,0,0,1,.59,1.52h0a1.15,1.15,0,0,1-1,.68h0a1.18,1.18,0,0,1-.46-.09Zm57.45-1.12a1.15,1.15,0,0,1,.55-1.54h0a1.15,1.15,0,0,1,1.54.55h0a1.15,1.15,0,0,1-.55,1.54h0a1.21,1.21,0,0,1-.49.11h0a1.16,1.16,0,0,1-1-.64Zm-55.11-3.49a1.17,1.17,0,0,1-.33-1.61h0a1.16,1.16,0,0,1,1.6-.33h0a1.16,1.16,0,0,1,.33,1.6h0a1.14,1.14,0,0,1-1,.52h0A1.18,1.18,0,0,1,75.14,170.82Zm52.62-.83h0a1.14,1.14,0,0,1,.28-1.6h0a1.15,1.15,0,0,1,1.61.29h0a1.16,1.16,0,0,1-.3,1.61h0a1.17,1.17,0,0,1-.66.2h0a1.14,1.14,0,0,1-.94-.48Zm-49.55-3.37a1.15,1.15,0,0,1-.07-1.63h0a1.18,1.18,0,0,1,1.64-.06h0a1.18,1.18,0,0,1,.06,1.64h0a1.19,1.19,0,0,1-.85.37h0A1.13,1.13,0,0,1,78.21,166.62Zm46.38-.5a1.16,1.16,0,0,1,0-1.64h0a1.15,1.15,0,0,1,1.63,0h0a1.16,1.16,0,0,1,0,1.63h0a1.14,1.14,0,0,1-.8.33h0a1.16,1.16,0,0,1-.83-.36ZM81.9,163a1.16,1.16,0,0,1,.2-1.62h0a1.15,1.15,0,0,1,1.63.2h0a1.15,1.15,0,0,1-.21,1.62h0a1.13,1.13,0,0,1-.71.24h0a1.16,1.16,0,0,1-.91-.44Zm38.93-.17a1.14,1.14,0,0,1-.23-1.61h0a1.15,1.15,0,0,1,1.61-.24h0a1.16,1.16,0,0,1,.24,1.62h0a1.16,1.16,0,0,1-.93.46h0a1.12,1.12,0,0,1-.68-.23ZM86.14,160a1.15,1.15,0,0,1,.46-1.56h0a1.15,1.15,0,0,1,1.57.45h0a1.14,1.14,0,0,1-.46,1.56h0a1.18,1.18,0,0,1-.55.14h0a1.18,1.18,0,0,1-1-.6Zm30.44.18a1.15,1.15,0,0,1-.49-1.55h0a1.17,1.17,0,0,1,1.56-.49h0a1.15,1.15,0,0,1,.49,1.56h0a1.15,1.15,0,0,1-1,.62h0a1.18,1.18,0,0,1-.52-.13Zm-25.77-2.46a1.14,1.14,0,0,1,.7-1.46h0a1.16,1.16,0,0,1,1.47.71h0a1.16,1.16,0,0,1-.71,1.47h0a1.26,1.26,0,0,1-.38.06h0a1.16,1.16,0,0,1-1.08-.78Zm21.17.52h0a1.17,1.17,0,0,1-.74-1.46h0a1.16,1.16,0,0,1,1.45-.74h0a1.15,1.15,0,0,1,.74,1.45h0a1.16,1.16,0,0,1-1.1.8h0a1.13,1.13,0,0,1-.36-.06Zm-16.18-2a1.15,1.15,0,0,1,.94-1.32h0a1.14,1.14,0,0,1,1.32.94h0a1.14,1.14,0,0,1-.93,1.33h-.2a1.16,1.16,0,0,1-1.13-1Zm11.31.84a1.14,1.14,0,0,1-1-1.31h0a1.16,1.16,0,0,1,1.32-1h0a1.16,1.16,0,0,1,1,1.32h0a1.17,1.17,0,0,1-1.14,1h0a1.25,1.25,0,0,1-.19,0ZM101,155.55a1.15,1.15,0,0,1,1.14-1.17h0a1.16,1.16,0,0,1,1.17,1.14h0a1.15,1.15,0,0,1-1.14,1.17h0a1.15,1.15,0,0,1-1.16-1.14Z"/><path d="M100.07,242.61h0a1.15,1.15,0,0,1-1.11-1.2h0a1.17,1.17,0,0,1,1.21-1.11h0a1.16,1.16,0,0,1,1.1,1.2h0a1.13,1.13,0,0,1-1.15,1.1Zm6.4-1.24a1.16,1.16,0,0,1,1-1.26h0a1.16,1.16,0,0,1,1.26,1h0a1.15,1.15,0,0,1-1,1.25h-.11A1.15,1.15,0,0,1,106.47,241.37Zm-14,.4a1.17,1.17,0,0,1-.93-1.35h0a1.17,1.17,0,0,1,1.35-.93h0a1.17,1.17,0,0,1,.93,1.35h0a1.16,1.16,0,0,1-1.14.95h0l-.21,0Zm21.44-1.47a1.15,1.15,0,0,1,.85-1.39h0a1.16,1.16,0,0,1,1.39.86h0a1.15,1.15,0,0,1-.85,1.39h0a1.24,1.24,0,0,1-.27,0h0A1.15,1.15,0,0,1,113.89,240.3ZM85,239.87a1.15,1.15,0,0,1-.74-1.46h0a1.16,1.16,0,0,1,1.46-.74h0a1.17,1.17,0,0,1,.74,1.47h0a1.16,1.16,0,0,1-1.1.79h0a1,1,0,0,1-.35-.06Zm36.06-1.65a1.16,1.16,0,0,1,.66-1.5h0a1.16,1.16,0,0,1,1.5.66h0a1.16,1.16,0,0,1-.66,1.5h0a1.25,1.25,0,0,1-.42.08h0a1.15,1.15,0,0,1-1.06-.75ZM77.91,237a1.15,1.15,0,0,1-.52-1.54h0a1.15,1.15,0,0,1,1.54-.52h0a1.15,1.15,0,0,1,.52,1.55h0a1.17,1.17,0,0,1-1,.65h0a1.16,1.16,0,0,1-.48-.14Zm50-1.83a1.16,1.16,0,0,1,.44-1.57h0A1.16,1.16,0,0,1,130,234h0a1.16,1.16,0,0,1-.44,1.57h0a1.16,1.16,0,0,1-.57.15h0a1.17,1.17,0,0,1-1-.6Zm-56.63-2h0a1.16,1.16,0,0,1-.3-1.6h0a1.16,1.16,0,0,1,1.61-.3h0a1.15,1.15,0,0,1,.3,1.6h0a1.16,1.16,0,0,1-1,.5h0a1.08,1.08,0,0,1-.62-.21Zm63-2a1.16,1.16,0,0,1,.22-1.62h0a1.15,1.15,0,0,1,1.62.22h0a1.16,1.16,0,0,1-.21,1.62h0a1.21,1.21,0,0,1-.71.24h0a1.14,1.14,0,0,1-.89-.47Zm-69-2.8a1.15,1.15,0,0,1-.08-1.63h0a1.17,1.17,0,0,1,1.64-.07h0a1.15,1.15,0,0,1,.08,1.62h0a1.11,1.11,0,0,1-.85.37h0A1.08,1.08,0,0,1,65.31,228.33Zm74.74-2.05a1.14,1.14,0,0,1,0-1.63l0,0h0a1.14,1.14,0,0,1,1.62,0h0a1.15,1.15,0,0,1,0,1.63h0a1.17,1.17,0,0,1-.83.34h0A1.13,1.13,0,0,1,140.05,226.28ZM60,222.8a1.14,1.14,0,0,1,.14-1.62h0a1.14,1.14,0,0,1,1.62.14h0a1.15,1.15,0,0,1-.15,1.63h0a1.13,1.13,0,0,1-.73.27h0A1.13,1.13,0,0,1,60,222.8Zm85-2.1a1.15,1.15,0,0,1-.23-1.61h0a1.16,1.16,0,0,1,1.61-.24h0a1.16,1.16,0,0,1,.23,1.62h0a1.16,1.16,0,0,1-.93.46h0a1.14,1.14,0,0,1-.68-.23Zm-89.53-4.11a1.15,1.15,0,0,1,.37-1.59h0a1.15,1.15,0,0,1,1.59.37h0a1.16,1.16,0,0,1-.37,1.59h0a1.11,1.11,0,0,1-.61.18h0A1.15,1.15,0,0,1,55.52,216.59Zm93.74-2.11a1.16,1.16,0,0,1-.46-1.57h0a1.16,1.16,0,0,1,1.57-.46h0a1.14,1.14,0,0,1,.46,1.56h0a1.15,1.15,0,0,1-1,.6h0A1.19,1.19,0,0,1,149.26,214.48Zm-97.33-4.66a1.15,1.15,0,0,1,.57-1.52h0a1.16,1.16,0,0,1,1.53.58h0a1.15,1.15,0,0,1-.59,1.52h0a1,1,0,0,1-.47.1h0A1.14,1.14,0,0,1,51.93,209.82Zm100.62-2.09a1.16,1.16,0,0,1-.66-1.49h0a1.14,1.14,0,0,1,1.49-.66h0a1.14,1.14,0,0,1,.66,1.48h0a1.16,1.16,0,0,1-1.08.74h0A1.15,1.15,0,0,1,152.55,207.73ZM49.31,202.59h0a1.16,1.16,0,0,1,.79-1.43h0a1.15,1.15,0,0,1,1.43.8h0a1.14,1.14,0,0,1-.79,1.42h0a1,1,0,0,1-.33.05h0a1.17,1.17,0,0,1-1.1-.83Zm105.56-2a1.15,1.15,0,0,1-.87-1.38h0a1.15,1.15,0,0,1,1.37-.87h0a1.16,1.16,0,0,1,.87,1.38h0a1.16,1.16,0,0,1-1.13.9h0l-.24,0ZM47.74,195.1a1.15,1.15,0,0,1,1-1.3h0a1.14,1.14,0,0,1,1.3,1h0a1.17,1.17,0,0,1-1,1.3h-.17A1.15,1.15,0,0,1,47.74,195.1Zm108.44-1.88a1.17,1.17,0,0,1-1.05-1.25h0a1.15,1.15,0,0,1,1.24-1.06h0a1.15,1.15,0,0,1,1.05,1.24h0a1.15,1.15,0,0,1-1.15,1.06Zm-109-5.76h0a1.15,1.15,0,0,1,.4-.87h0a1.14,1.14,0,0,1-.37-.88h0a1.15,1.15,0,0,1,1.19-1.12h0a1.15,1.15,0,0,1,1.12,1.19h0a1.15,1.15,0,0,1-.39.83h0a1.18,1.18,0,0,1,.36.85h0a1.15,1.15,0,0,1-1.15,1.15h0A1.16,1.16,0,0,1,47.21,187.46Zm108-2.84h0a1.16,1.16,0,0,1,1.09-1.21h0a1.15,1.15,0,0,1,1.23,1.08h0a1.17,1.17,0,0,1-1.1,1.22h-.05A1.16,1.16,0,0,1,155.25,184.62ZM49,179.42a1.18,1.18,0,0,1-1-1.33h0a1.16,1.16,0,0,1,1.33-.94h0a1.15,1.15,0,0,1,.94,1.33h0a1.15,1.15,0,0,1-1.13,1h0Zm105.4-2.09h0a1.16,1.16,0,0,1,.9-1.37h0a1.17,1.17,0,0,1,1.36.92h0a1.17,1.17,0,0,1-.92,1.36h0l-.22,0h0A1.16,1.16,0,0,1,154.35,177.33ZM50.57,172.09a1.16,1.16,0,0,1-.75-1.45h0a1.15,1.15,0,0,1,1.45-.75h0a1.15,1.15,0,0,1,.74,1.44h0a1.16,1.16,0,0,1-1.1.81h0A1.33,1.33,0,0,1,50.57,172.09Zm101.88-1.85a1.17,1.17,0,0,1,.72-1.47h0a1.15,1.15,0,0,1,1.47.72h0a1.15,1.15,0,0,1-.72,1.47h0a1.19,1.19,0,0,1-.37.06h0a1.15,1.15,0,0,1-1.1-.78ZM53.2,165a1.15,1.15,0,0,1-.54-1.54h0a1.17,1.17,0,0,1,1.55-.54h0a1.16,1.16,0,0,1,.53,1.55h0a1.15,1.15,0,0,1-1,.66h0A1.13,1.13,0,0,1,53.2,165Zm96.39-1.58a1.14,1.14,0,0,1,.49-1.54h0a1.14,1.14,0,0,1,1.54.49h0a1.15,1.15,0,0,1-.49,1.55h0a1.19,1.19,0,0,1-.53.13h0a1.14,1.14,0,0,1-1-.62Zm-92.81-5a1.16,1.16,0,0,1-.33-1.6h0a1.16,1.16,0,0,1,1.6-.33h0a1.17,1.17,0,0,1,.34,1.6h0a1.13,1.13,0,0,1-1,.52h0A1.19,1.19,0,0,1,56.78,158.47Zm89-1.29h0a1.15,1.15,0,0,1,.28-1.6h0a1.16,1.16,0,0,1,1.61.28h0a1.16,1.16,0,0,1-.28,1.61h0a1.1,1.1,0,0,1-.66.21h0a1.15,1.15,0,0,1-.94-.49Zm-84.55-4.75a1.16,1.16,0,0,1-.1-1.63h0a1.15,1.15,0,0,1,1.63-.1h0a1.16,1.16,0,0,1,.1,1.63h0a1.16,1.16,0,0,1-.86.39h0A1.13,1.13,0,0,1,61.24,152.43Zm79.94-1a1.15,1.15,0,0,1,.07-1.63h0a1.13,1.13,0,0,1,1.62.05h0a1.15,1.15,0,0,1-.06,1.63h0a1.17,1.17,0,0,1-.79.31h0A1.19,1.19,0,0,1,141.18,151.48Zm-74.69-4.42a1.14,1.14,0,0,1,.12-1.62h0a1.15,1.15,0,0,1,1.62.13h0a1.16,1.16,0,0,1-.12,1.63h0a1.16,1.16,0,0,1-.75.28h0A1.15,1.15,0,0,1,66.49,147.06Zm69.34-.62a1.15,1.15,0,0,1-.17-1.62h0a1.16,1.16,0,0,1,1.63-.17h0a1.16,1.16,0,0,1,.16,1.63h0a1.15,1.15,0,0,1-.89.42h0A1.12,1.12,0,0,1,135.83,146.44Zm-63.4-4a1.14,1.14,0,0,1,.35-1.59h0a1.15,1.15,0,0,1,1.59.36h0a1.14,1.14,0,0,1-.35,1.59h0a1.12,1.12,0,0,1-.62.18h0A1.15,1.15,0,0,1,72.43,142.47Zm57.4-.26a1.16,1.16,0,0,1-.39-1.59h0a1.15,1.15,0,0,1,1.59-.39h0a1.15,1.15,0,0,1,.39,1.58h0a1.16,1.16,0,0,1-1,.56h0a1.15,1.15,0,0,1-.6-.16Zm-50.89-3.47a1.16,1.16,0,0,1,.57-1.53h0a1.16,1.16,0,0,1,1.53.57h0a1.16,1.16,0,0,1-.57,1.53h0a1.13,1.13,0,0,1-.48.11h0A1.17,1.17,0,0,1,78.94,138.74Zm44.37.1a1.15,1.15,0,0,1-.61-1.51h0a1.16,1.16,0,0,1,1.52-.61h0a1.16,1.16,0,0,1,.61,1.52h0a1.17,1.17,0,0,1-1.07.7h0a1,1,0,0,1-.45-.1ZM85.92,136a1.15,1.15,0,0,1,.77-1.44h0a1.16,1.16,0,0,1,1.44.78h0a1.16,1.16,0,0,1-.78,1.44h0a1.24,1.24,0,0,1-.33,0h0a1.14,1.14,0,0,1-1.1-.82Zm30.44.46a1.14,1.14,0,0,1-.81-1.41h0a1.16,1.16,0,0,1,1.42-.81h0a1.17,1.17,0,0,1,.81,1.42h0a1.17,1.17,0,0,1-1.12.85h0a.9.9,0,0,1-.28,0ZM93.2,134.17a1.15,1.15,0,0,1,1-1.32h0a1.15,1.15,0,0,1,1.32,1h0a1.16,1.16,0,0,1-1,1.33h-.18a1.16,1.16,0,0,1-1.13-1Zm16,.82a1.16,1.16,0,0,1-1-1.3h0a1.15,1.15,0,0,1,1.29-1h0a1.16,1.16,0,0,1,1,1.3h0a1.15,1.15,0,0,1-1.14,1h-.15Zm-8.5-1.57a1.15,1.15,0,0,1,1.14-1.17h0A1.16,1.16,0,0,1,103,133.4h0a1.14,1.14,0,0,1-1.14,1.16h0a1.16,1.16,0,0,1-1.16-1.14Z"/><path d="M102.18,264.1a1.16,1.16,0,0,1,1.14-1.16h0a1.16,1.16,0,0,1,1.17,1.14h0a1.17,1.17,0,0,1-1.15,1.17h0a1.16,1.16,0,0,1-1.17-1.14Zm-7,.82a1.16,1.16,0,0,1-1-1.26h0a1.16,1.16,0,0,1,1.26-1.05h0a1.16,1.16,0,0,1,1,1.26h0a1.15,1.15,0,0,1-1.15,1.05Zm15.09-1.21a1.15,1.15,0,0,1,1-1.28h0a1.14,1.14,0,0,1,1.28,1h0a1.16,1.16,0,0,1-1,1.29h-.14A1.16,1.16,0,0,1,110.25,263.71Zm-23.23,0a1.15,1.15,0,0,1-.9-1.35h0a1.15,1.15,0,0,1,1.36-.9h0a1.14,1.14,0,0,1,.93,1.33v0h0a1.15,1.15,0,0,1-1.13.92h0a1.06,1.06,0,0,1-.25,0Zm31.22-1.26a1.16,1.16,0,0,1,.87-1.38h0a1.16,1.16,0,0,1,1.38.87h0a1.16,1.16,0,0,1-.87,1.38h0a1.15,1.15,0,0,1-.26,0h0a1.14,1.14,0,0,1-1.11-.9Zm-39.16-.78h0a1.16,1.16,0,0,1-.76-1.45h0a1.16,1.16,0,0,1,1.45-.76h0a1.16,1.16,0,0,1,.76,1.45h0a1.17,1.17,0,0,1-1.11.81h0a1.26,1.26,0,0,1-.33-.05Zm47-1.3a1.16,1.16,0,0,1,.73-1.47h0a1.16,1.16,0,0,1,1.47.73h0a1.16,1.16,0,0,1-.72,1.46h0a1.19,1.19,0,0,1-.37.06h0a1.15,1.15,0,0,1-1.11-.78ZM71.4,258.82a1.15,1.15,0,0,1-.6-1.52h0a1.16,1.16,0,0,1,1.52-.6h0a1.16,1.16,0,0,1,.6,1.52h0a1.16,1.16,0,0,1-1.06.7h0A1.19,1.19,0,0,1,71.4,258.82Zm62.21-1.32a1.16,1.16,0,0,1,.56-1.54h0a1.17,1.17,0,0,1,1.54.57h0a1.15,1.15,0,0,1-.56,1.53h0a1,1,0,0,1-.49.11h0a1.17,1.17,0,0,1-1-.68Zm-69.55-2.34a1.16,1.16,0,0,1-.43-1.58h0a1.15,1.15,0,0,1,1.57-.43h0a1.16,1.16,0,0,1,.44,1.58h0a1.16,1.16,0,0,1-1,.58h0a1.14,1.14,0,0,1-.57-.16Zm76.77-1.32a1.16,1.16,0,0,1,.39-1.59h0a1.16,1.16,0,0,1,1.59.4h0a1.15,1.15,0,0,1-.4,1.58h0a1,1,0,0,1-.59.16h0a1.14,1.14,0,0,1-1-.58Zm-83.67-3.09a1.16,1.16,0,0,1-.26-1.61h0a1.15,1.15,0,0,1,1.61-.26h0a1.15,1.15,0,0,1,.27,1.61h0a1.17,1.17,0,0,1-.94.48h0a1.13,1.13,0,0,1-.69-.24Zm90.44-1.32a1.17,1.17,0,0,1,.22-1.62h0a1.17,1.17,0,0,1,1.62.22h0a1.16,1.16,0,0,1-.23,1.62h0a1.12,1.12,0,0,1-.7.24h0a1.16,1.16,0,0,1-.93-.5Zm-96.86-3.82a1.16,1.16,0,0,1-.1-1.63h0a1.15,1.15,0,0,1,1.63-.09h0a1.15,1.15,0,0,1,.09,1.63h0a1.14,1.14,0,0,1-.86.39h0A1.2,1.2,0,0,1,50.74,245.61Zm103.11-1.33a1.15,1.15,0,0,1,.06-1.63h0a1.16,1.16,0,0,1,1.63,0h0a1.16,1.16,0,0,1-.06,1.63h0a1.17,1.17,0,0,1-.79.33h0a1.16,1.16,0,0,1-.85-.38ZM44.9,239.83h0A1.15,1.15,0,0,1,45,238.2h0a1.15,1.15,0,0,1,1.63.07h0a1.15,1.15,0,0,1-.07,1.63h0a1.15,1.15,0,0,1-.78.31h0A1.17,1.17,0,0,1,44.9,239.83Zm114.65-1.28a1.15,1.15,0,0,1-.12-1.62h0a1.14,1.14,0,0,1,1.62-.11h0a1.15,1.15,0,0,1,.12,1.63h0a1.17,1.17,0,0,1-.87.4h0A1.13,1.13,0,0,1,159.55,238.55ZM39.7,233.49a1.14,1.14,0,0,1,.25-1.61h0a1.15,1.15,0,0,1,1.61.24h0a1.15,1.15,0,0,1-.24,1.61h0a1.15,1.15,0,0,1-.68.22h0a1.14,1.14,0,0,1-.93-.47Zm124.92-1.24a1.15,1.15,0,0,1-.29-1.6h0a1.15,1.15,0,0,1,1.61-.29h0a1.16,1.16,0,0,1,.29,1.61h0a1.16,1.16,0,0,1-.95.49h0a1.1,1.1,0,0,1-.66-.21ZM35.19,226.63a1.16,1.16,0,0,1,.41-1.58h0a1.16,1.16,0,0,1,1.58.41h0a1.16,1.16,0,0,1-.42,1.59h0a1.14,1.14,0,0,1-.58.15h0a1.14,1.14,0,0,1-1-.57ZM169,225.46a1.17,1.17,0,0,1-.46-1.57h0a1.16,1.16,0,0,1,1.57-.46h0a1.16,1.16,0,0,1,.46,1.57h0a1.15,1.15,0,0,1-1,.6h0a1.18,1.18,0,0,1-.55-.14ZM31.44,219.34h0a1.14,1.14,0,0,1,.58-1.53h0a1.15,1.15,0,0,1,1.52.58h0a1.14,1.14,0,0,1-.57,1.52h0a1.08,1.08,0,0,1-.47.11h0A1.15,1.15,0,0,1,31.44,219.34Zm141.2-1.1a1.15,1.15,0,0,1-.62-1.51h0a1.15,1.15,0,0,1,1.51-.62h0a1.15,1.15,0,0,1,.62,1.51h0a1.16,1.16,0,0,1-1.07.71h0A1.12,1.12,0,0,1,172.64,218.24ZM28.47,211.68h0a1.15,1.15,0,0,1,.74-1.45h0a1.15,1.15,0,0,1,1.46.73h0a1.15,1.15,0,0,1-.74,1.46h0a1.13,1.13,0,0,1-.36.06h0A1.16,1.16,0,0,1,28.47,211.68Zm147-1a1.16,1.16,0,0,1-.78-1.44h0a1.17,1.17,0,0,1,1.44-.78h0a1.15,1.15,0,0,1,.78,1.43h0a1.17,1.17,0,0,1-1.11.83h0l-.33-.06ZM26.34,203.76a1.15,1.15,0,0,1,.88-1.37h0a1.16,1.16,0,0,1,1.38.88h0a1.16,1.16,0,0,1-.89,1.37h0a1,1,0,0,1-.24,0h0A1.15,1.15,0,0,1,26.34,203.76Zm151.18-.91a1.15,1.15,0,0,1-.92-1.34h0a1.17,1.17,0,0,1,1.35-.93h0a1.15,1.15,0,0,1,.92,1.35h0a1.17,1.17,0,0,1-1.13.95h0a.83.83,0,0,1-.22,0Zm-152.47-7.2a1.17,1.17,0,0,1,1-1.27h0a1.14,1.14,0,0,1,1.27,1h0a1.16,1.16,0,0,1-1,1.27H26.2A1.16,1.16,0,0,1,25.05,195.65Zm153.67-.79a1.16,1.16,0,0,1-1.06-1.25h0a1.15,1.15,0,0,1,1.24-1.06h0A1.16,1.16,0,0,1,180,193.8h0a1.15,1.15,0,0,1-1.15,1.06Zm-154.09-7.4h0a1.16,1.16,0,0,1,1.15-1.16h0a1.16,1.16,0,0,1,1.16,1.16h0a1.16,1.16,0,0,1-1.16,1.15h0A1.14,1.14,0,0,1,24.63,187.46Zm153.25-1.81h0a1.15,1.15,0,0,1,1.13-1.18h0a1.14,1.14,0,0,1,1.18,1.12h0a1.14,1.14,0,0,1-1.12,1.18h0a1.16,1.16,0,0,1-1.16-1.12Zm-152-1.45A1.16,1.16,0,0,1,24.75,183h0a1.15,1.15,0,0,1,1.2-1.09h0a1.16,1.16,0,0,1,1.09,1.21h0a1.16,1.16,0,0,1-1.15,1.09Zm151.44-6.49a1.15,1.15,0,0,1,1-1.29h0a1.15,1.15,0,0,1,1.3,1h0a1.17,1.17,0,0,1-1,1.3h-.16A1.16,1.16,0,0,1,177.28,177.71ZM26.6,176.15a1.15,1.15,0,0,1-1-1.32h0a1.15,1.15,0,0,1,1.32-1h0a1.17,1.17,0,0,1,1,1.33h0a1.16,1.16,0,0,1-1.14,1H26.6Zm149.24-6.28h0a1.16,1.16,0,0,1,.86-1.4h0a1.16,1.16,0,0,1,1.38.87h0a1.15,1.15,0,0,1-.85,1.39h0a1.27,1.27,0,0,1-.28,0h0a1.14,1.14,0,0,1-1.1-.89ZM28.2,168.21a1.14,1.14,0,0,1-.81-1.41h0A1.16,1.16,0,0,1,28.8,166h0a1.16,1.16,0,0,1,.81,1.42h0a1.16,1.16,0,0,1-1.11.87h0a1,1,0,0,1-.3,0Zm145.38-6a1.16,1.16,0,0,1,.7-1.48h0a1.17,1.17,0,0,1,1.49.72h0a1.17,1.17,0,0,1-.71,1.48h0a1.21,1.21,0,0,1-.38.06h0a1.15,1.15,0,0,1-1.09-.77Zm-143-1.73A1.15,1.15,0,0,1,30,159h0a1.13,1.13,0,0,1,1.48-.67h0a1.15,1.15,0,0,1,.67,1.48v0h0a1.14,1.14,0,0,1-1.07.73h0a1.13,1.13,0,0,1-.41,0Zm139.89-5.62a1.17,1.17,0,0,1,.54-1.55h0a1.17,1.17,0,0,1,1.55.54h0a1.17,1.17,0,0,1-.55,1.55h0a1.18,1.18,0,0,1-.5.11h0a1.14,1.14,0,0,1-1-.64ZM33.86,153.1a1.15,1.15,0,0,1-.49-1.56h0a1.15,1.15,0,0,1,1.56-.49h0a1.14,1.14,0,0,1,.49,1.54h0a1.17,1.17,0,0,1-1,.62h0a1,1,0,0,1-.51-.11Zm132.84-5.22a1.15,1.15,0,0,1,.37-1.59h0a1.18,1.18,0,0,1,1.6.38h0a1.17,1.17,0,0,1-.38,1.59h0a1.17,1.17,0,0,1-.61.17h0a1.14,1.14,0,0,1-1-.53ZM37.86,146.07a1.16,1.16,0,0,1-.33-1.6h0a1.16,1.16,0,0,1,1.6-.33h0a1.15,1.15,0,0,1,.34,1.6h0a1.15,1.15,0,0,1-1,.52h0a1.17,1.17,0,0,1-.61-.17Zm124.34-4.72h0a1.17,1.17,0,0,1,.2-1.63h0a1.17,1.17,0,0,1,1.63.21h0a1.16,1.16,0,0,1-.21,1.63h0a1.12,1.12,0,0,1-.71.23h0A1.13,1.13,0,0,1,162.2,141.35ZM42.62,139.52a1.14,1.14,0,0,1-.16-1.61h0a1.15,1.15,0,0,1,1.62-.16h0a1.17,1.17,0,0,1,.16,1.63h0a1.13,1.13,0,0,1-.88.42h0a1.08,1.08,0,0,1-.75-.27ZM157,135.31a1.15,1.15,0,0,1,0-1.63h0a1.16,1.16,0,0,1,1.64,0h0a1.17,1.17,0,0,1,0,1.64h0a1.14,1.14,0,0,1-.8.33h0a1.15,1.15,0,0,1-.85-.37ZM48,133.5a1.16,1.16,0,0,1,0-1.64h0a1.16,1.16,0,0,1,1.63,0h0a1.15,1.15,0,0,1,0,1.63h0a1.18,1.18,0,0,1-.81.33h0a1.17,1.17,0,0,1-.84-.33Zm103.21-3.64h0a1.16,1.16,0,0,1-.14-1.63h0a1.16,1.16,0,0,1,1.63-.14h0a1.16,1.16,0,0,1,.14,1.63h0a1.17,1.17,0,0,1-.89.41h0a1.16,1.16,0,0,1-.75-.28ZM54,128.06a1.16,1.16,0,0,1,.19-1.62h0a1.16,1.16,0,0,1,1.62.19h0a1.14,1.14,0,0,1-.18,1.61h0a1.13,1.13,0,0,1-.72.25h0A1.18,1.18,0,0,1,54,128.06Zm90.89-3h0a1.16,1.16,0,0,1-.3-1.61h0a1.14,1.14,0,0,1,1.59-.3h0a1.16,1.16,0,0,1,.3,1.61h0a1.15,1.15,0,0,1-.95.5h0a1.22,1.22,0,0,1-.67-.2Zm-84.36-1.75a1.16,1.16,0,0,1,.35-1.59h0a1.17,1.17,0,0,1,1.6.35h0a1.16,1.16,0,0,1-.36,1.6h0a1.11,1.11,0,0,1-.61.18h0a1.16,1.16,0,0,1-1-.54ZM138,120.9a1.15,1.15,0,0,1-.47-1.56h0a1.16,1.16,0,0,1,1.57-.48h0a1.17,1.17,0,0,1,.47,1.57h0a1.16,1.16,0,0,1-1,.61h0A1.18,1.18,0,0,1,138,120.9Zm-70.56-1.69a1.15,1.15,0,0,1,.52-1.54h0a1.16,1.16,0,0,1,1.55.52h0a1.16,1.16,0,0,1-.52,1.55h0a1.13,1.13,0,0,1-.51.12h0a1.17,1.17,0,0,1-1-.65Zm63.36-1.69a1.16,1.16,0,0,1-.63-1.51h0a1.15,1.15,0,0,1,1.5-.64h0a1.15,1.15,0,0,1,.64,1.5h0a1.15,1.15,0,0,1-1.07.72h0a1.16,1.16,0,0,1-.42-.08Zm-56-1.61a1.15,1.15,0,0,1,.68-1.48h0a1.16,1.16,0,0,1,1.48.68h0a1.16,1.16,0,0,1-.68,1.49h0a1.34,1.34,0,0,1-.4.07h0a1.17,1.17,0,0,1-1.07-.76Zm48.46-1a1.16,1.16,0,0,1-.79-1.43h0a1.15,1.15,0,0,1,1.43-.79h0a1.15,1.15,0,0,1,.79,1.43h0a1.18,1.18,0,0,1-1.11.84h0a1.55,1.55,0,0,1-.31-.06Zm-40.76-1.5a1.15,1.15,0,0,1,.84-1.4h0a1.15,1.15,0,0,1,1.4.84h0a1.15,1.15,0,0,1-.84,1.4h0a1.26,1.26,0,0,1-.28,0h0A1.16,1.16,0,0,1,82.56,113.42Zm33-.29h0a1.15,1.15,0,0,1-.94-1.32h0a1.16,1.16,0,0,1,1.34-.94h0a1.14,1.14,0,0,1,.93,1.32h0a1.15,1.15,0,0,1-1.13,1h0l-.2,0Zm-25.11-1.38a1.17,1.17,0,0,1,1-1.31h0a1.16,1.16,0,0,1,1.32,1v0h0a1.16,1.16,0,0,1-1,1.3h0a.43.43,0,0,1-.16,0h0a1.15,1.15,0,0,1-1.16-1Zm17.21.42a1.15,1.15,0,0,1-1.08-1.23h0a1.17,1.17,0,0,1,1.24-1.08h0a1.17,1.17,0,0,1,1.07,1.23h0a1.16,1.16,0,0,1-1.15,1.08Zm-9.16-1.25a1.14,1.14,0,0,1,1.11-1.19h0a1.15,1.15,0,0,1,1.2,1.11h0a1.17,1.17,0,0,1-1.11,1.2h-.06a1.17,1.17,0,0,1-1.15-1.13Z"/><path d="M98.14,287.75A1.17,1.17,0,0,1,97,286.54h0a1.15,1.15,0,0,1,1.2-1.1h0a1.15,1.15,0,0,1,1.11,1.19h0a1.16,1.16,0,0,1-1.15,1.11Zm9-1.17a1.15,1.15,0,0,1,1.08-1.22h0a1.14,1.14,0,0,1,1.21,1.08h0a1.14,1.14,0,0,1-1.07,1.21h-.08a1.15,1.15,0,0,1-1.15-1.08Zm-19.2.22a1.15,1.15,0,0,1-1-1.29v0h0a1.17,1.17,0,0,1,1.3-1h0a1.15,1.15,0,0,1,1,1.3v0h0a1.15,1.15,0,0,1-1.14,1h0l-.17,0Zm29.26-1.2a1.16,1.16,0,0,1,1-1.33h0a1.17,1.17,0,0,1,1.33,1h0a1.17,1.17,0,0,1-1,1.33h-.19A1.15,1.15,0,0,1,117.2,285.6Zm-39.27-.77a1.15,1.15,0,0,1-.84-1.4h0a1.15,1.15,0,0,1,1.4-.84h0a1.15,1.15,0,0,1,.84,1.4h0a1.15,1.15,0,0,1-1.12.88h0A.9.9,0,0,1,77.93,284.83Zm49.17-1.23a1.16,1.16,0,0,1,.82-1.42h0a1.16,1.16,0,0,1,1.41.82h0a1.15,1.15,0,0,1-.81,1.42h0a1.54,1.54,0,0,1-.3,0h0a1.16,1.16,0,0,1-1.12-.86Zm-58.95-1.75a1.15,1.15,0,0,1-.69-1.48h0a1.15,1.15,0,0,1,1.48-.69h0a1.17,1.17,0,0,1,.7,1.48h0a1.16,1.16,0,0,1-1.09.76h0A1.12,1.12,0,0,1,68.15,281.85Zm68.6-1.24a1.16,1.16,0,0,1,.66-1.5h0a1.15,1.15,0,0,1,1.49.66h0a1.16,1.16,0,0,1-.66,1.49h0a1.14,1.14,0,0,1-.41.07h0a1.15,1.15,0,0,1-1.08-.75Zm-78-2.73a1.16,1.16,0,0,1-.54-1.55h0a1.17,1.17,0,0,1,1.54-.54h0a1.15,1.15,0,0,1,.54,1.53h0a1.16,1.16,0,0,1-1,.66h0a1.06,1.06,0,0,1-.5-.12Zm87.3-1.25a1.15,1.15,0,0,1,.51-1.55h0a1.16,1.16,0,0,1,1.56.51h0a1.17,1.17,0,0,1-.51,1.55h0a1.13,1.13,0,0,1-.51.12h0a1.15,1.15,0,0,1-1-.65Zm-96.27-3.69a1.15,1.15,0,0,1-.37-1.59h0A1.15,1.15,0,0,1,51,271h0a1.15,1.15,0,0,1,.37,1.59h0a1.13,1.13,0,0,1-1,.55h0A1.16,1.16,0,0,1,49.77,272.94Zm105.11-1.24a1.14,1.14,0,0,1,.35-1.59h0a1.15,1.15,0,0,1,1.59.34h0a1.15,1.15,0,0,1-.35,1.59h0a1.21,1.21,0,0,1-.62.18h0A1.14,1.14,0,0,1,154.88,271.7Zm-113.5-4.56h0a1.15,1.15,0,0,1-.22-1.62h0a1.15,1.15,0,0,1,1.62-.22h0a1.14,1.14,0,0,1,.22,1.61h0a1.11,1.11,0,0,1-.91.45h0a1.11,1.11,0,0,1-.72-.23Zm121.8-1.21a1.17,1.17,0,0,1,.19-1.63h0a1.17,1.17,0,0,1,1.63.19h0a1.16,1.16,0,0,1-.19,1.62h0a1.19,1.19,0,0,1-.72.25h0a1.13,1.13,0,0,1-.92-.43ZM33.57,260.51a1.15,1.15,0,0,1,0-1.63h0a1.14,1.14,0,0,1,1.63-.05h0a1.16,1.16,0,0,1,.06,1.64h0a1.16,1.16,0,0,1-.84.36h0A1.15,1.15,0,0,1,33.57,260.51Zm137.27-1.16a1.15,1.15,0,0,1,0-1.63h0a1.14,1.14,0,0,1,1.62,0h0a1.16,1.16,0,0,1,0,1.61h0a1.18,1.18,0,0,1-.81.33h0A1.14,1.14,0,0,1,170.84,259.35ZM26.5,253.13a1.14,1.14,0,0,1,.11-1.62h0a1.15,1.15,0,0,1,1.63.12h0a1.16,1.16,0,0,1-.12,1.63h0a1.16,1.16,0,0,1-.75.28h0A1.18,1.18,0,0,1,26.5,253.13ZM177.79,252a1.17,1.17,0,0,1-.14-1.63h0a1.15,1.15,0,0,1,1.62-.15h0a1.16,1.16,0,0,1,.15,1.63h0a1.15,1.15,0,0,1-.88.41h0A1.18,1.18,0,0,1,177.79,252ZM20.21,245.06h0a1.15,1.15,0,0,1,.28-1.61h0a1.15,1.15,0,0,1,1.61.28h0a1.16,1.16,0,0,1-.28,1.61h0a1.18,1.18,0,0,1-.66.21h0a1.15,1.15,0,0,1-.95-.48ZM184,244a1.15,1.15,0,0,1-.31-1.6h0a1.16,1.16,0,0,1,1.61-.31h0a1.15,1.15,0,0,1,.31,1.6h0a1.1,1.1,0,0,1-.95.5h0A1.14,1.14,0,0,1,184,244Zm-169.2-7.57a1.17,1.17,0,0,1,.44-1.58h0a1.17,1.17,0,0,1,1.58.45h0a1.14,1.14,0,0,1-.45,1.56h0a1.09,1.09,0,0,1-.56.15h0A1.16,1.16,0,0,1,14.77,236.42Zm174.54-1a1.15,1.15,0,0,1-.47-1.55h0a1.15,1.15,0,0,1,1.56-.47h0a1.17,1.17,0,0,1,.48,1.57h0a1.19,1.19,0,0,1-1,.61h0a1.29,1.29,0,0,1-.55-.15ZM10.24,227.25a1.14,1.14,0,0,1,.6-1.51h0a1.14,1.14,0,0,1,1.52.6h0a1.17,1.17,0,0,1-.6,1.52h0a1.22,1.22,0,0,1-.46.09h0A1.14,1.14,0,0,1,10.24,227.25Zm183.5-.9a1.15,1.15,0,0,1-.63-1.5h0a1.16,1.16,0,0,1,1.51-.63h0a1.16,1.16,0,0,1,.63,1.51h0a1.15,1.15,0,0,1-1.07.71h0a1.12,1.12,0,0,1-.44-.09ZM6.67,217.66a1.16,1.16,0,0,1,.75-1.45h0a1.15,1.15,0,0,1,1.45.75h0a1.15,1.15,0,0,1-.75,1.45h0a1.28,1.28,0,0,1-.33.06h0A1.18,1.18,0,0,1,6.67,217.66Zm190.56-.81a1.16,1.16,0,0,1-.78-1.44h0a1.16,1.16,0,0,1,1.44-.78h0a1.16,1.16,0,0,1,.78,1.44h0a1.16,1.16,0,0,1-1.11.82h0a1,1,0,0,1-.34,0ZM4.1,207.77h0a1.15,1.15,0,0,1,.9-1.36H5a1.15,1.15,0,0,1,1.36.9h0a1.15,1.15,0,0,1-.9,1.36h0a.85.85,0,0,1-.23,0h0A1.16,1.16,0,0,1,4.1,207.77Zm195.62-.7a1.17,1.17,0,0,1-.93-1.35h0a1.16,1.16,0,0,1,1.35-.92h0a1.15,1.15,0,0,1,.92,1.35h0a1.16,1.16,0,0,1-1.13.94h0ZM2.55,197.66a1.16,1.16,0,0,1,1-1.26h0a1.15,1.15,0,0,1,1.26,1h0a1.15,1.15,0,0,1-1,1.27H3.7A1.17,1.17,0,0,1,2.55,197.66Zm198.64-.59a1.15,1.15,0,0,1-1.05-1.24h0a1.16,1.16,0,0,1,1.25-1h0a1.16,1.16,0,0,1,1.05,1.25h0a1.15,1.15,0,0,1-1.15,1.06h-.1ZM2,187.46A1.16,1.16,0,0,1,3.2,186.3h0a1.16,1.16,0,0,1,1.16,1.16h0a1.15,1.15,0,0,1-1.16,1.15h0A1.15,1.15,0,0,1,2,187.46Zm198.44-1.62a1.17,1.17,0,0,1,1.13-1.18h0a1.16,1.16,0,0,1,1.18,1.14h0a1.16,1.16,0,0,1-1.14,1.18h0a1.16,1.16,0,0,1-1.15-1.14ZM3.37,181.78a1.16,1.16,0,0,1-1.1-1.22h0a1.16,1.16,0,0,1,1.24-1.07h0a1.15,1.15,0,0,1,1.07,1.22h0a1.15,1.15,0,0,1-1.15,1.07Zm196.46-5.91a1.16,1.16,0,0,1,1-1.28h0a1.16,1.16,0,0,1,1.28,1h0a1.16,1.16,0,0,1-1,1.29H201a1.16,1.16,0,0,1-1.16-1ZM4.43,171.74a1.16,1.16,0,0,1-.95-1.33h0a1.16,1.16,0,0,1,1.33-.94h0a1.16,1.16,0,0,1,.94,1.33h0a1.16,1.16,0,0,1-1.13,1h0ZM198.14,166h0a1.15,1.15,0,0,1,.88-1.38h0a1.16,1.16,0,0,1,1.38.87h0a1.15,1.15,0,0,1-.88,1.38h0a1.07,1.07,0,0,1-.25,0h0A1.16,1.16,0,0,1,198.14,166ZM6.53,161.85a1.15,1.15,0,0,1-.81-1.42h0a1.14,1.14,0,0,1,1.42-.8h0a1.16,1.16,0,0,1,.8,1.42H8a1.16,1.16,0,0,1-1.11.84h0A1.06,1.06,0,0,1,6.53,161.85Zm188.94-5.45a1.16,1.16,0,0,1,.73-1.46h0a1.17,1.17,0,0,1,1.47.73h0a1.16,1.16,0,0,1-.73,1.47h0a1.42,1.42,0,0,1-.36.05h0A1.15,1.15,0,0,1,195.47,156.4ZM9.62,152.23A1.16,1.16,0,0,1,9,150.74H9a1.15,1.15,0,0,1,1.49-.67h0a1.16,1.16,0,0,1,.67,1.48v0h0a1.15,1.15,0,0,1-1.07.73h0A1.05,1.05,0,0,1,9.62,152.23Zm182.21-5.13a1.15,1.15,0,0,1,.57-1.52h0a1.15,1.15,0,0,1,1.53.57h0a1.15,1.15,0,0,1-.57,1.53h0a1.12,1.12,0,0,1-.48.1h0A1.12,1.12,0,0,1,191.83,147.1ZM13.69,143a1.16,1.16,0,0,1-.5-1.56h0a1.18,1.18,0,0,1,1.57-.49h0a1.15,1.15,0,0,1,.49,1.55h0a1.15,1.15,0,0,1-1,.63h0A1.09,1.09,0,0,1,13.69,143Zm173.57-4.74a1.15,1.15,0,0,1,.41-1.58h0a1.16,1.16,0,0,1,1.58.42h0a1.16,1.16,0,0,1-.41,1.58h0a1.13,1.13,0,0,1-.57.15h0A1.11,1.11,0,0,1,187.26,138.24ZM18.68,134.19a1.15,1.15,0,0,1-.33-1.59h0a1.15,1.15,0,0,1,1.6-.34h0a1.17,1.17,0,0,1,.33,1.61h0a1.16,1.16,0,0,1-1,.52h0A1.13,1.13,0,0,1,18.68,134.19Zm163.14-4.33a1.14,1.14,0,0,1,.25-1.61h0a1.16,1.16,0,0,1,1.61.25h0a1.15,1.15,0,0,1-.26,1.61h0a1.13,1.13,0,0,1-.68.22h0a1.14,1.14,0,0,1-.95-.47ZM24.54,126a1.17,1.17,0,0,1-.17-1.63h0a1.16,1.16,0,0,1,1.62-.17h0a1.16,1.16,0,0,1,.17,1.62h0a1.16,1.16,0,0,1-.9.43h0A1.14,1.14,0,0,1,24.54,126Zm151-3.88a1.13,1.13,0,0,1,.09-1.62h0a1.15,1.15,0,0,1,1.62.08h0a1.16,1.16,0,0,1-.09,1.63h0a1.2,1.2,0,0,1-.77.29h0a1.16,1.16,0,0,1-.87-.39ZM31.2,118.36a1.15,1.15,0,0,1,0-1.63h0a1.16,1.16,0,0,1,1.62,0h0a1.15,1.15,0,0,1,0,1.63h0a1.12,1.12,0,0,1-.82.33h0A1.14,1.14,0,0,1,31.2,118.36ZM168.49,115a1.16,1.16,0,0,1-.08-1.64h0a1.15,1.15,0,0,1,1.63-.07h0a1.15,1.15,0,0,1,.08,1.63h0a1.17,1.17,0,0,1-.86.38h0A1.16,1.16,0,0,1,168.49,115ZM38.6,111.47a1.16,1.16,0,0,1,.16-1.62h0a1.15,1.15,0,0,1,1.62.15h0a1.16,1.16,0,0,1-.15,1.63h0a1.12,1.12,0,0,1-.73.26h0A1.12,1.12,0,0,1,38.6,111.47Zm122.18-2.83a1.16,1.16,0,0,1-.24-1.62h0a1.16,1.16,0,0,1,1.62-.24h0a1.16,1.16,0,0,1,.24,1.62h0a1.17,1.17,0,0,1-.93.47h0a1.14,1.14,0,0,1-.69-.23ZM46.65,105.37a1.16,1.16,0,0,1,.34-1.61h0a1.17,1.17,0,0,1,1.6.33h0a1.17,1.17,0,0,1-.33,1.61h0a1.2,1.2,0,0,1-.64.19h0A1.16,1.16,0,0,1,46.65,105.37Zm105.82-2.26a1.16,1.16,0,0,1-.4-1.59h0a1.14,1.14,0,0,1,1.58-.4h0a1.16,1.16,0,0,1,.4,1.59h0a1.17,1.17,0,0,1-1,.56h0A1.21,1.21,0,0,1,152.47,103.11Zm-97.18-3a1.15,1.15,0,0,1,.48-1.56h0a1.14,1.14,0,0,1,1.56.48h0a1.16,1.16,0,0,1-.49,1.56h0a1.14,1.14,0,0,1-.54.14h0a1.17,1.17,0,0,1-1-.64Zm88.35-1.66a1.14,1.14,0,0,1-.56-1.52h0a1.17,1.17,0,0,1,1.54-.57h0a1.17,1.17,0,0,1,.56,1.54h0a1.16,1.16,0,0,1-1.05.66h0a1.18,1.18,0,0,1-.49-.12ZM64.42,95.8a1.16,1.16,0,0,1,.64-1.51h0a1.16,1.16,0,0,1,1.51.6h0a1.15,1.15,0,0,1-.64,1.5h0a1.11,1.11,0,0,1-.43.09h0a1.17,1.17,0,0,1-1.09-.71Zm70-1.06a1.17,1.17,0,0,1-.72-1.47h0a1.17,1.17,0,0,1,1.47-.72h0a1.17,1.17,0,0,1,.72,1.47h0a1.16,1.16,0,0,1-1.1.78h0a.85.85,0,0,1-.38-.09ZM73.93,92.38a1.17,1.17,0,0,1,.8-1.43h0a1.16,1.16,0,0,1,1.43.8h0a1.15,1.15,0,0,1-.8,1.42h0a1.2,1.2,0,0,1-.33,0h0A1.18,1.18,0,0,1,73.93,92.38ZM124.77,92a1.16,1.16,0,0,1-.86-1.38h0a1.16,1.16,0,0,1,1.39-.86h0a1.15,1.15,0,0,1,.86,1.39h0A1.15,1.15,0,0,1,125,92h0A1.24,1.24,0,0,1,124.77,92Zm-41-2a1.16,1.16,0,0,1,.94-1.34h0a1.16,1.16,0,0,1,1.34.94h0a1.16,1.16,0,0,1-.92,1.34h0l-.2,0h0a1.16,1.16,0,0,1-1.15-1Zm31.2.2a1.16,1.16,0,0,1-1-1.29h0a1.17,1.17,0,0,1,1.3-1h0a1.15,1.15,0,0,1,1,1.29h0a1.16,1.16,0,0,1-1.14,1h-.15ZM93.76,88.6a1.15,1.15,0,0,1,1.06-1.24h0a1.16,1.16,0,0,1,1.24,1.06h0A1.15,1.15,0,0,1,95,89.67h-.09a1.15,1.15,0,0,1-1.14-1.06Zm11.22.82a1.15,1.15,0,0,1-1.13-1.18h0A1.17,1.17,0,0,1,105,87.11h0a1.17,1.17,0,0,1,1.13,1.19h0A1.16,1.16,0,0,1,105,89.42Z"/></g></g><g id="Layer_1-3" data-name="Layer 1" class="cls-4"><g id="elements-2" data-name="elements"><path class="cls-5" d="M1506.81,639.22H1361.19V608.31h145.62Zm-144.47-1.15h143.31v-28.6H1362.34Z"/><path class="cls-5" d="M1481.38,629.69H1352.23V598.77h129.15Zm-128-1.16h126.84v-28.6H1353.39Z"/><path class="cls-5" d="M1219,653.38h-72.22V634.89H1219ZM1148,652.22h69.92V636.05H1148Z"/><path class="cls-5" d="M1219,616.69h-72.22v-13H1219ZM1148,615.53h69.92V604.81H1148Z"/><rect class="cls-5" x="1075.71" y="246.56" width="4.91" height="21.09"/><rect class="cls-5" x="1062.28" y="246.56" width="4.91" height="21.09"/><rect class="cls-5" x="1049.13" y="246.56" width="4.91" height="21.09"/><rect class="cls-5" x="1062.28" y="216.12" width="4.91" height="21.09"/><rect class="cls-5" x="1049.13" y="216.12" width="4.91" height="21.09"/><rect class="cls-5" x="1075.59" y="155.52" width="4.91" height="21.09"/><rect class="cls-5" x="1049.29" y="155.52" width="4.91" height="21.09"/><rect class="cls-5" x="1062.44" y="125.35" width="4.91" height="21.09"/><rect class="cls-5" x="1049.29" y="125.35" width="4.91" height="21.09"/><rect class="cls-5" x="1062.44" y="95.13" width="4.91" height="21.09"/><rect class="cls-5" x="1075.59" y="95.13" width="4.91" height="21.09"/><rect class="cls-5" x="1049.29" y="95.13" width="4.91" height="21.09"/><rect class="cls-5" x="1075.59" y="185.79" width="4.91" height="21.09"/><rect class="cls-5" x="1062.44" y="185.79" width="4.91" height="21.09"/><path class="cls-5" d="M886,532.13H872.64v-13.4H886Zm-11.95-1.45h10.51v-10.5H874.08Z"/><path class="cls-5" d="M886,512.85H872.64V499.44H886Zm-11.95-1.46h10.51v-10.5H874.08Z"/><path class="cls-5" d="M907.77,532.13h-13.4v-13.4h13.4Zm-11.95-1.45h10.5v-10.5h-10.5Z"/><path class="cls-5" d="M907.77,512.85h-13.4V499.44h13.4Zm-11.95-1.46h10.5v-10.5h-10.5Z"/><path class="cls-5" d="M929.65,532.13h-13.4v-13.4h13.4Zm-11.95-1.45h10.51v-10.5H917.7Z"/><path class="cls-5" d="M929.65,512.85h-13.4V499.44h13.4Zm-11.95-1.46h10.51v-10.5H917.7Z"/><path class="cls-5" d="M951.54,532.13h-13.4v-13.4h13.4Zm-11.95-1.45h10.5v-10.5h-10.5Z"/><path class="cls-5" d="M951.54,512.85h-13.4V499.44h13.4Zm-11.95-1.46h10.5v-10.5h-10.5Z"/><path class="cls-5" d="M973.27,532.13H959.88v-13.4h13.39Zm-11.93-1.45h10.5v-10.5H961.32Z"/><path class="cls-5" d="M973.27,512.85H959.88V499.44h13.39Zm-11.93-1.46h10.5v-10.5H961.32Z"/><path class="cls-5" d="M995.16,532.13H981.77v-13.4h13.39Zm-11.95-1.45h10.5v-10.5h-10.5Z"/><path class="cls-5" d="M995.16,512.85H981.77V499.44h13.39Zm-11.95-1.46h10.5v-10.5h-10.5Z"/><path class="cls-5" d="M1016.9,532.13h-13.4v-13.4h13.4Zm-12-1.45h10.51v-10.5h-10.51Z"/><path class="cls-5" d="M1016.9,512.85h-13.4V499.44h13.4Zm-12-1.46h10.51v-10.5h-10.51Z"/><rect class="cls-5" x="872.35" y="540.56" width="13.68" height="1.45"/><rect class="cls-5" x="894.23" y="540.56" width="13.68" height="1.45"/><path class="cls-5" d="M798.73,614.56H716.5l41.12-71.22Zm-2.5-1.45-38.61-66.88L719,613.11Z"/><polygon class="cls-5" points="726.13 653.52 719.96 647.31 720.7 646 728.35 653.7 726.13 653.52"/><polygon class="cls-5" points="739.55 654.6 724.44 639.4 725.18 638.1 741.76 654.77 739.55 654.6"/><polygon class="cls-5" points="752.97 655.68 728.91 631.5 729.65 630.18 755.19 655.86 752.97 655.68"/><polygon class="cls-5" points="766.39 656.76 733.39 623.59 734.13 622.28 768.6 656.94 766.39 656.76"/><polygon class="cls-5" points="779.8 657.84 737.86 615.68 738.6 614.37 782.02 658.02 779.8 657.84"/><polygon class="cls-5" points="793.22 658.93 742.34 607.77 743.08 606.47 795.43 659.11 793.22 658.93"/><polygon class="cls-5" points="746.82 599.87 747.56 598.56 794.74 646 797.46 650.79 746.82 599.87"/><polygon class="cls-5" points="751.29 591.96 752.03 590.65 778.22 616.98 780.95 621.78 751.29 591.96"/><polygon class="cls-5" points="755.77 584.05 756.51 582.74 761.71 587.97 764.43 592.77 755.77 584.05"/><polygon class="cls-5" points="781.05 534.95 803.9 534.95 803.9 512.12 781.05 534.95"/><polygon class="cls-5" points="781.05 512.12 803.9 512.12 803.9 489.27 781.05 512.12"/><polygon class="cls-5" points="781.05 489.27 803.9 489.27 803.9 466.43 781.05 489.27"/><rect class="cls-5" x="899.88" y="405.85" width="1.45" height="70.22" transform="translate(-48.59 764.32) rotate(-44.9)"/><rect class="cls-5" x="912.4" y="405.85" width="1.45" height="70.22" transform="translate(-44.94 773.16) rotate(-44.9)"/><rect class="cls-5" x="924.92" y="405.84" width="1.45" height="70.22" transform="translate(-41.29 781.99) rotate(-44.9)"/><rect class="cls-5" x="937.43" y="405.84" width="1.45" height="70.22" transform="translate(-37.64 790.82) rotate(-44.9)"/><polygon class="cls-5" points="1181.9 509.04 1176.38 509.04 1176.38 503.52 1174.72 503.52 1174.72 509.04 1169.2 509.04 1169.2 510.7 1174.72 510.7 1174.72 516.22 1176.38 516.22 1176.38 510.7 1181.9 510.7 1181.9 509.04"/><polygon class="cls-5" points="1181.9 478.91 1176.38 478.91 1176.38 473.38 1174.72 473.38 1174.72 478.91 1169.2 478.91 1169.2 480.56 1174.72 480.56 1174.72 486.09 1176.38 486.09 1176.38 480.56 1181.9 480.56 1181.9 478.91"/><polygon class="cls-5" points="1211.18 509.04 1205.66 509.04 1205.66 503.52 1204 503.52 1204 509.04 1198.47 509.04 1198.47 510.7 1204 510.7 1204 516.22 1205.66 516.22 1205.66 510.7 1211.18 510.7 1211.18 509.04"/><polygon class="cls-5" points="1211.18 478.91 1205.66 478.91 1205.66 473.38 1204 473.38 1204 478.91 1198.47 478.91 1198.47 480.56 1204 480.56 1204 486.09 1205.66 486.09 1205.66 480.56 1211.18 480.56 1211.18 478.91"/><polygon class="cls-5" points="1181.9 447.7 1176.38 447.7 1176.38 442.18 1174.72 442.18 1174.72 447.7 1169.2 447.7 1169.2 449.36 1174.72 449.36 1174.72 454.88 1176.38 454.88 1176.38 449.36 1181.9 449.36 1181.9 447.7"/><polygon class="cls-5" points="1211.18 447.7 1205.66 447.7 1205.66 442.18 1204 442.18 1204 447.7 1198.47 447.7 1198.47 449.36 1204 449.36 1204 454.88 1205.66 454.88 1205.66 449.36 1211.18 449.36 1211.18 447.7"/><polygon class="cls-5" points="1240.39 509.04 1234.87 509.04 1234.87 503.52 1233.21 503.52 1233.21 509.04 1227.69 509.04 1227.69 510.7 1233.21 510.7 1233.21 516.22 1234.87 516.22 1234.87 510.7 1240.39 510.7 1240.39 509.04"/><polygon class="cls-5" points="1240.39 478.91 1234.87 478.91 1234.87 473.38 1233.21 473.38 1233.21 478.91 1227.69 478.91 1227.69 480.56 1233.21 480.56 1233.21 486.09 1234.87 486.09 1234.87 480.56 1240.39 480.56 1240.39 478.91"/><polygon class="cls-5" points="1269.61 509.04 1264.08 509.04 1264.08 503.52 1262.43 503.52 1262.43 509.04 1256.9 509.04 1256.9 510.7 1262.43 510.7 1262.43 516.22 1264.08 516.22 1264.08 510.7 1269.61 510.7 1269.61 509.04"/><polygon class="cls-5" points="1269.61 478.91 1264.08 478.91 1264.08 473.38 1262.43 473.38 1262.43 478.91 1256.9 478.91 1256.9 480.56 1262.43 480.56 1262.43 486.09 1264.08 486.09 1264.08 480.56 1269.61 480.56 1269.61 478.91"/><polygon class="cls-5" points="1298.88 509.04 1293.36 509.04 1293.36 503.52 1291.7 503.52 1291.7 509.04 1286.18 509.04 1286.18 510.7 1291.7 510.7 1291.7 516.22 1293.36 516.22 1293.36 510.7 1298.88 510.7 1298.88 509.04"/><polygon class="cls-5" points="1298.88 478.91 1293.36 478.91 1293.36 473.38 1291.7 473.38 1291.7 478.91 1286.18 478.91 1286.18 480.56 1291.7 480.56 1291.7 486.09 1293.36 486.09 1293.36 480.56 1298.88 480.56 1298.88 478.91"/><rect class="cls-5" x="1173.94" y="143.18" width="1.45" height="154.52"/><rect class="cls-5" x="1164.98" y="143.18" width="1.45" height="140.51"/><rect class="cls-5" x="1156.3" y="143.18" width="1.45" height="126.69"/><rect class="cls-5" x="1147.34" y="143.18" width="1.45" height="113.93"/><circle class="cls-5" cx="1478.59" cy="160.56" r="5.36"/><circle class="cls-5" cx="1280.77" cy="375.73" r="4.91"/><circle class="cls-5" cx="1306.63" cy="375.73" r="4.91"/><circle class="cls-5" cx="1280.77" cy="355.5" r="4.91"/><path class="cls-5" d="M1311.83,355.5h0a5.2,5.2,0,1,1-5.2-5.2A5.2,5.2,0,0,1,1311.83,355.5Zm-.57,0a4.63,4.63,0,1,0-4.63,4.63A4.63,4.63,0,0,0,1311.26,355.49Z"/><circle class="cls-5" cx="1280.77" cy="335.27" r="4.91"/><path class="cls-5" d="M1311.83,335.27h0a5.2,5.2,0,1,1-5.2-5.2A5.2,5.2,0,0,1,1311.83,335.27Zm-.57,0h0a4.63,4.63,0,1,0-4.63,4.63A4.63,4.63,0,0,0,1311.26,335.26Z"/><circle class="cls-5" cx="1280.77" cy="315.03" r="4.91"/><path class="cls-5" d="M1311.83,315h0a5.2,5.2,0,1,1-5.2-5.21A5.2,5.2,0,0,1,1311.83,315Zm-.57,0a4.63,4.63,0,1,0-4.63,4.63A4.63,4.63,0,0,0,1311.26,315Z"/><circle class="cls-5" cx="1280.77" cy="294.8" r="4.91"/><path class="cls-5" d="M1311.83,294.8h0a5.2,5.2,0,1,1-5.2-5.2A5.2,5.2,0,0,1,1311.83,294.8Zm-5.2,4.61a4.63,4.63,0,1,0-4.63-4.62,4.62,4.62,0,0,0,4.63,4.62Z"/><circle class="cls-5" cx="1280.77" cy="274.57" r="4.91"/><path class="cls-5" d="M1311.83,274.57h0a5.2,5.2,0,1,1-5.2-5.2A5.2,5.2,0,0,1,1311.83,274.57Zm-.57,0a4.63,4.63,0,1,0-4.63,4.63A4.63,4.63,0,0,0,1311.26,274.56Z"/><circle class="cls-5" cx="1280.77" cy="254.33" r="4.91"/><circle class="cls-5" cx="1306.63" cy="254.33" r="4.91"/><circle class="cls-5" cx="1462.01" cy="143.86" r="5.36"/><circle class="cls-5" cx="1445.56" cy="127.28" r="5.36"/><circle class="cls-5" cx="1428.98" cy="110.58" r="5.36"/><path class="cls-5" d="M1330.1,78.76a53.61,53.61,0,1,1-53.6-53.61A53.66,53.66,0,0,1,1330.1,78.76Zm-1.45,0a52.15,52.15,0,1,0-52.15,52.15A52.21,52.21,0,0,0,1328.65,78.75Z"/><path class="cls-5" d="M1327.31,27.94a71.85,71.85,0,1,1-50.81-21A71.85,71.85,0,0,1,1327.31,27.94Zm19.6,50.81a70.41,70.41,0,1,0-70.41,70.41A70.49,70.49,0,0,0,1346.91,78.75Z"/><rect class="cls-5" x="1223.44" y="260.42" width="9.53" height="9.53" transform="translate(172.22 946.14) rotate(-45)"/><rect class="cls-5" x="1223.44" y="235.97" width="9.53" height="9.53" transform="translate(189.5 938.98) rotate(-45)"/><rect class="cls-5" x="1223.44" y="211.47" width="9.53" height="9.53" transform="translate(206.83 931.81) rotate(-45)"/><rect class="cls-5" x="1223.44" y="187.2" width="9.53" height="9.53" transform="translate(223.99 924.7) rotate(-45)"/><path class="cls-5" d="M1169.22,338.22a30,30,0,1,1,0,60h-.72v-60h.74ZM1197.71,369a28.54,28.54,0,0,0-27.79-29.29v57.09A28.56,28.56,0,0,0,1197.71,369Z"/><circle class="cls-5" cx="849.28" cy="194.35" r="3.86"/><circle class="cls-5" cx="849.28" cy="178" r="3.86"/><circle class="cls-5" cx="849.28" cy="161.64" r="3.86"/><circle class="cls-5" cx="849.28" cy="145.29" r="3.86"/><path class="cls-5" d="M853.58,128.94h0a4.3,4.3,0,1,1-4.3-4.3A4.3,4.3,0,0,1,853.58,128.94Zm-4.29,3.42a3.43,3.43,0,1,0-3.42-3.44,3.44,3.44,0,0,0,3.42,3.44Z"/><circle class="cls-5" cx="870.43" cy="194.35" r="3.86"/><path class="cls-5" d="M874.73,178h0a4.3,4.3,0,1,1-4.3-4.3A4.3,4.3,0,0,1,874.73,178Zm-4.3,3.41a3.43,3.43,0,0,0,3.43-3.42h0a3.43,3.43,0,1,0-3.43,3.42Z"/><circle class="cls-5" cx="870.43" cy="161.64" r="3.86"/><circle class="cls-5" cx="870.43" cy="145.29" r="3.86"/><circle class="cls-5" cx="870.43" cy="128.93" r="3.86"/><circle class="cls-5" cx="891.46" cy="194.35" r="3.86"/><circle class="cls-5" cx="891.46" cy="178" r="3.86"/><circle class="cls-5" cx="891.46" cy="161.64" r="3.86"/><circle class="cls-5" cx="891.46" cy="145.29" r="3.86"/><circle class="cls-5" cx="891.46" cy="128.93" r="3.86"/><circle class="cls-5" cx="912.49" cy="194.35" r="3.86"/><circle class="cls-5" cx="912.49" cy="178" r="3.86"/><circle class="cls-5" cx="912.49" cy="161.64" r="3.86"/><path class="cls-5" d="M916.79,145.3h0a4.3,4.3,0,1,1-4.3-4.3A4.3,4.3,0,0,1,916.79,145.3Zm-.87,0h0a3.43,3.43,0,1,0-3.43,3.42A3.44,3.44,0,0,0,915.92,145.29Z"/><circle class="cls-5" cx="912.49" cy="128.93" r="3.86"/><circle class="cls-5" cx="933.52" cy="194.35" r="3.86"/><circle class="cls-5" cx="933.52" cy="178" r="3.86"/><circle class="cls-5" cx="933.52" cy="161.64" r="3.86"/><circle class="cls-5" cx="933.52" cy="145.29" r="3.86"/><circle class="cls-5" cx="933.52" cy="128.93" r="3.86"/><circle class="cls-5" cx="954.67" cy="194.35" r="3.86"/><path class="cls-5" d="M959,178h0a4.3,4.3,0,1,1-4.3-4.3A4.3,4.3,0,0,1,959,178Zm-4.3,3.41a3.42,3.42,0,0,0,3.42-3.42h0a3.43,3.43,0,1,0-3.42,3.43Z"/><circle class="cls-5" cx="954.67" cy="161.64" r="3.86"/><circle class="cls-5" cx="954.67" cy="145.29" r="3.86"/><circle class="cls-5" cx="954.67" cy="128.93" r="3.86"/><circle class="cls-5" cx="975.47" cy="194.35" r="3.86"/><circle class="cls-5" cx="975.47" cy="178" r="3.86"/><circle class="cls-5" cx="975.47" cy="161.64" r="3.86"/><circle class="cls-5" cx="975.47" cy="145.29" r="3.86"/><circle class="cls-5" cx="975.47" cy="128.93" r="3.86"/><path class="cls-5" d="M1088.57,368.3l-23,39.84h-46l-23-39.84,23-39.83h46Zm-90.33,0,22.17,38.39h44.34l22.17-38.39-22.17-38.38h-44.34Z"/><path class="cls-5" d="M1133.73,368.3l-23,39.84h-46l-23-39.84,23-39.83h46Zm-90.33,0,22.17,38.39h44.35l22.17-38.39-22.17-38.38h-44.35Z"/><path class="cls-5" d="M685.31,312.06H619.07V275.54h66.24Zm-64.8-1.45h63.35V277H620.51Z"/><rect class="cls-5" x="759.66" y="191.19" width="1.45" height="55.45"/><rect class="cls-5" x="751.75" y="191.19" width="1.45" height="55.45"/><rect class="cls-5" x="743.84" y="191.19" width="1.45" height="55.45"/><rect class="cls-5" x="735.93" y="191.19" width="1.45" height="55.45"/><rect class="cls-5" x="728.02" y="191.19" width="1.45" height="55.45"/><rect class="cls-5" x="720.11" y="191.19" width="1.45" height="55.45"/><rect class="cls-5" x="712.2" y="191.19" width="1.45" height="55.45"/><path class="cls-5" d="M735.51,219.64H678.82V163h56.69Zm-55.24-1.44h53.79V164.4H680.27Z"/><path class="cls-5" d="M707.88,191.92H651.2V135.23h56.69Zm-55.23-1.45h53.81v-53.8H652.65Z"/><path class="cls-5" d="M1563.35,303.91a91.2,91.2,0,1,1-64.49-26.71A91.2,91.2,0,0,1,1563.35,303.91Zm25.27,64.49a89.76,89.76,0,1,0-89.76,89.76A89.86,89.86,0,0,0,1588.62,368.4Z"/><path class="cls-5" d="M1570.47,296.79a101.26,101.26,0,1,1-71.61-29.66A101.28,101.28,0,0,1,1570.47,296.79Zm-71.61,172.3A100.69,100.69,0,1,0,1398.17,368.4a100.82,100.82,0,0,0,100.69,100.69Z"/><path class="cls-5" d="M1542,266.3a110.45,110.45,0,1,1-43.13-8.7A110.44,110.44,0,0,1,1542,266.3Zm67.1,102.1a110.23,110.23,0,1,0-110.23,110.22A110.36,110.36,0,0,0,1609.09,368.4Z"/><path class="cls-5" d="M1545.68,257.56a119.92,119.92,0,1,1-46.82-9.46A119.92,119.92,0,0,1,1545.68,257.56Zm-46.82,230.55A119.72,119.72,0,1,0,1379.14,368.4a119.85,119.85,0,0,0,119.72,119.71Z"/><path class="cls-5" d="M1549.46,248.62a129.57,129.57,0,1,1-50.6-10.22A129.58,129.58,0,0,1,1549.46,248.62Zm-50.6,249.2A129.42,129.42,0,1,0,1369.44,368.4a129.57,129.57,0,0,0,129.42,129.42Z"/><path class="cls-5" d="M1601.27,368.4q0-1.42,0-2.85a102.42,102.42,0,0,0-204.83,2.85h2.88a99.54,99.54,0,1,1,199.07,0Z"/><path class="cls-5" d="M1610.82,368.4v-1.22a112,112,0,0,0-223.92,1.22h2.89a109.07,109.07,0,0,1,218.14,0Z"/><path class="cls-5" d="M1620.33,368.4a121.46,121.46,0,1,0-242.91,0h2.89a118.57,118.57,0,0,1,237.13,0Z"/><path class="cls-5" d="M1630,368.4v-1.33a131.16,131.16,0,1,0-262.31,1.33h2.89c0-70.72,57.56-128.26,128.28-128.26A128.41,128.41,0,0,1,1627.12,368.4Z"/><path class="cls-5" d="M638.25,442.51h.07a1.17,1.17,0,0,1,1.09,1.22h0a1.15,1.15,0,0,1-1.22,1.09h0a1.16,1.16,0,0,1,.07-2.31Zm-5.31.13h.13a1.14,1.14,0,0,1,1.14,1h0a1.15,1.15,0,0,1-1,1.27h0a1.16,1.16,0,0,1-1.28-1h0a1.17,1.17,0,0,1,1-1.27Zm9.32,1.49a1.17,1.17,0,0,1,1.14-.91h0a1.07,1.07,0,0,1,.25,0h0a1.16,1.16,0,0,1,.88,1.38h0a1.16,1.16,0,0,1-1.38.88h0a1.15,1.15,0,0,1-.88-1.38Zm-14.3-.54h0a1.18,1.18,0,0,1,1.12.85h0a1.17,1.17,0,0,1-.81,1.42h0a1.15,1.15,0,0,1-1.42-.81h0a1.16,1.16,0,0,1,.8-1.42h0A1.65,1.65,0,0,1,628,443.59Zm20.4,1.18h0a1.26,1.26,0,0,1,.43.08h0a1.15,1.15,0,0,1,.64,1.5h0a1.15,1.15,0,0,1-1.5.63h0a1.15,1.15,0,0,1,.44-2.22Zm-25.76.71a1.1,1.1,0,0,1,.48-.08h0a1.13,1.13,0,0,1,1,.66h0a1.15,1.15,0,0,1-.57,1.53h0A1.15,1.15,0,0,1,622,447h0a1.15,1.15,0,0,1,.57-1.53Zm30.4,1.63h0a1.18,1.18,0,0,1,.61.16h0a1.17,1.17,0,0,1,.38,1.59h0a1.15,1.15,0,0,1-1.59.39h0a1.13,1.13,0,0,1-.38-1.58A1.15,1.15,0,0,1,653,447.11Zm-35.09,1a1.15,1.15,0,0,1,.65-.19h0a1.17,1.17,0,0,1,1,.51h0a1.16,1.16,0,0,1-.32,1.6h0a1.15,1.15,0,0,1-1.6-.31h0a1.15,1.15,0,0,1,.31-1.6Zm38.42,2.44a1.14,1.14,0,0,1,.88-.4h0a1.16,1.16,0,0,1,.75.28h0a1.16,1.16,0,0,1,.12,1.63h0a1.15,1.15,0,0,1-1.63.12h0a1.15,1.15,0,0,1-.12-1.63Zm-42.61.92a1.09,1.09,0,0,1,.79-.3h0a1.17,1.17,0,0,1,.84.36h0a1.15,1.15,0,0,1-.05,1.63h0a1.15,1.15,0,0,1-1.63,0h0a1.15,1.15,0,0,1,.06-1.63Zm46.41,2.63a1.14,1.14,0,0,1,.73-.24h0a1.17,1.17,0,0,1,.89.41h0a1.17,1.17,0,0,1-.14,1.63h0a1.16,1.16,0,0,1-1.63-.14h0a1.16,1.16,0,0,1,.14-1.63Zm-50,1.37a1.14,1.14,0,0,1,.92-.43h0a1.16,1.16,0,0,1,.7.24h0a1.15,1.15,0,0,1,.22,1.62h0a1.16,1.16,0,0,1-1.62.22h0a1.15,1.15,0,0,1-.22-1.62Zm53.76,2.61h0a1.16,1.16,0,0,1,1,.56h0a1.16,1.16,0,0,1-.41,1.58h0a1.14,1.14,0,0,1-1.58-.4h0a1.15,1.15,0,0,1,.4-1.58A1,1,0,0,1,663.87,458.09ZM607.2,460a1.18,1.18,0,0,1,1-.6h0a1.3,1.3,0,0,1,.54.13h0a1.17,1.17,0,0,1,.47,1.57h0a1.16,1.16,0,0,1-1.56.48h0a1.17,1.17,0,0,1-.48-1.57Zm58.53,2.8a1.52,1.52,0,0,1,.42-.06h0a1.16,1.16,0,0,1,1.08.74h0a1.16,1.16,0,0,1-.66,1.5h0a1.16,1.16,0,0,1-1.5-.66h0a1.18,1.18,0,0,1,.66-1.51Zm-59.57,1.36h0a1.15,1.15,0,0,1,.37.06h0a1.16,1.16,0,0,1,.73,1.47h0a1.17,1.17,0,0,1-1.47.72h0a1.16,1.16,0,0,1,.37-2.25Zm61.5,3.54h0a1.15,1.15,0,0,1,1.12.91h0a1.15,1.15,0,0,1-.89,1.37h0a1.15,1.15,0,0,1-1.37-.89h0a1.17,1.17,0,0,1,.89-1.37Zm-63.89,2.47a1.16,1.16,0,0,1,1.14-.95h.19a1.15,1.15,0,0,1,.95,1.32h0a1.15,1.15,0,0,1-1.32.95h0a1.15,1.15,0,0,1-1-1.32Zm64.49,2.68h0a1.16,1.16,0,0,1,1.16,1.1h0a1.15,1.15,0,0,1-1.1,1.21h0a1.15,1.15,0,0,1-1.21-1.1h0a1.15,1.15,0,0,1,1.1-1.21Zm-64.92,2.68h0a1.15,1.15,0,0,1,1.16-1.15h0a1.14,1.14,0,0,1,1.15,1.15h0a1.16,1.16,0,0,1-1.15,1.16h0a1.16,1.16,0,0,1-1.16-1.16Zm1.3,1.9a1.16,1.16,0,0,1,1.16,1.05h0a1.15,1.15,0,0,1-1,1.25h0a1.15,1.15,0,0,1-1.25-1h0a1.15,1.15,0,0,1,1-1.26ZM667,479.07a1.16,1.16,0,0,1,1.16-1h.13a1.16,1.16,0,0,1,1,1.28h0a1.16,1.16,0,0,1-1.28,1h0a1.15,1.15,0,0,1-1-1.28Zm-61.74,3.51a1.08,1.08,0,0,1,.31,0h0a1.14,1.14,0,0,1,1.11.86h0a1.15,1.15,0,0,1-.82,1.41h0a1.16,1.16,0,0,1-1.41-.83h0a1.16,1.16,0,0,1,.82-1.41ZM666,484a1.17,1.17,0,0,1,1.11-.83h0a1.26,1.26,0,0,1,.33,0h0a1.15,1.15,0,0,1,.79,1.43h0a1.14,1.14,0,0,1-1.42.79h0A1.16,1.16,0,0,1,666,484Zm-59.21,3.56a1.18,1.18,0,0,1,.46-.09h0a1.15,1.15,0,0,1,1.05.68h0a1.15,1.15,0,0,1-.59,1.52h0a1.15,1.15,0,0,1-1.52-.58h0a1.16,1.16,0,0,1,.59-1.52Zm57.45,1.12a1.16,1.16,0,0,1,1-.64h0a1.21,1.21,0,0,1,.49.11h0a1.15,1.15,0,0,1,.55,1.54h0a1.15,1.15,0,0,1-1.54.55h0a1.15,1.15,0,0,1-.55-1.54ZM609.77,492h0a1.14,1.14,0,0,1,1,.52h0a1.16,1.16,0,0,1-.33,1.6h0a1.16,1.16,0,0,1-1.6-.33h0a1.17,1.17,0,0,1,.33-1.61A1.18,1.18,0,0,1,609.77,492Zm52,1a1.14,1.14,0,0,1,.94-.48h0a1.17,1.17,0,0,1,.66.2h0a1.16,1.16,0,0,1,.3,1.61h0a1.15,1.15,0,0,1-1.61.29h0a1.14,1.14,0,0,1-.28-1.6h0ZM613,496.07h0a1.19,1.19,0,0,1,.85.37h0a1.18,1.18,0,0,1-.06,1.64h0a1.18,1.18,0,0,1-1.64-.06h0a1.15,1.15,0,0,1,.07-1.63A1.13,1.13,0,0,1,613,496.07Zm45.6.81a1.16,1.16,0,0,1,.83-.36h0a1.14,1.14,0,0,1,.8.33h0a1.16,1.16,0,0,1,0,1.63h0a1.15,1.15,0,0,1-1.63,0h0a1.16,1.16,0,0,1,0-1.64ZM615.9,500a1.16,1.16,0,0,1,.91-.44h0a1.13,1.13,0,0,1,.71.24h0a1.15,1.15,0,0,1,.21,1.62h0a1.15,1.15,0,0,1-1.63.2h0a1.16,1.16,0,0,1-.2-1.62Zm38.94.17a1.12,1.12,0,0,1,.68-.23h0a1.16,1.16,0,0,1,.93.46h0a1.16,1.16,0,0,1-.24,1.62h0a1.15,1.15,0,0,1-1.61-.24h0a1.14,1.14,0,0,1,.23-1.61ZM620.14,503a1.18,1.18,0,0,1,1-.6h0a1.18,1.18,0,0,1,.55.14h0a1.14,1.14,0,0,1,.46,1.56h0a1.15,1.15,0,0,1-1.57.45h0a1.15,1.15,0,0,1-.46-1.56Zm30.46-.18a1.18,1.18,0,0,1,.52-.13h0a1.15,1.15,0,0,1,1,.62h0a1.15,1.15,0,0,1-.49,1.56h0a1.17,1.17,0,0,1-1.56-.49h0a1.15,1.15,0,0,1,.49-1.55Zm-25.78,2.46a1.16,1.16,0,0,1,1.08-.78h0a1.26,1.26,0,0,1,.38.06h0a1.16,1.16,0,0,1,.71,1.47h0a1.16,1.16,0,0,1-1.47.71h0a1.14,1.14,0,0,1-.7-1.46ZM646,504.8a1.13,1.13,0,0,1,.36-.06h0a1.16,1.16,0,0,1,1.1.8h0a1.15,1.15,0,0,1-.74,1.45h0a1.16,1.16,0,0,1-1.45-.74h0a1.17,1.17,0,0,1,.74-1.46Zm-16.18,2a1.16,1.16,0,0,1,1.13-1h.2a1.14,1.14,0,0,1,.93,1.33h0a1.14,1.14,0,0,1-1.32.94h0a1.15,1.15,0,0,1-.94-1.32Zm11.31-.84a1.25,1.25,0,0,1,.19,0h0a1.17,1.17,0,0,1,1.14,1h0a1.16,1.16,0,0,1-1,1.32h0a1.16,1.16,0,0,1-1.32-1h0a1.14,1.14,0,0,1,1-1.31ZM635,507.45h0a1.15,1.15,0,0,1,1.16-1.14h0a1.15,1.15,0,0,1,1.14,1.17h0a1.16,1.16,0,0,1-1.17,1.14h0a1.15,1.15,0,0,1-1.14-1.17Z"/><path class="cls-5" d="M634.07,420.39h0a1.13,1.13,0,0,1,1.15,1.1h0a1.16,1.16,0,0,1-1.1,1.2h0a1.17,1.17,0,0,1-1.21-1.11h0a1.15,1.15,0,0,1,1.11-1.2Zm7.55.2h.11a1.15,1.15,0,0,1,1,1.25h0a1.16,1.16,0,0,1-1.26,1h0a1.15,1.15,0,0,1,.11-2.3Zm-15.17.64.21,0h0a1.16,1.16,0,0,1,1.14,1h0a1.17,1.17,0,0,1-.93,1.35h0a1.17,1.17,0,0,1-1.35-.93h0a1.17,1.17,0,0,1,.93-1.35Zm22.56.58h0l.27,0h0a1.15,1.15,0,0,1,.85,1.39h0a1.16,1.16,0,0,1-1.39.86h0a1.16,1.16,0,0,1,.27-2.28Zm-30,1.32a1,1,0,0,1,.35-.06h0a1.16,1.16,0,0,1,1.1.79h0a1.17,1.17,0,0,1-.74,1.47h0a1.16,1.16,0,0,1-1.46-.74h0a1.15,1.15,0,0,1,.74-1.46Zm36.08,1.66a1.15,1.15,0,0,1,1.06-.75h0a1.25,1.25,0,0,1,.42.08h0a1.16,1.16,0,0,1,.66,1.5h0a1.16,1.16,0,0,1-1.5.66h0a1.16,1.16,0,0,1-.66-1.5Zm-43.17,1.26a1.16,1.16,0,0,1,.48-.14h0a1.17,1.17,0,0,1,1,.65h0a1.15,1.15,0,0,1-.52,1.55h0a1.15,1.15,0,0,1-1.54-.52h0a1.15,1.15,0,0,1,.52-1.54Zm50,1.83a1.17,1.17,0,0,1,1-.6h0a1.16,1.16,0,0,1,.57.15h0A1.16,1.16,0,0,1,664,429h0a1.16,1.16,0,0,1-1.58.44h0a1.16,1.16,0,0,1-.44-1.57Zm-56.62,2a1.08,1.08,0,0,1,.62-.21h0a1.16,1.16,0,0,1,1,.5h0a1.15,1.15,0,0,1-.3,1.6h0a1.16,1.16,0,0,1-1.61-.3h0a1.16,1.16,0,0,1,.3-1.6h0Zm63,2a1.14,1.14,0,0,1,.89-.47h0a1.21,1.21,0,0,1,.71.24h0a1.16,1.16,0,0,1,.21,1.62h0a1.15,1.15,0,0,1-1.62.22h0a1.16,1.16,0,0,1-.22-1.62Zm-68.22,2.49h0a1.11,1.11,0,0,1,.85.37h0a1.15,1.15,0,0,1-.08,1.62h0a1.17,1.17,0,0,1-1.64-.07h0a1.15,1.15,0,0,1,.08-1.63A1.08,1.08,0,0,1,600.09,434.37Zm74.76,2h0a1.17,1.17,0,0,1,.83.34h0a1.15,1.15,0,0,1,0,1.63h0a1.14,1.14,0,0,1-1.62,0h0l0,0a1.14,1.14,0,0,1,0-1.63A1.13,1.13,0,0,1,674.85,436.4Zm-80,3.38h0a1.13,1.13,0,0,1,.73.27h0a1.15,1.15,0,0,1,.15,1.63h0a1.14,1.14,0,0,1-1.62.14h0a1.16,1.16,0,0,1,.75-2Zm84.16,2.52a1.14,1.14,0,0,1,.68-.23h0a1.16,1.16,0,0,1,.93.46h0a1.16,1.16,0,0,1-.23,1.62h0a1.16,1.16,0,0,1-1.61-.24h0a1.15,1.15,0,0,1,.23-1.61Zm-88.56,3.56h0a1.11,1.11,0,0,1,.61.18h0a1.16,1.16,0,0,1,.37,1.59h0a1.15,1.15,0,0,1-1.59.37h0a1.16,1.16,0,0,1,.61-2.14Zm93.32,2.52h0a1.15,1.15,0,0,1,1,.6h0a1.14,1.14,0,0,1-.46,1.56h0a1.16,1.16,0,0,1-1.57-.46h0a1.16,1.16,0,0,1,.46-1.57A1.19,1.19,0,0,1,683.82,448.38ZM587,452.5h0a1,1,0,0,1,.47.1h0a1.15,1.15,0,0,1,.59,1.52h0a1.16,1.16,0,0,1-1.53.58h0a1.15,1.15,0,0,1,.48-2.2Zm100,2.69h0a1.16,1.16,0,0,1,1.08.74h0a1.14,1.14,0,0,1-.66,1.48h0a1.14,1.14,0,0,1-1.49-.66h0a1.16,1.16,0,0,1,1.07-1.57ZM583.31,460.4a1.17,1.17,0,0,1,1.1-.83h0a1,1,0,0,1,.33.05h0a1.14,1.14,0,0,1,.79,1.42h0a1.15,1.15,0,0,1-1.43.8h0a1.16,1.16,0,0,1-.79-1.43h0Zm105.57,2,.24,0h0a1.16,1.16,0,0,1,1.13.9h0a1.16,1.16,0,0,1-.87,1.38h0a1.15,1.15,0,0,1-1.37-.87h0a1.15,1.15,0,0,1,.87-1.38Zm-106,4.52h0a.43.43,0,0,1,.16,0h0a1.17,1.17,0,0,1,1,1.3h0a1.14,1.14,0,0,1-1.3,1h0a1.15,1.15,0,0,1,.16-2.29Zm107.4,2.87a1.15,1.15,0,0,1,1.15,1.06h0a1.15,1.15,0,0,1-1,1.24h0a1.15,1.15,0,0,1-1.24-1.06h0a1.17,1.17,0,0,1,1-1.25Zm-107.91,4.61h0a1.15,1.15,0,0,1,1.15,1.15h0a1.18,1.18,0,0,1-.36.85h0a1.15,1.15,0,0,1,.39.83h0a1.15,1.15,0,0,1-1.12,1.19h0a1.15,1.15,0,0,1-1.19-1.12h0a1.14,1.14,0,0,1,.37-.88h0a1.15,1.15,0,0,1-.4-.87h0A1.16,1.16,0,0,1,582.37,474.39Zm108,2.89h.05a1.17,1.17,0,0,1,1.1,1.22h0a1.15,1.15,0,0,1-1.23,1.08h0a1.16,1.16,0,0,1-1.09-1.21h0A1.16,1.16,0,0,1,690.42,477.28Zm-107.28,6.28h0a1.15,1.15,0,0,1,1.13,1h0a1.15,1.15,0,0,1-.94,1.33h0a1.16,1.16,0,0,1-1.33-.94h0a1.18,1.18,0,0,1,1-1.33Zm106.33,1.18h0l.22,0h0a1.17,1.17,0,0,1,.92,1.36h0a1.17,1.17,0,0,1-1.36.92h0a1.16,1.16,0,0,1-.9-1.37h0A1.16,1.16,0,0,1,689.47,484.74Zm-104.56,6.12h0a1.16,1.16,0,0,1,1.1.81h0a1.15,1.15,0,0,1-.74,1.44h0a1.15,1.15,0,0,1-1.45-.75h0a1.16,1.16,0,0,1,.75-1.45A1.33,1.33,0,0,1,584.91,490.86Zm101.54,1.9a1.15,1.15,0,0,1,1.1-.78h0a1.19,1.19,0,0,1,.37.06h0a1.15,1.15,0,0,1,.72,1.47h0a1.15,1.15,0,0,1-1.47.72h0a1.17,1.17,0,0,1-.72-1.47Zm-98.75,5.07h0a1.15,1.15,0,0,1,1,.66h0a1.16,1.16,0,0,1-.53,1.55h0a1.17,1.17,0,0,1-1.55-.54h0a1.15,1.15,0,0,1,.54-1.54A1.13,1.13,0,0,1,587.7,497.83Zm95.89,1.69a1.14,1.14,0,0,1,1-.62h0a1.19,1.19,0,0,1,.53.13h0a1.15,1.15,0,0,1,.49,1.55h0a1.14,1.14,0,0,1-1.54.49h0a1.14,1.14,0,0,1-.49-1.54Zm-92.17,4.83h0a1.13,1.13,0,0,1,1,.52h0a1.17,1.17,0,0,1-.34,1.6h0a1.16,1.16,0,0,1-1.6-.33h0a1.16,1.16,0,0,1,.33-1.6A1.19,1.19,0,0,1,591.42,504.35Zm88.38,1.47a1.15,1.15,0,0,1,.94-.49h0a1.1,1.1,0,0,1,.66.21h0a1.16,1.16,0,0,1,.28,1.61h0a1.16,1.16,0,0,1-1.61.28h0a1.15,1.15,0,0,1-.28-1.6h0ZM596,510.28h0a1.16,1.16,0,0,1,.86.39h0a1.16,1.16,0,0,1-.1,1.63h0a1.15,1.15,0,0,1-1.63-.1h0a1.16,1.16,0,0,1,.1-1.63A1.13,1.13,0,0,1,596,510.28Zm80,.87h0a1.17,1.17,0,0,1,.79.31h0a1.15,1.15,0,0,1,.06,1.63h0a1.13,1.13,0,0,1-1.62,0h0a1.15,1.15,0,0,1-.07-1.63A1.19,1.19,0,0,1,676,511.15Zm-74.66,4.38h0a1.16,1.16,0,0,1,.75.28h0a1.16,1.16,0,0,1,.12,1.63h0a1.15,1.15,0,0,1-1.62.13h0a1.16,1.16,0,0,1,.76-2Zm69.19.77h0a1.15,1.15,0,0,1,.89.42h0a1.16,1.16,0,0,1-.16,1.63h0a1.16,1.16,0,0,1-1.63-.17h0a1.15,1.15,0,0,1,.17-1.62A1.12,1.12,0,0,1,670.56,516.3ZM607.4,520h0a1.12,1.12,0,0,1,.62.18h0a1.14,1.14,0,0,1,.35,1.59h0a1.15,1.15,0,0,1-1.59.36h0a1.14,1.14,0,0,1-.35-1.59A1.15,1.15,0,0,1,607.4,520Zm56.43.79a1.15,1.15,0,0,1,.6-.16h0a1.16,1.16,0,0,1,1,.56h0a1.15,1.15,0,0,1-.39,1.58h0a1.15,1.15,0,0,1-1.59-.39h0a1.16,1.16,0,0,1,.39-1.59ZM614,523.58h0a1.13,1.13,0,0,1,.48.11h0a1.16,1.16,0,0,1,.57,1.53h0a1.16,1.16,0,0,1-1.53.57h0a1.16,1.16,0,0,1,.48-2.21Zm43.32.58a1,1,0,0,1,.45-.1h0a1.17,1.17,0,0,1,1.07.7h0a1.16,1.16,0,0,1-.61,1.52h0a1.16,1.16,0,0,1-1.52-.61h0a1.15,1.15,0,0,1,.61-1.51ZM619.92,527a1.14,1.14,0,0,1,1.1-.82h0a1.24,1.24,0,0,1,.33,0h0a1.16,1.16,0,0,1,.78,1.44h0a1.16,1.16,0,0,1-1.44.78h0a1.15,1.15,0,0,1-.77-1.44Zm30.46-.46a.9.9,0,0,1,.28,0h0a1.17,1.17,0,0,1,1.12.85h0a1.17,1.17,0,0,1-.81,1.42h0a1.16,1.16,0,0,1-1.42-.81h0a1.14,1.14,0,0,1,.81-1.41Zm-23.17,2.25a1.16,1.16,0,0,1,1.13-1h.18a1.16,1.16,0,0,1,1,1.33h0a1.15,1.15,0,0,1-1.32,1h0a1.15,1.15,0,0,1-1-1.32Zm16.1-.83h0a1.15,1.15,0,0,1,1.14,1h0a1.16,1.16,0,0,1-1,1.3h0a1.15,1.15,0,0,1-1.29-1h0a1.16,1.16,0,0,1,1-1.3Zm-8.64,1.58a1.16,1.16,0,0,1,1.16-1.14h0A1.14,1.14,0,0,1,637,529.6h0a1.16,1.16,0,0,1-1.16,1.15h0a1.15,1.15,0,0,1-1.14-1.17Z"/><path class="cls-5" d="M636.18,398.89a1.16,1.16,0,0,1,1.17-1.14h0a1.17,1.17,0,0,1,1.15,1.17h0a1.16,1.16,0,0,1-1.17,1.14h0a1.16,1.16,0,0,1-1.14-1.16Zm-7-.81h.1a1.15,1.15,0,0,1,1.15,1.05h0a1.16,1.16,0,0,1-1,1.26h0a1.16,1.16,0,0,1-1.26-1.05h0a1.16,1.16,0,0,1,1-1.26Zm16.23.19h.14a1.16,1.16,0,0,1,1,1.29h0a1.14,1.14,0,0,1-1.28,1h0a1.15,1.15,0,0,1-1-1.28A1.16,1.16,0,0,1,645.39,398.27Zm-24.36,1a1.06,1.06,0,0,1,.25,0h0a1.15,1.15,0,0,1,1.13.92h0v0a1.14,1.14,0,0,1-.93,1.33h0a1.15,1.15,0,0,1-1.36-.9h0a1.15,1.15,0,0,1,.9-1.35Zm31.22,1.26a1.14,1.14,0,0,1,1.11-.9h0a1.15,1.15,0,0,1,.26,0h0a1.16,1.16,0,0,1,.87,1.38h0a1.16,1.16,0,0,1-1.38.87h0a1.16,1.16,0,0,1-.87-1.38Zm-39.16.78a1.26,1.26,0,0,1,.33-.05h0a1.17,1.17,0,0,1,1.11.81h0a1.16,1.16,0,0,1-.76,1.45h0a1.16,1.16,0,0,1-1.45-.76h0a1.16,1.16,0,0,1,.76-1.45h0Zm47,1.3a1.15,1.15,0,0,1,1.11-.78h0a1.19,1.19,0,0,1,.37.06h0a1.16,1.16,0,0,1,.72,1.46h0a1.16,1.16,0,0,1-1.47.73h0a1.16,1.16,0,0,1-.73-1.47Zm-54.2,1.47h0a1.16,1.16,0,0,1,1.06.7h0a1.16,1.16,0,0,1-.6,1.52h0a1.16,1.16,0,0,1-1.52-.6h0a1.15,1.15,0,0,1,.6-1.52A1.19,1.19,0,0,1,605.86,404.08Zm61.75,1.43a1.17,1.17,0,0,1,1-.68h0a1,1,0,0,1,.49.11h0a1.15,1.15,0,0,1,.56,1.53h0a1.17,1.17,0,0,1-1.54.57h0a1.16,1.16,0,0,1-.56-1.54Zm-69.55,2.34a1.14,1.14,0,0,1,.57-.16h0a1.16,1.16,0,0,1,1,.58h0a1.16,1.16,0,0,1-.44,1.58h0a1.15,1.15,0,0,1-1.57-.43h0a1.16,1.16,0,0,1,.43-1.58Zm76.75,1.34a1.14,1.14,0,0,1,1-.58h0a1,1,0,0,1,.59.16h0a1.15,1.15,0,0,1,.4,1.58h0a1.16,1.16,0,0,1-1.59.4h0a1.16,1.16,0,0,1-.39-1.59Zm-83.66,3.08a1.13,1.13,0,0,1,.69-.24h0a1.17,1.17,0,0,1,.94.48h0a1.15,1.15,0,0,1-.27,1.61h0a1.15,1.15,0,0,1-1.61-.26h0a1.16,1.16,0,0,1,.26-1.61Zm90.44,1.34a1.16,1.16,0,0,1,.93-.5h0a1.12,1.12,0,0,1,.7.24h0a1.16,1.16,0,0,1,.23,1.62h0a1.17,1.17,0,0,1-1.62.22h0a1.17,1.17,0,0,1-.22-1.62Zm-96.08,3.49h0a1.14,1.14,0,0,1,.86.39h0a1.15,1.15,0,0,1-.09,1.63h0a1.15,1.15,0,0,1-1.63-.09h0a1.16,1.16,0,0,1,.1-1.63A1.2,1.2,0,0,1,585.51,417.1Zm102.34,1.61a1.16,1.16,0,0,1,.85-.38h0a1.17,1.17,0,0,1,.79.33h0a1.16,1.16,0,0,1,.06,1.63h0a1.16,1.16,0,0,1-1.63.05h0a1.15,1.15,0,0,1-.06-1.63Zm-108.09,4.08h0a1.15,1.15,0,0,1,.78.31h0a1.15,1.15,0,0,1,.07,1.63h0a1.15,1.15,0,0,1-1.63.07h0a1.15,1.15,0,0,1-.08-1.63h0A1.17,1.17,0,0,1,579.76,422.79Zm114.55,1.37h0a1.17,1.17,0,0,1,.87.4h0a1.15,1.15,0,0,1-.12,1.63h0a1.14,1.14,0,0,1-1.62-.11h0a1.15,1.15,0,0,1,.12-1.62A1.13,1.13,0,0,1,694.31,424.16ZM573.7,429.51a1.14,1.14,0,0,1,.93-.47h0a1.15,1.15,0,0,1,.68.22h0a1.15,1.15,0,0,1,.24,1.61h0a1.15,1.15,0,0,1-1.61.24h0a1.14,1.14,0,0,1-.25-1.61Zm124.92,1.24a1.1,1.1,0,0,1,.66-.21h0a1.16,1.16,0,0,1,1,.49h0a1.16,1.16,0,0,1-.29,1.61h0a1.15,1.15,0,0,1-1.61-.29h0a1.15,1.15,0,0,1,.29-1.6ZM569.2,436.37a1.14,1.14,0,0,1,1-.57h0a1.14,1.14,0,0,1,.58.15h0a1.16,1.16,0,0,1,.42,1.59h0a1.16,1.16,0,0,1-1.58.41h0a1.16,1.16,0,0,1-.41-1.58ZM703,437.54a1.18,1.18,0,0,1,.55-.14h0a1.15,1.15,0,0,1,1,.6h0a1.16,1.16,0,0,1-.46,1.57h0a1.16,1.16,0,0,1-1.57-.46h0a1.17,1.17,0,0,1,.46-1.57ZM566.49,443h0a1.08,1.08,0,0,1,.47.11h0a1.14,1.14,0,0,1,.57,1.52h0a1.15,1.15,0,0,1-1.52.58h0a1.14,1.14,0,0,1-.58-1.53h0A1.15,1.15,0,0,1,566.49,443Zm140.59,1.69h0a1.16,1.16,0,0,1,1.07.71h0a1.15,1.15,0,0,1-.62,1.51h0a1.15,1.15,0,0,1-1.51-.62h0a1.15,1.15,0,0,1,.62-1.51A1.12,1.12,0,0,1,707.08,444.67Zm-143.51,5.85h0a1.13,1.13,0,0,1,.36.06h0a1.15,1.15,0,0,1,.74,1.46h0a1.15,1.15,0,0,1-1.46.73h0a1.15,1.15,0,0,1-.74-1.45h0A1.16,1.16,0,0,1,563.57,450.52Zm145.92,1.8.33-.06h0a1.17,1.17,0,0,1,1.11.83h0a1.15,1.15,0,0,1-.78,1.43h0a1.17,1.17,0,0,1-1.44-.78h0a1.16,1.16,0,0,1,.78-1.44Zm-148,6h0a1,1,0,0,1,.24,0h0a1.16,1.16,0,0,1,.89,1.37h0a1.16,1.16,0,0,1-1.38.88h0a1.15,1.15,0,0,1,.25-2.28Zm150,1.82a.83.83,0,0,1,.22,0h0a1.17,1.17,0,0,1,1.13.95h0a1.15,1.15,0,0,1-.92,1.35h0a1.17,1.17,0,0,1-1.35-.93h0a1.15,1.15,0,0,1,.92-1.34ZM560.2,466.32h.12a1.16,1.16,0,0,1,1,1.27h0a1.14,1.14,0,0,1-1.27,1h0a1.17,1.17,0,0,1-1-1.27A1.16,1.16,0,0,1,560.2,466.32Zm152.61,1.82A1.15,1.15,0,0,1,714,469.2h0a1.16,1.16,0,0,1-1.06,1.25h0a1.15,1.15,0,0,1-1.24-1.06h0a1.16,1.16,0,0,1,1.06-1.25Zm-153,6.25h0a1.16,1.16,0,0,1,1.16,1.15h0a1.16,1.16,0,0,1-1.16,1.16h0a1.16,1.16,0,0,1-1.15-1.16h0A1.14,1.14,0,0,1,559.78,474.39Zm152.1,3a1.16,1.16,0,0,1,1.16-1.12h0a1.14,1.14,0,0,1,1.12,1.18h0a1.14,1.14,0,0,1-1.18,1.12h0a1.15,1.15,0,0,1-1.13-1.18Zm-152,1.45h.07a1.16,1.16,0,0,1,1.15,1.09h0a1.16,1.16,0,0,1-1.09,1.21h0a1.15,1.15,0,0,1-1.2-1.09h0a1.16,1.16,0,0,1,1.09-1.21Zm152.58,5.49h.16a1.17,1.17,0,0,1,1,1.3h0a1.15,1.15,0,0,1-1.3,1h0a1.15,1.15,0,0,1,.15-2.29ZM560.6,486.85h.19a1.16,1.16,0,0,1,1.14,1h0a1.17,1.17,0,0,1-1,1.33h0a1.15,1.15,0,0,1-1.32-1h0a1.15,1.15,0,0,1,1-1.32Zm149.25,6.27a1.14,1.14,0,0,1,1.1-.89h0a1.27,1.27,0,0,1,.28,0h0a1.15,1.15,0,0,1,.85,1.39h0a1.16,1.16,0,0,1-1.38.87h0a1.16,1.16,0,0,1-.86-1.4h0Zm-147.64,1.65a1,1,0,0,1,.3,0h0a1.16,1.16,0,0,1,1.11.87h0a1.16,1.16,0,0,1-.81,1.42h0a1.16,1.16,0,0,1-1.41-.81h0a1.14,1.14,0,0,1,.81-1.41Zm145.38,6a1.15,1.15,0,0,1,1.09-.77h0a1.21,1.21,0,0,1,.38.06h0a1.17,1.17,0,0,1,.71,1.48h0a1.17,1.17,0,0,1-1.49.72h0a1.16,1.16,0,0,1-.7-1.48Zm-143,1.72a1.13,1.13,0,0,1,.41-.05h0a1.14,1.14,0,0,1,1.07.73h0v0a1.15,1.15,0,0,1-.67,1.48h0A1.13,1.13,0,0,1,564,504h0a1.15,1.15,0,0,1,.67-1.48Zm139.9,5.63a1.14,1.14,0,0,1,1-.64h0a1.18,1.18,0,0,1,.5.11h0a1.17,1.17,0,0,1,.55,1.55h0a1.17,1.17,0,0,1-1.55.54h0a1.17,1.17,0,0,1-.54-1.55Zm-136.66,1.78a1,1,0,0,1,.51-.11h0a1.17,1.17,0,0,1,1,.62h0a1.14,1.14,0,0,1-.49,1.54h0a1.15,1.15,0,0,1-1.56-.49h0a1.15,1.15,0,0,1,.49-1.56Zm132.84,5.21a1.14,1.14,0,0,1,1-.53h0a1.17,1.17,0,0,1,.61.17h0a1.17,1.17,0,0,1,.38,1.59h0a1.18,1.18,0,0,1-1.6.38h0a1.15,1.15,0,0,1-.37-1.59Zm-128.83,1.81a1.17,1.17,0,0,1,.61-.17h0a1.15,1.15,0,0,1,1,.52h0a1.15,1.15,0,0,1-.34,1.6h0a1.16,1.16,0,0,1-1.6-.33h0a1.16,1.16,0,0,1,.33-1.6Zm125.22,4.3h0a1.12,1.12,0,0,1,.71.23h0a1.16,1.16,0,0,1,.21,1.63h0a1.17,1.17,0,0,1-1.63.21h0a1.17,1.17,0,0,1-.2-1.63h0A1.13,1.13,0,0,1,697.11,521.21Zm-120.5,2.27a1.08,1.08,0,0,1,.75-.27h0a1.13,1.13,0,0,1,.88.42h0a1.17,1.17,0,0,1-.16,1.63h0a1.15,1.15,0,0,1-1.62-.16h0a1.14,1.14,0,0,1,.16-1.61ZM691,527.69a1.15,1.15,0,0,1,.85-.37h0a1.14,1.14,0,0,1,.8.33h0a1.17,1.17,0,0,1,0,1.64h0a1.16,1.16,0,0,1-1.64,0h0a1.15,1.15,0,0,1,0-1.63ZM582,529.5a1.17,1.17,0,0,1,.84-.33h0a1.18,1.18,0,0,1,.81.33h0a1.15,1.15,0,0,1,0,1.63h0a1.16,1.16,0,0,1-1.63,0h0a1.16,1.16,0,0,1,0-1.64Zm103.21,3.65a1.16,1.16,0,0,1,.75-.28h0a1.17,1.17,0,0,1,.89.41h0a1.16,1.16,0,0,1-.14,1.63h0a1.16,1.16,0,0,1-1.63-.14h0a1.16,1.16,0,0,1,.14-1.63h0Zm-96.3,1.36h0a1.13,1.13,0,0,1,.72.25h0a1.14,1.14,0,0,1,.18,1.61h0a1.16,1.16,0,0,1-1.62.19h0a1.16,1.16,0,0,1-.19-1.62A1.18,1.18,0,0,1,588.9,534.51Zm90,3.46a1.22,1.22,0,0,1,.67-.2h0a1.15,1.15,0,0,1,1,.5h0a1.16,1.16,0,0,1-.3,1.61h0a1.14,1.14,0,0,1-1.59-.3h0a1.16,1.16,0,0,1,.3-1.61h0Zm-84.36,1.75a1.16,1.16,0,0,1,1-.54h0a1.11,1.11,0,0,1,.61.18h0a1.16,1.16,0,0,1,.36,1.6h0a1.17,1.17,0,0,1-1.6.35h0a1.16,1.16,0,0,1-.35-1.59ZM672.59,542h0a1.16,1.16,0,0,1,1,.61h0a1.17,1.17,0,0,1-.47,1.57h0a1.16,1.16,0,0,1-1.57-.48h0a1.15,1.15,0,0,1,.47-1.56A1.18,1.18,0,0,1,672.59,542Zm-71.1,1.83a1.17,1.17,0,0,1,1-.65h0a1.13,1.13,0,0,1,.51.12h0a1.16,1.16,0,0,1,.52,1.55h0a1.16,1.16,0,0,1-1.55.52h0a1.15,1.15,0,0,1-.52-1.54Zm63.37,1.69a1.16,1.16,0,0,1,.42-.08h0a1.15,1.15,0,0,1,1.07.72h0a1.15,1.15,0,0,1-.64,1.5h0a1.15,1.15,0,0,1-1.5-.64h0a1.16,1.16,0,0,1,.63-1.51Zm-56,1.61a1.17,1.17,0,0,1,1.07-.76h0a1.34,1.34,0,0,1,.4.07h0a1.16,1.16,0,0,1,.68,1.49h0a1.16,1.16,0,0,1-1.48.68h0a1.15,1.15,0,0,1-.68-1.48Zm48.46,1a1.55,1.55,0,0,1,.31-.06h0a1.18,1.18,0,0,1,1.11.84h0a1.15,1.15,0,0,1-.79,1.43h0a1.15,1.15,0,0,1-1.43-.79h0a1.16,1.16,0,0,1,.79-1.43Zm-39.65.61h0a1.26,1.26,0,0,1,.28,0h0a1.15,1.15,0,0,1,.84,1.4h0a1.15,1.15,0,0,1-1.4.84h0a1.15,1.15,0,0,1-.84-1.4A1.16,1.16,0,0,1,617.68,548.7Zm31.9,1.18.2,0h0a1.15,1.15,0,0,1,1.13,1h0a1.14,1.14,0,0,1-.93,1.32h0a1.16,1.16,0,0,1-1.34-.94h0a1.15,1.15,0,0,1,.94-1.32h0Zm-25.11,1.38a1.15,1.15,0,0,1,1.16-1h.16a1.16,1.16,0,0,1,1,1.3h0v0a1.16,1.16,0,0,1-1.32,1h0a1.17,1.17,0,0,1-1-1.31Zm17.21-.43h.08a1.16,1.16,0,0,1,1.15,1.08h0a1.17,1.17,0,0,1-1.07,1.23h0a1.17,1.17,0,0,1-1.24-1.08h0a1.15,1.15,0,0,1,1.08-1.23Zm-9.17,1.26a1.17,1.17,0,0,1,1.15-1.13h.06a1.17,1.17,0,0,1,1.11,1.2h0a1.15,1.15,0,0,1-1.2,1.11h0a1.14,1.14,0,0,1-1.11-1.19Z"/><path class="cls-5" d="M632.19,375.25a1.16,1.16,0,0,1,1.15,1.11h0a1.15,1.15,0,0,1-1.11,1.19h0a1.15,1.15,0,0,1-1.2-1.1h0a1.17,1.17,0,0,1,1.11-1.21Zm8.95,1.17a1.15,1.15,0,0,1,1.15-1.08h.08a1.14,1.14,0,0,1,1.07,1.21h0a1.14,1.14,0,0,1-1.21,1.08h0a1.15,1.15,0,0,1-1.08-1.22ZM622,376.18l.17,0h0a1.15,1.15,0,0,1,1.14,1h0v0a1.15,1.15,0,0,1-1,1.3h0a1.17,1.17,0,0,1-1.3-1h0v0a1.15,1.15,0,0,1,1-1.29Zm30.37.26h.19a1.17,1.17,0,0,1,1,1.33h0a1.17,1.17,0,0,1-1.33,1h0a1.15,1.15,0,0,1,.18-2.29Zm-40.12,1.69h0a1.15,1.15,0,0,1,1.12.88h0a1.15,1.15,0,0,1-.84,1.4h0a1.15,1.15,0,0,1-1.4-.84h0a1.15,1.15,0,0,1,.84-1.4A.9.9,0,0,1,612.21,378.13Zm48.89,1.27a1.16,1.16,0,0,1,1.12-.86h0a1.54,1.54,0,0,1,.3,0h0a1.15,1.15,0,0,1,.81,1.42h0a1.16,1.16,0,0,1-1.41.82h0a1.16,1.16,0,0,1-.82-1.42Zm-58.55,1.68h0a1.16,1.16,0,0,1,1.09.76h0a1.17,1.17,0,0,1-.7,1.48h0a1.15,1.15,0,0,1-1.48-.69h0a1.15,1.15,0,0,1,.69-1.48A1.12,1.12,0,0,1,602.55,381.08Zm68.2,1.33a1.15,1.15,0,0,1,1.08-.75h0a1.14,1.14,0,0,1,.41.07h0a1.16,1.16,0,0,1,.66,1.49h0a1.15,1.15,0,0,1-1.49.66h0a1.16,1.16,0,0,1-.66-1.5Zm-78,2.73a1.06,1.06,0,0,1,.5-.12h0a1.16,1.16,0,0,1,1,.66h0a1.15,1.15,0,0,1-.54,1.53h0a1.17,1.17,0,0,1-1.54-.54h0a1.16,1.16,0,0,1,.54-1.55Zm87.3,1.25a1.15,1.15,0,0,1,1-.65h0a1.13,1.13,0,0,1,.51.12h0a1.17,1.17,0,0,1,.51,1.55h0a1.16,1.16,0,0,1-1.56.51h0a1.15,1.15,0,0,1-.51-1.55Zm-95.67,3.5h0a1.13,1.13,0,0,1,1,.55h0A1.15,1.15,0,0,1,585,392h0a1.15,1.15,0,0,1-1.58-.38h0a1.15,1.15,0,0,1,1-1.76Zm105.48.87h0a1.21,1.21,0,0,1,.62.18h0a1.15,1.15,0,0,1,.35,1.59h0a1.15,1.15,0,0,1-1.59.34h0a1.16,1.16,0,0,1,.62-2.13Zm-114.49,5.1a1.11,1.11,0,0,1,.72-.23h0a1.11,1.11,0,0,1,.91.45h0a1.14,1.14,0,0,1-.22,1.61h0a1.15,1.15,0,0,1-1.62-.22h0a1.15,1.15,0,0,1,.22-1.62h0Zm121.81,1.21a1.13,1.13,0,0,1,.92-.43h0a1.19,1.19,0,0,1,.72.25h0a1.16,1.16,0,0,1,.19,1.62h0a1.17,1.17,0,0,1-1.63.19h0a1.17,1.17,0,0,1-.19-1.63Zm-128.8,5.09h0a1.16,1.16,0,0,1,.84.36h0a1.16,1.16,0,0,1-.06,1.64h0a1.14,1.14,0,0,1-1.63-.05h0a1.17,1.17,0,0,1,.84-2Zm137.28,1.16h0a1.18,1.18,0,0,1,.81.33h0a1.16,1.16,0,0,1,0,1.61h0a1.14,1.14,0,0,1-1.62,0h0a1.14,1.14,0,0,1,.8-2Zm-144.27,6.15h0a1.16,1.16,0,0,1,.75.28h0a1.16,1.16,0,0,1,.12,1.63h0a1.15,1.15,0,0,1-1.63.12h0a1.14,1.14,0,0,1-.11-1.62A1.18,1.18,0,0,1,561.38,409.47Zm151.16,1.26h0a1.15,1.15,0,0,1,.88.41h0a1.16,1.16,0,0,1-.15,1.63h0a1.15,1.15,0,0,1-1.62-.15h0a1.17,1.17,0,0,1,.14-1.63A1.18,1.18,0,0,1,712.54,410.73Zm-158.33,7.2a1.15,1.15,0,0,1,.95-.48h0a1.18,1.18,0,0,1,.66.21h0a1.16,1.16,0,0,1,.28,1.61h0a1.15,1.15,0,0,1-1.61.28h0a1.15,1.15,0,0,1-.28-1.61h0ZM718,419a1.14,1.14,0,0,1,.65-.18h0a1.1,1.1,0,0,1,1,.5h0a1.15,1.15,0,0,1-.31,1.6h0a1.16,1.16,0,0,1-1.61-.31h0A1.15,1.15,0,0,1,718,419Zm-168.19,7h0a1.09,1.09,0,0,1,.56.15h0a1.14,1.14,0,0,1,.45,1.56h0a1.17,1.17,0,0,1-1.58.45h0a1.15,1.15,0,0,1,.57-2.16Zm173.53,1.57a1.29,1.29,0,0,1,.55-.15h0a1.19,1.19,0,0,1,1,.61h0a1.17,1.17,0,0,1-.48,1.57h0a1.15,1.15,0,0,1-1.56-.47h0a1.15,1.15,0,0,1,.47-1.55Zm-178,7.48h0a1.22,1.22,0,0,1,.46.09h0a1.17,1.17,0,0,1,.6,1.52h0a1.14,1.14,0,0,1-1.52.6h0a1.15,1.15,0,0,1,.46-2.21Zm182.44,1.6a1.12,1.12,0,0,1,.44-.09h0a1.15,1.15,0,0,1,1.07.71h0a1.16,1.16,0,0,1-.63,1.51h0a1.16,1.16,0,0,1-1.51-.63h0a1.15,1.15,0,0,1,.63-1.5Zm-186,7.88h0a1.28,1.28,0,0,1,.33.06h0a1.15,1.15,0,0,1,.75,1.45h0a1.15,1.15,0,0,1-1.45.75h0a1.16,1.16,0,0,1-.75-1.45A1.18,1.18,0,0,1,541.79,444.53Zm189.43,1.61a1,1,0,0,1,.34,0h0a1.16,1.16,0,0,1,1.11.82h0a1.16,1.16,0,0,1-.78,1.44h0a1.16,1.16,0,0,1-1.44-.78h0a1.16,1.16,0,0,1,.78-1.44Zm-192,8.16h0a.85.85,0,0,1,.23,0h0a1.15,1.15,0,0,1,.9,1.36h0a1.15,1.15,0,0,1-1.36.9h0a1.15,1.15,0,0,1-.9-1.36h0A1.16,1.16,0,0,1,539.23,454.3Zm194.7,1.61h0a1.16,1.16,0,0,1,1.13.94h0a1.15,1.15,0,0,1-.92,1.35h0a1.16,1.16,0,0,1-1.35-.92h0a1.17,1.17,0,0,1,.93-1.35ZM537.7,464.3h.12a1.15,1.15,0,0,1,1,1.27h0a1.15,1.15,0,0,1-1.26,1h0a1.15,1.15,0,0,1,.12-2.3Zm197.59,1.62h0a1.15,1.15,0,0,1,1.15,1.06h0a1.16,1.16,0,0,1-1.05,1.25h0a1.16,1.16,0,0,1-1.25-1.05h0a1.15,1.15,0,0,1,1.05-1.24ZM537.2,474.39h0a1.15,1.15,0,0,1,1.16,1.15h0a1.16,1.16,0,0,1-1.16,1.16h0a1.16,1.16,0,1,1,0-2.31Zm197.28,2.77a1.16,1.16,0,0,1,1.15-1.14h0a1.16,1.16,0,0,1,1.14,1.18h0a1.16,1.16,0,0,1-1.18,1.14h0a1.17,1.17,0,0,1-1.13-1.18Zm-197.11,4.06h.06a1.15,1.15,0,0,1,1.15,1.07h0a1.15,1.15,0,0,1-1.07,1.22h0a1.16,1.16,0,0,1-1.24-1.07h0a1.16,1.16,0,0,1,1.1-1.22Zm196.44,5.91a1.16,1.16,0,0,1,1.16-1h.14a1.16,1.16,0,0,1,1,1.29h0a1.16,1.16,0,0,1-1.28,1h0a1.16,1.16,0,0,1-1-1.28Zm-195.19,4.11h0a1.16,1.16,0,0,1,1.13,1h0a1.16,1.16,0,0,1-.94,1.33h0a1.16,1.16,0,0,1-1.33-.94h0a1.16,1.16,0,0,1,.95-1.33Zm194.65,4.82h0a1.07,1.07,0,0,1,.25,0h0a1.15,1.15,0,0,1,.88,1.38h0a1.16,1.16,0,0,1-1.38.87h0a1.15,1.15,0,0,1-.88-1.38h0A1.16,1.16,0,0,1,733.27,496.06Zm-192.43,5.05h0A1.16,1.16,0,0,1,542,502h0a1.16,1.16,0,0,1-.8,1.42h0a1.14,1.14,0,0,1-1.42-.8h0a1.15,1.15,0,0,1,.81-1.42A1.06,1.06,0,0,1,540.84,501.11Zm189.74,4.7h0a1.42,1.42,0,0,1,.36.05h0a1.16,1.16,0,0,1,.73,1.47h0a1.17,1.17,0,0,1-1.47.73h0a1.15,1.15,0,0,1,.38-2.25ZM544.05,510.7h0a1.15,1.15,0,0,1,1.07.73h0v0a1.16,1.16,0,0,1-.67,1.48h0a1.15,1.15,0,0,1-1.49-.67h0a1.16,1.16,0,0,1,.66-1.49A1.05,1.05,0,0,1,544.05,510.7Zm182.83,4.52h0a1.12,1.12,0,0,1,.48.1h0a1.15,1.15,0,0,1,.57,1.53h0a1.15,1.15,0,0,1-1.53.57h0a1.15,1.15,0,0,1-.57-1.52A1.12,1.12,0,0,1,726.88,515.22Zm-178.66,4.67h0a1.15,1.15,0,0,1,1,.63h0a1.15,1.15,0,0,1-.49,1.55h0a1.18,1.18,0,0,1-1.57-.49h0a1.16,1.16,0,0,1,.5-1.56A1.09,1.09,0,0,1,548.22,519.89Zm174,4.3h0a1.13,1.13,0,0,1,.57.15h0a1.16,1.16,0,0,1,.41,1.58h0a1.16,1.16,0,0,1-1.58.42h0a1.15,1.15,0,0,1-.41-1.58A1.11,1.11,0,0,1,722.26,524.19Zm-168.94,4.42h0a1.16,1.16,0,0,1,1,.52h0a1.17,1.17,0,0,1-.33,1.61h0a1.15,1.15,0,0,1-1.6-.34h0a1.15,1.15,0,0,1,.33-1.59A1.13,1.13,0,0,1,553.32,528.61Zm162.48,4.53a1.14,1.14,0,0,1,1-.47h0a1.13,1.13,0,0,1,.68.22h0a1.15,1.15,0,0,1,.26,1.61h0a1.16,1.16,0,0,1-1.61.25h0a1.14,1.14,0,0,1-.25-1.61Zm-156.53,3.64h0a1.16,1.16,0,0,1,.9.43h0a1.16,1.16,0,0,1-.17,1.62h0a1.16,1.16,0,0,1-1.62-.17h0a1.17,1.17,0,0,1,.17-1.63A1.14,1.14,0,0,1,559.27,536.78Zm150.25,4.14a1.16,1.16,0,0,1,.87-.39h0a1.2,1.2,0,0,1,.77.29h0a1.16,1.16,0,0,1,.09,1.63h0a1.15,1.15,0,0,1-1.62.08h0a1.13,1.13,0,0,1-.09-1.62ZM566,544.31h0a1.12,1.12,0,0,1,.82.33h0a1.15,1.15,0,0,1,0,1.63h0a1.16,1.16,0,0,1-1.62,0h0a1.15,1.15,0,0,1,0-1.63A1.14,1.14,0,0,1,566,544.31Zm137.26,3.4h0a1.17,1.17,0,0,1,.86.38h0a1.15,1.15,0,0,1-.08,1.63h0a1.15,1.15,0,0,1-1.63-.07h0a1.16,1.16,0,0,1,.85-1.94Zm-129.77,3.4h0a1.12,1.12,0,0,1,.73.26h0a1.16,1.16,0,0,1,.15,1.63h0a1.15,1.15,0,0,1-1.62.15h0a1.16,1.16,0,0,1-.16-1.62A1.12,1.12,0,0,1,573.49,551.11Zm121.29,3.25a1.14,1.14,0,0,1,.69-.23h0a1.17,1.17,0,0,1,.93.47h0a1.16,1.16,0,0,1-.24,1.62h0a1.16,1.16,0,0,1-1.62-.24h0a1.16,1.16,0,0,1,.24-1.62Zm-113.16,2.75h0a1.2,1.2,0,0,1,.64.19h0a1.17,1.17,0,0,1,.33,1.61h0a1.17,1.17,0,0,1-1.6.33h0a1.16,1.16,0,0,1,.63-2.13Zm105.44,2.62h0a1.17,1.17,0,0,1,1,.56h0a1.16,1.16,0,0,1-.4,1.59h0a1.14,1.14,0,0,1-1.58-.4h0a1.16,1.16,0,0,1,.4-1.59A1.21,1.21,0,0,1,687.06,559.73Zm-97.77,3.16a1.17,1.17,0,0,1,1-.64h0a1.14,1.14,0,0,1,.54.14h0a1.16,1.16,0,0,1,.49,1.56h0a1.14,1.14,0,0,1-1.56.48h0a1.15,1.15,0,0,1-.48-1.56Zm88.35,1.66a1.18,1.18,0,0,1,.49-.12h0a1.16,1.16,0,0,1,1,.66h0a1.17,1.17,0,0,1-.56,1.54h0a1.17,1.17,0,0,1-1.54-.57h0a1.14,1.14,0,0,1,.56-1.52Zm-79.23,2.68a1.17,1.17,0,0,1,1.09-.71h0a1.11,1.11,0,0,1,.43.09h0a1.15,1.15,0,0,1,.64,1.5h0a1.16,1.16,0,0,1-1.51.6h0a1.16,1.16,0,0,1-.64-1.51Zm70,1.06a.85.85,0,0,1,.38-.09h0a1.16,1.16,0,0,1,1.1.78h0a1.17,1.17,0,0,1-.72,1.47h0a1.17,1.17,0,0,1-1.47-.72h0a1.17,1.17,0,0,1,.72-1.47ZM609,569.78h0a1.2,1.2,0,0,1,.33.05h0a1.15,1.15,0,0,1,.8,1.42h0a1.16,1.16,0,0,1-1.43.8h0a1.16,1.16,0,0,1,.3-2.27ZM659,571h0a1.15,1.15,0,0,1,1.12.89h0a1.15,1.15,0,0,1-.86,1.39h0a1.16,1.16,0,0,1-1.39-.86h0a1.16,1.16,0,0,1,.86-1.38Zm-41.29,2a1.16,1.16,0,0,1,1.15-1h0l.2,0h0a1.16,1.16,0,0,1,.92,1.34h0a1.16,1.16,0,0,1-1.34.94h0a1.16,1.16,0,0,1-.94-1.34Zm31.2-.2h.14a1.16,1.16,0,0,1,1.14,1h0a1.15,1.15,0,0,1-1,1.29h0a1.17,1.17,0,0,1-1.3-1h0a1.16,1.16,0,0,1,1-1.29Zm-21.18,1.57a1.15,1.15,0,0,1,1.14-1.06H629a1.15,1.15,0,0,1,1.06,1.24h0a1.16,1.16,0,0,1-1.24,1.06h0a1.15,1.15,0,0,1-1.06-1.24Zm11.24-.81a1.16,1.16,0,0,1,1.16,1.12h0a1.17,1.17,0,0,1-1.13,1.19h0a1.17,1.17,0,0,1-1.19-1.13h0a1.15,1.15,0,0,1,1.13-1.18Z"/></g></g></g></g></svg>