<svg xmlns="http://www.w3.org/2000/svg" width="28" height="28" viewBox="0 0 28 28"><defs><style>.a{fill:#edeff3;}</style></defs><path class="a" d="M16.571,1.928c-7.732,0-14,1.959-14,4.375V9.8c0,2.416,6.268,4.375,14,4.375s14-1.959,14-4.375V6.3C30.571,3.887,24.3,1.928,16.571,1.928Zm0,14.875c-7.732,0-14-1.959-14-4.375v5.25c0,2.416,6.268,4.375,14,4.375s14-1.959,14-4.375v-5.25C30.571,14.844,24.3,16.8,16.571,16.8Zm0,7.875c-7.732,0-14-1.959-14-4.375v5.25c0,2.416,6.268,4.375,14,4.375s14-1.959,14-4.375V20.3c0,2.416-6.268,4.375-14,4.375Z" transform="translate(-2.571 -1.928)"/></svg>