<svg xmlns="http://www.w3.org/2000/svg" width="161" height="46.293" viewBox="0 0 161 46.293"><defs><style>.a{fill:#121118;}</style></defs><path class="a" d="M109.643,225.07l-.514,1.131q-.026.267-.653.267h-5.363l-1.08,2.057h5.451l-.566,1.255a.221.221,0,0,1-.149.17.889.889,0,0,1-.37.067h-4.345a3.413,3.413,0,0,0-.643.031,1.5,1.5,0,0,0-.314.365l-1.62,3.363v.165q0,.257.514.468H96.675a.8.8,0,0,1-.473-.113.3.3,0,0,1-.134-.288l.077-.211,3.949-8.227q0-.221-.3-.375a2.568,2.568,0,0,0-.334-.1Z" transform="translate(-94.721 -214.751)"/><path class="a" d="M125.534,225.506l-4.062,8.351q-.036.375.514.514h-3.6a1.151,1.151,0,0,1-.437-.093c-.154-.062-.221-.154-.211-.283a.447.447,0,0,1,.051-.139q.417-.9,1.358-2.792.607-1.239,1.543-3.085l1.25-2.489v-.165c0-.062-.087-.129-.283-.2l-.314-.082h3.6a.761.761,0,0,1,.453.113A.283.283,0,0,1,125.534,225.506Z" transform="translate(-105.249 -214.74)"/><path class="a" d="M143.278,226.8a3.784,3.784,0,0,1-1.142,2.5,4.551,4.551,0,0,1-2.962,1.1q.118.339.293.761l.591,1.383a.792.792,0,0,0,.252.247.746.746,0,0,0,.437.129h.818l-.591,1.2q-.144.3-.756.3h-2.268a1.512,1.512,0,0,1-.581-.1.571.571,0,0,1-.314-.262l-1.183-3.651h-1.085l.751-1.481h2.191a2.479,2.479,0,0,0,1.543-.442,1.568,1.568,0,0,0,.648-1.121.694.694,0,0,0-.2-.653,1.81,1.81,0,0,0-1.028-.2h-2.458l-3.548,7.446v.118q-.026.082.17.18a1.975,1.975,0,0,0,.458.159h-3.533a.972.972,0,0,1-.514-.082c-.072-.051-.1-.17-.077-.339l4.047-8.449q0-.139-.252-.314l-.267-.154h7.862a4.7,4.7,0,0,1,2.057.324A1.291,1.291,0,0,1,143.278,226.8Z" transform="translate(-110.81 -214.751)"/><path class="a" d="M166.4,226.267c0,.118-.031.18-.057.2a1.8,1.8,0,0,1-.792.1H162.7a3.851,3.851,0,0,0-1.625.3,1.106,1.106,0,0,0-.7.931q-.031.293.417.514a7.528,7.528,0,0,0,1.543.4q1.1.2,2.293.4a1.386,1.386,0,0,1,.859,1.645,3.754,3.754,0,0,1-1.512,2.751,4.967,4.967,0,0,1-3.085.946h-6.4a.761.761,0,0,1-.514-.154.4.4,0,0,1-.149-.324l.956-1.764h.247l-.077.2a.339.339,0,0,0,.2.35,1.291,1.291,0,0,0,.622.123h1.918a12.052,12.052,0,0,0,3.044-.237,1.6,1.6,0,0,0,1.028-1.162q.046-.478-.838-.735-.37-.1-1.543-.35a7.27,7.27,0,0,1-1.99-.607,1.028,1.028,0,0,1-.591-1.028,4.1,4.1,0,0,1,1.075-2.73,5.292,5.292,0,0,1,3.528-.92H167Z" transform="translate(-122.782 -214.766)"/><path class="a" d="M188.765,224.626l-.658,1.424a.71.71,0,0,1-.339.283,1.542,1.542,0,0,1-.411.046h-3.312l-3.5,7.466q0,.118.221.231a2.164,2.164,0,0,0,.257.093h-3.6a.576.576,0,0,1-.381-.1.257.257,0,0,1-.1-.226q.2-.375,1.075-2.206l1.486-3.085q.591-1.25,1.075-2.2h-2.982a1.846,1.846,0,0,0-.483.1l-.3.1.663-1.481a1.107,1.107,0,0,1,.165-.129,1.029,1.029,0,0,1,.514-.139h9.863a1.316,1.316,0,0,0,.442-.062q.159-.057.17-.154Z" transform="translate(-133.945 -214.523)"/><path class="a" d="M218.142,226.887a4.366,4.366,0,0,1-.514,1.543,5.034,5.034,0,0,1-1.918,2.1,6.993,6.993,0,0,1-3.373.689h-3.147l.8-1.543h1.764a2.88,2.88,0,0,0,2.628-2.5q.046-.468-.242-.607a2.021,2.021,0,0,0-.751-.093h-2.175l-1.136,2.252-1.424,2.813q-.4.771-1.2,2.288a.4.4,0,0,0,.108.334,1.435,1.435,0,0,0,.669.237h-3.6a2.005,2.005,0,0,1-.591-.144.257.257,0,0,1-.154-.273v-.154l4.2-8.3q0-.221-.514-.422l-.257-.067h7.837a5.816,5.816,0,0,1,2.175.288A1.373,1.373,0,0,1,218.142,226.887Z" transform="translate(-147.098 -214.732)"/><path class="a" d="M237.584,232.438l-.792,1.543a.9.9,0,0,1-.365.345,2.52,2.52,0,0,1-.895.1h-7.2a.643.643,0,0,1-.432-.129.591.591,0,0,1-.087-.478l4.067-8.377c0-.093-.077-.18-.257-.267l-.293-.093h3.553q.663,0,.632.288a10.747,10.747,0,0,1-.761,1.861q-.514,1.121-1.481,3.008-1.26,2.478-1.26,2.515h4.047a3.964,3.964,0,0,0,.812-.051,2.24,2.24,0,0,0,.514-.237Z" transform="translate(-158.714 -214.756)"/><path class="a" d="M254.962,234.4H251.6q-.514-.1-.514-.36l.2-2.005h-4.433l1.568-1.491h2.916l.18-3.651-7,6.767a.674.674,0,0,0-.129.267v.175q.036.185.56.3h-3.137q-.735-.082-.7-.36a.442.442,0,0,1,.118-.211l.087-.082,8.546-8.227.077-.139c0-.093-.072-.185-.237-.278l-.129-.057H254.4a.437.437,0,0,1,.339.139.339.339,0,0,1,.118.247l-.37,8.587q0,.129.242.257a1.544,1.544,0,0,0,.237.118Z" transform="translate(-165.18 -214.741)"/><path class="a" d="M279.389,226.376a.514.514,0,0,1-.339.18,6.449,6.449,0,0,1-1.028.051h-3.707a.514.514,0,0,0-.319.129,6.373,6.373,0,0,0-1.8,2.571,10.413,10.413,0,0,0-1.028,3.049q0,.175.283.283a2.02,2.02,0,0,0,.7.108h3.929a1.779,1.779,0,0,0,.792-.17.874.874,0,0,0,.447-.4h.247l-.566,1.671a1.059,1.059,0,0,1-.55.375,2.983,2.983,0,0,1-.782.2h-6.572a4.114,4.114,0,0,1-1.373-.154.8.8,0,0,1-.458-.92,11.139,11.139,0,0,1,.843-2.751,21.114,21.114,0,0,1,1.635-3.245,4.923,4.923,0,0,1,1.872-2,6.343,6.343,0,0,1,1.121-.185,14.476,14.476,0,0,1,1.491-.082h5.749l-.278.7A2.77,2.77,0,0,1,279.389,226.376Z" transform="translate(-177.873 -214.761)"/><path class="a" d="M301.91,225.07,301.4,226.2q-.026.283-.751.283h-5.353l-.946,2.057h5.445l-.514,1.2q0,.154-.231.226a1.445,1.445,0,0,1-.483.077h-4.15a4.364,4.364,0,0,0-.638.036c-.149,0-.293.159-.432.411l-1.075,2.371h5.471a1.543,1.543,0,0,0,.591-.087.828.828,0,0,0,.365-.334h.247l-.746,1.543a.833.833,0,0,1-.488.314l-.771.1h-7.95a1.028,1.028,0,0,1-.514-.1c-.129-.067-.185-.154-.175-.247l.057-.185,4.047-8.32q0-.221-.3-.411l-.165-.067Z" transform="translate(-188.105 -214.751)"/><path class="a" d="M107.7,248.1c0,.118-.031.185-.057.2a1.8,1.8,0,0,1-.792.1h-2.849a3.851,3.851,0,0,0-1.625.3,1.106,1.106,0,0,0-.7.926q-.031.293.417.514a7.522,7.522,0,0,0,1.543.4q1.1.2,2.293.4a1.386,1.386,0,0,1,.859,1.645,3.754,3.754,0,0,1-1.512,2.751,4.962,4.962,0,0,1-3.085.946h-6.4a.761.761,0,0,1-.514-.154.4.4,0,0,1-.149-.324l.962-1.779h.247l-.077.2a.339.339,0,0,0,.2.35,1.291,1.291,0,0,0,.622.123H99a12.059,12.059,0,0,0,3.044-.237,1.6,1.6,0,0,0,1.028-1.162q.046-.478-.838-.735-.37-.1-1.543-.35a7.27,7.27,0,0,1-2.026-.617,1.028,1.028,0,0,1-.591-1.028,4.1,4.1,0,0,1,1.075-2.73,5.292,5.292,0,0,1,3.527-.92h5.6Z" transform="translate(-94.266 -225.356)"/><path class="a" d="M131.942,247.388l-3.409,7.07a3.173,3.173,0,0,1-1.286,1.25,7.05,7.05,0,0,1-2.818.632q-.669.046-1.61.062h-1.985a6.428,6.428,0,0,1-2.617-.422,1.248,1.248,0,0,1-.895-1.3,3.6,3.6,0,0,1,.324-.956q1.543-2.88,2.34-4.484a9.046,9.046,0,0,0,.838-2q.051-.129-.2-.231l-.273-.093h3.481a.339.339,0,0,1,.288.134.478.478,0,0,1,.108.262l-3.008,6.289a1.218,1.218,0,0,0-.139.422q-.036.35.442.612a2.89,2.89,0,0,0,1.368.262,4.726,4.726,0,0,0,1.656-.216,1.974,1.974,0,0,0,.89-.715l3.085-6.628q.077-.175-.345-.35l-.2-.067h3.44a.514.514,0,0,1,.381.165.4.4,0,0,1,.134.3Z" transform="translate(-105.043 -225.365)"/><path class="a" d="M155.357,248.762a4.371,4.371,0,0,1-.514,1.543,5.034,5.034,0,0,1-1.918,2.1,7.025,7.025,0,0,1-3.373.689h-3.162l.8-1.543h1.764a2.88,2.88,0,0,0,2.628-2.5q.046-.468-.242-.607a2.02,2.02,0,0,0-.751-.093h-2.175l-1.136,2.252-1.424,2.813q-.4.771-1.2,2.288a.4.4,0,0,0,.108.334,1.435,1.435,0,0,0,.668.237h-3.6a2.01,2.01,0,0,1-.591-.144.257.257,0,0,1-.154-.273V255.7l4.191-8.274q0-.221-.514-.422l-.247-.077h7.837a5.779,5.779,0,0,1,2.175.293,1.383,1.383,0,0,1,.828,1.537Z" transform="translate(-116.591 -225.366)"/><path class="a" d="M179.332,248.771a4.376,4.376,0,0,1-.514,1.543,5.034,5.034,0,0,1-1.918,2.1,7.025,7.025,0,0,1-3.373.689h-3.162l.8-1.543h1.764a2.88,2.88,0,0,0,2.628-2.5q.046-.468-.242-.607a2.02,2.02,0,0,0-.751-.093H172.39l-1.136,2.252-1.424,2.813q-.381.746-1.2,2.288a.4.4,0,0,0,.108.334,1.435,1.435,0,0,0,.668.237h-3.6a2.01,2.01,0,0,1-.591-.144.257.257,0,0,1-.154-.273v-.154l4.191-8.274q0-.221-.514-.422l-.257-.067h7.862a5.779,5.779,0,0,1,2.175.293A1.373,1.373,0,0,1,179.332,248.771Z" transform="translate(-128.235 -225.376)"/><path class="a" d="M198.739,254.318l-.782,1.543a.911.911,0,0,1-.365.345,2.525,2.525,0,0,1-.895.1h-7.214a.638.638,0,0,1-.442-.118.591.591,0,0,1-.087-.478l4.067-8.377q0-.139-.257-.267l-.293-.093h3.553q.663,0,.632.293a10.555,10.555,0,0,1-.756,1.856q-.514,1.121-1.481,3.008-1.255,2.473-1.26,2.5H197.2a4.005,4.005,0,0,0,.812-.051,2.266,2.266,0,0,0,.514-.237Z" transform="translate(-139.836 -225.39)"/><path class="a" d="M222.631,247.184a.648.648,0,0,1-.2.3l-6.027,5.137-1.491,3.085q-.036.386.591.55H211.77a.427.427,0,0,1-.309-.139.344.344,0,0,1-.123-.267v-.175l1.707-3.162-1.779-5.158a.663.663,0,0,0-.442-.339q-.113-.036-.334-.082h3.533a1.131,1.131,0,0,1,.514.1.411.411,0,0,1,.231.324l.879,3.327,3.476-3.265a.417.417,0,0,0,.1-.2q0-.129-.283-.221l-.3-.067h3.533a.669.669,0,0,1,.355.067A.18.18,0,0,1,222.631,247.184Z" transform="translate(-150.307 -225.373)"/><path class="a" d="M226.945,265.4H225.12l2.417-2.509h2.869Z" transform="translate(-157.414 -233.124)"/><path class="a" d="M257.753,247.376l-4.067,8.351q-.036.375.514.514h-3.553a1.152,1.152,0,0,1-.437-.093c-.154-.062-.221-.154-.211-.283a.453.453,0,0,1,.051-.139q.417-.9,1.358-2.792.607-1.239,1.543-3.085l1.25-2.489V247.2c0-.062-.087-.129-.283-.2l-.314-.082h3.6a.766.766,0,0,1,.452.113A.283.283,0,0,1,257.753,247.376Z" transform="translate(-169.499 -225.364)"/><path class="a" d="M273.738,251.625a1.542,1.542,0,0,1-.185.514l-2.535,5.209a.591.591,0,0,0,.1.4.658.658,0,0,0,.4.252h-3.26a1.865,1.865,0,0,1-.3,0q-.165-.057-.139-.324a.971.971,0,0,1,0-.154l2.371-4.844q.041-.411-.175-.514a2.823,2.823,0,0,0-1.1-.118,5.1,5.1,0,0,0-1.157.087.823.823,0,0,0-.514.473l-.761,1.543q-.926,1.831-.951,1.892l-.792,1.543a.344.344,0,0,0,.139.35,1.439,1.439,0,0,0,.422.139h-3.178a1.218,1.218,0,0,1-.55-.1.334.334,0,0,1-.159-.365l3.2-6.417a.607.607,0,0,0-.159-.514.746.746,0,0,0-.211-.144h3.085a.8.8,0,0,1,.478.231.514.514,0,0,1,.1.4.9.9,0,0,1-.051.2,1.029,1.029,0,0,0-.041.144,6.751,6.751,0,0,1,.792-.607,1.959,1.959,0,0,1,.987-.35h2.319a2.607,2.607,0,0,1,1.337.314A.812.812,0,0,1,273.738,251.625Z" transform="translate(-175.04 -227.119)"/><path class="a" d="M294.173,250.426l-.437,1.121q0,.129-.427.293a1.934,1.934,0,0,1-.663.165h-2.355a11.955,11.955,0,0,0-1.373.041,2.4,2.4,0,0,0-1.738,1.414,5.27,5.27,0,0,0-.663,2.057.967.967,0,0,0,.422.7,1.975,1.975,0,0,0,.967.185h2.221a5.416,5.416,0,0,0,.833-.051,3.033,3.033,0,0,0,.833-.17,1.157,1.157,0,0,0,.514-.381l-.73,1.589a.952.952,0,0,1-.54.468,1.779,1.779,0,0,1-.638.1h-4.114a4.829,4.829,0,0,1-2.329-.432,1.435,1.435,0,0,1-.74-1.543,6.417,6.417,0,0,1,1.383-3.6,5.394,5.394,0,0,1,2.4-1.609,7.024,7.024,0,0,1,2.3-.386Z" transform="translate(-185.623 -227.051)"/><path class="a" d="M304.327,262.08l-.725,1.543H301l.684-1.543Z" transform="translate(-194.275 -232.73)"/><path class="a" d="M370.115,209.861a3.546,3.546,0,1,1-2.335-4.741A3.752,3.752,0,0,1,370.115,209.861Z" transform="translate(-224.474 -205.003)"/><path class="a" d="M364.213,212.733a3.748,3.748,0,0,1-2.335-4.741,4,4,0,0,1,2.828-2.859,3.962,3.962,0,0,0-2.016,7.6,3.209,3.209,0,0,0,1.625,0Z" transform="translate(-223.036 -205.021)"/><path class="a" d="M358.268,207.96a4.042,4.042,0,0,1,2.473-2.751c-.082-.031-.165-.062-.252-.087a3.96,3.96,0,0,0-2.124,7.579,3.245,3.245,0,0,0,1.975-.087A3.784,3.784,0,0,1,358.268,207.96Z" transform="translate(-220.932 -205.005)"/><path class="a" d="M316.532,217.268a76.31,76.31,0,0,0-10.022-.756c1.075-.129,2.191-.242,3.327-.334l1.111-.082,1.064-.067h.087l1.075-.051,1.116-.036h1.1c11.189-.165,22.533,1.867,22.111,7.713a11.313,11.313,0,0,1-1.142,4.067,10.253,10.253,0,0,0-5.142-1.394,12.559,12.559,0,0,0-2.525.273h0a11.308,11.308,0,0,0,.427-2C329.567,220.436,323.34,218.276,316.532,217.268Z" transform="translate(-196.952 -210.312)"/><path class="a" d="M337.622,271.988a49.632,49.632,0,0,0-7.333-5.769A71.3,71.3,0,0,0,320,260.562q-.679-.3-1.383-.6l-.792-.329-.807-.324-1.162-.447a75.287,75.287,0,0,0-10.547-3.116l-1.142-.242-.514-.1h0A92.486,92.486,0,0,1,266.2,268.733l-1.543.154A78.638,78.638,0,0,0,277.9,265.3q1.3-.463,2.571-.977l.848-.345c.283-.113.56-.231.843-.35q2.522-1.064,4.926-2.273l.792-.406.787-.411.776-.417.638-.35.273-.154.617-.35.746-.437.638-.381.694-.427.848-.514.7-.458.041-.026.648-.437.633-.437c1.064-.74,2.057-1.5,3.044-2.268l.3-.242.324-.267.324-.267q.653-.55,1.265-1.106l.54-.514h0l.288-.273.283-.278c.283-.273.555-.555.818-.828l.514-.555.252-.278c.334-.381.658-.761.962-1.136h0a18.66,18.66,0,0,1,3.836-.514,8.844,8.844,0,0,1,3.6.715,38.4,38.4,0,0,1-4.062,3.738C315.588,254.443,329.507,260.228,337.622,271.988Z" transform="translate(-176.622 -225.71)"/><path class="a" d="M293.052,250.32C285.2,259.2,269,267.371,253.73,270.014l1.543-.154a81.8,81.8,0,0,0,9.837-1.759h.077c2.057-.607,4.114-1.291,6.129-2.057h0q2.345-.884,4.628-1.9l.905-.411.895-.417.884-.427.879-.437q1.743-.879,3.4-1.825l.74-.427.144-.082.751-.447q.8-.483,1.579-.982.581-.37,1.152-.751l.375-.252.74-.514c.514-.339.967-.689,1.435-1.028l.689-.514.339-.262.334-.267.329-.267.159-.129q.411-.334.8-.674,1.105-.951,2.093-1.918l.273-.273.273-.278.267-.278.514-.555c.231-.252.453-.514.668-.756a17.544,17.544,0,0,1-3.409.4Z" transform="translate(-171.312 -226.847)"/><path class="a" d="M361.139,272.555h0l-.221-.134-.257-.154-.38-.226-.453-.262q-1.656-.962-3.358-1.831l-.684-.345q-1.316-.658-2.736-1.3a73.966,73.966,0,0,0-14.5-4.8h0l-.879.545c19.293,4.9,29.824,15.663,29.824,15.663a41.384,41.384,0,0,0-6.356-7.163Z" transform="translate(-212.089 -233.425)"/><path class="a" d="M316.866,228.623c.72-.221,1.45-.483,2.2-.756.514-.18,1.028-.365,1.543-.514v.026h0v-.026l.087-.247c.067-.185.129-.375.18-.56s.108-.375.154-.561a1.5,1.5,0,0,1,.067-.283l.046-.221c.062-.3.108-.6.144-.895a3.677,3.677,0,0,0-.036-1.116.894.894,0,0,0-.062-.257c-.026-.082,0-.087-.036-.129s0-.082-.041-.123a3.772,3.772,0,0,0-.273-.607,2.171,2.171,0,0,0-.144-.231c-.051-.072-.1-.149-.159-.221s-.17-.221-.267-.329l-.2-.211a8.013,8.013,0,0,0-1.645-1.244l-.3-.17c-.206-.113-.422-.221-.643-.329l-.17-.077-.345-.154-.175-.077-.54-.221q-.926-.355-1.959-.653l-.206-.062c-.833-.237-1.707-.442-2.607-.627-.452-.093-.91-.18-1.373-.257-1.08-.19-2.185-.345-3.291-.473l-.951-.1c-2.525-.257-5.019-.381-7.2-.4l.905-.1,1.064-.113.555-.051c.422-.041.843-.077,1.26-.1q2.376-.18,4.756-.226a85.266,85.266,0,0,0-11.709.591c8.865.093,23.33,1.831,22.595,8.078A12.794,12.794,0,0,1,316.866,228.623Z" transform="translate(-191.598 -210.298)"/><path class="a" d="M337,249.88h0v.026Z" transform="translate(-211.763 -226.804)"/><path class="a" d="M327.977,250.811a73.944,73.944,0,0,0-10.284-5.656q-.689-.308-1.383-.6l-.792-.329-.807-.324-1.162-.447A73.191,73.191,0,0,0,303,240.337l-1.142-.242-.514-.1-.6.386h0a74.953,74.953,0,0,1,14.516,4.792q1.424.638,2.736,1.3l.684.345c1.193.607,2.309,1.224,3.358,1.831l.453.262.381.226.257.154.231.139a52.641,52.641,0,0,1,9.492,7.148A40.512,40.512,0,0,0,327.977,250.811Zm-34.087-33.542a76.308,76.308,0,0,0-10.022-.756q1.661-.2,3.327-.334l1.111-.082,1.064-.067h.087l1.075-.051,1.116-.036H292.7q-3.759-.051-7.5.226l-1.26.1-.555.051-1.064.113-.905.1c2.16,0,4.659.144,7.2.4l.951.1c1.106.129,2.211.283,3.291.473.463.077.92.165,1.373.257.9.185,1.774.391,2.607.627l.206.062q1.028.3,1.959.653l.54.221.175.077.345.154.17.077c.221.1.437.216.643.329l.3.17a7.837,7.837,0,0,1,1.646,1.244,2.566,2.566,0,0,1,.2.211c.062.072.185.216.267.329l.159.221c.051.072.1.154.144.231a3.47,3.47,0,0,1,.273.607.929.929,0,0,1,.041.123.7.7,0,0,0,.036.129c.01.046.041.17.062.257a3.677,3.677,0,0,1,.036,1.116c-.036.3-.082.6-.144.895l-.046.221a1.184,1.184,0,0,1-.067.283c-.046.185-.1.375-.154.561s-.118.375-.18.56c-.026.082-.057.165-.087.247l-.046.129.051-.129a18.029,18.029,0,0,1,1.759-.514c.314-.082.633-.159.951-.221h0a11.311,11.311,0,0,0,.427-2.005C306.94,220.431,300.708,218.277,293.889,217.269Zm7.456,15.74c-.581.129-1.162.262-1.753.381h0v.026c-.216.252-.437.514-.668.756l-.514.555-.267.278-.273.278-.273.273q-.982.967-2.093,1.918-.4.339-.8.674l-.159.129-.329.267-.334.267-.339.262-.689.514c-.468.35-.946.7-1.435,1.028l-.74.514-.375.252q-.571.38-1.152.751-.776.514-1.579.982l-.751.447-.144.082-.74.427q-1.656.941-3.4,1.825l-.879.437-.884.427-.895.417-.905.411q-2.268,1.028-4.628,1.9h0c-2.057.771-4.114,1.466-6.212,2.057a75.176,75.176,0,0,1-8.227,1.959l1.543-.154c2.057-.237,4.16-.566,6.263-.987,2.653-.668,5.3-1.481,7.893-2.417q1.3-.473,2.571-.977l.848-.345.843-.35q2.525-1.064,4.926-2.273l.792-.406.787-.411.776-.417.638-.35.273-.154.617-.35.746-.437.638-.381.694-.427.848-.514.7-.458.041-.026.648-.437.633-.437c1.064-.74,2.057-1.5,3.044-2.268l.3-.242.324-.267.324-.267q.653-.55,1.265-1.106l.54-.514h0l.288-.273.283-.278q.422-.411.818-.828l.514-.555.252-.278q.514-.571.972-1.142h0Z" transform="translate(-174.309 -210.313)"/><path class="a" d="M198.632,270.487a83.437,83.437,0,0,1-17.946,6.716,109.161,109.161,0,0,1-26.173-1.481c-45.719-8.027-60.677-3.4-61.063-3.276.422-.175,18.6-7.544,62.179-.355a107.8,107.8,0,0,0,43-1.6Z" transform="translate(-93.45 -236.067)"/><path class="a" d="M339.968,243.92c-8.371-6.047-16.141,4.89-23.248-4.088a6.643,6.643,0,0,0,3.6.355c7.2,3.553,13.524-6.294,21.9.036C342.179,240.244,339.968,243.92,339.968,243.92Z" transform="translate(-201.912 -221.055)"/><path class="a" d="M337,249.856v-.026h0Z" transform="translate(-211.763 -226.779)"/><path class="a" d="M344.261,238.13l-.051.129.046-.129Z" transform="translate(-215.266 -221.096)"/></svg>