<svg xmlns="http://www.w3.org/2000/svg" width="92" height="44.117" viewBox="0 0 92 44.117"><defs><style>.a{fill:#121118;fill-rule:evenodd;}</style></defs><path class="a" d="M157.4,255.5a2.28,2.28,0,0,1-1.064,1.834h5.884a2.715,2.715,0,0,1-1.319-1.883v-8.281h4.849s1.471.206,1.471.863V245h-6.34v-5.991h6.163c.353,0,1.618.593,1.667,1.3s0-3.432,0-3.432H156.19a2.643,2.643,0,0,1,1.206,1.868c.054,1.162,0,15.538,0,16.744Z" transform="translate(-156.19 -221.259)"/><path class="a" d="M220.211,236.895a2.177,2.177,0,0,1,1.255,1.888v19.892c0,.446-.6,4.9-3.236,6.707a9.119,9.119,0,0,0,4.7-2.324c.3-.3,2.069-1.515,2.069-5.746,0-4.54-.044-17.366-.044-18.582a2.069,2.069,0,0,1,1.363-1.839Z" transform="translate(-187.812 -221.264)"/><path class="a" d="M185.357,238.783a2.138,2.138,0,0,0-1.177-1.883h6.114s-1.289.765-1.289,1.834v12.517a3.956,3.956,0,0,0,3.976,4.241c2.344,0,3.388-2.481,3.388-4.241,0-1.515-.034-11.37-.034-12.434a2.216,2.216,0,0,0-1.172-1.912h6.1s-1.275.691-1.275,1.745V251.4a6.653,6.653,0,0,1-1.343,3.79,7.247,7.247,0,0,1-5.594,2.5,7.721,7.721,0,0,1-6.305-2.53,6.525,6.525,0,0,1-1.378-3.922c-.034-1.667-.025-11.767-.025-12.424Z" transform="translate(-170.456 -221.269)"/><path class="a" d="M310.107,238.783a2.148,2.148,0,0,0-1.177-1.883h6.114s-1.289.765-1.289,1.834c0,.672.025,10.757.025,12.517a3.956,3.956,0,0,0,3.976,4.241c2.344,0,3.388-2.481,3.388-4.241,0-1.515-.029-11.37-.029-12.434a2.221,2.221,0,0,0-1.177-1.912h6.1s-1.275.691-1.275,1.745V251.4a6.63,6.63,0,0,1-1.339,3.79,7.237,7.237,0,0,1-5.638,2.471,7.71,7.71,0,0,1-6.3-2.53,6.566,6.566,0,0,1-1.383-3.922C310.072,249.54,310.107,239.44,310.107,238.783Z" transform="translate(-234.041 -221.269)"/><path class="a" d="M242.216,255.458c0,1.113,1.3,1.888,1.353,1.888h-6.1s1.231-.784,1.231-1.839V238.788a2.172,2.172,0,0,0-1.25-1.888h6.1s-1.353.78-1.353,1.834v16.724Z" transform="translate(-197.608 -221.269)"/><path class="a" d="M256.088,239.141V255.6c0,1.064-1.289,1.765-1.289,1.765h6.09a2.546,2.546,0,0,1-1.25-1.893c0-.657.064-16.283.064-16.283a15.925,15.925,0,0,1,2.991-.093,1.6,1.6,0,0,1,1.584,1.471,29.985,29.985,0,0,0,1.255-3.628h-14.18l-1.2,3.952s1.471-1.765,2.108-1.765h3.829Z" transform="translate(-204.081 -221.29)"/><path class="a" d="M281.923,257.049l-1.113-3.878a7.08,7.08,0,0,0,4.751,2.172c3.03.147,3.952-1.309,4.251-1.618a2.382,2.382,0,0,0-.554-3.883c-2.643-1.618-5.016-2.52-6.075-3.432a5.82,5.82,0,0,1-1.961-5.707c.608-2.819,3.682-4.03,4.937-4.226a17.315,17.315,0,0,1,5.982.348c.088.157,0,3.128,0,3.128-.073.2-.49-1.471-3.638-1.515s-3.643,2.074-3.692,2.216a2.831,2.831,0,0,0,1.554,3.638c2.466,1.26,4.9,2.049,6.717,4.29,2.069,2.569.23,5.884-.333,6.55a8.922,8.922,0,0,1-6.021,2.427c-3.628,0-4.746-.451-4.8-.49Z" transform="translate(-219.709 -220.997)"/><path class="a" d="M236.146,210.658a5.506,5.506,0,0,1-5.663,5.805,6.14,6.14,0,0,1-4.991-2.775,3.84,3.84,0,0,0-3.025-1.961,2.9,2.9,0,0,0,.039,5.8c2.319.059,3.432-2.417,3.432-2.417v2.574a4.81,4.81,0,0,1-3.378,1.515,4.682,4.682,0,0,1-4.648-4.947c.1-3.177,3.28-4.29,4.741-4.236a4.861,4.861,0,0,1,3.839,2.275c1.113,1.52,2.569,2.731,4.7,2.319a3.854,3.854,0,0,0,3.216-4.035c0-2.775-2.858-3.795-3.976-3.78a3.976,3.976,0,0,0-2.829,1.255,7.213,7.213,0,0,0-1.613,2.672v-3.378a6.161,6.161,0,0,1,4.285-2.319,5.884,5.884,0,0,1,5.884,5.648Z" transform="translate(-187.646 -205.02)"/></svg>