<svg xmlns="http://www.w3.org/2000/svg" width="135.368" height="43.102" viewBox="0 0 135.368 43.102"><defs><style>.a{fill:#121118;}</style></defs><path class="a" d="M309.06,218.789c.613.249,1.139.455,1.661.68,4.309,1.882,4.716,6.808,3.375,9.772a7.646,7.646,0,0,1-6.353,4.63,40.382,40.382,0,0,1-5.793.441c-4.946-.034-9.887,0-14.842,0-.958,0-.958,0-.958-.958V205.977c0-.924,0-.958.914-.958,6.076,0,12.152-.043,18.227,0a8.156,8.156,0,0,1,6.555,2.911c2.485,3.021,2.183,8.551-2.346,10.619Zm-12.032,6.277v2.212c0,.34.086.6.479.594a16.758,16.758,0,0,0,4.271-.249,2.566,2.566,0,0,0,2.073-2.657,2.423,2.423,0,0,0-2.044-2.442,19.335,19.335,0,0,0-4.343-.168c-.369,0-.445.259-.445.565q0,1.073,0,2.145Zm0-11.2v2.006c0,.421.134.651.594.642a19.2,19.2,0,0,0,2.969-.134,2.355,2.355,0,0,0,2.164-2.662,2.291,2.291,0,0,0-2.394-2.432c-.9-.057-1.8,0-2.7-.043-.479,0-.646.225-.632.68,0,.651-.01,1.3-.01,1.944Z" transform="translate(-201.169 -204.993)"/><path class="a" d="M174.362,204.992h5.056a.929.929,0,0,1,1.02.7q4.75,12.827,9.533,25.644c.273.737.527,1.479.814,2.212.187.479.139.742-.479.737H180.4a.718.718,0,0,1-.785-.6c-.34-1.149-.728-2.289-1.049-3.442a.809.809,0,0,0-.958-.67q-3.5.034-7,0a.814.814,0,0,0-.929.7c-.3,1.068-.675,2.111-.958,3.179a.958.958,0,0,1-1.1.852c-3.069-.034-6.143,0-9.212,0-.876,0-.958-.091-.622-.919l5.449-14.526,4.788-12.774c.4-1.068.4-1.068,1.518-1.068Zm-.115,10.931c-.11.139-.172.182-.187.239-.665,2.159-1.321,4.309-1.987,6.478-.148.479.139.479.479.479h3.112c.627,0,.68-.225.517-.752-.479-1.475-.881-2.959-1.317-4.438-.2-.618-.4-1.269-.618-1.992Z" transform="translate(-134.171 -204.984)"/><path class="a" d="M229.5,219.633V206.05c0-.986.034-1.02,1.005-1.02h8.733c.986,0,.986,0,.986,1.015v19.889c0,1.005,0,1.005.982,1.005h12.061c1.072,0,1.072,0,1.077,1.082v5.338c0,.958,0,.958-.91.958H230.417c-.881,0-.919-.038-.919-.958Q229.493,226.494,229.5,219.633Z" transform="translate(-171.639 -205.008)"/><path class="a" d="M384.425,280.646a17.236,17.236,0,0,1-.12,2.873,2.6,2.6,0,0,1-.809,1.436c-1.283,1.173-4.141.9-5.046-.479-.125-.187-.311-.383-.177-.627s.359-.168.56-.182a2.293,2.293,0,0,1,1.384.311,1.958,1.958,0,0,0,2.26-.235c.177-.191.364-.44.225-.675-.187-.321-.4,0-.579.081a2.873,2.873,0,0,1-3.481-1.058,3.352,3.352,0,0,1,.192-3.993,2.763,2.763,0,0,1,3.514-.575c.163.081.3.249.479,0,.244-.35.622-.225.958-.244.479-.024.67.2.666.666C384.415,278.774,384.425,279.607,384.425,280.646Zm-4.711-.4a1.69,1.69,0,0,0,1.575,1.69,1.661,1.661,0,0,0,1.566-1.685,1.5,1.5,0,0,0-1.532-1.59,1.527,1.527,0,0,0-1.609,1.59Z" transform="translate(-249.08 -242.59)"/><path class="a" d="M326.187,282.793c-1.748.857-3.2.57-4.084-.761a3.28,3.28,0,0,1,.6-4.371,2.542,2.542,0,0,1,2.873-.306c.3.129.479.326.871,0a.847.847,0,0,1,1.388.742v4.5c0,2.02-1.025,3-3.05,3.021a3.107,3.107,0,0,1-2.873-1.2c-.124-.187-.321-.393-.225-.622s.4-.168.618-.177a2.418,2.418,0,0,1,1.384.306A1.58,1.58,0,0,0,326.187,282.793Zm.067-2.6a1.436,1.436,0,0,0-1.523-1.575,1.556,1.556,0,0,0-1.609,1.618,1.657,1.657,0,0,0,1.618,1.652,1.514,1.514,0,0,0,1.513-1.695Z" transform="translate(-219.608 -242.543)"/><path class="a" d="M169.285,277.843v2.734c0,.594-.311.675-.79.675s-.79-.1-.785-.68v-6.856c0-.479.182-.675.656-.665a14.266,14.266,0,0,1,2.346.11,1.949,1.949,0,0,1,1.752,1.623,2.205,2.205,0,0,1-.852,2.514c-.426.278-.479.479-.23.919.479.795.857,1.637,1.283,2.456.187.359.139.541-.316.579-1.029.086-1.187,0-1.681-.958-.373-.718-.756-1.436-1.135-2.14a3.648,3.648,0,0,0-.249-.311Zm0-2.394c.053.249-.163.723.45.737.742,0,1.168-.263,1.178-.776s-.407-.819-1.063-.828-.565.4-.565.886Z" transform="translate(-139.436 -240.457)"/><path class="a" d="M337.7,276.854v-3.184c0-.546,0-.958.766-.981s.828.44.8,1.015v1.178c0,.479.139.512.517.292a2.217,2.217,0,0,1,2.3-.1,2.068,2.068,0,0,1,1.025,1.915c.038,1.13,0,2.26,0,3.39,0,.637-.388.675-.871.68s-.8-.086-.79-.675v-2.906c0-.531-.1-1.034-.756-1.135a1.073,1.073,0,0,0-1.288.881,11.527,11.527,0,0,0-.144,2.959c-.029.819-.115.891-.934.876-.479,0-.646-.22-.642-.68C337.709,279.21,337.7,278.032,337.7,276.854Z" transform="translate(-228.032 -240.273)"/><path class="a" d="M261.388,280.755h-1.733c-.177,0-.4-.062-.508.129s.048.4.163.565a1.7,1.7,0,0,0,2.241.4,1.1,1.1,0,0,1,1.216-.034c.651.359.675.426.086.958a3.6,3.6,0,0,1-4.208.124,3.3,3.3,0,0,1-1.01-3.806,3.126,3.126,0,0,1,3.466-1.915,3.16,3.16,0,0,1,2.724,2.82c.077.57-.115.819-.709.795S261.967,280.755,261.388,280.755Zm-.752-1.3h1.034c.134,0,.3,0,.345-.148s-.072-.254-.163-.354a1.815,1.815,0,0,0-2.279-.115c-.134.12-.34.239-.292.436.067.273.335.172.527.182A6.831,6.831,0,0,0,260.636,279.458Z" transform="translate(-186.184 -242.584)"/><path class="a" d="M184.164,280.752h-1.8c-.177,0-.4-.048-.479.168s.048.359.153.512a1.762,1.762,0,0,0,2.365.383c.6-.4,1.01-.062,1.436.206.34.215.081.45-.1.613a3.28,3.28,0,0,1-3.49.656,2.906,2.906,0,0,1-2.025-2.648,3.176,3.176,0,1,1,6.33-.5c.043.436-.1.6-.517.6h-1.872Zm-.766-1.278h1.029c.134,0,.3,0,.345-.153s-.072-.254-.168-.354a1.824,1.824,0,0,0-2.332-.062c-.115.11-.278.23-.235.4s.3.168.479.172c.287.01.584-.019.881-.019Z" transform="translate(-145.951 -242.581)"/><path class="a" d="M123.159,280.346a3.136,3.136,0,0,1,3.093-3.217,3.217,3.217,0,0,1,3.3,3.122,3.261,3.261,0,0,1-3.251,3.261,3.112,3.112,0,0,1-3.146-3.165Zm4.735-.067a1.508,1.508,0,0,0-1.585-1.618,1.556,1.556,0,0,0-1.556,1.676,1.575,1.575,0,1,0,3.146-.057Z" transform="translate(-116.215 -242.587)"/><path class="a" d="M211.972,280.356a3.146,3.146,0,1,1-3.146-3.227,3.088,3.088,0,0,1,3.146,3.227Zm-1.57,0a1.58,1.58,0,1,0-3.155-.1A1.623,1.623,0,0,0,208.812,282a1.6,1.6,0,0,0,1.585-1.633Z" transform="translate(-159.228 -242.587)"/><path class="a" d="M285.308,280.272v-2.15c0-.282-.124-.67.239-.795s.919-.244,1.24.105.407.148.627.029a2.094,2.094,0,0,1,3.313,1.958v3.256c0,.584-.3.689-.785.68s-.886-.034-.881-.675v-2.839c0-.833-.259-1.168-.833-1.207-.666-.048-1.116.364-1.23,1.135a14.717,14.717,0,0,0-.129,2.834c.029.584-.225.766-.776.761s-.828-.129-.8-.737C285.336,281.833,285.308,281.058,285.308,280.272Z" transform="translate(-200.719 -242.565)"/><path class="a" d="M364.409,280.231V278.22c0-.311-.12-.713.244-.871a1.182,1.182,0,0,1,1.25.057c.3.273.445.158.689,0a2.088,2.088,0,0,1,3.246,1.915c-.062,1.106-.029,2.217,0,3.323,0,.579-.282.694-.776.689s-.814-.067-.8-.666V279.9c0-.6-.067-1.187-.847-1.283-.646-.077-1.092.287-1.259,1.1a14.955,14.955,0,0,0-.081,2.7c0,.857-.479,1.163-1.3.886-.35-.115-.35-.4-.354-.67V280.2Z" transform="translate(-241.949 -242.568)"/><path class="a" d="M110.789,278.9a4,4,0,0,0-.68-2.667c-.479-.857-.9-1.767-1.355-2.652-.192-.373-.11-.536.33-.575.728-.062,1.3.048,1.59.852a14.31,14.31,0,0,0,.766,1.47c.177.359.335.335.5,0,.311-.594.608-1.192.924-1.786a1.484,1.484,0,0,1,1.685-.479c.316.182.1.407,0,.594-.445.886-.886,1.781-1.379,2.638a4.036,4.036,0,0,0-.622,2.432c.043.479,0,.958,0,1.436,0,.958-.479,1.3-1.412,1.005-.311-.1-.359-.33-.364-.594C110.784,280.1,110.789,279.614,110.789,278.9Z" transform="translate(-108.657 -240.418)"/><path class="a" d="M138.81,279.688v-1.58c-.034-.575.273-.694.766-.7s.838.11.809.728c-.034.737,0,1.475,0,2.217a3.759,3.759,0,0,0,.134,1.025.958.958,0,0,0,1.025.742.91.91,0,0,0,.929-.776,9.1,9.1,0,0,0,.091-2v-.958c0-.9.182-1.039,1.072-.958.4.034.584.22.584.613a20.362,20.362,0,0,1-.144,3.591,2.682,2.682,0,0,1-5.123.283A8.617,8.617,0,0,1,138.81,279.688Z" transform="translate(-124.363 -242.733)"/><path class="a" d="M226.511,279.636c0,.531.024,1.063,0,1.59a2.648,2.648,0,0,1-5.267-.034c-.077-.991-.105-1.977-.124-2.968,0-.656.287-.824.886-.824s.828.2.814.8a16.481,16.481,0,0,0,.1,2.969c.1.613.388.958,1.049.958a.958.958,0,0,0,1-1.025c.038-.991.043-1.982,0-2.973,0-.632.316-.713.824-.713s.79.144.761.709,0,1.015,0,1.523Z" transform="translate(-167.274 -242.729)"/><path class="a" d="M245.857,277.126a3.217,3.217,0,0,1,2.131.675c.249.2.675.35.479.795a1.23,1.23,0,0,1-1.326.431,2.274,2.274,0,0,0-1.3-.383,1.6,1.6,0,0,0-1.623.958,1.68,1.68,0,0,0,.259,1.882A1.709,1.709,0,0,0,246.3,282a2.355,2.355,0,0,0,.575-.239,1.154,1.154,0,0,1,1.527.316c.182.249,0,.373-.129.522a3.83,3.83,0,0,1-4.276.479,3.213,3.213,0,0,1,1.858-5.956Z" transform="translate(-178.39 -242.584)"/><path class="a" d="M197.189,277.133a2.054,2.054,0,0,1,1.307.388c.268.206.742.407.431.862-.259.373-.551.886-1.159.421a.7.7,0,0,0-.321-.12c-.225-.033-.5-.115-.632.129s.153.393.335.508c.316.191.651.345.958.531a1.915,1.915,0,0,1,1.111,2.1A1.987,1.987,0,0,1,197.3,283.5a2.619,2.619,0,0,1-1.992-.622c-.268-.22-.407-.479-.1-.752s.417-.824.982-.455a1.915,1.915,0,0,0,.8.4.579.579,0,0,0,.661-.268c.153-.3-.057-.479-.268-.632-.388-.249-.814-.44-1.207-.675a1.824,1.824,0,0,1-.958-2.092A1.915,1.915,0,0,1,197.189,277.133Z" transform="translate(-153.68 -242.586)"/><path class="a" d="M306.47,277.095v-3.318c0-.589.249-.752.795-.747s.9.086.886.742v5.113c0,.6.2.857.8.79a4.694,4.694,0,0,1,.551,0c.809,0,1.135.479.857,1.25a.45.45,0,0,1-.479.306h-2.834c-.479,0-.555-.3-.555-.689C306.475,279.4,306.47,278.244,306.47,277.095Z" transform="translate(-211.76 -240.451)"/><path class="a" d="M351.346,278.765v-1.523a.871.871,0,0,0-.445-.91.737.737,0,0,1-.115-1.135c.747-.388.565-.986.551-1.547s.206-.867.843-.871.876.211.867.847-.249,1.245.642,1.523c.359.11.22,1.087-.182,1.207s-.479.436-.479.795v3.184c0,.689-.354.78-.919.785s-.809-.187-.776-.766S351.346,279.291,351.346,278.765Z" transform="translate(-234.746 -240.32)"/><path class="a" d="M152.121,280.283v-2.217c0-.263-.1-.6.225-.737a1,1,0,0,1,1.053.053c.23.206.33.22.536.029a.871.871,0,0,1,.426-.22c.364-.062.814-.287,1,.244.129.369-.373,1.058-.756,1.1-.522.048-.675.4-.771.833a9.264,9.264,0,0,0-.048,2.394v.761c.053.646-.263.833-.871.833s-.843-.191-.809-.8C152.15,281.811,152.121,281.045,152.121,280.283Z" transform="translate(-131.302 -242.567)"/><path class="a" d="M234.689,280.282V278.07c0-.737.35-1.015,1.005-.742a1.192,1.192,0,0,0,1.13-.077.819.819,0,0,1,.919.029c.225.182.11.426.034.637-.11.321-.163.666-.661.637s-.646.369-.737.771a15.593,15.593,0,0,0-.129,3.17c0,.795-.527,1.135-1.264.843-.311-.124-.292-.383-.292-.637C234.684,281.9,234.689,281.086,234.689,280.282Z" transform="translate(-174.346 -242.585)"/><path class="a" d="M279.3,280.47v-2.346c0-.618.345-.7.843-.7s.828.129.819.733q-.029,2.346,0,4.692c0,.565-.268.7-.766.694s-.919-.053-.9-.723C279.318,282.031,279.3,281.25,279.3,280.47Z" transform="translate(-197.598 -242.739)"/><path class="a" d="M317.721,280.479v2.346c0,.56-.249.723-.761.7s-.9,0-.9-.642v-4.831c0-.6.378-.642.833-.642s.833.057.824.651v2.394Z" transform="translate(-216.758 -242.734)"/><path class="a" d="M360.13,280.537v2.351c0,.551-.287.651-.742.642s-.833,0-.828-.627q.024-2.418,0-4.84c0-.618.364-.642.814-.642s.771.062.756.627C360.116,278.88,360.13,279.709,360.13,280.537Z" transform="translate(-238.91 -242.739)"/><path class="a" d="M317.75,273.35a1.006,1.006,0,1,1-2.011-.053.958.958,0,0,1,.982-.958A1.053,1.053,0,0,1,317.75,273.35Z" transform="translate(-216.591 -240.091)"/><path class="a" d="M360.121,273.378a1,1,0,0,1-2,0,1.025,1.025,0,0,1,.958-.958,1.092,1.092,0,0,1,1.044.958Z" transform="translate(-238.681 -240.133)"/><path class="a" d="M281,273.362a1,1,0,0,1-2.006,0,.958.958,0,0,1,.958-.982A1.049,1.049,0,0,1,281,273.362Z" transform="translate(-197.437 -240.112)"/></svg>