<svg xmlns="http://www.w3.org/2000/svg" viewBox="0 0 258.97 120"><defs><style>.cls-1{fill:#76b900;}</style></defs><title>G-tech-col</title><g id="logo"><path class="cls-1" d="M324.4,262.83v18.26H192.74c-.85,0-13.39-.14-16.13-7a7.39,7.39,0,0,1-.51-2.33V226.92a5.53,5.53,0,0,1,.2-1.42c1.69-6,13.38-7.18,14.81-7.3H379.48V190.1L191.92,190c-10.54.48-58.58,3.48-69.79,30.84a30.71,30.71,0,0,0-1.62,5.27V274a27.39,27.39,0,0,0,1.22,4.67c9.5,26.53,57.82,30.61,68.67,31.34H379.48V262.83Z" transform="translate(-120.51 -190)"/><path class="cls-1" d="M376.74,251.67H365.69a.78.78,0,0,1,0-1.52h12.78v-2.43H366.21l-2,.1a3.41,3.41,0,0,0,0,6.69h11.16a.65.65,0,0,1,.51.71.64.64,0,0,1-.51.51h-13v2.64h14.4a3.41,3.41,0,0,0,0-6.69Z" transform="translate(-120.51 -190)"/><path class="cls-1" d="M359.09,251.67H348a.78.78,0,0,1,0-1.52h12.78v-2.43H348.56l-2,.1a3.41,3.41,0,0,0,0,6.69h11.16a.65.65,0,0,1,.51.71.64.64,0,0,1-.51.51h-13v2.64h14.4a3.41,3.41,0,0,0,0-6.69Z" transform="translate(-120.51 -190)"/><polygon class="cls-1" points="120.21 65.93 120.21 68.47 103.97 68.47 103.97 57.72 120.1 57.81 120.1 60.25 107.93 60.25 107.93 61.88 119.49 61.88 119.49 64.52 107.93 64.52 107.93 65.93 120.21 65.93"/><polygon class="cls-1" points="223.34 65.93 223.34 68.47 207.1 68.47 207.1 57.72 223.23 57.81 223.23 60.25 211.06 60.25 211.06 61.88 222.62 61.88 222.62 64.52 211.06 64.52 211.06 65.93 223.34 65.93"/><polygon class="cls-1" points="206.93 57.72 206.93 68.47 202.54 68.47 194.35 61.88 194.35 68.47 190.6 68.47 190.6 57.72 194.46 57.72 202.77 64.41 202.77 57.72 206.93 57.72"/><polygon class="cls-1" points="180.25 64.61 180.25 68.47 184.21 68.47 184.21 64.61 184.21 60.15 190.6 60.15 190.6 57.72 173.56 57.82 173.56 60.25 180.25 60.25 180.25 64.61"/><polygon class="cls-1" points="96.26 57.72 95.45 57.72 87.74 57.72 87.74 60.15 94.13 60.15 94.13 64.61 94.13 68.47 95.45 68.47 96.26 68.47 97.58 68.47 97.58 64.61 97.58 60.15 103.97 60.15 103.97 57.72 96.26 57.72"/><rect class="cls-1" x="168.69" y="57.72" width="3.65" height="10.75"/><polygon class="cls-1" points="148.71 57.72 148.71 59.34 148.71 61.88 144.9 61.88 144.75 61.88 140.95 61.88 140.95 59.34 140.95 57.72 136.89 57.72 136.89 59.34 136.89 68.47 140.84 68.47 140.84 64.41 144.75 64.41 144.9 64.41 148.81 64.41 148.81 68.47 152.76 68.47 152.76 59.34 152.76 57.72 148.71 57.72"/><path class="cls-1" d="M257.35,247.72v2.43H245.18a1,1,0,0,0-.51.3.94.94,0,0,0-.2.41v4.06a.89.89,0,0,0,.2.61.91.91,0,0,0,.71.3h12v2.64h-13.8a3.39,3.39,0,0,1-1.93-.91,2.69,2.69,0,0,1-.91-1.93v-5.58a3.36,3.36,0,0,1,.71-1.22,3.68,3.68,0,0,1,2.54-1.12Z" transform="translate(-120.51 -190)"/><path class="cls-1" d="M208.26,247.72v2.43H196.08a1,1,0,0,0-.51.3.94.94,0,0,0-.2.41v4.06a.89.89,0,0,0,.2.61,1,1,0,0,0,.71.3c.65.06,3.81.07,8.12,0v-1.42h-5.27v-2.64h9.13v6.69h-13.8a3.39,3.39,0,0,1-1.93-.91,2.69,2.69,0,0,1-.91-1.93v-5.58a3.36,3.36,0,0,1,.71-1.22,3.68,3.68,0,0,1,2.54-1.12Z" transform="translate(-120.51 -190)"/><path class="cls-1" d="M288.67,251.88H277.33v-1.62H289.2v-2.54H273.38v10.75h4v-4h11.33Z" transform="translate(-120.51 -190)"/></g></svg>