<svg xmlns="http://www.w3.org/2000/svg" width="156.909" height="30.842" viewBox="0 0 156.909 30.842"><defs><style>.a{fill:#121118;}</style></defs><path class="a" d="M130.786,230.365H90.548c-.165,0-.37.077-.481-.05s-.04-.336-.04-.487V216.544c0-.245,0-.245.235-.252h40.524V209.9H22.62v26.951H130.789Q130.789,233.608,130.786,230.365ZM78.027,219.232v-1.68c0-.168.02-.188.185-.188H86.9a.111.111,0,0,1,.114.111c0,.06,0,.121,0,.178v1.842a.111.111,0,0,1-.111.114H78.39c-.4-.01-.37.024-.37-.38Zm-43.618,10H32.785a.467.467,0,0,1-.42-.215q-1.344-1.721-2.688-3.431l-1.492-1.872A1.6,1.6,0,0,0,28,223.5a.192.192,0,0,0-.134-.02c-.054,0-.067.057-.067.111v5.306c0,.336.024.336-.336.336H26.37c-.249,0-.249,0-.252-.269V217.555c0-.1.054-.124.138-.124h3.975a6.384,6.384,0,0,1,1.68.215,3.252,3.252,0,0,1,.857.353,2.218,2.218,0,0,1,1.048,1.529,3.105,3.105,0,0,1,0,1.22,2.5,2.5,0,0,1-.951,1.489,4.405,4.405,0,0,1-1.267.672,7.65,7.65,0,0,1-1.435.353c-.148.02-.218.057-.074.225.047.054.091.111.134.168l4.2,5.236a.951.951,0,0,1,.2.282C34.553,229.253,34.479,229.229,34.408,229.229Zm3.7-6.929c0,.128.03.151.145.158s.192,0,.289,0h3.6a.087.087,0,0,1,.1.084v.756c0,.054-.047.081-.1.081H38.417c-.336,0-.336,0-.336.306v4.291a2.058,2.058,0,0,0,0,.215.091.091,0,0,0,.091.091h4.422c.1,0,.158.02.158.141v.672a.091.091,0,0,1-.087.094H36.781a.568.568,0,0,1-.319-.037.8.8,0,0,1-.024-.319V217.743c0-.407-.037-.37.366-.37h5.588a.847.847,0,0,1,.336.027,4.9,4.9,0,0,1,.017.874.989.989,0,0,1-.386.034H38.464a2.725,2.725,0,0,0-.289,0,.108.108,0,0,0-.067.067.484.484,0,0,0,0,.141v3.646a.466.466,0,0,0-.01.138Zm13.334,4.527a3.179,3.179,0,0,1-1.421,1.926,4.685,4.685,0,0,1-1.966.672c-.168.02-.336.027-.571.044a4.13,4.13,0,0,1-1.287-.158,6.529,6.529,0,0,1-1.68-.81.171.171,0,0,1-.091-.208c.108-.457.212-.914.319-1.368a.123.123,0,0,1,.1-.131.161.161,0,0,1,.185.081c.044.074.077.148.121.222a3.313,3.313,0,0,0,.591.77,2.544,2.544,0,0,0,2.692.551A2.4,2.4,0,0,0,50,225.687a1.731,1.731,0,0,0-.477-.914,3,3,0,0,0-.672-.524,7.151,7.151,0,0,0-1.045-.481c-.4-.155-.807-.313-1.193-.5a4.55,4.55,0,0,1-.884-.554,2.588,2.588,0,0,1-.988-1.892,3.945,3.945,0,0,1,.074-1.146,2.9,2.9,0,0,1,1.455-1.946,4.066,4.066,0,0,1,1.61-.491,4.96,4.96,0,0,1,1.825.121,3.361,3.361,0,0,1,1.243.632.2.2,0,0,1,.084.249q-.215.612-.42,1.227a.175.175,0,0,1-.336.02,2.813,2.813,0,0,0-.131-.3,1.919,1.919,0,0,0-1.68-1.106,2.309,2.309,0,0,0-1.321.286,1.939,1.939,0,0,0-.907,2.292,1.68,1.68,0,0,0,.581.85,3.2,3.2,0,0,0,.77.464c.336.155.709.3,1.065.44a9,9,0,0,1,1.233.591,4.033,4.033,0,0,1,.877.672,2.8,2.8,0,0,1,.78,1.778,4.117,4.117,0,0,1-.111,1.374Zm12.168-8.455c-.084.276-.155.554-.235.833a.239.239,0,0,1-.407.134c-.1-.084-.192-.181-.292-.265a3.787,3.787,0,0,0-1.6-.877,4.9,4.9,0,0,0-3.112.205,4.09,4.09,0,0,0-1.929,1.68,5.336,5.336,0,0,0-.716,1.912,7.443,7.443,0,0,0,.121,3.29,5.159,5.159,0,0,0,.565,1.321,4.033,4.033,0,0,0,2.712,1.926,4.768,4.768,0,0,0,3.159-.386,3.885,3.885,0,0,0,1.092-.756.313.313,0,0,1,.393-.1c.034.336,0,.712,0,1.072,0,.1-.064.148-.138.192a5.841,5.841,0,0,1-1.519.649,8.135,8.135,0,0,1-2.467.252,7.259,7.259,0,0,1-1.952-.319,5.229,5.229,0,0,1-3.6-3.626,7.006,7.006,0,0,1-.04-4.056,5.541,5.541,0,0,1,3.754-3.871,7.155,7.155,0,0,1,2.157-.366,9.41,9.41,0,0,1,3.774.672c.383.128.4.077.272.484Zm11.9,7.884c-.054.171-.111.336-.178.511a4.063,4.063,0,0,1-2.88,2.5,5.991,5.991,0,0,1-1.284.178,8.277,8.277,0,0,1-2.574-.252,3.582,3.582,0,0,1-2.53-2.352,5.836,5.836,0,0,1-.235-.867,8.478,8.478,0,0,1-.151-1.613q0-3.32,0-6.637v-.145a.129.129,0,0,1,.124-.138h1.371c.121,0,.155.03.158.145s0,.192,0,.289v3.461h0v3.1a6.7,6.7,0,0,0,.232,1.818,4.532,4.532,0,0,0,.218.612,2.574,2.574,0,0,0,1.68,1.479,5.128,5.128,0,0,0,2,.178,4.666,4.666,0,0,0,.672-.114,3.024,3.024,0,0,0,2.073-1.7,4.926,4.926,0,0,0,.427-1.556,10.366,10.366,0,0,0,.067-1.223q0-3.048,0-6.1c0-.44-.04-.39.376-.393h.541c.181,0,.171.017.178.161v6.529A7.527,7.527,0,0,1,75.507,226.255Zm11.55.985v2.127a.108.108,0,0,1-.108.118h-8.67c-.272,0-.279,0-.279-.279V222.35c0-.161.02-.171.195-.178h8.737a.108.108,0,0,1,.114.111v2.238a2.051,2.051,0,0,1,0,.215.094.094,0,0,1-.1.087H81.1c-.491,0-.433-.054-.437.45v1.264c0,.269,0,.269.286.272h5.713c.434.017.386-.02.386.43Z" transform="translate(-20.573 -207.954)"/><path class="a" d="M333.589,239.086V245.2c0,.417.04.39-.386.39a1.837,1.837,0,0,1-.252,0,.1.1,0,0,1-.067-.074,3.215,3.215,0,0,1,0-.336V237.5a.672.672,0,0,1,.027-.319.4.4,0,0,1,.474.148q1.5,1.569,3,3.125l2.776,2.89c.074.077.138.168.195.239.151-.067.1-.165.1-.235v-6.113a.087.087,0,0,1,.091-.091h.094c.635,0,.541-.094.541.521v7.689c0,.084.02.148-.047.2a.309.309,0,0,1-.306-.02,2.156,2.156,0,0,1-.178-.178l-2.547-2.658-3.2-3.334Z" transform="translate(-226.57 -226.037)"/><path class="a" d="M414.555,245.246a3.5,3.5,0,0,1-.538,0h-.578a.158.158,0,0,1-.165-.111c-.024-.067-.054-.134-.077-.2l-1.062-2.719c-.027-.067-.054-.134-.077-.2a.158.158,0,0,0-.158-.118H408.94a.124.124,0,0,0-.111.081c-.04.087-.071.178-.1.269l-1.008,2.624c-.04.1-.081.2-.124.3a.118.118,0,0,1-.111.077h-.672a.067.067,0,0,1-.064-.1c.027-.081.064-.155.1-.232l3.616-7.978c.03-.067.06-.131.091-.2a.168.168,0,0,1,.171-.1.185.185,0,0,1,.2.118c.128.3.259.595.386.894l3.169,7.272A.625.625,0,0,1,414.555,245.246Zm-2.729-3.865c-.161-.42-.336-.763-.477-1.112s-.3-.672-.45-1.008a10.714,10.714,0,0,0-.494-1.065l-1.274,3.024a.175.175,0,0,0,0,.171Z" transform="translate(-275.611 -225.705)"/><path class="a" d="M313.8,241.37h-2.877a.094.094,0,0,0-.094.087v3.283a1.213,1.213,0,0,0,0,.178.1.1,0,0,0,.1.087h3.139c.138,0,.161.03.161.178,0,.427.034.4-.373.4h-3.824c-.336,0-.336,0-.336-.309v-8.011a.1.1,0,0,1,.1-.118h4.311a.111.111,0,0,1,.118.111v.108c0,.386,0,.356-.336.356h-2.924c-.084,0-.138.037-.138.128v2.668a1.358,1.358,0,0,0,0,.144.107.107,0,0,0,.121.108H313.7c.145,0,.165.02.161.171a.722.722,0,0,1-.054.427Z" transform="translate(-211.18 -226.047)"/><path class="a" d="M260.692,243.614c.121.02.138.114.178.185a2.44,2.44,0,0,0,.491.618,1.929,1.929,0,0,0,2.087.336,1.764,1.764,0,0,0,1.055-2.016,1.28,1.28,0,0,0-.376-.672,2.208,2.208,0,0,0-.649-.45c-.262-.121-.531-.225-.793-.336s-.551-.235-.823-.366a2.805,2.805,0,0,1-.427-.269,1.825,1.825,0,0,1-.776-1.4,2.688,2.688,0,0,1,.06-.823,2.07,2.07,0,0,1,1.264-1.472,3.448,3.448,0,0,1,1.66-.249,2.715,2.715,0,0,1,1.2.336c.363.215.363.215.222.622-.067.192-.134.386-.208.575,0,.027-.054.044-.084.054s-.044-.024-.054-.04c-.047-.084-.084-.171-.131-.255a1.422,1.422,0,0,0-1.22-.773,1.8,1.8,0,0,0-.88.138,1.442,1.442,0,0,0-.847,1.68,1.264,1.264,0,0,0,.507.763,3.067,3.067,0,0,0,.692.38l.867.353a4.612,4.612,0,0,1,.887.477,2.114,2.114,0,0,1,.951,1.875,2.352,2.352,0,0,1-1.61,2.292,3.562,3.562,0,0,1-3.4-.4c-.05-.034-.111-.067-.1-.138A7.98,7.98,0,0,1,260.692,243.614Z" transform="translate(-178.472 -225.736)"/><path class="a" d="M462.55,243.526c.108.024.128.114.168.185a2.4,2.4,0,0,0,.494.618,1.929,1.929,0,0,0,2.087.336,1.764,1.764,0,0,0,1.055-2.016,1.277,1.277,0,0,0-.336-.672,2.06,2.06,0,0,0-.578-.427c-.235-.118-.481-.218-.723-.336s-.578-.239-.864-.366a2.809,2.809,0,0,1-.638-.4,1.825,1.825,0,0,1-.672-1.3,2.711,2.711,0,0,1,.047-.827,2.07,2.07,0,0,1,1.243-1.492,3.421,3.421,0,0,1,1.657-.265,2.756,2.756,0,0,1,1.2.336c.39.222.393.232.249.642-.067.192-.134.386-.208.575,0,.024-.054.044-.084.05s-.044-.024-.054-.044c-.047-.084-.084-.171-.131-.255a1.425,1.425,0,0,0-1.223-.773,1.788,1.788,0,0,0-.914.155,1.452,1.452,0,0,0-.77,1.815,1.314,1.314,0,0,0,.524.672,3.142,3.142,0,0,0,.635.336l.867.353a4.442,4.442,0,0,1,.944.521,2.05,2.05,0,0,1,.887,1.761,3.063,3.063,0,0,1-.081.716,2.265,2.265,0,0,1-1.008,1.395,3.36,3.36,0,0,1-1.173.44,3.522,3.522,0,0,1-2.712-.568.215.215,0,0,1-.108-.265c.067-.269.121-.538.185-.806A.608.608,0,0,1,462.55,243.526Z" transform="translate(-312.517 -225.649)"/><path class="a" d="M237.933,241.424v-3.858a2.792,2.792,0,0,1,0-.289.108.108,0,0,1,.067-.067.514.514,0,0,1,.145,0h4.11c.161,0,.168,0,.175.158v.215c0,.185-.02.2-.208.2h-3.058a.118.118,0,0,0-.124.141v2.813a.091.091,0,0,0,.094.087h2.813a.1.1,0,0,1,.114.108v.037c0,.494.064.43-.407.434h-2.524a.091.091,0,0,0-.094.091v3.354c0,.178.024.195.215.2h3.071a.108.108,0,0,1,.114.108s0,.024,0,.037c0,.487.057.434-.41.434h-3.932c-.134,0-.158-.03-.165-.175V245.2Q237.933,243.316,237.933,241.424Z" transform="translate(-163.529 -226.084)"/><path class="a" d="M285.1,243.585a1.242,1.242,0,0,1,.272.37,2.016,2.016,0,0,0,1.176.9,1.845,1.845,0,0,0,2.319-1.186,1.512,1.512,0,0,0-.615-1.831,4.2,4.2,0,0,0-.8-.41c-.289-.114-.581-.229-.867-.336a3.339,3.339,0,0,1-.776-.454,1.841,1.841,0,0,1-.733-1.465,2.784,2.784,0,0,1,.037-.612,2.093,2.093,0,0,1,1.28-1.586,3.424,3.424,0,0,1,1.657-.255,2.615,2.615,0,0,1,1.2.336c.43.265.363.225.232.615-.067.2-.148.407-.225.608a.071.071,0,0,1-.118,0c-.034-.064-.06-.131-.094-.195a1.462,1.462,0,0,0-1.344-.85,1.727,1.727,0,0,0-.964.239,1.455,1.455,0,0,0-.615,1.757,1.344,1.344,0,0,0,.481.615,3.1,3.1,0,0,0,.672.363l.867.353a4.6,4.6,0,0,1,.917.5,2.131,2.131,0,0,1,.917,2.1,2.319,2.319,0,0,1-1.616,2.06,3.545,3.545,0,0,1-3.36-.4.181.181,0,0,1-.1-.208A8.316,8.316,0,0,1,285.1,243.585Z" transform="translate(-194.712 -225.751)"/><path class="a" d="M368.393,241.667v3.787c0,.1-.034.161-.141.161h-.83c-.118,0-.144-.034-.151-.155s0-.192,0-.289v-7.03c0-.437.054-.383-.38-.386H364.74a.121.121,0,0,1-.128-.138c0-.487-.071-.44.4-.44h5.713c.4,0,.353-.023.356.38a.551.551,0,0,1,0,.108.1.1,0,0,1-.1.087h-2.416c-.084,0-.138.03-.138.124v.289Q368.393,239.92,368.393,241.667Z" transform="translate(-247.639 -226.065)"/><path class="a" d="M439.524,237.214a7.272,7.272,0,0,1,1.008-.027.1.1,0,0,1,.084.1v7.332c0,.477-.047.43.42.43h2.631a.833.833,0,0,1,.36.03,1.465,1.465,0,0,1,.02.427.108.108,0,0,1-.108.118h-4.325a.108.108,0,0,1-.111-.114V237.53A.763.763,0,0,1,439.524,237.214Z" transform="translate(-297.361 -226.067)"/><path class="a" d="M394.859,237.181a.612.612,0,0,1,.04.316v8a.107.107,0,0,1-.114.114h-.9c-.071,0-.1-.05-.108-.121s0-.168,0-.252v-7.82c0-.235,0-.239.242-.239S394.59,237.171,394.859,237.181Z" transform="translate(-267.005 -226.065)"/><path class="a" d="M38,236.9V234.77a.108.108,0,0,1,.114-.111h2.238a2.537,2.537,0,0,1,.884.151,1.68,1.68,0,0,1,1.163,1.469,2.477,2.477,0,0,1-.074,1.035,2.208,2.208,0,0,1-.887,1.19,3.5,3.5,0,0,1-1.5.568,10.026,10.026,0,0,1-1.438.05h-.4a.091.091,0,0,1-.094-.091v-.252Q38,237.835,38,236.9Z" transform="translate(-30.785 -224.393)"/><path class="a" d="M173.439,234.952H16.53V204.11H173.439Zm-156.307-.6H172.841V204.708H17.132Z" transform="translate(-16.53 -204.11)"/></svg>