<svg xmlns="http://www.w3.org/2000/svg" width="190" height="40.352" viewBox="0 0 190 40.352"><defs><style>.a{fill:#121118;}</style></defs><path class="a" d="M212.256,236.76c0-2.4-.045-10.4-.072-17.771s-.049-13.545-.063-13.7L212.1,205h-1.143a26.969,26.969,0,0,0-11.457,2.608,11.3,11.3,0,0,0-1.452.9l-.246.179v30.371l-.4.04-10.333.986-9.925.95,35.138.1Zm-12.268-26.714.511-.251a15.919,15.919,0,0,1,2.052-.86c.565-.193,1.765-.547,1.877-.551a30.4,30.4,0,0,1,.04,3.4v3.405l-.143.031a22.7,22.7,0,0,0-4,1.385c-.166.085-.3.157-.314.157s0-1.51,0-3.356Zm4.369,20.307h-.085a16.97,16.97,0,0,0-3.889,1.344c-.193.1-.363.179-.376.179s0-1.564,0-3.482v-3.486l.5-.224a23.654,23.654,0,0,1,3.768-1.394h.085Zm.121-7.711-.229.063a27.582,27.582,0,0,0-4.033,1.456l-.229.112V217.4l.318-.157a23.1,23.1,0,0,1,2.178-.9c.5-.179,1.851-.6,1.967-.609,0,0,.027,1.555.027,3.45Zm5.166,6.748h-.506a14.786,14.786,0,0,0-3.625.645l-.309.1v-7.071l.367-.121a14.1,14.1,0,0,1,2.809-.515c.69-.063.784-.067,1.044-.076h.229Zm0-7.586-.448.027c-.766.045-1.931.175-2.536.278a12.165,12.165,0,0,0-1.537.358c-.067.027-.072-.152-.072-3.41v-3.441l.211-.063a20.081,20.081,0,0,1,3.544-.614c.632-.054.793-.067.807-.076s0,1.555,0,3.468Zm0-7.555-.506.049a19.609,19.609,0,0,0-3.992.695c-.067.031-.072-.143-.072-3.37v-3.392l.233-.094a11.387,11.387,0,0,1,2.178-.484c.614-.081,1.644-.184,1.976-.193h.188Zm1.29,16.1a.3.3,0,0,1-.511.04l-.1-.121v-4.279l.1-.121a.318.318,0,0,1,.39-.1c.179.067.179.134.179,2.357a11.486,11.486,0,0,1-.058,2.222Z" transform="translate(-114.779 -205)"/><path class="a" d="M278.971,240.116c-4.342-.5-7.9-.9-7.913-.923s0-6.887-.036-15.284V208.643l-.381-.246a19.394,19.394,0,0,0-2.944-1.528,21.563,21.563,0,0,0-4.588-1.273,34.286,34.286,0,0,0-5.529-.6c-.65,0-.789,0-.8.027s-.076,11.529-.121,24.254c0,2.93-.031,6.788-.045,8.576l-.022,3.249,30.285-.1Zm-20.432-9.858-.1.121a.3.3,0,0,1-.511-.04,11.627,11.627,0,0,1-.058-2.24c0-2.442,0-2.37.345-2.379a.255.255,0,0,1,.229.121l.1.121Zm5.126-3.643v3.531l-.309-.1a14.826,14.826,0,0,0-3.62-.645l-.511-.022v-7.021l.448.022c.255,0,.789.063,1.178.108a12.428,12.428,0,0,1,2.5.5l.3.1Zm.121-7.568c0,3.258,0,3.437-.067,3.41a13.135,13.135,0,0,0-1.541-.358c-.6-.1-1.77-.229-2.532-.278l-.448-.027v-6.936h.13l.663.054a20.049,20.049,0,0,1,3.585.618l.206.058Zm0-7.429c0,3.222,0,3.4-.067,3.37a19.33,19.33,0,0,0-3.992-.695l-.511-.054v-6.775h.112l.8.058a14.629,14.629,0,0,1,3.428.623l.229.085Zm5.086,20.266s-.184-.081-.376-.179a17.027,17.027,0,0,0-3.88-1.344h-.09v-7.053l.166.027a6.438,6.438,0,0,1,.86.26,27.634,27.634,0,0,1,2.688,1.057l.636.287v3.482C268.872,230.339,268.872,231.885,268.872,231.885Zm0-7.617-.229-.117a27.747,27.747,0,0,0-4.033-1.456l-.229-.063v-3.459c0-3.275,0-3.459.072-3.437l.695.2a23.821,23.821,0,0,1,3.405,1.29l.318.157Zm0-10.87v3.356s-.148-.072-.309-.157a23.087,23.087,0,0,0-4.006-1.385l-.139-.031v-3.405c0-1.873,0-3.405.022-3.405s.318.081.668.175a17.725,17.725,0,0,1,3.28,1.241l.511.255Z" transform="translate(-158.629 -205)"/><path class="a" d="M45.8,233.34a8.818,8.818,0,0,0-.206,17.5,11.327,11.327,0,0,0,2.321,0,8.988,8.988,0,0,0,4.3-1.824l.224-.184v-6.757h-3.28v4.857l-.269.121a7.248,7.248,0,0,1-1.178.372,8,8,0,0,1-1.994,0,5.266,5.266,0,0,1-1.385-.5,5.484,5.484,0,0,1-2.935-3.907,6.421,6.421,0,0,1,0-1.891,5.525,5.525,0,0,1,4.351-4.382,6.771,6.771,0,0,1,1.963,0,5.659,5.659,0,0,1,2.653,1.344,1.918,1.918,0,0,0,.3.246c.022-.022,1.792-2.939,1.792-2.953a9.165,9.165,0,0,0-.972-.721,10.306,10.306,0,0,0-1.954-.932,9.662,9.662,0,0,0-1.846-.4,11.624,11.624,0,0,0-1.882,0Z" transform="translate(-37.964 -220.619)"/><path class="a" d="M76.177,250.8h3.378v-3.4H83.4l1.461,3.378s3.625,0,3.607-.031-1.86-4.409-1.851-4.414l.215-.143a6.945,6.945,0,0,0,2.85-4.378,7.914,7.914,0,0,0,0-2.487,6.9,6.9,0,0,0-5.377-5.462c-.381-.09-.448-.09-4.266-.1H76.15Zm7.55-13.572a3.517,3.517,0,0,1,2.572,2.469,4.53,4.53,0,0,1,0,1.761,3.508,3.508,0,0,1-2.066,2.29c-.565.215-.659.224-2.729.224H79.573v-6.806a32.753,32.753,0,0,1,4.154.063Z" transform="translate(-59.04 -220.873)"/><path class="a" d="M117.28,233.744l-.475.081a6.815,6.815,0,0,0-5.52,5.9c-.027.22-.045,11.045-.045,11.045h3.378v-3.419h6.82v3.419h3.423l-.027-11.2-.09-.39a6.932,6.932,0,0,0-5.377-5.377,6.272,6.272,0,0,0-1.192-.09C117.746,233.731,117.338,233.731,117.28,233.744Zm1.5,3.459a3.464,3.464,0,0,1,2.514,2.272l.134.385.022,4.113h-6.82s0-3.925.072-4.163a3.428,3.428,0,0,1,4.077-2.612Z" transform="translate(-78.407 -220.844)"/><path class="a" d="M148.282,250.807H151.7V239.6l6.555,11.2h3.674V233.78h-3.419s0,11.2-.054,11.162-6.524-11.157-6.524-11.157H148.26Z" transform="translate(-98.839 -220.884)"/><path class="a" d="M185.791,250.784s6.2-.036,6.618-.117a8.546,8.546,0,0,0,6.152-12.25,8.016,8.016,0,0,0-1.6-2.2,8.419,8.419,0,0,0-4.929-2.433c-.381-.049-6.273-.058-6.273-.058Zm6.058-13.572a5.18,5.18,0,0,1,4.14,4.1,6.508,6.508,0,0,1,0,1.882,5.189,5.189,0,0,1-4.176,4.1,9.857,9.857,0,0,1-1.456.058h-1.107V237.1l1.125.022a11.661,11.661,0,0,1,1.474.085Z" transform="translate(-119.536 -220.857)"/><path class="a" d="M297.57,250.812h11.722v-3.4h-8.285v-3.4h5.583v-3.414h-5.6v-3.437h8.285V233.79h-11.7Z" transform="translate(-181.247 -220.89)"/><path class="a" d="M329.017,250.807h3.419V239.6l6.555,11.2h3.634V233.78h-3.378s0,11.2-.072,11.13S332.66,233.8,332.66,233.8h-3.67Z" transform="translate(-198.588 -220.884)"/><path class="a" d="M363.55,237.108h5.13v13.671H372.1V237.108h5.095V233.73H363.55Z" transform="translate(-217.663 -220.857)"/><path class="a" d="M398,250.8h3.419v-3.419h3.836l1.47,3.419h3.634l-.139-.332c-.717-1.667-1.725-4.073-1.725-4.1a1.1,1.1,0,0,1,.278-.229,6.815,6.815,0,0,0,1.73-9.342,6.9,6.9,0,0,0-4.351-2.93,26.574,26.574,0,0,0-4.261-.094H398Zm7.12-13.63a3.275,3.275,0,0,1,2.16,1.035,3.369,3.369,0,0,1,.833,1.456,2.4,2.4,0,0,1,.108.9,2.765,2.765,0,0,1-.35,1.528,3.226,3.226,0,0,1-1.51,1.528c-.73.367-.744.367-2.989.39h-1.958v-6.873h1.64c.923,0,1.855.022,2.088.04Z" transform="translate(-236.677 -220.879)"/><path class="a" d="M431.662,236.754a16.371,16.371,0,0,0,.094,3.41,6.811,6.811,0,0,0,4.6,5.144l.4.125v5.337h3.378v-5.332l.448-.152a6.842,6.842,0,0,0,4.481-4.884c.161-.636.179-.995.179-3.889V233.72H441.87v2.792c0,2.688,0,2.8-.1,3.137a3.473,3.473,0,0,1-2.581,2.532,4.3,4.3,0,0,1-1.564,0,3.464,3.464,0,0,1-2.509-2.514,14.482,14.482,0,0,1-.1-3.137v-2.792H431.64Z" transform="translate(-255.244 -220.851)"/><path class="a" d="M402.138,277.971a3.164,3.164,0,0,0-2.809,3.074,7.92,7.92,0,0,0,.085,1.954,3.137,3.137,0,0,0,1.618,2.24,4.337,4.337,0,0,0,3.249.112,3.2,3.2,0,0,0,1.913-2.572,7.931,7.931,0,0,0,.022-1.868,3.4,3.4,0,0,0-1.053-2.155,2.993,2.993,0,0,0-1.277-.69,3.612,3.612,0,0,0-.972-.094A2.947,2.947,0,0,0,402.138,277.971Zm1.219,1.049a2.039,2.039,0,0,1,1.528,1.685,7.168,7.168,0,0,1,0,2.24,2.012,2.012,0,0,1-2.057,1.649c-1.456,0-2.24-.986-2.24-2.823,0-1.5.578-2.478,1.6-2.724a3.967,3.967,0,0,1,1.169-.045Z" transform="translate(-237.396 -245.262)"/><path class="a" d="M420.332,277.941a2.953,2.953,0,0,0-1.662.838,3.827,3.827,0,0,0-.448.542,4.8,4.8,0,0,0-.542,2.653,4.4,4.4,0,0,0,.475,1.967,3.2,3.2,0,0,0,1.2,1.205,4.324,4.324,0,0,0,3.092.206,3.255,3.255,0,0,0,2.178-3.06,6.77,6.77,0,0,0-.063-1.644,3.137,3.137,0,0,0-2.3-2.653A6.43,6.43,0,0,0,420.332,277.941Zm1.456,1.04a1.958,1.958,0,0,1,1.438,1.546,3.4,3.4,0,0,1,.09,1.152,3.291,3.291,0,0,1-.3,1.765,1.963,1.963,0,0,1-1.873,1.075,2.012,2.012,0,0,1-2.057-1.6,5.305,5.305,0,0,1,0-2.37,2,2,0,0,1,1.447-1.568,3.418,3.418,0,0,1,1.255.013Z" transform="translate(-247.529 -245.231)"/><path class="a" d="M452.577,277.959a1.92,1.92,0,0,0-1.756,2.07,2.021,2.021,0,0,0,.332,1.04,3.136,3.136,0,0,0,1.461,1.026c1.246.533,1.541.757,1.649,1.228a.919.919,0,0,1-.538,1.062,1.385,1.385,0,0,1-.726.148,4.275,4.275,0,0,1-1.676-.273l-.529-.179c-.063-.022-.067,0-.058.542v.569l.229.09a4.709,4.709,0,0,0,1.739.264,3.191,3.191,0,0,0,1.707-.336,1.954,1.954,0,0,0,1.035-2.093c-.13-.86-.614-1.317-2.007-1.891-1.044-.448-1.371-.708-1.438-1.21a.9.9,0,0,1,.547-.963,3.1,3.1,0,0,1,2.016.143,3.061,3.061,0,0,0,.421.125l.193-.479.179-.448-.1-.054a6.82,6.82,0,0,0-1.04-.327,5.937,5.937,0,0,0-1.635-.054Z" transform="translate(-265.781 -245.25)"/><path class="a" d="M383,281.886V285.6h1.3a13.224,13.224,0,0,0,1.7-.058,3.211,3.211,0,0,0,2.9-2.469,3.937,3.937,0,0,0,.121-1.035,4.248,4.248,0,0,0-.193-1.662,3.105,3.105,0,0,0-2.3-2.079,6.693,6.693,0,0,0-1.954-.121H383Zm3.137-2.621a2.016,2.016,0,0,1,1.344,1.066,2.783,2.783,0,0,1,.278,1.523,2.725,2.725,0,0,1-.3,1.555,2.137,2.137,0,0,1-1.492,1.111,7.3,7.3,0,0,1-1.022.085l-.748.022v-5.471h.847a5.158,5.158,0,0,1,1.062.108Z" transform="translate(-228.398 -245.39)"/><path class="a" d="M436.8,281.9v3.719h1.232v-2.98h1.21l.9,1.488.9,1.492h1.376l-1.04-1.635-1.049-1.64.3-.157a2.384,2.384,0,0,0,.932-.9,1.976,1.976,0,0,0,.2-.968,1.9,1.9,0,0,0-1.586-2.016,6.863,6.863,0,0,0-1.828-.1h-1.523Zm2.841-2.617a1.345,1.345,0,0,1,.668.4,1.205,1.205,0,0,1,.188.69,1.223,1.223,0,0,1-.264.829c-.287.332-.677.448-1.6.448h-.609v-2.478l.686.022a5,5,0,0,1,.932.085Z" transform="translate(-258.091 -245.401)"/></svg>