<svg xmlns="http://www.w3.org/2000/svg" width="157.532" height="29.421" viewBox="0 0 157.532 29.421"><defs><style>.a{fill:#121118;}</style></defs><path class="a" d="M18.9,367.61c1.778.49,3.144,1.883,3.144,4.51,0,3.559-2.474,5.337-5.8,5.337H9V359.05h6.161c3.324,0,5.438,1.984,5.438,4.951C20.6,366.165,19.828,367.2,18.9,367.61Zm-4.576-1.471a1.646,1.646,0,0,0,1.8-1.8,1.74,1.74,0,0,0-1.8-1.883h-.85v3.687Zm1.082,7.89a2.029,2.029,0,0,0,2.164-2.216,2.076,2.076,0,0,0-2.164-2.242H13.484v4.461Z" transform="translate(-9 -358.38)"/><path class="a" d="M55.348,385.924a1.472,1.472,0,0,0,1.6,1.634,1.437,1.437,0,0,0,1.572-1.634v-6.831h4.458v7.059c0,3.249-2.373,5.079-6.03,5.079s-6.056-1.83-6.056-5.079V379.09h4.458Z" transform="translate(-37.199 -371.87)"/><path class="a" d="M92.13,376.077V357h4.484v19.077Z" transform="translate(-64.961 -357)"/><path class="a" d="M120.219,364.19h5.1l-5.36,5.556,6.275,6.331H120.6l-4.827-4.873v4.873H111.3V357h4.478v11.419Z" transform="translate(-77.866 -357)"/><path class="a" d="M166.13,367.61c1.778.49,3.144,1.883,3.144,4.51,0,3.559-2.474,5.337-5.8,5.337H156.23V359.05h6.161c3.324,0,5.438,1.984,5.438,4.951C167.829,366.165,167.058,367.2,166.13,367.61Zm-4.576-1.471a1.646,1.646,0,0,0,1.8-1.8,1.74,1.74,0,0,0-1.8-1.883h-.824v3.687Zm1.082,7.89a2.029,2.029,0,0,0,2.164-2.216,2.076,2.076,0,0,0-2.164-2.242H160.73v4.461Z" transform="translate(-108.111 -358.38)"/><path class="a" d="M204.047,390.483a6.294,6.294,0,1,1,6.471-6.291A6.143,6.143,0,0,1,204.047,390.483Zm-.026-3.814a2.451,2.451,0,1,0-2.451-2.451A2.451,2.451,0,0,0,204.02,386.669Z" transform="translate(-135.9 -371.069)"/><path class="a" d="M247.177,390.483a6.294,6.294,0,1,1,6.471-6.291A6.143,6.143,0,0,1,247.177,390.483Zm-.026-3.814a2.451,2.451,0,1,0-2.451-2.451A2.451,2.451,0,0,0,247.15,386.669Z" transform="translate(-164.934 -371.069)"/><path class="a" d="M291.7,364.19H296.8l-5.36,5.556,6.288,6.344h-5.648l-4.821-4.873v4.873H282.78V357h4.484v11.419Z" transform="translate(-193.301 -357)"/><path class="a" d="M332.685,381.347c-.824,0-1.16.31-1.16.722s.36.654,1.34.8a3.863,3.863,0,0,1,3.6,3.739c0,2.5-1.778,4.249-5.337,4.249a8.014,8.014,0,0,1-4.9-1.634l1.471-2.448a5.957,5.957,0,0,0,3.118,1.16c.824,0,1.307-.232,1.307-.748s-.438-.9-1.572-1.082c-2.553-.386-3.6-1.6-3.6-3.4,0-2.811,2.579-4.2,5.053-4.2a8.216,8.216,0,0,1,4.02.824L334.966,382a4.249,4.249,0,0,0-2.281-.657Z" transform="translate(-222.544 -371.473)"/><path class="a" d="M358,375.661v-3.687h1.445V368.52H363.9v3.455h2.5v3.687h-2.5v8.171h-4.451v-8.171Z" transform="translate(-243.937 -364.755)"/><path class="a" d="M390.067,390.483a6.294,6.294,0,1,1,6.471-6.291A6.143,6.143,0,0,1,390.067,390.483Zm-.026-3.814a2.451,2.451,0,1,0-2.451-2.451,2.451,2.451,0,0,0,2.451,2.451Z" transform="translate(-261.123 -371.069)"/><path class="a" d="M424.83,378.446h4.458v.824a3.971,3.971,0,0,1,2.886-1.134,3.594,3.594,0,0,1,1.634.327v3.386a4.575,4.575,0,0,0-1.546-.232,2.694,2.694,0,0,0-2.99,2.657v6.033H424.83Z" transform="translate(-288.925 -371.226)"/><path class="a" d="M457.731,387.271c1.445,0,1.984-.386,2.216-.954h3.945c-.543,1.726-1.984,4.229-6.341,4.229a6.009,6.009,0,0,1-6.262-6.21,6.285,6.285,0,0,1,6.442-6.34c4.641,0,6.537,3.118,6.537,6.537a5.361,5.361,0,0,1-.026.654h-8.661a2.036,2.036,0,0,0,2.151,2.085Zm-.052-6.291a1.843,1.843,0,0,0-2.036,1.634h4.115a1.924,1.924,0,0,0-2.088-1.634Z" transform="translate(-306.737 -371.133)"/><path class="a" d="M281.67,428.135l.507-2.288h.154q-.033.327-.033.549a1.353,1.353,0,0,0,.4,1.01,1.412,1.412,0,0,0,1.033.389,1.111,1.111,0,0,0,.9-.363,1.262,1.262,0,0,0,.307-.84,1.141,1.141,0,0,0-.141-.562,8.526,8.526,0,0,0-1.134-1.307,3.966,3.966,0,0,1-.575-.673,1.536,1.536,0,0,1-.209-.768,1.464,1.464,0,0,1,.48-1.1,1.712,1.712,0,0,1,1.229-.458,2.237,2.237,0,0,1,.48.049,3.266,3.266,0,0,1,.51.18l.291.114a.694.694,0,0,0,.141,0,.379.379,0,0,0,.225-.069.951.951,0,0,0,.222-.291h.173l-.467,2.056H286c0-.18.02-.327.02-.438a1.19,1.19,0,0,0-.363-.9,1.307,1.307,0,0,0-.954-.35,1.072,1.072,0,0,0-.765.278.853.853,0,0,0-.294.654,1.089,1.089,0,0,0,.19.6,6.758,6.758,0,0,0,.863.935,4.966,4.966,0,0,1,.876,1.013,1.6,1.6,0,0,1,.2.775,1.814,1.814,0,0,1-.245.9,1.683,1.683,0,0,1-.709.677,2.157,2.157,0,0,1-1.01.239,2.462,2.462,0,0,1-.507-.049,5.874,5.874,0,0,1-.752-.245.861.861,0,0,0-.294-.069q-.268,0-.415.363Z" transform="translate(-192.554 -400.561)"/><path class="a" d="M299.287,428.41l-.882,3.069-.1.412a.45.45,0,0,0,0,.1.193.193,0,0,0,.046.127.117.117,0,0,0,.092.039.285.285,0,0,0,.154-.072,2.637,2.637,0,0,0,.454-.539l.154.108a2.84,2.84,0,0,1-.654.716,1.049,1.049,0,0,1-.611.245.4.4,0,0,1-.291-.1.382.382,0,0,1-.1-.284,2.316,2.316,0,0,1,.1-.585l.095-.327a4.421,4.421,0,0,1-1.088,1.082,1.327,1.327,0,0,1-.7.222.732.732,0,0,1-.569-.275,1.1,1.1,0,0,1-.239-.752,3.2,3.2,0,0,1,.431-1.52,3.737,3.737,0,0,1,1.1-1.278,1.69,1.69,0,0,1,.98-.379.719.719,0,0,1,.461.144.908.908,0,0,1,.278.48l.163-.516Zm-1.611.235a.981.981,0,0,0-.618.284,3.318,3.318,0,0,0-.82,1.141,3.232,3.232,0,0,0-.359,1.366.719.719,0,0,0,.154.487.458.458,0,0,0,.353.18q.494,0,1.072-.729a3.16,3.16,0,0,0,.775-1.987.837.837,0,0,0-.15-.556A.51.51,0,0,0,297.676,428.645Z" transform="translate(-201.624 -405.071)"/><path class="a" d="M308.16,428.684l1.307-.281a4.665,4.665,0,0,1,.226.683,9.861,9.861,0,0,1,.2,1.213q.036.353.1,1.494.565-.624.673-.775.6-.811.686-.951a1.991,1.991,0,0,0,.209-.422.753.753,0,0,0,.049-.258q0-.118-.209-.271a.431.431,0,0,1-.209-.343.353.353,0,0,1,.114-.258.38.38,0,0,1,.275-.114.444.444,0,0,1,.327.157.549.549,0,0,1,.144.386,1.364,1.364,0,0,1-.072.444,4.032,4.032,0,0,1-.438.84,13.574,13.574,0,0,1-1.036,1.327q-.092.1-1,1.049h-.167a11.894,11.894,0,0,0-.451-3.576.389.389,0,0,0-.376-.232,1.808,1.808,0,0,0-.327.042Z" transform="translate(-210.386 -405.064)"/><path class="a" d="M320.744,430.793a2.784,2.784,0,0,0-.033.376.928.928,0,0,0,.284.686.948.948,0,0,0,.693.284,1.529,1.529,0,0,0,.627-.134,5.08,5.08,0,0,0,.892-.592l.095.131a3.03,3.03,0,0,1-2.046,1.062,1.2,1.2,0,0,1-.98-.415,1.432,1.432,0,0,1-.327-.918,2.709,2.709,0,0,1,.415-1.379,3.14,3.14,0,0,1,1.046-1.1,2.418,2.418,0,0,1,1.307-.392,1.085,1.085,0,0,1,.709.2.588.588,0,0,1,.232.461,1.085,1.085,0,0,1-.3.719,2.739,2.739,0,0,1-1.157.722A6.409,6.409,0,0,1,320.744,430.793Zm.033-.222a3.826,3.826,0,0,0,1.092-.261,2.2,2.2,0,0,0,.833-.595,1.072,1.072,0,0,0,.278-.654.412.412,0,0,0-.121-.307.467.467,0,0,0-.327-.118,1.48,1.48,0,0,0-.98.49,2.941,2.941,0,0,0-.775,1.431Z" transform="translate(-218.323 -405.065)"/><path class="a" d="M331.858,438.46a.444.444,0,0,1,.327.134.458.458,0,0,1,0,.654.448.448,0,0,1-.327.134.458.458,0,0,1,0-.915Z" transform="translate(-226.031 -411.836)"/><path class="a" d="M342.55,428.135l.507-2.288h.154q-.033.327-.033.549a1.353,1.353,0,0,0,.4,1.01,1.412,1.412,0,0,0,1.033.389,1.111,1.111,0,0,0,.9-.363,1.262,1.262,0,0,0,.307-.84,1.141,1.141,0,0,0-.141-.562,8.526,8.526,0,0,0-1.134-1.307,3.969,3.969,0,0,1-.575-.673,1.536,1.536,0,0,1-.209-.768,1.464,1.464,0,0,1,.48-1.1,1.712,1.712,0,0,1,1.229-.458,2.238,2.238,0,0,1,.48.049,3.269,3.269,0,0,1,.51.18l.291.114a.693.693,0,0,0,.141,0,.379.379,0,0,0,.226-.069.951.951,0,0,0,.222-.291h.173l-.467,2.056h-.154c0-.18.02-.327.02-.438a1.19,1.19,0,0,0-.363-.9,1.307,1.307,0,0,0-.954-.35,1.072,1.072,0,0,0-.765.278.853.853,0,0,0-.294.654,1.088,1.088,0,0,0,.19.6,6.752,6.752,0,0,0,.863.935,4.968,4.968,0,0,1,.876,1.013,1.6,1.6,0,0,1,.2.775,1.814,1.814,0,0,1-.245.9,1.683,1.683,0,0,1-.709.677,2.157,2.157,0,0,1-1.01.239,2.462,2.462,0,0,1-.507-.049,5.869,5.869,0,0,1-.752-.245.861.861,0,0,0-.294-.069q-.268,0-.415.363Z" transform="translate(-233.537 -400.561)"/><path class="a" d="M357.71,428.409l-.588,2.039a9.005,9.005,0,0,1,.654-1.082,3.332,3.332,0,0,1,.837-.814.961.961,0,0,1,.5-.144.52.52,0,0,1,.376.144.5.5,0,0,1,.15.373,2.175,2.175,0,0,1-.1.579l-.327,1.147a6.7,6.7,0,0,1,1.4-1.935,1.134,1.134,0,0,1,.722-.307.448.448,0,0,1,.327.144.628.628,0,0,1,.134.441,2.084,2.084,0,0,1-.082.556l-.5,1.762a5.771,5.771,0,0,0-.163.654.16.16,0,0,0,.039.108.092.092,0,0,0,.072.033.356.356,0,0,0,.16-.085,2.357,2.357,0,0,0,.484-.526l.15.095a3.915,3.915,0,0,1-.4.5,2.131,2.131,0,0,1-.49.428.785.785,0,0,1-.376.114.356.356,0,0,1-.265-.108.366.366,0,0,1-.1-.268,4.112,4.112,0,0,1,.186-.873l.412-1.451q.14-.5.15-.556a1.118,1.118,0,0,0,0-.167.281.281,0,0,0-.049-.176.16.16,0,0,0-.121-.062.618.618,0,0,0-.4.2,5.883,5.883,0,0,0-1.167,1.611,9.767,9.767,0,0,0-.654,1.752h-.683l.775-2.739a2.742,2.742,0,0,0,.128-.592.278.278,0,0,0-.049-.18.154.154,0,0,0-.121-.059.589.589,0,0,0-.327.108,3.24,3.24,0,0,0-.7.755,5.982,5.982,0,0,0-.654,1.108q-.114.248-.539,1.6h-.654l.837-2.941.108-.379a.41.41,0,0,0,.033-.127.232.232,0,0,0-.092-.18.326.326,0,0,0-.232-.078,2.514,2.514,0,0,0-.327.056l-.043-.167Z" transform="translate(-242.49 -405.071)"/><path class="a" d="M377.675,424.707l-.9,3.17a2.341,2.341,0,0,0-.091.386.163.163,0,0,0,.043.118.137.137,0,0,0,.1.046.3.3,0,0,0,.163-.072,2.738,2.738,0,0,0,.52-.578l.157.1a3.193,3.193,0,0,1-.722.791.98.98,0,0,1-.588.239.425.425,0,0,1-.3-.111.366.366,0,0,1-.118-.278,2.317,2.317,0,0,1,.114-.556l.588-2.026a3.239,3.239,0,0,0,.144-.624.209.209,0,0,0-.069-.163.275.275,0,0,0-.193-.065,3.4,3.4,0,0,0-.412.049v-.176Zm-.059-1.794a.448.448,0,1,1-.327.131.438.438,0,0,1,.327-.134Z" transform="translate(-256.014 -401.368)"/><path class="a" d="M384.959,421.25l-1.546,5.383a2.842,2.842,0,0,0-.114.494.157.157,0,0,0,.042.114.141.141,0,0,0,.1.046.327.327,0,0,0,.186-.078,2.469,2.469,0,0,0,.493-.575l.134.141a3.3,3.3,0,0,1-.791.846.944.944,0,0,1-.507.173.386.386,0,0,1-.288-.118.376.376,0,0,1-.114-.271,3.184,3.184,0,0,1,.144-.654l1.226-4.249a4.357,4.357,0,0,0,.15-.6.219.219,0,0,0-.085-.18.418.418,0,0,0-.268-.069,2.342,2.342,0,0,0-.327.033V421.5Z" transform="translate(-260.47 -400.251)"/><path class="a" d="M389.954,430.793a2.789,2.789,0,0,0-.033.376.928.928,0,0,0,.284.686.948.948,0,0,0,.693.284,1.529,1.529,0,0,0,.628-.134,5.081,5.081,0,0,0,.892-.592l.095.131a3.03,3.03,0,0,1-2.046,1.062,1.2,1.2,0,0,1-.98-.415,1.431,1.431,0,0,1-.327-.918,2.709,2.709,0,0,1,.415-1.379,3.141,3.141,0,0,1,1.046-1.1,2.419,2.419,0,0,1,1.307-.392,1.085,1.085,0,0,1,.709.2.588.588,0,0,1,.232.461,1.085,1.085,0,0,1-.3.719,2.739,2.739,0,0,1-1.157.722,6.408,6.408,0,0,1-1.461.291Zm.033-.222a3.826,3.826,0,0,0,1.092-.261,2.2,2.2,0,0,0,.833-.595,1.072,1.072,0,0,0,.278-.654.412.412,0,0,0-.121-.307.467.467,0,0,0-.327-.118,1.481,1.481,0,0,0-.98.49,2.942,2.942,0,0,0-.775,1.432Z" transform="translate(-264.913 -405.065)"/><path class="a" d="M401.058,438.46a.444.444,0,0,1,.327.134.458.458,0,0,1,0,.654.448.448,0,0,1-.327.134.458.458,0,0,1,0-.915Z" transform="translate(-272.614 -411.836)"/><path class="a" d="M414.972,428.28l-.98-2.981a3.371,3.371,0,0,1-.706-.069l-.529,1.856a2.287,2.287,0,0,0-.1.611.369.369,0,0,0,.131.3,1.221,1.221,0,0,0,.543.118l-.039.167H410.91l.049-.167a1.368,1.368,0,0,0,.451-.069.575.575,0,0,0,.271-.209,2.913,2.913,0,0,0,.3-.752l1.072-3.706a2.217,2.217,0,0,0,.108-.575.448.448,0,0,0-.17-.353.713.713,0,0,0-.487-.141l.056-.167h2a2.212,2.212,0,0,1,1.448.379,1.252,1.252,0,0,1,.445,1,1.563,1.563,0,0,1-.454,1.085,2.108,2.108,0,0,1-1.245.621l.6,1.794a2.158,2.158,0,0,0,.435.86,1.118,1.118,0,0,0,.7.225l-.049.167Zm-1.611-3.308a3.807,3.807,0,0,0,.516.039,1.709,1.709,0,0,0,1.229-.431,1.425,1.425,0,0,0,.451-1.075,1.007,1.007,0,0,0-.284-.768,1.2,1.2,0,0,0-.85-.268,1.978,1.978,0,0,0-.343.036Z" transform="translate(-279.555 -400.846)"/><path class="a" d="M429.484,430.813a2.775,2.775,0,0,0-.033.376.928.928,0,0,0,.284.686.948.948,0,0,0,.693.284,1.529,1.529,0,0,0,.627-.134,5.085,5.085,0,0,0,.892-.592l.095.131A3.03,3.03,0,0,1,430,432.627a1.2,1.2,0,0,1-.98-.415,1.432,1.432,0,0,1-.327-.918,2.71,2.71,0,0,1,.4-1.369,3.14,3.14,0,0,1,1.046-1.1,2.418,2.418,0,0,1,1.307-.392,1.085,1.085,0,0,1,.709.2.588.588,0,0,1,.232.461,1.085,1.085,0,0,1-.3.719,2.739,2.739,0,0,1-1.157.722A6.411,6.411,0,0,1,429.484,430.813Zm.033-.222a3.828,3.828,0,0,0,1.092-.262,2.2,2.2,0,0,0,.833-.595,1.072,1.072,0,0,0,.278-.654.412.412,0,0,0-.121-.307.467.467,0,0,0-.327-.118,1.48,1.48,0,0,0-.98.49,2.941,2.941,0,0,0-.775,1.432Z" transform="translate(-291.523 -405.085)"/><path class="a" d="M439.112,428.41l-.327,1.043a3.831,3.831,0,0,1,.879-.811,1.523,1.523,0,0,1,.791-.232.892.892,0,0,1,.686.327,1.2,1.2,0,0,1,.284.83,3.291,3.291,0,0,1-.811,2.023,2.36,2.36,0,0,1-1.886,1.03,1.469,1.469,0,0,1-.4-.049,1.76,1.76,0,0,1-.392-.177l-.327,1.167a2.152,2.152,0,0,0-.1.448.278.278,0,0,0,.052.17.327.327,0,0,0,.17.108,1.808,1.808,0,0,0,.467.039l-.039.167H436.03l.046-.167a.98.98,0,0,0,.569-.144,1.66,1.66,0,0,0,.31-.7l1.144-3.964a2.585,2.585,0,0,0,.1-.467.252.252,0,0,0-.069-.19.3.3,0,0,0-.216-.069,2.907,2.907,0,0,0-.366.033v-.176Zm-1.056,3.618a.935.935,0,0,0,.755.327,1.013,1.013,0,0,0,.48-.131,1.8,1.8,0,0,0,.477-.389,3.133,3.133,0,0,0,.418-.595,4.5,4.5,0,0,0,.327-.794,2.943,2.943,0,0,0,.147-.905.827.827,0,0,0-.167-.552.5.5,0,0,0-.386-.193,1.307,1.307,0,0,0-.98.562,3.55,3.55,0,0,0-.7,1.307Z" transform="translate(-296.465 -405.071)"/><path class="a" d="M453.974,430.793a2.775,2.775,0,0,0-.033.376.928.928,0,0,0,.284.686.948.948,0,0,0,.693.284,1.529,1.529,0,0,0,.628-.134,5.08,5.08,0,0,0,.892-.592l.095.131a3.03,3.03,0,0,1-2.046,1.062,1.2,1.2,0,0,1-.98-.415,1.432,1.432,0,0,1-.327-.918,2.71,2.71,0,0,1,.415-1.379,3.141,3.141,0,0,1,1.046-1.1,2.418,2.418,0,0,1,1.307-.392,1.085,1.085,0,0,1,.709.2.588.588,0,0,1,.232.461,1.086,1.086,0,0,1-.3.719,2.739,2.739,0,0,1-1.157.722A6.409,6.409,0,0,1,453.974,430.793Zm.033-.222a3.826,3.826,0,0,0,1.092-.261,2.2,2.2,0,0,0,.833-.595,1.072,1.072,0,0,0,.278-.654.412.412,0,0,0-.121-.307.467.467,0,0,0-.327-.118,1.48,1.48,0,0,0-.98.49,2.941,2.941,0,0,0-.778,1.432Z" transform="translate(-308.009 -405.065)"/><path class="a" d="M468.5,428.41l-.882,3.069-.1.412a.454.454,0,0,0,0,.1.192.192,0,0,0,.046.127.118.118,0,0,0,.091.039.285.285,0,0,0,.154-.072,2.636,2.636,0,0,0,.471-.543l.154.108a2.84,2.84,0,0,1-.654.716,1.049,1.049,0,0,1-.611.245.4.4,0,0,1-.291-.1.382.382,0,0,1-.1-.284,2.315,2.315,0,0,1,.1-.585l.095-.327a4.422,4.422,0,0,1-1.088,1.082,1.327,1.327,0,0,1-.7.222.732.732,0,0,1-.569-.275,1.1,1.1,0,0,1-.239-.752,3.2,3.2,0,0,1,.431-1.52,3.735,3.735,0,0,1,1.1-1.278,1.69,1.69,0,0,1,.98-.379.719.719,0,0,1,.461.144.908.908,0,0,1,.278.48l.163-.516Zm-1.611.235a.98.98,0,0,0-.614.271,3.317,3.317,0,0,0-.82,1.141,3.232,3.232,0,0,0-.359,1.366.719.719,0,0,0,.154.487.457.457,0,0,0,.353.18q.493,0,1.072-.729a3.16,3.16,0,0,0,.775-1.987.837.837,0,0,0-.15-.556.51.51,0,0,0-.415-.173Z" transform="translate(-315.545 -405.071)"/><path class="a" d="M479.9,424.98l-.353,1.222h.709l-.075.284h-.706l-.778,2.67a2.66,2.66,0,0,0-.127.556.173.173,0,0,0,.036.118.111.111,0,0,0,.085.039.529.529,0,0,0,.3-.16,5.394,5.394,0,0,0,.484-.556l.15.114a3.216,3.216,0,0,1-.788.856.906.906,0,0,1-.51.173.445.445,0,0,1-.327-.124.428.428,0,0,1-.127-.327,3.016,3.016,0,0,1,.144-.745l.755-2.615h-.683l.046-.176a2.22,2.22,0,0,0,.827-.405,3.766,3.766,0,0,0,.739-.935Z" transform="translate(-324.629 -402.756)"/><path class="a" d="M484.868,438.46a.444.444,0,0,1,.327.134.458.458,0,0,1,0,.654.448.448,0,0,1-.327.134.458.458,0,0,1,0-.915Z" transform="translate(-329.033 -411.836)"/><path class="a" d="M202.6,422.32a33.078,33.078,0,0,0,6.02,2.386,26.559,26.559,0,0,0,3.023.628c.51.049,1.01.137,1.52.15s1.013.049,1.523.056a22.967,22.967,0,0,0,6.063-.833,33.128,33.128,0,0,0,6.02-2.386,13.332,13.332,0,0,1-5.229,4.451,15.572,15.572,0,0,1-6.863,1.585,16.579,16.579,0,0,1-3.536-.4,16.188,16.188,0,0,1-3.327-1.186A13.4,13.4,0,0,1,202.6,422.32Z" transform="translate(-139.326 -400.972)"/></svg>