<svg xmlns="http://www.w3.org/2000/svg" width="32" height="16" viewBox="0 0 21.483 12.895" class="hidden lg:block"><path fill="#000" class="index-module--signInIcon--ZNywC" d="M20.926 4.301c-1.739.118-4.221 1.837-5.477 2.4a6.95 6.95 0 01-2.555.819c-.759 0-.873-.544-.715-1.743.037-.269.393-2.66-1.434-2.555-.843.05-2.159.833-5.692 4.231L6.446 3.97A2.9 2.9 0 002.091.518L.247 1.757a.54.54 0 00-.164.744l.578.9a.534.534 0 00.742.165L3.35 2.264a.75.75 0 011.1.91l-3.3 8.247a1.073 1.073 0 001 1.474 1.062 1.062 0 00.759-.316c1.415-1.417 5.189-5.06 7.089-6.578a3.485 3.485 0 00.692 2.814 2.834 2.834 0 002.2.85 8.492 8.492 0 003.435-1.007c1.108-.5 3.324-2.1 4.647-2.21a.539.539 0 00.51-.531V4.843a.533.533 0 00-.557-.544z"></path></svg>