<svg xmlns="http://www.w3.org/2000/svg" width="22.335" height="17.102" viewBox="0 0 22.335 17.102" fill = "white"><path class="index-module--trialButtonIcon--5PVkp" d="M18.147 16.751h-3.664a.525.525 0 01-.523-.523v-1.745a.525.525 0 01.523-.523h3.664a1.394 1.394 0 001.4-1.4V4.188a1.394 1.394 0 00-1.4-1.4h-3.664a.525.525 0 01-.523-.523V.523A.525.525 0 0114.483 0h3.664a4.189 4.189 0 014.188 4.188v8.375a4.189 4.189 0 01-4.188 4.188zM16.1 7.983L8.768.654A1.049 1.049 0 006.98 1.4v4.188H1.047A1.044 1.044 0 000 6.631v4.188a1.044 1.044 0 001.047 1.047H6.98v4.188a1.049 1.049 0 001.789.742l7.331-7.33a1.056 1.056 0 000-1.483z"></path></svg>